<svg xmlns="http://www.w3.org/2000/svg" width="148.167" height="95.833" viewBox="-2.664 -12.23 148.167 95.833" enable-background="new -2.664 -12.23 148.167 95.833"><path stroke="#000" stroke-linecap="round" stroke-linejoin="round" stroke-miterlimit="10" d="M66.631 55.981c-.673.433-1.334.843-1.986 1.234-8.478 5.09-15.299 6.964-24.296 13.626 15.38-4.824 29.075-5.54 39.451-8.017 15.222-3.636 22.335-8.414 29.708-14.145 6.953-4.826 13.905-10.018 21.756-13.113 4.16-1.637 6.266-2.019 9.218-1.972 1.104 0 1.212-.03 1.212-.03.422.049.525-.319.158-.429-.369-.127-1.685-.459-2.318-.683-.422-.141-2.318-.999-3.163-1.301-2.74-1.349-4.001-1.89-4.478-2.081-2.367-.937-5.794-1.445-8.899-1.634-8.272-.511-13.326 1.679-20.809 5.553-6.899-12.558-8.323-26.625-22.965-31.007-8.084-2.43-16.303 1.767-25.262 7.776" fill="none"/><path stroke="#000" stroke-linecap="round" stroke-linejoin="round" stroke-miterlimit="10" d="M53.959 9.758c-11.123 7.46-23.386 17.714-37.944 21.549-5.794 1.54-9.114 2.271-15.015 3.349 6.113 2.525 9.85 3.86 16.489 4.176 8.745.429 19.017-.666 25.758-2.904-2.16 1.174-4.163 1.967-6.953 2.904-4.375 1.509-7.113 2.096-11.642 2.542 8.585.699 13.641.126 22.175-1.191 6.27-.954 11.642-2.763 16.907-4.97l-2.897 2.017-3.423 1.842-3.948 1.587c5.002.175 8.952-.397 14.063-1.746 1.37-.35 2.421-.635 3.266-.905 1.001-.253 2.106-1.096 1.051-.158-.418.381-.997.904-1.578 1.318-.951.681-1.845 1.191-2.11 1.397 1.531-.033 3.269.064 4.635.476.898.224 2.269 1.08 2.848 2.382.736 1.54-.423 4.334-1.688 6.288-1.051 1.477-4.263 4.302-7.321 6.27" fill="none"/><path stroke="#000" stroke-linecap="round" stroke-linejoin="round" stroke-miterlimit="10" d="M120.201 2.41c-5.057-1.826-14.643 3.684-23.859 2.096-2.529-.445-3.953-.825-6.166-1.841-.262-.095-.788-.459-2.318-1.381 2.529 5.335 9.063 9.176 15.171 8.176 5.952-.969 13.116-3.73 16.539-2.238.844.348 1.738 1.73 1.477 2.508 1.419-.81 1.949-1.969 1.999-3.636.108-1.666-1.105-3.065-2.843-3.684z" fill="none"/><path stroke="#000" stroke-linecap="round" stroke-linejoin="round" stroke-miterlimit="10" d="M115.462 11.714c-3.32-1.19-9.643 2.795-15.594 1.366-1.896-.476-2.843-.762-4.739-1.699 1.95 3.493 5.107 5.588 9.114 4.922 3.845-.619 8.691-2.731 10.798-1.46.63.398 1.159 1.096.947 1.651.948-.523 1.263-1.285 1.317-2.382.052-1.078-.738-2.001-1.843-2.398z" fill="none"/><path stroke="#000" stroke-linecap="round" stroke-linejoin="round" stroke-miterlimit="10" d="M110.247 19.209c-2.003-.699-5.744 1.683-9.324.826-1.159-.287-1.792-.508-2.843-1.017 1.418 2.507 3.265 3.588 5.688 3.191 2.317-.381 5.321-1.429 5.793-.476 0 .079.422.539.157.952 1.213-.681 1.634-1.381 1.634-2.032.054-.65-.421-1.191-1.105-1.444z" fill="none"/></svg>