<svg xmlns="http://www.w3.org/2000/svg" width="143.339" height="72.207" viewBox="0 0 143.339 72.207"><path stroke="#000" stroke-miterlimit="10" d="M102.947 32.989c-6.899-12.558-8.323-26.625-22.965-31.007-18.12-5.446-36.922 22.401-63.206 29.325-5.794 1.54-9.114 2.271-15.015 3.349 6.113 2.525 9.85 3.86 16.489 4.176 8.745.429 19.017-.666 25.758-2.904-2.16 1.174-4.163 1.967-6.953 2.904-4.375 1.509-7.113 2.096-11.642 2.542 8.585.699 13.641.126 22.175-1.191 6.27-.954 11.642-2.763 16.907-4.97l-2.897 2.017-3.423 1.842-3.948 1.587c5.002.175 8.952-.397 14.063-1.746 1.37-.35 2.421-.635 3.266-.905 1.001-.253 2.106-1.096 1.051-.158-.418.381-.997.904-1.578 1.318-.951.681-1.845 1.191-2.11 1.397 1.531-.033 3.269.064 4.635.476.898.224 2.269 1.08 2.848 2.382.736 1.54-.423 4.334-1.688 6.288-1.051 1.477-4.263 4.302-7.321 6.27-9.428 6.065-16.593 7.686-26.282 14.86 15.38-4.824 29.075-5.54 39.451-8.017 15.222-3.636 22.335-8.414 29.708-14.145 6.953-4.826 13.905-10.018 21.756-13.113 4.16-1.637 6.266-2.019 9.218-1.972 1.104 0 1.212-.03 1.212-.03.422.049.525-.319.158-.429-.369-.127-1.685-.459-2.318-.683-.422-.141-2.318-.999-3.163-1.301-2.74-1.349-4.001-1.89-4.478-2.081-2.367-.937-5.794-1.445-8.899-1.634-8.272-.511-13.326 1.679-20.809 5.553" fill="none"/><path stroke="#000" stroke-miterlimit="10" d="M88.62 1.284c1.53.922 2.056 1.286 2.318 1.381 2.213 1.016 3.637 1.396 6.166 1.841 9.216 1.588 18.802-3.922 23.859-2.096 1.738.619 2.951 2.018 2.843 3.684-.05 1.667-.58 2.826-1.999 3.636.261-.778-.633-2.16-1.477-2.508-3.423-1.492-10.587 1.269-16.539 2.238-6.108 1-12.642-2.841-15.171-8.176" fill="none"/><path stroke="#000" stroke-miterlimit="10" d="M88.62 1.284c1.53.922 2.056 1.286 2.318 1.381 2.213 1.016 3.637 1.396 6.166 1.841 9.216 1.588 18.802-3.922 23.859-2.096 1.738.619 2.951 2.018 2.843 3.684-.05 1.667-.58 2.826-1.999 3.636.261-.778-.633-2.16-1.477-2.508-3.423-1.492-10.587 1.269-16.539 2.238-6.108 1-12.642-2.841-15.171-8.176z" fill="none"/><path stroke="#000" stroke-miterlimit="10" d="M95.891 11.381c1.896.937 2.843 1.223 4.739 1.699 5.951 1.429 12.274-2.556 15.594-1.366 1.105.397 1.895 1.32 1.843 2.398-.054 1.097-.369 1.859-1.317 2.382.212-.555-.317-1.253-.947-1.651-2.107-1.271-6.953.841-10.798 1.46-4.007.666-7.164-1.429-9.114-4.922" fill="none"/><path stroke="#000" stroke-miterlimit="10" d="M95.891 11.381c1.896.937 2.843 1.223 4.739 1.699 5.951 1.429 12.274-2.556 15.594-1.366 1.105.397 1.895 1.32 1.843 2.398-.054 1.097-.369 1.859-1.317 2.382.212-.555-.317-1.253-.947-1.651-2.107-1.271-6.953.841-10.798 1.46-4.007.666-7.164-1.429-9.114-4.922z" fill="none"/><path stroke="#000" stroke-miterlimit="10" d="M98.842 19.018c1.051.509 1.684.73 2.843 1.017 3.58.857 7.321-1.525 9.324-.826.684.253 1.159.794 1.105 1.444 0 .651-.421 1.351-1.634 2.032.265-.413-.157-.873-.157-.952-.472-.953-3.476.095-5.793.476-2.423.397-4.27-.684-5.688-3.191" fill="none"/><path stroke="#000" stroke-miterlimit="10" d="M98.842 19.018c1.051.509 1.684.73 2.843 1.017 3.58.857 7.321-1.525 9.324-.826.684.253 1.159.794 1.105 1.444 0 .651-.421 1.351-1.634 2.032.265-.413-.157-.873-.157-.952-.472-.953-3.476.095-5.793.476-2.423.397-4.27-.684-5.688-3.191z" fill="none"/></svg>