<svg xmlns="http://www.w3.org/2000/svg" width="90.969" height="73.74" viewBox="0 0 90.969 73.74"><g stroke="#3B3735" stroke-width="2" stroke-linecap="round" stroke-linejoin="round" stroke-miterlimit="10" fill="none"><circle cx="23.755" cy="51.985" r="20.755"/><circle cx="23.755" cy="51.985" r="11.631"/><circle cx="23.755" cy="51.985" r="3.761"/><circle cx="66.728" cy="61.109" r="11.631"/><circle cx="66.728" cy="61.109" r="3.662"/><path d="M9.572 36.839v-6.21c0-3.84 3.113-6.953 6.953-6.953h4.11c15.687 0 28.404 12.717 28.404 28.404v9.028"/><path d="M42.398 61.109h12.699"/><path d="M40.097 64.771h14.918"/><path d="M39.916 31.23h31.515c5.595 0 10.13 4.535 10.13 10.13v17.934"/><path d="M82.271 65.047h-3.913v-5.755h3.913c1.589 0 2.878 1.288 2.878 2.878 0 1.588-1.289 2.877-2.878 2.877z"/><path d="M67.489 31.23v6.778"/><path d="M62.601 31.23v6.778"/><path d="M57.712 31.23v6.778"/><path d="M16.525 23.324l3.469-22.324h21.988c4.049 0 7.481 2.722 8.053 6.387l3.72 23.843"/><path d="M59.664 12.28h5.778v18.95h-5.778z"/><path d="M22.195 23.324l3.12-17.387h24.223"/><path d="M1 72.74h88.969"/></g></svg>