<?xml version="1.0" encoding="utf-8"?>
<!-- Generator: Adobe Illustrator 17.0.0, SVG Export Plug-In . SVG Version: 6.00 Build 0)  -->
<!DOCTYPE svg PUBLIC "-//W3C//DTD SVG 1.1//EN" "http://www.w3.org/Graphics/SVG/1.1/DTD/svg11.dtd">
<svg version="1.1" id="Layer_1" xmlns="http://www.w3.org/2000/svg" xmlns:xlink="http://www.w3.org/1999/xlink" x="0px" y="0px"
	 width="48.143px" height="38.57px" viewBox="0 0 48.143 38.57" enable-background="new 0 0 48.143 38.57" xml:space="preserve">
<g>
	<g>
		<path fill="none" stroke="#3B3735" stroke-width="2" stroke-linecap="round" stroke-linejoin="round" stroke-miterlimit="10" d="
			M47.143,37.57c-1.975-10-11.549-18.75-23.072-18.75S2.975,27.57,1,37.57H47.143z"/>
		<path fill="none" stroke="#3B3735" stroke-width="2" stroke-linecap="round" stroke-linejoin="round" stroke-miterlimit="10" d="
			M28.469,19.237C18.976,21.028,11.511,28.57,9.794,37.57h37.349C45.426,28.57,37.961,21.028,28.469,19.237z"/>
		<path fill="none" stroke="#3B3735" stroke-width="2" stroke-linecap="round" stroke-linejoin="round" stroke-miterlimit="10" d="
			M34.332,21.167c-6.601,3.18-11.468,9.403-12.811,16.403h25.623C45.799,30.57,40.932,24.346,34.332,21.167z"/>
		<path fill="none" stroke="#3B3735" stroke-width="2" stroke-linecap="round" stroke-linejoin="round" stroke-miterlimit="10" d="
			M40.191,25.176c-3.543,3.288-6.042,8.394-6.945,12.394h13.897C46.24,33.57,43.734,28.467,40.191,25.176z"/>
	</g>
	<g>
		<path fill="none" stroke="#3B3735" stroke-width="2" stroke-linecap="round" stroke-linejoin="round" stroke-miterlimit="10" d="
			M24.072,19.18c1.971,0,3.879,0.259,5.708,0.714c1.157-1.33,1.863-3.063,1.863-4.964c0-4.182-3.39-7.572-7.571-7.572
			c-4.182,0-7.572,3.39-7.572,7.572c0,1.901,0.706,3.634,1.863,4.964C20.192,19.439,22.1,19.18,24.072,19.18z"/>
		
			<line fill="none" stroke="#3B3735" stroke-width="2" stroke-linecap="round" stroke-linejoin="round" stroke-miterlimit="10" x1="23.733" y1="2.57" x2="23.733" y2="1.57"/>
		
			<line fill="none" stroke="#3B3735" stroke-width="2" stroke-linecap="round" stroke-linejoin="round" stroke-miterlimit="10" x1="18.829" y1="3.752" x2="17.634" y2="1"/>
		
			<line fill="none" stroke="#3B3735" stroke-width="2" stroke-linecap="round" stroke-linejoin="round" stroke-miterlimit="10" x1="14.812" y1="6.489" x2="13.891" y2="5.629"/>
		
			<line fill="none" stroke="#3B3735" stroke-width="2" stroke-linecap="round" stroke-linejoin="round" stroke-miterlimit="10" x1="12.054" y1="10.501" x2="9.227" y2="9.495"/>
		
			<line fill="none" stroke="#3B3735" stroke-width="2" stroke-linecap="round" stroke-linejoin="round" stroke-miterlimit="10" x1="11.213" y1="15.312" x2="9.71" y2="15.413"/>
		
			<line fill="none" stroke="#3B3735" stroke-width="2" stroke-linecap="round" stroke-linejoin="round" stroke-miterlimit="10" x1="28.457" y1="3.752" x2="29.652" y2="1"/>
		
			<line fill="none" stroke="#3B3735" stroke-width="2" stroke-linecap="round" stroke-linejoin="round" stroke-miterlimit="10" x1="32.474" y1="6.489" x2="33.395" y2="5.629"/>
		
			<line fill="none" stroke="#3B3735" stroke-width="2" stroke-linecap="round" stroke-linejoin="round" stroke-miterlimit="10" x1="35.232" y1="10.501" x2="38.059" y2="9.495"/>
		
			<line fill="none" stroke="#3B3735" stroke-width="2" stroke-linecap="round" stroke-linejoin="round" stroke-miterlimit="10" x1="36.073" y1="15.312" x2="37.576" y2="15.413"/>
	</g>
</g>
</svg>
