<svg xmlns="http://www.w3.org/2000/svg" width="680" height="600" viewBox="0 0 680 600"><g stroke="#3B3735" stroke-width="2" stroke-linecap="round" stroke-linejoin="round" stroke-miterlimit="10" fill="none"><path d="M434.505 232.36h12.659c.499 0 .904-.405.904-.904v-24.943c0-.24-.095-.47-.265-.639l-4.895-4.895c-.17-.17-.265-.4-.265-.639v-6.859c0-.499-.405-.904-.904-.904h-12.658c-.499 0-.904.405-.904.904v6.859c0 .24-.095.47-.265.639l-4.895 4.895c-.17.17-.265.4-.265.639v24.943c0 .499.405.904.904.904h10.849z"/><path d="M425.91 192.36h19"/><path d="M421.254 198.137l4.812 4.686"/><path d="M449.565 198.137l-4.812 4.686"/></g><g stroke="#3B3735" stroke-width="2" stroke-linecap="round" stroke-linejoin="round" stroke-miterlimit="10" fill="none"><path d="M233.491 209.378c1.054-9.363 4.781-19.797 9.216-19.797 4.429 0 8.111 10.075 9.171 19.419"/><path d="M230.45 208.435s12.459 2.631 11.459 15.724v10.22c.001.001-14.313 2.67-11.459-25.944z"/><path d="M241.372 217.398s6.594-7.56 13.185-9.457c0 0 5.055 26.996-12.29 26.439"/></g><g stroke="#3B3735" stroke-width="2" stroke-linecap="round" stroke-linejoin="round" stroke-miterlimit="10" fill="none"><path d="M334.787 232.958c1.065 2.782 4.623 2.782 5.688 0 3.065-8.008 7.438-20.937 6.887-28.255-.84-11.14-9.731-9.283-9.731-9.283s-8.891-1.857-9.731 9.283c-.551 7.319 3.822 20.247 6.887 28.255z"/><path d="M346.91 204.36h-7"/><path d="M328.91 212.36h5"/><path d="M331.91 223.36h5"/><path d="M346.91 209.36h-4"/><path d="M342.91 190.61l-3.995 3.64c-.693.631-1.776.539-2.352-.199l-4.653-5.963"/></g><g stroke="#3B3735" stroke-width="2" stroke-linecap="round" stroke-linejoin="round" stroke-miterlimit="10" fill="none"><path d="M144.41 101.675l-15.894 9.836-7.286 18.674"/><path d="M124.91 121.36v25h19"/><path d="M144.41 101.675l15.893 9.836 7.286 18.674"/><path d="M163.91 121.36v25h-19"/><path d="M134.41 133.86h20v12.5h-20z"/><path d="M134.41 133.86l20 12.5"/><path d="M134.41 146.36l20-12.5"/><path d="M136.91 117.36h14.5v7.315h-14.5z"/></g><g stroke="#3B3735" stroke-width="2" stroke-linecap="round" stroke-linejoin="round" stroke-miterlimit="10" fill="none"><path d="M148.783 197.78c0 2.684-2.176 4.86-4.86 4.86s-4.86-2.176-4.86-4.86 4.86-9.416 4.86-9.416 4.86 6.732 4.86 9.416z"/><path d="M134.051 217.52v3.645c0 4.529 4.294 8.201 9.592 8.201 0 0 2.843-9.72-9.592-11.846z"/><path d="M153.795 217.52v3.645c0 4.529-4.294 8.201-9.592 8.201 0 0-2.842-9.72 9.592-11.846z"/><path d="M134.051 208.104v3.645c0 4.529 4.294 8.201 9.592 8.201 0 0 2.843-9.72-9.592-11.846z"/><path d="M153.795 208.104v3.645c0 4.529-4.294 8.201-9.592 8.201 0 0-2.842-9.72 9.592-11.846z"/><path d="M134.051 198.751v3.645c0 4.529 4.294 8.201 9.592 8.201 0 0 2.843-9.72-9.592-11.846z"/><path d="M153.795 198.751v3.645c0 4.529-4.294 8.201-9.592 8.201 0 0-2.842-9.72 9.592-11.846z"/><path d="M143.91 229.36v6"/></g><g stroke="#3B3735" stroke-width="2" stroke-linecap="round" stroke-linejoin="round" stroke-miterlimit="10" fill="none"><path d="M135.792 402.652h-7.587v-24.931l3.671-4.63 3.916 4.63z"/><path d="M148.538 402.652h-7.587v-24.931l3.672-4.63 3.915 4.63z"/><path d="M161.284 402.652h-7.587v-24.931l3.672-4.63 3.915 4.63z"/><path d="M135.792 393.234h5.159v4.211h-5.159z"/><path d="M148.538 393.234h5.159v4.211h-5.159z"/><path d="M135.792 382.309h5.159v4.211h-5.159z"/><path d="M123.046 393.234h5.159v4.211h-5.159z"/><path d="M123.046 382.309h5.159v4.211h-5.159z"/><path d="M148.538 382.309h5.159v4.211h-5.159z"/><path d="M161.284 393.234h5.159v4.211h-5.159z"/><path d="M161.284 382.309h5.159v4.211h-5.159z"/></g><g stroke="#3B3735" stroke-width="2" stroke-linecap="round" stroke-linejoin="round" stroke-miterlimit="10" fill="none"><path d="M522.144 213.36h-10.399s-.005 12 6.773 15h7.252c6.777-3 6.773-15 6.773-15h-10.399z"/><path d="M522.144 213.36h8.19c-.973-4-4.228-10.889-8.103-10.889s-7.13 6.889-8.103 10.889h8.016z"/><path d="M508.91 213.36h26"/><path d="M543.888 213.36h-10.399s-.005 12 6.773 15h7.252c6.777-3 6.773-15 6.773-15h-10.399z"/><path d="M543.888 213.36h8.19c-.973-4-4.228-10.889-8.103-10.889s-7.13 6.889-8.103 10.889h8.016z"/><path d="M530.91 213.36h26"/></g><path stroke="#3B3735" stroke-width="2" stroke-linecap="round" stroke-linejoin="round" stroke-miterlimit="10" d="M154.272 282.152c.792.887 1.475 1.874 2.028 2.939" fill="none"/><path stroke="#3B3735" stroke-width="2" stroke-linecap="round" stroke-linejoin="round" stroke-miterlimit="10" d="M135.227 280.105c2.351-1.727 5.235-2.745 8.352-2.745 3.146 0 6.054 1.036 8.417 2.793" fill="none"/><path stroke="#3B3735" stroke-width="2" stroke-linecap="round" stroke-linejoin="round" stroke-miterlimit="10" d="M130.921 285.141c.677-1.302 1.54-2.487 2.554-3.518" fill="none"/><path stroke="#3B3735" stroke-width="2" stroke-linecap="round" stroke-linejoin="round" stroke-miterlimit="10" d="M132.909 311.764c-2.266-2.497-3.656-5.865-3.656-9.569v-10.148c0-.869.072-1.721.209-2.549" fill="none"/><path stroke="#3B3735" stroke-width="2" stroke-linecap="round" stroke-linejoin="round" stroke-miterlimit="10" d="M150.91 314.443c-1.907 1.082-4.094 1.698-6.419 1.698h-1.822c-2.368 0-4.592-.638-6.523-1.757" fill="none"/><path stroke="#3B3735" stroke-width="2" stroke-linecap="round" stroke-linejoin="round" stroke-miterlimit="10" d="M157.768 289.988c.089.673.136 1.36.136 2.059v10.148c0 3.691-1.379 7.047-3.631 9.542" fill="none"/><path stroke="#3B3735" stroke-width="2" stroke-linecap="round" stroke-linejoin="round" stroke-miterlimit="10" d="M147.997 304.36c.352 0 .682-.18.863-.482 2.346-3.917 3.883-10.701 3.883-13.77 0-4.971-4.029-9.083-9-9.083s-9 4.154-9 9.125c0 3.069 1.538 9.814 3.883 13.728.181.302.511.482.863.482h8.508z" fill="none"/><g stroke="#3B3735" stroke-width="2" stroke-linecap="round" stroke-linejoin="round" stroke-miterlimit="10" fill="none"><path d="M141.91 304.36v-2"/><path d="M145.91 304.36v-2"/></g><g stroke="#3B3735" stroke-width="2" stroke-linecap="round" stroke-linejoin="round" stroke-miterlimit="10" fill="none"><path d="M135.748 285.455s-3.006-1.761-8.672 1.072c0 0 1.225 4.123 7.392 4.623"/><path d="M151.786 285.768s3.291-2.074 8.957.759c0 0-1.667 4.167-7.833 4.667"/></g><path stroke="#3B3735" stroke-width="2" stroke-linecap="round" stroke-linejoin="round" stroke-miterlimit="10" d="M139.073 282.376s-4.33-2.579-5.788-3.391c0 0-.703 3.19 2.464 6.47" fill="none"/><path stroke="#3B3735" stroke-width="2" stroke-linecap="round" stroke-linejoin="round" stroke-miterlimit="10" d="M148.413 282.376s4.33-2.579 5.788-3.391c0 0 .703 3.19-2.464 6.47" fill="none"/><g fill="#3B3735"><circle cx="139.852" cy="291.692" r="1.161"/><circle cx="147.203" cy="291.692" r="1.161"/></g><path stroke="#3B3735" stroke-width="2" stroke-linecap="round" stroke-linejoin="round" stroke-miterlimit="10" d="M136.145 310.36v10.382c0 .894-.724 1.618-1.618 1.618-.894 0-1.618-.724-1.618-1.618v-14.382" fill="none"/><path stroke="#3B3735" stroke-width="2" stroke-linecap="round" stroke-linejoin="round" stroke-miterlimit="10" d="M154.145 306.36v14.382c0 .894-.724 1.618-1.618 1.618-.894 0-1.618-.724-1.618-1.618v-10.382" fill="none"/><path stroke="#3B3735" stroke-width="2" stroke-linecap="round" stroke-linejoin="round" stroke-miterlimit="10" d="M352.461 293.85c0 6.944-5.768 8.288-12.884 8.288-7.116 0-12.884-1.344-12.884-8.288s5.768-12.667 12.884-12.667c7.115 0 12.884 5.723 12.884 12.667z" fill="none"/><path stroke="#3B3735" stroke-width="2" stroke-linecap="round" stroke-linejoin="round" stroke-miterlimit="10" d="M334.609 282.151s-4.16-6.595-9.701 3.355c0 0-3.35 5.432 2.223 4.941" fill="none"/><path stroke="#3B3735" stroke-width="2" stroke-linecap="round" stroke-linejoin="round" stroke-miterlimit="10" d="M344.544 282.151s4.16-6.595 9.701 3.355c0 0 3.35 5.432-2.223 4.941" fill="none"/><path stroke="#3B3735" stroke-width="2" stroke-linecap="round" stroke-linejoin="round" stroke-miterlimit="10" d="M347.398 294.739c0 3.038-3.522 4.27-7.867 4.27-4.345 0-7.867-1.232-7.867-4.27s3.522-6.116 7.867-6.116c4.345-.001 7.867 3.078 7.867 6.116z" fill="none"/><ellipse fill="#3B3735" stroke="#3B3735" stroke-miterlimit="10" cx="336.313" cy="294.239" rx=".763" ry="2.154"/><ellipse fill="#3B3735" stroke="#3B3735" stroke-miterlimit="10" cx="342.75" cy="294.239" rx=".763" ry="2.154"/><g fill="#3B3735"><circle cx="333.401" cy="287.154" r="1.161"/><circle cx="345.752" cy="287.154" r="1.161"/></g><ellipse fill="#3B3735" stroke="#3B3735" stroke-miterlimit="10" cx="342.75" cy="294.239" rx=".763" ry="2.154"/><path stroke="#3B3735" stroke-width="2" stroke-linecap="round" stroke-linejoin="round" stroke-miterlimit="10" d="M328.987 314.964c-3.117-2.868-5.077-6.977-5.077-11.521v-3.799c0-3.475 1.147-6.696 3.081-9.301" fill="none"/><path stroke="#3B3735" stroke-width="2" stroke-linecap="round" stroke-linejoin="round" stroke-miterlimit="10" d="M346.914 317.273c-2.192 1.171-4.691 1.836-7.338 1.836-2.645 0-5.142-.664-7.333-1.834" fill="none"/><path stroke="#3B3735" stroke-width="2" stroke-linecap="round" stroke-linejoin="round" stroke-miterlimit="10" d="M352.162 290.343c1.934 2.606 3.081 5.826 3.081 9.301v3.799c0 4.571-1.984 8.7-5.133 11.571" fill="none"/><path stroke="#3B3735" stroke-width="2" stroke-linecap="round" stroke-linejoin="round" stroke-miterlimit="10" d="M332.149 311.61v9.382000000000001c0 .894-.724 1.618-1.618 1.618-.894 0-1.618-.724-1.618-1.618v-10.382000000000001" fill="none"/><path stroke="#3B3735" stroke-width="2" stroke-linecap="round" stroke-linejoin="round" stroke-miterlimit="10" d="M350.149 310.61v10.382c0 .894-.724 1.618-1.618 1.618-.894 0-1.618-.724-1.618-1.618v-9.382" fill="none"/><path stroke="#3B3735" stroke-width="2" stroke-linecap="round" stroke-linejoin="round" stroke-miterlimit="10" d="M253.172 315.058c3.632-1.391 6.212-4.91 6.212-9.031 0-.277-.019-.549-.041-.819 3.402-1.497 5.78-4.892 5.78-8.847 0-3.955-2.378-7.35-5.78-8.847.023-.271.041-.543.041-.819 0-5.339-4.328-9.667-9.667-9.667-2.847 0-5.398 1.238-7.167 3.196-1.769-1.958-4.32-3.196-7.167-3.196-5.339 0-9.667 4.328-9.667 9.667 0 .277.019.549.041.819-3.402 1.497-5.78 4.892-5.78 8.847s2.378 7.351 5.78 8.847c-.023.271-.041.543-.041.819 0 4.087 2.537 7.582 6.122 8.996m3.546.67c2.847 0 5.398-1.238 7.167-3.196 1.769 1.958 4.32 3.196 7.167 3.196" fill="none"/><path stroke="#3B3735" stroke-width="2" stroke-linecap="round" stroke-linejoin="round" stroke-miterlimit="10" d="M248.576 289.936c0 3.328-2.698 10.266-6.026 10.266s-6.026-6.938-6.026-10.266 2.698-6.026 6.026-6.026 6.026 2.698 6.026 6.026z" fill="none"/><path stroke="#3B3735" stroke-width="2" stroke-linecap="round" stroke-linejoin="round" stroke-miterlimit="10" fill="none" d="M235.743 282.693l2.742 2.804"/><path stroke="#3B3735" stroke-width="2" stroke-linecap="round" stroke-linejoin="round" stroke-miterlimit="10" fill="none" d="M249.358 282.693l-2.742 2.804"/><g fill="#3B3735"><circle cx="240.243" cy="291.146" r=".964"/><circle cx="244.831" cy="291.146" r=".964"/></g><path stroke="#3B3735" stroke-width="2" stroke-linecap="round" stroke-linejoin="round" stroke-miterlimit="10" d="M235.168 311.61v9.382000000000001c0 .894-.724 1.618-1.618 1.618-.894 0-1.618-.724-1.618-1.618v-10.382000000000001" fill="none"/><path stroke="#3B3735" stroke-width="2" stroke-linecap="round" stroke-linejoin="round" stroke-miterlimit="10" d="M253.168 310.61v10.382c0 .894-.724 1.618-1.618 1.618-.894 0-1.618-.724-1.618-1.618v-9.382" fill="none"/><path stroke="#3B3735" stroke-width="2" stroke-linecap="round" stroke-linejoin="round" stroke-miterlimit="10" d="M230.5 309.188s4.021 3.288 7.985 3.013" fill="none"/><path stroke="#3B3735" stroke-width="2" stroke-linecap="round" stroke-linejoin="round" stroke-miterlimit="10" d="M254.6 309.188s-4.021 3.288-7.985 3.013" fill="none"/><path stroke="#3B3735" stroke-width="2" stroke-linecap="round" stroke-linejoin="round" stroke-miterlimit="10" d="M445.889 294.61c0 5.466-4.259 6.524-9.512 6.524s-9.512-1.058-9.512-6.524 4.259-9.971 9.512-9.971 9.512 4.505 9.512 9.971z" fill="none"/><g stroke="#3B3735" stroke-width="2" stroke-linecap="round" stroke-linejoin="round" stroke-miterlimit="10" fill="none"><path d="M440.182 295.349c0 1.775-1.703 2.119-3.805 2.119-2.101 0-3.805-.344-3.805-2.119s1.703-4.144 3.805-4.144c2.101 0 3.805 2.368 3.805 4.144z"/><path d="M432.91 294.36h6"/></g><g fill="#3B3735"><circle cx="431.287" cy="291.353" r=".957"/><circle cx="441.467" cy="291.353" r=".957"/></g><path fill="#3B3735" stroke="#3B3735" stroke-width="2" stroke-linecap="round" stroke-linejoin="round" stroke-miterlimit="10" d="M434.929 284.639s-3.544-2.404-2.495-5.067c1.049-2.662 4.671-3.416 5.243 1.106 0 0 2.555-1.156 2.091 1.089-.314 1.52-2.184 2.872-2.184 2.872"/><path stroke="#3B3735" stroke-width="2" stroke-linecap="round" stroke-linejoin="round" stroke-miterlimit="10" d="M443.918 299.365c-1.739 1.397-4.465 1.768-7.541 1.768-3.076 0-5.802-.371-7.541-1.768-2.914 2.017-4.798 5.166-4.798 8.716 0 6.091 5.524 11.029 12.339 11.029s12.339-4.938 12.339-11.029c0-3.549-1.884-6.698-4.798-8.716z" fill="none"/><path stroke="#3B3735" stroke-width="2" stroke-linecap="round" stroke-linejoin="round" stroke-miterlimit="10" d="M428.66 306.86s-.046 3.826-3.898 4.913" fill="none"/><path stroke="#3B3735" stroke-width="2" stroke-linecap="round" stroke-linejoin="round" stroke-miterlimit="10" d="M444.094 306.86s.046 3.826 3.898 4.913" fill="none"/><path stroke="#3B3735" stroke-width="2" stroke-linecap="round" stroke-linejoin="round" stroke-miterlimit="10" fill="none" d="M431.91 315.36v7"/><path stroke="#3B3735" stroke-width="2" stroke-linecap="round" stroke-linejoin="round" stroke-miterlimit="10" fill="none" d="M440.91 315.36v7"/><path stroke="#3B3735" stroke-width="2" stroke-linecap="round" stroke-linejoin="round" stroke-miterlimit="10" d="M526.66 306.86s-.046 3.826-3.898 4.913" fill="none"/><path stroke="#3B3735" stroke-width="2" stroke-linecap="round" stroke-linejoin="round" stroke-miterlimit="10" d="M542.094 306.86s.046 3.826 3.898 4.913" fill="none"/><path stroke="#3B3735" stroke-width="2" stroke-linecap="round" stroke-linejoin="round" stroke-miterlimit="10" fill="none" d="M529.91 315.36v7"/><path stroke="#3B3735" stroke-width="2" stroke-linecap="round" stroke-linejoin="round" stroke-miterlimit="10" fill="none" d="M538.91 315.36v7"/><path stroke="#3B3735" stroke-width="2" stroke-linecap="round" stroke-linejoin="round" stroke-miterlimit="10" d="M537.517 294.854c1.392 2.964 4.4 4.512 4.4 4.512 2.914 2.017 4.798 5.166 4.798 8.716 0 6.091-5.524 11.029-12.339 11.029s-12.339-4.938-12.339-11.029c0-3.549 1.884-6.699 4.798-8.716 0 0 2.968-1.527 4.372-4.452" fill="none"/><path stroke="#3B3735" stroke-width="2" stroke-linecap="round" stroke-linejoin="round" stroke-miterlimit="10" d="M534.307 295.629s2.09.212 4.299-1.465c2.209-1.677-1.878-8.972-2.817-9.397-.939-.425-1.483.314-1.483.314s-.544-.738-1.483-.314-5.026 7.72-2.817 9.397c2.211 1.677 4.301 1.465 4.301 1.465z" fill="none"/><path stroke="#3B3735" stroke-width="2" stroke-linecap="round" stroke-linejoin="round" stroke-miterlimit="10" d="M539.251 291.962c1.818-.981 2.992-2.508 2.992-4.229 0-1.411-.793-2.691-2.079-3.648.06-.349.097-.706.097-1.073 0-3.316-2.578-6.004-5.759-6.004-3.181 0-5.759 2.688-5.759 6.004 0 .367.037.724.097 1.073-1.286.957-2.079 2.237-2.079 3.648 0 1.597 1.014 3.028 2.614 4.01" fill="none"/><g fill="#3B3735"><ellipse transform="matrix(.707 -.707 .707 .707 -47.584 461.433)" cx="533.206" cy="288.155" rx=".526" ry=".931"/><ellipse transform="matrix(-.707 -.707 .707 -.707 710.164 870.47)" cx="535.362" cy="288.155" rx=".526" ry=".931"/></g><g fill="#3B3735"><circle cx="532.009" cy="282.297" r="1.01"/><circle cx="536.685" cy="282.297" r="1.01"/></g><g stroke="#3B3735" stroke-width="2" stroke-linecap="round" stroke-linejoin="round" stroke-miterlimit="10" fill="none"><circle cx="227.123" cy="138.541" r="6.819"/><circle cx="227.123" cy="138.541" r="2.591"/><circle cx="252.624" cy="135.132" r="10.228"/><circle cx="252.624" cy="135.132" r="5.601"/><path d="M241.668 126.88c2.503-3.318 6.479-5.463 10.956-5.463 4.453 0 8.411 2.122 10.916 5.411"/><path d="M242.396 137.45h-8.547"/><path d="M224.122 132.425l3.273-10.814c.529-1.808 1.526-3.409 3.409-3.409h26.047v3.884"/><path d="M255.761 105.11h-13.91c-.49 0-.92.327-1.051.799l-3.419 12.293h19.471v-12.001c0-.603-.489-1.091-1.091-1.091z"/><path d="M241.721 117.428l2.448-9.068h8.741v9"/><path d="M234.487 118.202"/></g><g stroke="#3B3735" stroke-width="2" stroke-linecap="round" stroke-linejoin="round" stroke-miterlimit="10" fill="none"><path d="M354.568 470.575v17.022h-4.812v-5.384"/><path d="M340.659 454.339c7.877 1.212 13.909 8.02 13.909 16.236 0 9.073-7.355 16.428-16.428 16.428s-16.428-7.355-16.428-16.428c0-8.162 5.952-14.933 13.752-16.211"/><path d="M321.91 474.36v20h5v-11"/><path d="M340.659 459.233c5.204 1.151 9.097 5.792 9.097 11.342 0 6.415-5.201 11.616-11.616 11.616s-11.616-5.201-11.616-11.616c0-5.495 3.815-10.098 8.94-11.306"/><path d="M335.464 453.132h5.195v7.018h-5.195z"/><path d="M348.642 487.597h7.018v3.665h-7.018z"/><path d="M353.632 495.004h-2.963l-.935-3.664h4.834z"/></g><g stroke="#3B3735" stroke-width="2" stroke-linecap="round" stroke-linejoin="round" stroke-miterlimit="10" fill="none"><path d="M258.625 377.36h-38.587l12.734 16.226 21.608-5.738z"/><path d="M232.772 393.586l-5.164 1.557"/><circle cx="227.857" cy="398.673" r="3.53"/><path d="M254.38 387.848l-3.9 12.319c-.522 2.216-2.869 2.764-4.014.938l-4.727-9.129"/><path d="M258.83 377.027l2.246-7.667h4.834"/><path d="M254.057 377.36c-3.484-4.27-8.784-7-14.725-7s-11.241 2.73-14.725 7h29.45z"/></g><g stroke="#3B3735" stroke-width="2" stroke-linecap="round" stroke-linejoin="round" stroke-miterlimit="10" fill="none"><path d="M340.383 385.165l-6.94-6.94 8.106-8.106c4.477-4.477 11.736-4.477 16.213 0s4.477 11.736 0 16.213l-8.106 8.106-6.939-6.939"/><path d="M320.962 406.919c-.644-.644-.644-1.689 0-2.333l24.439-24.439 4.255-1.921-1.921 4.255-24.439 24.439c-.645.643-1.69.643-2.334-.001z"/></g><g stroke="#3B3735" stroke-width="2" stroke-linecap="round" stroke-linejoin="round" stroke-miterlimit="10" fill="none"><path d="M438.865 389.26l-19.489 19.489c-.644.644-1.689.644-2.333 0-.644-.644-.644-1.689 0-2.333l19.489-19.489"/><path d="M450.084 369.902l-14.142 14.142"/><path d="M455.741 375.559l-14.142 14.142"/><path d="M461.093 380.911l-14.378 14.378c-.391.391-1.024.391-1.414 0l-14.798-14.798c-.391-.391-.391-1.024 0-1.414l14.378-14.378"/></g><g stroke="#3B3735" stroke-width="2" stroke-linecap="round" stroke-linejoin="round" stroke-miterlimit="10" fill="none"><path d="M158.053 491.86h-23.492c-.585 0-1.045-.499-.997-1.082l2.16-26.184h21.166l2.159 26.184c.048.583-.412 1.082-.996 1.082z"/><path d="M144.745 455.573c-4.982 0-9.021 4.039-9.021 9.021h9.021v-9.021z"/><path d="M155.904 464.594c.331 0 .658.014.982.043 5.661.497 10.102 5.25 10.102 11.04 0 5.159-3.524 9.494-8.297 10.73"/><path d="M127.876 471.318c-2.471.975-5.265-.237-6.24-2.708l8.948-3.532c.975 2.471-.237 5.265-2.708 6.24z"/><path d="M134.677 477.266l-4.312-7.906h-.175c-.526.855-1.308 1.561-2.314 1.958-.654.258-1.329.354-1.989.323l7.677 19.137"/></g><g stroke="#3B3735" stroke-width="2" stroke-linecap="round" stroke-linejoin="round" stroke-miterlimit="10" fill="none"><path d="M254.287 491.913h-25.661l-4.914-32.553h35.489z"/><path d="M242.14 467.027l17.061 11.666"/><circle cx="241.46" cy="466.334" r="1.091"/></g><g stroke="#3B3735" stroke-width="2" stroke-linecap="round" stroke-linejoin="round" stroke-miterlimit="10" fill="none"><path d="M554.708 381.736c0-5.966-3.432-11.118-8.423-13.626 2.559 2.611 4.142 6.182 4.142 10.127 0 7.993-6.48 14.473-14.473 14.473-3.945 0-7.517-1.583-10.127-4.142 2.508 4.99 7.66 8.423 13.626 8.423 8.425.001 15.255-6.83 15.255-15.255z"/><path d="M527.723 391.194l-12.418 12.418c-.644.644-1.689.644-2.333 0-.644-.644-.644-1.689 0-2.333l12.418-12.418"/></g><g stroke="#3B3735" stroke-width="2" stroke-linecap="round" stroke-linejoin="round" stroke-miterlimit="10" fill="none"><path d="M344.774 108.36h-10.833v-4.667c0-.552.448-1 1-1h8.833c.552 0 1 .448 1 1v4.667z"/><path d="M330.91 108.36h17"/><path d="M344.774 109.068c0 3.843-2.425 6.958-5.417 6.958s-5.417-3.115-5.417-6.958"/><path d="M334.91 114.36h-10c-.552 0-1 .448-1 1v3c0 .552.448 1 1 1h6v13c0 .552.448 1 1 1h8"/><path d="M342.91 114.36h11c.552 0 1 .448 1 1v3c0 .552-.448 1-1 1h-6v13c0 .552-.448 1-1 1h-7"/><path d="M318.91 118.36l5-1.125-5-1.875"/><path d="M360.805 118.36l-5-1.125 5-1.875"/><path d="M337.718 133.36h3.278v13.75h-3.278z"/></g><g stroke="#3B3735" stroke-width="2" stroke-linecap="round" stroke-linejoin="round" stroke-miterlimit="10" fill="none"><path d="M452.145 468.117h-31.553c-1.444 0-2.625-1.181-2.625-2.625v-.561c0-1.444 1.181-2.625 2.625-2.625h31.553c1.444 0 2.625 1.181 2.625 2.625v.561c0 1.444-1.182 2.625-2.625 2.625z"/><path d="M419.131 487.941c-1.103-1.878-1.551-4.164-1.058-6.508l2.799-13.316"/><path d="M436.783 492.468h-11.937c-.242 0-.482-.006-.72-.018"/><path d="M419.965 487.766s-2.569 1.43-2.592 3.376c-.031 2.562 4.718 5.918 8.086-.77"/><path d="M436.783 492.468h11.937c.242 0 .482-.006.72-.018"/><path d="M453.602 487.766s2.569 1.43 2.592 3.376c.031 2.562-4.718 5.918-8.086-.77"/><path d="M454.436 487.941c1.103-1.878 1.551-4.164 1.058-6.508l-2.799-13.316"/><path d="M428.175 481.116c1.525 1.525 3.997 1.525 5.522 0 1.525-1.525 1.525-3.997 0-5.522-1.314-1.314-6.037-1.939-7.32-2.086-.168-.019-.308.121-.289.289.148 1.282.773 6.005 2.087 7.319z"/><path d="M429.483 476.99l6.229 6.229"/><path d="M437.915 474.126c-2.05 2.05-2.05 5.375 0 7.425s5.375 2.05 7.425 0c1.766-1.766 2.607-8.117 2.805-9.842.026-.226-.162-.414-.388-.388-1.725.199-8.076 1.039-9.842 2.805z"/><path d="M443.463 475.886l-7.751 7.333"/><path d="M435.91 488.36v-5"/><path d="M423.346 462.306l6.454-5.453c3.934-3.324 9.85-3.127 13.539.45l5.064 4.91"/></g><g stroke="#3B3735" stroke-width="2" stroke-linecap="round" stroke-linejoin="round" stroke-miterlimit="10" fill="none"><path d="M460.41 145.36c-1.975-10.461-11.549-18.75-23.072-18.75s-21.097 8.289-23.072 18.75h46.144z"/><path d="M441.735 127.027c-9.492 1.791-16.957 9.237-18.674 18.333h37.349c-1.718-9.096-9.182-16.542-18.675-18.333z"/><path d="M447.598 128.957c-6.601 3.18-11.468 9.285-12.811 16.403h25.623c-1.344-7.118-6.211-13.224-12.812-16.403z"/><path d="M453.458 132.966c-3.543 3.288-6.042 7.61-6.945 12.394h13.897c-.904-4.785-3.41-9.103-6.952-12.394z"/><path d="M437.338 126.61c1.971 0 3.879.259 5.708.714 1.157-1.33 1.863-3.063 1.863-4.964 0-4.182-3.39-7.572-7.571-7.572-4.182 0-7.572 3.39-7.572 7.572 0 1.901.706 3.634 1.863 4.964 1.83-.455 3.738-.714 5.709-.714z"/><path d="M436.91 110.36v-1"/><path d="M432.096 111.182l-1.195-2.752"/><path d="M428.078 113.919l-.92-.86"/><path d="M425.32 117.931l-2.826-1.006"/><path d="M424.479 122.742l-1.502.101"/><path d="M441.724 111.182l1.194-2.752"/><path d="M445.741 113.919l.92-.86"/><path d="M448.499 117.931l2.826-1.006"/><path d="M449.34 122.742l1.502.101"/></g><g stroke="#3B3735" stroke-width="2" stroke-linecap="round" stroke-linejoin="round" stroke-miterlimit="10" fill="none"><path d="M521.91 135.36v12h23v-13"/><path d="M525.91 116.36v1.304l-2.101 8.362"/><path d="M538.215 108.972c-1.29-1.091-2.957-1.747-4.805-1.747-2.843 0-5.258 1.552-6.532 3.855"/><path d="M542.075 122.137l-1.165-4.474v-2.792c0-.527-.051-1.041-.148-1.538"/><path d="M519.943 136.907l-3.856-5.001 11.668-8.999 2.828 3.667z"/><path d="M527.967 123.009l4.667-3.599"/><path d="M515.159 106.223l5-3.857 8.999 11.669-3.667 2.828z"/><path d="M529.056 114.246l3.6 4.668"/><path d="M545.843 101.438l3.856 5.001-11.668 8.999-2.828-3.667z"/><path d="M537.819 115.336l-4.667 3.599"/><path d="M550.735 131.287l-5.001 3.857-8.999-11.669 3.667-2.828z"/><path d="M536.838 123.263l-3.6-4.667"/><circle cx="533.247" cy="119.036" r="2.173"/><path d="M524.91 139.36h11"/><path d="M528.91 142.36v-3"/><path d="M524.91 143.36h7"/><path d="M533.91 133.36h7"/><path d="M536.91 130.36v3"/></g><g stroke="#3B3735" stroke-width="2" stroke-linecap="round" stroke-linejoin="round" stroke-miterlimit="10" fill="none"><path d="M512.488 472.318h44.422v10.27h-44.422z"/><path d="M512.488 482.588h44.422v10.396h-44.422z"/><path d="M512.91 477.36h3"/><path d="M512.91 487.36h3"/><path d="M556.91 477.36h-3"/><path d="M556.91 487.36h-3"/><path d="M517.585 468.735c-.356-5.963.909-12.903 3.795-13.417 2.882-.514 6.398 5.343 8.127 11.049"/><path d="M515.482 472.323c-.179-1.134-.322-2.378-.422-3.744 0 0 4.88.082 7.544 3.639"/><path d="M522.604 472.217s4.451-4.875 8.529-6.823c0 0 .985 2.545 1.473 5.723"/><path d="M551.558 472.322c.527-.439.987-.878 1.36-1.312 3.746-4.357-.163-6.916-.163-6.916s-2.559-3.909-6.916-.163c-1.94 1.668-3.994 5.096-5.676 8.385"/><path d="M543.796 467.436l1.414 1.414"/><path d="M556.424 464.266l-2.777-.129c-.481-.022-.842-.45-.783-.928l.476-3.861"/><path d="M547.428 462.838c-.856-1.326-2.346-2.203-4.041-2.203-.441 0-.86.079-1.266.19.003-.064.019-.125.019-.19 0-2.654-2.152-4.806-4.806-4.806s-4.806 2.152-4.806 4.806c0 .065.017.125.019.19-.406-.111-.825-.19-1.266-.19-1.201 0-2.299.44-3.141 1.168"/><path d="M536.91 472.36v-8"/><path d="M533.576 466.36l3.334 3 3.358-3"/></g></svg>