<?xml version="1.0" encoding="utf-8"?>
<!-- Generator: Adobe Illustrator 17.0.0, SVG Export Plug-In . SVG Version: 6.00 Build 0)  -->
<!DOCTYPE svg PUBLIC "-//W3C//DTD SVG 1.1//EN" "http://www.w3.org/Graphics/SVG/1.1/DTD/svg11.dtd">
<svg version="1.1" id="Layer_1" xmlns="http://www.w3.org/2000/svg" xmlns:xlink="http://www.w3.org/1999/xlink" x="0px" y="0px"
	 width="48.175px" height="42.765px" viewBox="0 0 48.175 42.765" enable-background="new 0 0 48.175 42.765" xml:space="preserve">
<path fill="none" stroke="#3B3735" stroke-width="2" stroke-linecap="round" stroke-linejoin="round" stroke-miterlimit="10" d="
	M27.812,3c-2.224,0-2.224-2-4.449-2c-2.226,0-2.226,2-4.453,2c-2.228,0-2.228-2-4.456-2C12.228,1,12.228,3,10,3"/>
<path fill="none" stroke="#3B3735" stroke-width="2" stroke-linecap="round" stroke-linejoin="round" stroke-miterlimit="10" d="
	M44.812,10c-2.224,0-2.224-2-4.449-2c-2.226,0-2.226,2-4.453,2c-2.228,0-2.228-2-4.456-2S29.228,10,27,10"/>
<path fill="none" stroke="#3B3735" stroke-width="0.25" stroke-linecap="round" stroke-linejoin="round" stroke-miterlimit="10" d="
	M7.09,8.765h14v15h-14V8.765z"/>
<path fill="none" stroke="#3B3735" stroke-width="0.25" stroke-linecap="round" stroke-linejoin="round" stroke-miterlimit="10" d="
	M7.09,8.765h14v6h-14V8.765z"/>
<path fill="none" stroke="#3B3735" stroke-width="0.25" stroke-linecap="round" stroke-linejoin="round" stroke-miterlimit="10" d="
	M21.09,14.765h12v5h-12V14.765z"/>
<path fill="none" stroke="#3B3735" stroke-width="0.25" stroke-linecap="round" stroke-linejoin="round" stroke-miterlimit="10" d="
	M7.09,23.765h14l6.085,18H1L7.09,23.765z"/>
<path fill="none" stroke="#3B3735" stroke-width="0.25" stroke-linecap="round" stroke-linejoin="round" stroke-miterlimit="10" d="
	M33.09,19.765h10v4h-10V19.765z"/>
<path fill="none" stroke="#3B3735" stroke-width="0.25" stroke-linecap="round" stroke-linejoin="round" stroke-miterlimit="10" d="
	M21.09,23.765v-9h12v12H22.104L21.09,23.765z"/>
<path fill="none" stroke="#3B3735" stroke-width="0.25" stroke-linecap="round" stroke-linejoin="round" stroke-miterlimit="10" d="
	M33.09,26.765l5.085,15h-11"/>
<path fill="none" stroke="#3B3735" stroke-width="0.25" stroke-linecap="round" stroke-linejoin="round" stroke-miterlimit="10" d="
	M33.09,26.765v-7h10v10h-9.012L33.09,26.765z"/>
<path fill="none" stroke="#3B3735" stroke-width="0.25" stroke-linecap="round" stroke-linejoin="round" stroke-miterlimit="10" d="
	M43.03,29.765l4.145,12h-9l-4.097-12H43.03z"/>
</svg>
