<svg xmlns="http://www.w3.org/2000/svg" width="43.735" height="47.59" viewBox="0 0 43.735 47.59"><path stroke="#3B3735" stroke-width="2" stroke-linecap="round" stroke-linejoin="round" stroke-miterlimit="10" d="M29.128 7.475c1.67 4.14 2.707 9.922 2.707 16.32 0 12.589-4.016 22.795-8.97 22.795s-8.97-10.206-8.97-22.795 4.016-22.795 8.97-22.795c.857 0 1.685.305 2.47.875" fill="none"/><path stroke="#3B3735" stroke-width="2" stroke-linecap="round" stroke-linejoin="round" stroke-miterlimit="10" d="M6.235 26.515c2.648-3.43 6.775-7.109 11.845-10.307 10.648-6.716 21.423-8.764 24.066-4.574s-3.847 13.031-14.495 19.747-21.424 8.765-24.067 4.575c-.59-.935-.725-2.102-.46-3.425" fill="none"/><ellipse transform="matrix(.846 .533 -.533 .846 16.22 -8.529)" stroke="#3B3735" stroke-width="2" stroke-linecap="round" stroke-linejoin="round" stroke-miterlimit="10" cx="22.865" cy="23.794" rx="22.795" ry="8.97" fill="none"/><circle stroke="#3B3735" stroke-width="2" stroke-linecap="round" stroke-linejoin="round" stroke-miterlimit="10" cx="27.613" cy="4.415" r="3.415" fill="none"/><circle stroke="#3B3735" stroke-width="2" stroke-linecap="round" stroke-linejoin="round" stroke-miterlimit="10" cx="22.865" cy="23.795" r="3.415" fill="none"/><circle stroke="#3B3735" stroke-width="2" stroke-linecap="round" stroke-linejoin="round" stroke-miterlimit="10" cx="4.415" cy="29.402" r="3.415" fill="none"/></svg>