<svg xmlns="http://www.w3.org/2000/svg" width="43.749" height="49.308" viewBox="0 0 43.749 49.308"><g stroke="#3B3735" stroke-width="2" stroke-linecap="round" stroke-linejoin="round" stroke-miterlimit="10" fill="none"><circle cx="21.874" cy="24.654" r="8.162"/><circle cx="21.874" cy="23.603" r="3.435"/><path d="M26.886 31.143c0-2.177-1.765-3.941-3.941-3.941h-2.472c-1.994 0-3.611 1.617-3.611 3.611"/><path d="M21.733 15.854l-.029-7"/><circle cx="21.874" cy="4.878" r="3.878"/><path d="M21.733 32.959l-.029 7"/><circle cx="21.874" cy="44.43" r="3.878"/><path d="M14.452 28.658l-6.031 3.553"/><circle cx="4.878" cy="34.765" r="3.878"/><path d="M29.153 19.912l6.001-3.603"/><circle cx="38.871" cy="14.543" r="3.878"/><path d="M29.297 28.658l6.031 3.553"/><circle cx="38.871" cy="34.765" r="3.878"/><path d="M14.596 19.912l-6.001-3.603"/><circle cx="4.878" cy="14.543" r="3.878"/></g></svg>