<?xml version="1.0" encoding="utf-8"?>
<!-- Generator: Adobe Illustrator 17.0.0, SVG Export Plug-In . SVG Version: 6.00 Build 0)  -->
<!DOCTYPE svg PUBLIC "-//W3C//DTD SVG 1.1//EN" "http://www.w3.org/Graphics/SVG/1.1/DTD/svg11.dtd">
<svg version="1.1" id="Layer_1" xmlns="http://www.w3.org/2000/svg" xmlns:xlink="http://www.w3.org/1999/xlink" x="0px" y="0px"
	 width="73.391px" height="66.07px" viewBox="0 0 73.391 66.07" enable-background="new 0 0 73.391 66.07" xml:space="preserve">
<g>
	<path fill="none" stroke="#3B3735" stroke-width="2" stroke-linecap="round" stroke-linejoin="round" stroke-miterlimit="10" d="
		M19.804,37.271c4.534-7,11.977-16.48,11.977-22.392C31.781,6.378,24.891,1,16.391,1S1,6.51,1,15.01
		c0,5.913,7.444,15.261,11.977,22.261C12.977,37.271,19.804,37.271,19.804,37.271z"/>
	<path fill="none" stroke="#3B3735" stroke-width="2" stroke-linecap="round" stroke-linejoin="round" stroke-miterlimit="10" d="
		M18.294,37.271c2.528-7,6.68-16.48,6.68-22.392C24.974,6.378,21.131,1,16.391,1S7.807,6.51,7.807,15.01
		c0,5.913,4.151,15.261,6.68,22.261H18.294z"/>
	<path fill="none" stroke="#3B3735" stroke-width="2" stroke-linecap="round" stroke-linejoin="round" stroke-miterlimit="10" d="
		M17.394,44.639h-1.552c-1.284,0-2.324-1.041-2.324-2.324v-1.849h6.2v1.849C19.718,43.598,18.678,44.639,17.394,44.639z"/>
</g>
<g>
	<path fill="none" stroke="#3B3735" stroke-width="2" stroke-linecap="round" stroke-linejoin="round" stroke-miterlimit="10" d="
		M53.384,48.998c2.157-3.331,5.699-7.841,5.699-10.654c0-4.045-3.278-6.604-7.323-6.604s-7.323,2.622-7.323,6.666
		c0,2.813,3.542,7.261,5.699,10.592C50.136,48.998,53.384,48.998,53.384,48.998z"/>
	<path fill="none" stroke="#3B3735" stroke-width="2" stroke-linecap="round" stroke-linejoin="round" stroke-miterlimit="10" d="
		M52.666,48.998c1.203-3.331,3.178-7.841,3.178-10.654c0-4.045-1.829-6.604-4.084-6.604c-2.255,0-4.084,2.622-4.084,6.666
		c0,2.813,1.975,7.261,3.178,10.592H52.666z"/>
	<path fill="none" stroke="#3B3735" stroke-width="2" stroke-linecap="round" stroke-linejoin="round" stroke-miterlimit="10" d="
		M52.238,52.504h-0.738c-0.611,0-1.106-0.495-1.106-1.106v-0.88h2.95v0.88C53.344,52.009,52.849,52.504,52.238,52.504z"/>
</g>
</svg>
