<?xml version="1.0" encoding="utf-8"?>
<!-- Generator: Adobe Illustrator 17.0.0, SVG Export Plug-In . SVG Version: 6.00 Build 0)  -->
<!DOCTYPE svg PUBLIC "-//W3C//DTD SVG 1.1//EN" "http://www.w3.org/Graphics/SVG/1.1/DTD/svg11.dtd">
<svg version="1.1" id="Layer_1" xmlns="http://www.w3.org/2000/svg" xmlns:xlink="http://www.w3.org/1999/xlink" x="0px" y="0px"
	 width="45.25px" height="40.059px" viewBox="0 0 45.25 40.059" enable-background="new 0 0 45.25 40.059" xml:space="preserve">
<path fill="none" stroke="#3B3735" stroke-width="2" stroke-linecap="round" stroke-linejoin="round" stroke-miterlimit="10" d="
	M22.198,1.096c0.235-0.128,0.619-0.128,0.854,0l19.616,10.39H2.582L22.198,1.096z"/>
<path fill="none" stroke="#3B3735" stroke-width="2" stroke-linecap="round" stroke-linejoin="round" stroke-miterlimit="10" d="
	M1.937,11.486h41.376c0.518,0,0.937,0.365,0.937,0.814v2.227c0,0.45-0.42,0.814-0.937,0.814H1.937C1.42,15.342,1,14.977,1,14.527
	V12.3C1,11.85,1.42,11.486,1.937,11.486z"/>
<path fill="none" stroke="#3B3735" stroke-width="2" stroke-linecap="round" stroke-linejoin="round" stroke-miterlimit="10" d="
	M1.937,35.203h41.376c0.518,0,0.937,0.365,0.937,0.814v2.227c0,0.45-0.42,0.814-0.937,0.814H1.937C1.42,39.059,1,38.695,1,38.245
	v-2.227C1,35.568,1.42,35.203,1.937,35.203z"/>
<g>
	<path fill="none" stroke="#3B3735" stroke-width="2" stroke-linecap="round" stroke-linejoin="round" stroke-miterlimit="10" d="
		M10.479,18.631H4.673c-0.552,0-1-0.448-1-1v-2.289h7.806v2.289C11.479,18.183,11.031,18.631,10.479,18.631z"/>
	<path fill="none" stroke="#3B3735" stroke-width="2" stroke-linecap="round" stroke-linejoin="round" stroke-miterlimit="10" d="
		M4.673,31.914h5.806c0.552,0,1,0.448,1,1v2.289H3.673v-2.289C3.673,32.362,4.12,31.914,4.673,31.914z"/>
	
		<rect x="4.851" y="18.631" fill="none" stroke="#3B3735" stroke-width="2" stroke-linecap="round" stroke-linejoin="round" stroke-miterlimit="10" width="5.597" height="13.283"/>
</g>
<g>
	<path fill="none" stroke="#3B3735" stroke-width="2" stroke-linecap="round" stroke-linejoin="round" stroke-miterlimit="10" d="
		M41.668,18.631h-5.806c-0.552,0-1-0.448-1-1v-2.289h7.806v2.289C42.668,18.183,42.221,18.631,41.668,18.631z"/>
	<path fill="none" stroke="#3B3735" stroke-width="2" stroke-linecap="round" stroke-linejoin="round" stroke-miterlimit="10" d="
		M35.862,31.914h5.806c0.552,0,1,0.448,1,1v2.289h-7.806v-2.289C34.862,32.362,35.31,31.914,35.862,31.914z"/>
	
		<rect x="36.04" y="18.631" fill="none" stroke="#3B3735" stroke-width="2" stroke-linecap="round" stroke-linejoin="round" stroke-miterlimit="10" width="5.597" height="13.283"/>
</g>
<g>
	<path fill="none" stroke="#3B3735" stroke-width="2" stroke-linecap="round" stroke-linejoin="round" stroke-miterlimit="10" d="
		M25.549,18.631h-5.806c-0.552,0-1-0.448-1-1v-2.289h7.806v2.289C26.549,18.183,26.101,18.631,25.549,18.631z"/>
	<path fill="none" stroke="#3B3735" stroke-width="2" stroke-linecap="round" stroke-linejoin="round" stroke-miterlimit="10" d="
		M19.743,31.914h5.806c0.552,0,1,0.448,1,1v2.289h-7.806v-2.289C18.743,32.362,19.19,31.914,19.743,31.914z"/>
	
		<rect x="19.921" y="18.631" fill="none" stroke="#3B3735" stroke-width="2" stroke-linecap="round" stroke-linejoin="round" stroke-miterlimit="10" width="5.597" height="13.283"/>
</g>
</svg>
