<?xml version="1.0" encoding="utf-8"?>
<!-- Generator: Adobe Illustrator 17.0.0, SVG Export Plug-In . SVG Version: 6.00 Build 0)  -->
<!DOCTYPE svg PUBLIC "-//W3C//DTD SVG 1.1//EN" "http://www.w3.org/Graphics/SVG/1.1/DTD/svg11.dtd">
<svg version="1.1" id="Layer_1" xmlns="http://www.w3.org/2000/svg" xmlns:xlink="http://www.w3.org/1999/xlink" x="0px" y="0px"
	 width="48px" height="36.628px" viewBox="0 0 48 36.628" enable-background="new 0 0 48 36.628" xml:space="preserve">
<path fill="none" stroke="#3B3735" stroke-width="2" stroke-linecap="round" stroke-linejoin="round" stroke-miterlimit="10" d="
	M13.91,35.628H5.243V13.252c0-0.552,0.448-1,1-1h6.667c0.552,0,1,0.448,1,1V35.628z"/>
<path fill="none" stroke="#3B3735" stroke-width="2" stroke-linecap="round" stroke-linejoin="round" stroke-miterlimit="10" d="
	M28.66,35.628h-8.667V2c0-0.552,0.448-1,1-1h6.667c0.552,0,1,0.448,1,1V35.628z"/>
<path fill="none" stroke="#3B3735" stroke-width="2" stroke-linecap="round" stroke-linejoin="round" stroke-miterlimit="10" d="
	M43.41,35.628h-8.667v-17.64c0-0.552,0.448-1,1-1h6.667c0.552,0,1,0.448,1,1V35.628z"/>
<path fill="none" stroke="#3B3735" stroke-width="2" stroke-linecap="round" stroke-linejoin="round" stroke-miterlimit="10" d="
	M1,35.628h46"/>
</svg>
