<svg xmlns="http://www.w3.org/2000/svg" width="39.788" height="36.711" viewBox="0 0 39.788 36.711"><g stroke="#3B3735" stroke-width="2" stroke-linecap="round" stroke-linejoin="round" stroke-miterlimit="10" fill="none"><path d="M23.995 2.007l-12.793 7.833"/><path d="M20.373 1l4.581.42-1.774 4.164"/><path d="M6.108 35.711h-4.108c-.552 0-1-.448-1-1v-9.776c0-.552.448-1 1-1h4.108c.552 0 1 .448 1 1v9.776c0 .552-.448 1-1 1z"/><path d="M16.427 35.711h-4.108c-.552 0-1-.448-1-1v-16.027c0-.552.448-1 1-1h4.108c.552 0 1 .448 1 1v16.027c0 .552-.447 1-1 1z"/><path d="M27.108 35.711h-4.108c-.552 0-1-.448-1-1v-22.473c0-.552.448-1 1-1h4.108c.552 0 1 .448 1 1v22.473c0 .552-.448 1-1 1z"/><path d="M37.788 35.711h-4.108c-.552 0-1-.448-1-1v-28.322c0-.552.448-1 1-1h4.108c.552 0 1 .448 1 1v28.322c0 .552-.447 1-1 1z"/></g></svg>