<?xml version="1.0" encoding="utf-8"?>
<!-- Generator: Adobe Illustrator 17.0.0, SVG Export Plug-In . SVG Version: 6.00 Build 0)  -->
<!DOCTYPE svg PUBLIC "-//W3C//DTD SVG 1.1//EN" "http://www.w3.org/Graphics/SVG/1.1/DTD/svg11.dtd">
<svg version="1.1" id="Layer_1" xmlns="http://www.w3.org/2000/svg" xmlns:xlink="http://www.w3.org/1999/xlink" x="0px" y="0px"
	 width="47.949px" height="39.038px" viewBox="0 0 47.949 39.038" enable-background="new 0 0 47.949 39.038" xml:space="preserve">
<ellipse fill="none" stroke="#3B3735" stroke-width="2" stroke-linecap="round" stroke-linejoin="round" stroke-miterlimit="10" cx="24.201" cy="19.519" rx="22.475" ry="18.519"/>
<path fill="none" stroke="#3B3735" stroke-width="2" stroke-linecap="round" stroke-linejoin="round" stroke-miterlimit="10" d="
	M4.085,11.261c1.854-3.06,4.703-5.636,8.201-7.442C11.304,2.135,9.483,1,7.393,1c-3.13,0-5.667,2.537-5.667,5.667
	C1.726,8.56,2.658,10.232,4.085,11.261z"/>
<path fill="none" stroke="#3B3735" stroke-width="2" stroke-linecap="round" stroke-linejoin="round" stroke-miterlimit="10" d="
	M44.253,11.261c-1.854-3.06-4.703-5.636-8.201-7.442C37.034,2.135,38.855,1,40.945,1c3.13,0,5.667,2.537,5.667,5.667
	C46.612,8.56,45.68,10.232,44.253,11.261z"/>
<g>
	
		<ellipse fill="none" stroke="#3B3735" stroke-width="2" stroke-linecap="round" stroke-linejoin="round" stroke-miterlimit="10" cx="23.946" cy="21.519" rx="8.948" ry="7.373"/>
	<ellipse fill="#3B3735" stroke="#3B3735" stroke-miterlimit="10" cx="23.946" cy="17.802" rx="2.182" ry="1"/>
	<path fill="none" stroke="#3B3735" stroke-width="2" stroke-linecap="round" stroke-linejoin="round" stroke-miterlimit="10" d="
		M29.083,21.881c0,0-2.51,2.151-5.148,0c-2.638,2.151-5.148,0-5.148,0"/>
</g>
<g>
	<circle fill="#3B3735" cx="11.985" cy="15.032" r="1.886"/>
	<circle fill="#3B3735" cx="36.052" cy="15.032" r="1.886"/>
</g>
</svg>
