<svg xmlns="http://www.w3.org/2000/svg" width="48.397" height="42" viewBox="0 0 48.397 42"><g stroke="#333" stroke-width="2" stroke-linecap="round" stroke-linejoin="round" stroke-miterlimit="10" fill="none"><path d="M10.397 36h29"/><path d="M32.397 41h12"/><path d="M31.397 31h13"/><path d="M39.699 41h-33.777c-2.718 0-4.922-2.204-4.922-4.922v-.155c0-2.719 2.204-4.923 4.922-4.923h33.776v10z"/><path d="M10.397 16h29"/><path d="M32.397 21h12"/><path d="M31.397 11h13"/><path d="M39.699 21h-33.777c-2.718 0-4.922-2.204-4.922-4.922v-.155c0-2.719 2.204-4.923 4.922-4.923h33.776v10z"/><path d="M18.397 26h25"/><path d="M36.397 31h11"/><path d="M35.397 21h12"/><path d="M43.699 31h-30.777c-2.718 0-4.922-2.204-4.922-4.922v-.155c0-2.719 2.204-4.923 4.922-4.923h30.776v10z"/><path d="M18.397 6h25"/><path d="M36.397 11h11"/><path d="M35.397 1h12"/><path d="M43.699 11h-30.777c-2.718 0-4.922-2.204-4.922-4.922v-.156c0-2.718 2.204-4.922 4.922-4.922h30.776v10z"/></g></svg>