<svg xmlns="http://www.w3.org/2000/svg" width="41.498" height="44.03" viewBox="0 0 41.498 44.03"><g stroke="#3B3735" stroke-width="2" stroke-linecap="round" stroke-linejoin="round" stroke-miterlimit="10" fill="none"><path d="M19.122 10.242h-4v14.36l3.476-3.36h.127l3.397 3.36v-14.36h-4"/><path d="M9.122 5.242h28"/><path d="M40.498 1h-21.966"/><path d="M18.699 1h-13.056c-2.564 0-4.643 2.079-4.643 4.643v.146c0 2.564 2.079 4.643 4.643 4.643h31.855v-8.765"/><path d="M5.643 10.431h33.112c.521 0 .943.422.943.943v30.713c0 .521-.422.943-.943.943h-31.375c-3.523 0-6.38-2.856-6.38-6.38v-30.861"/><path d="M8.122 41.242v-31"/></g></svg>