<svg xmlns="http://www.w3.org/2000/svg" width="49.5" height="38.187" viewBox="0 0 49.5 38.187"><g stroke="#3B3735" stroke-width="2" stroke-linecap="round" stroke-linejoin="round" stroke-miterlimit="10" fill="none"><path d="M45.079 6.65h2.421c.552 0 1 .448 1 1v28.537c0 .552-.448 1-1 1h-45.5c-.552 0-1-.448-1-1v-28.537c0-.552.448-1 1-1h2.08"/><path d="M24.379 35.962c-8.328-8.125-20.208-1-20.208-1v-28s12.041-8.01 20.251 0l-.043 29z"/><path d="M24.693 6.962l-.093 29"/><path d="M34.632 32.072c5.659.055 10.538 2.889 10.538 2.889v-28s-1.561-1.012-3.912-1.957"/><path d="M24.787 7.067l16.383-6.067v28.165l-16.877 6.797z"/><path d="M8.413 11.983s7.5-3.536 12.167-.786"/><path d="M8.413 16.983s7.5-3.536 12.167-.786"/><path d="M8.413 21.983s7.5-3.536 12.167-.786"/><path d="M8.413 26.983s7.5-3.536 12.167-.786"/><path d="M28.58 11.066l8-2.734"/></g></svg>