<svg xmlns="http://www.w3.org/2000/svg" width="43.616" height="47.917" viewBox="0 0 43.616 47.917"><g stroke="#3B3735" stroke-width="2" stroke-linecap="round" stroke-linejoin="round" stroke-miterlimit="10" fill="none"><path d="M18.486 46.917l-3.282-7.111-7.354 1.84c-.558.14-1.119-.22-1.225-.785l-2.217-11.768-3.137-3.337c-.367-.39-.361-.999.012-1.383l5.537-5.686c.001 0-3.395-17.687 18.54-17.687s20.247 21.628 9.901 31.974l2.188 13.943h-18.963z"/><path d="M33.836 18.327c0-.567-.058-1.12-.164-1.656l2.176-1.074-1.962-3.977-2.215 1.077c-1.093-1.242-2.215-2.16-4.215-2.602v-2.538h-4v2.539c-2 .442-3.276 1.36-4.369 2.602l-2.276-1.077-2.008 3.977 2.153 1.074c-.105.536-.175 1.089-.175 1.656s.052 1.12.158 1.656l-2.179 1.074 1.96 3.977 2.368-1.077c1.093 1.242 2.368 2.16 4.368 2.602v1.999h4v-1.999c2-.442 3.122-1.36 4.215-2.602l2.199 1.077 1.97-3.977-2.172-1.074c.105-.537.168-1.09.168-1.657z"/><circle cx="25.253" cy="18.28" r="4.23"/></g></svg>