<?xml version="1.0" encoding="utf-8"?>
<!-- Generator: Adobe Illustrator 17.0.0, SVG Export Plug-In . SVG Version: 6.00 Build 0)  -->
<!DOCTYPE svg PUBLIC "-//W3C//DTD SVG 1.1//EN" "http://www.w3.org/Graphics/SVG/1.1/DTD/svg11.dtd">
<svg version="1.1" id="Layer_1" xmlns="http://www.w3.org/2000/svg" xmlns:xlink="http://www.w3.org/1999/xlink" x="0px" y="0px"
	 width="51.445px" height="26.199px" viewBox="0 0 51.445 26.199" enable-background="new 0 0 51.445 26.199" xml:space="preserve">
<g>
	<path fill="none" stroke="#3B3735" stroke-width="2" stroke-linecap="round" stroke-linejoin="round" stroke-miterlimit="10" d="
		M50.445,16.773c0,8.711-11.069,8.426-24.722,8.426S1,25.484,1,16.773S12.069,1,25.722,1S50.445,8.062,50.445,16.773z"/>
	<path fill="none" stroke="#3B3735" stroke-width="2" stroke-linecap="round" stroke-linejoin="round" stroke-miterlimit="10" d="
		M28.042,1.071c0,0-3.078,2.885-4.467,6.868c-0.298,0.854-1.532,0.709-1.644-0.189c-0.226-1.81-0.182-4.007,0.709-6.044"/>
	<path fill="none" stroke="#3B3735" stroke-width="2" stroke-linecap="round" stroke-linejoin="round" stroke-miterlimit="10" d="
		M38.995,3.467c0,0-2.056,2.102-3.399,5.109c-0.352,0.787-1.523,0.593-1.617-0.264c-0.192-1.736-0.158-3.991,0.682-6.246"/>
	<path fill="none" stroke="#3B3735" stroke-width="2" stroke-linecap="round" stroke-linejoin="round" stroke-miterlimit="10" d="
		M15.995,2.269c0,0-2.118,2.899-3.459,6.297c-0.322,0.815-1.516,0.698-1.637-0.17c-0.165-1.187-0.234-2.644-0.017-4.238"/>
</g>
</svg>
