<svg xmlns="http://www.w3.org/2000/svg" width="47.319" height="35.75" viewBox="0 0 47.319 35.75"><g stroke="#3B3735" stroke-width="2" stroke-linecap="round" stroke-linejoin="round" stroke-miterlimit="10" fill="none"><path d="M1 28h15v6.75h-15z"/><path d="M16 28h15.16v6.75h-15.16z"/><path d="M31.16 28h15.16v6.75h-15.16z"/><path d="M16 14.5h15.16v6.75h-15.16z"/><path d="M31.16 14.5h15.16v6.75h-15.16z"/><path d="M31.16 1h15.16v6.75h-15.16z"/><path d="M8.5 21.25h15v6.75h-15z"/><path d="M23.5 21.25h15.16v6.75h-15.16z"/><path d="M38.66 21.25h7.66v6.75h-7.66z"/><path d="M8.5 7.75h15v6.75h-15z"/><path d="M23.5 7.75h15.16v6.75h-15.16z"/><path d="M38.66 7.75h7.66v6.75h-7.66z"/></g></svg>