<svg xmlns="http://www.w3.org/2000/svg" width="47.047" height="37.625" viewBox="0 0 47.047 37.625"><g stroke="#3B3735" stroke-width="2" stroke-linecap="round" stroke-linejoin="round" stroke-miterlimit="10" fill="none"><circle cx="22.159" cy="19.988" r="8.587"/><path d="M28.239 26.052c-.441.441-1.062.962-1.488 1.211l4.484 4.484c.709.709 1.924.643 2.633-.066.709-.709.775-1.924.066-2.633l-4.484-4.484c-.248.427-.77 1.048-1.211 1.488z"/><path d="M1.405 7.265h44"/><circle cx="5.366" cy="4.375" r=".324"/><circle cx="8.366" cy="4.375" r=".324"/><circle cx="11.366" cy="4.375" r=".324"/><path d="M45.047 36.625h-43.047c-.552 0-1-.448-1-1v-33.625c0-.552.448-1 1-1h43.047c.552 0 1 .448 1 1v33.625c0 .552-.448 1-1 1z"/></g></svg>