<svg xmlns="http://www.w3.org/2000/svg" width="47.047" height="37.625" viewBox="0 0 47.047 37.625"><g stroke="#3B3735" stroke-width="2" stroke-linecap="round" stroke-linejoin="round" stroke-miterlimit="10" fill="none"><path d="M1.405 7.265h44"/><circle cx="5.366" cy="4.375" r=".324"/><circle cx="8.366" cy="4.375" r=".324"/><circle cx="11.366" cy="4.375" r=".324"/><path d="M45.047 36.625h-43.047c-.552 0-1-.448-1-1v-33.625c0-.552.448-1 1-1h43.047c.552 0 1 .448 1 1v33.625c0 .552-.448 1-1 1z"/><path d="M20.189 15.17l9.72 6.615c.188.128.188.448 0 .576l-9.72 6.615c-.187.127-.421-.032-.421-.288v-13.23c0-.256.234-.416.421-.288z"/></g></svg>