<svg xmlns="http://www.w3.org/2000/svg" width="47.047" height="42.03" viewBox="0 0 47.047 42.03"><path stroke="#3B3735" stroke-width="2" stroke-linecap="round" stroke-linejoin="round" stroke-miterlimit="10" d="M31.93 31.308l1.461 7.303c.157.783 1.123 1.076 1.688.511l1.507-1.507 2.828 2.828c.781.781 2.047.781 2.828 0 .781-.781.781-2.047 0-2.828l-2.828-2.828 1.507-1.507c.565-.565.272-1.531-.511-1.688l-7.303-1.461c-.7-.14-1.317.477-1.177 1.177z" fill="none"/><path stroke="#3B3735" stroke-width="2" stroke-linecap="round" stroke-linejoin="round" stroke-miterlimit="10" d="M32.993 36.625h-30.993c-.552 0-1-.448-1-1v-33.625c0-.552.448-1 1-1h43.047c.552 0 1 .448 1 1v33.625c0 .552-.448 1-1 1h-3.796" fill="none"/><path stroke="#3B3735" stroke-width="2" stroke-linecap="round" stroke-linejoin="round" stroke-miterlimit="10" fill="none" d="M1.009 7.265h44"/><circle fill="#3B3735" cx="11.34" cy="4.375" r="1.022"/><circle fill="#3B3735" cx="8.252" cy="4.375" r="1.022"/><circle fill="#3B3735" cx="5.23" cy="4.375" r="1.022"/><g stroke="#3B3735" stroke-width="2" stroke-linecap="round" stroke-linejoin="round" stroke-miterlimit="10" fill="none"><path d="M26.217 19.897c.63-.867.915-2.046.62-3.306-.296-1.262-1.168-2.251-2.306-2.6-2.289-.7-4.361 1.18-4.361 3.594 0 .867.27 1.66.722 2.29.354.495.262 1.233-.249 1.517-1.867 1.035-3.198 3.051-3.424 5.523-.037.401.248.753.614.753h11.46c.366 0 .651-.352.614-.753-.225-2.463-1.546-4.472-3.401-5.511-.506-.281-.643-1.02-.289-1.507z"/><path d="M26.868 27.67h10.383c.331 0 .589-.319.556-.683-.204-2.231-1.401-4.051-3.082-4.993-.456-.256-.58-.926-.26-1.367.57-.785.829-1.854.561-2.995-.269-1.143-1.058-2.04-2.09-2.355-2.074-.634-3.952 1.069-3.952 3.257 0 .786.245 1.504.654 2.075.321.449.237 1.117-.226 1.374-.423.235-.816.525-1.17.863"/><path d="M20.179 27.67h-10.383c-.331 0-.589-.319-.556-.683.204-2.231 1.401-4.051 3.082-4.993.456-.256.58-.926.26-1.367-.57-.785-.829-1.854-.561-2.995.269-1.143 1.058-2.04 2.09-2.355 2.074-.634 3.952 1.069 3.952 3.257 0 .786-.245 1.504-.654 2.075-.321.449-.237 1.117.226 1.374.423.235.816.525 1.17.863"/></g></svg>