<svg xmlns="http://www.w3.org/2000/svg" width="47.047" height="42.03" viewBox="0 0 47.047 42.03"><path stroke="#3B3735" stroke-width="2" stroke-linecap="round" stroke-linejoin="round" stroke-miterlimit="10" d="M31.93 31.308l1.461 7.303c.157.783 1.123 1.076 1.688.511l1.507-1.507 2.828 2.828c.781.781 2.047.781 2.828 0 .781-.781.781-2.047 0-2.828l-2.828-2.828 1.507-1.507c.565-.565.272-1.531-.511-1.688l-7.304-1.461c-.699-.14-1.316.477-1.176 1.177z" fill="none"/><path stroke="#3B3735" stroke-width="2" stroke-linecap="round" stroke-linejoin="round" stroke-miterlimit="10" d="M32.993 36.625h-30.993c-.552 0-1-.448-1-1v-33.625c0-.552.448-1 1-1h43.047c.552 0 1 .448 1 1v33.625c0 .552-.448 1-1 1h-3.796" fill="none"/><path stroke="#3B3735" stroke-width="2" stroke-linecap="round" stroke-linejoin="round" stroke-miterlimit="10" fill="none" d="M1.009 7.265h44"/><circle fill="#3B3735" cx="11.34" cy="4.375" r="1.022"/><circle fill="#3B3735" cx="8.252" cy="4.375" r="1.022"/><circle fill="#3B3735" cx="5.23" cy="4.375" r="1.022"/></svg>