<svg xmlns="http://www.w3.org/2000/svg" width="43.43" height="35.284" viewBox="0 0 43.43 35.284"><path stroke="#000" stroke-width="1.5" stroke-linecap="round" stroke-linejoin="round" stroke-miterlimit="2.613" d="M3.241.75h13.832c.718 0 1.301.582 1.301 1.301v32.483h-16.434v-32.483c0-.719.583-1.301 1.301-1.301z" fill="none"/><path stroke="#000" stroke-width="1.5" stroke-linecap="round" stroke-linejoin="round" stroke-miterlimit="2.613" d="M26.424.75h13.832c.718 0 1.301.582 1.301 1.301v32.483h-16.434v-32.483c0-.719.583-1.301 1.301-1.301z" fill="none"/><path stroke="#000" stroke-width="1.5" stroke-linecap="round" stroke-linejoin="round" stroke-miterlimit="2.613" fill="none" d="M8.023 27.454h4.268v7.079h-4.268z"/><path stroke="#000" stroke-width="1.5" stroke-linecap="round" stroke-linejoin="round" stroke-miterlimit="2.613" fill="none" d="M31.206 27.454h4.268v7.079h-4.268z"/><path stroke="#000" stroke-width="1.5" stroke-linecap="round" stroke-linejoin="round" stroke-miterlimit="2.613" fill="none" d="M18.374 24.919h6.749v9.615h-6.749z"/><path stroke="#000" stroke-width="1.5" stroke-linecap="round" stroke-linejoin="round" stroke-miterlimit="2.613" fill="none" d="M5.542 5.73v-1.548"/><path stroke="#000" stroke-width="1.5" stroke-linecap="round" stroke-linejoin="round" stroke-miterlimit="2.613" fill="none" d="M10.157 5.73v-1.548"/><path stroke="#000" stroke-width="1.5" stroke-linecap="round" stroke-linejoin="round" stroke-miterlimit="2.613" fill="none" d="M14.773 5.73v-1.548"/><path stroke="#000" stroke-width="1.5" stroke-linecap="round" stroke-linejoin="round" stroke-miterlimit="2.613" fill="none" d="M5.542 10.225v-1.548"/><path stroke="#000" stroke-width="1.5" stroke-linecap="round" stroke-linejoin="round" stroke-miterlimit="2.613" fill="none" d="M10.157 10.225v-1.548"/><path stroke="#000" stroke-width="1.5" stroke-linecap="round" stroke-linejoin="round" stroke-miterlimit="2.613" fill="none" d="M14.773 10.225v-1.548"/><path stroke="#000" stroke-width="1.5" stroke-linecap="round" stroke-linejoin="round" stroke-miterlimit="2.613" fill="none" d="M5.542 14.719v-1.548"/><path stroke="#000" stroke-width="1.5" stroke-linecap="round" stroke-linejoin="round" stroke-miterlimit="2.613" fill="none" d="M10.157 14.719v-1.548"/><path stroke="#000" stroke-width="1.5" stroke-linecap="round" stroke-linejoin="round" stroke-miterlimit="2.613" fill="none" d="M14.773 14.719v-1.548"/><path stroke="#000" stroke-width="1.5" stroke-linecap="round" stroke-linejoin="round" stroke-miterlimit="2.613" fill="none" d="M5.542 19.214v-1.548"/><path stroke="#000" stroke-width="1.5" stroke-linecap="round" stroke-linejoin="round" stroke-miterlimit="2.613" fill="none" d="M10.157 19.214v-1.548"/><path stroke="#000" stroke-width="1.5" stroke-linecap="round" stroke-linejoin="round" stroke-miterlimit="2.613" fill="none" d="M14.773 19.214v-1.548"/><path stroke="#000" stroke-width="1.5" stroke-linecap="round" stroke-linejoin="round" stroke-miterlimit="2.613" fill="none" d="M5.542 23.709v-1.548"/><path stroke="#000" stroke-width="1.5" stroke-linecap="round" stroke-linejoin="round" stroke-miterlimit="2.613" fill="none" d="M10.157 23.709v-1.548"/><path stroke="#000" stroke-width="1.5" stroke-linecap="round" stroke-linejoin="round" stroke-miterlimit="2.613" fill="none" d="M14.773 23.709v-1.548"/><path stroke="#000" stroke-width="1.5" stroke-linecap="round" stroke-linejoin="round" stroke-miterlimit="2.613" fill="none" d="M28.724 5.73v-1.548"/><path stroke="#000" stroke-width="1.5" stroke-linecap="round" stroke-linejoin="round" stroke-miterlimit="2.613" fill="none" d="M33.34 5.73v-1.548"/><path stroke="#000" stroke-width="1.5" stroke-linecap="round" stroke-linejoin="round" stroke-miterlimit="2.613" fill="none" d="M37.955 5.73v-1.548"/><path stroke="#000" stroke-width="1.5" stroke-linecap="round" stroke-linejoin="round" stroke-miterlimit="2.613" fill="none" d="M28.724 10.225v-1.548"/><path stroke="#000" stroke-width="1.5" stroke-linecap="round" stroke-linejoin="round" stroke-miterlimit="2.613" fill="none" d="M33.34 10.225v-1.548"/><path stroke="#000" stroke-width="1.5" stroke-linecap="round" stroke-linejoin="round" stroke-miterlimit="2.613" fill="none" d="M37.955 10.225v-1.548"/><path stroke="#000" stroke-width="1.5" stroke-linecap="round" stroke-linejoin="round" stroke-miterlimit="2.613" fill="none" d="M28.724 14.719v-1.548"/><path stroke="#000" stroke-width="1.5" stroke-linecap="round" stroke-linejoin="round" stroke-miterlimit="2.613" fill="none" d="M33.34 14.719v-1.548"/><path stroke="#000" stroke-width="1.5" stroke-linecap="round" stroke-linejoin="round" stroke-miterlimit="2.613" fill="none" d="M37.955 14.719v-1.548"/><path stroke="#000" stroke-width="1.5" stroke-linecap="round" stroke-linejoin="round" stroke-miterlimit="2.613" fill="none" d="M28.724 19.214v-1.548"/><path stroke="#000" stroke-width="1.5" stroke-linecap="round" stroke-linejoin="round" stroke-miterlimit="2.613" fill="none" d="M33.34 19.214v-1.548"/><path stroke="#000" stroke-width="1.5" stroke-linecap="round" stroke-linejoin="round" stroke-miterlimit="2.613" fill="none" d="M37.955 19.214v-1.548"/><path stroke="#000" stroke-width="1.5" stroke-linecap="round" stroke-linejoin="round" stroke-miterlimit="2.613" fill="none" d="M28.724 23.709v-1.548"/><path stroke="#000" stroke-width="1.5" stroke-linecap="round" stroke-linejoin="round" stroke-miterlimit="2.613" fill="none" d="M33.34 23.709v-1.548"/><path stroke="#000" stroke-width="1.5" stroke-linecap="round" stroke-linejoin="round" stroke-miterlimit="2.613" fill="none" d="M37.955 23.709v-1.548"/><path stroke="#000" stroke-width="1.5" stroke-linecap="round" stroke-linejoin="round" stroke-miterlimit="2.613" fill="none" d="M25.123 28.092h-6.565"/><path stroke="#000" stroke-width="1.5" stroke-linecap="round" stroke-linejoin="round" stroke-miterlimit="2.613" fill="none" d="M.75 34.534h41.93"/></svg>