<svg xmlns="http://www.w3.org/2000/svg" width="94.624" height="71.355" viewBox="0 0 94.624 71.355"><g stroke="#3B3735" stroke-width="2" stroke-linecap="round" stroke-linejoin="round" stroke-miterlimit="10" fill="none"><path d="M76.143 48.737h17.481"/><path d="M1 48.748h15.988"/><path d="M34.178 48.748h18.923"/><path d="M1 70.355h92.624"/><path stroke-dasharray="2,5" d="M2.683 59.605h89.258"/><circle cx="25.466" cy="44.287" r="9.533"/><circle cx="25.466" cy="44.287" r="4.364"/><circle cx="64.659" cy="38.3" r="2.602"/><path d="M34.999 44.287h47.085l4.255-3.322v-8.183h-51.34z"/><path d="M79.152 32.782c-2.227-5.844-7.867-10.003-14.493-10.003s-12.266 4.159-14.493 10.003h28.986z"/><path d="M50.338 44.287c2.344 5.599 7.872 9.533 14.321 9.533s11.977-3.935 14.321-9.533h-28.642z"/><path d="M41.372 1v23.379h-6.373v-23.379h6.373"/><path d="M41.372 1h12.08c3.986 0 7.218 2.796 7.218 6.245v15.943l-10.503 1.191h-8.795"/><path d="M34.999 32.782v-8.403"/><path d="M39.618 28.548h3.507"/><path d="M11.321 34.363v-6.052c0-3.078 2.097-5.759 5.084-6.501l18.594-4.616"/><path d="M8.634 34.754h7.299v9.533h-7.299z"/></g></svg>