<svg xmlns="http://www.w3.org/2000/svg" width="76.965" height="88.164" viewBox="0 0 76.965 88.164"><g stroke="#3B3735" stroke-width="2" stroke-linecap="round" stroke-linejoin="round" stroke-miterlimit="10" fill="none"><path d="M68.593 37.116c1.328 4.803 6.438 2.555 6.336-.204s-3.234-3.577-3.234-3.577v-3.181"/><path d="M57.564 87.164h-44.73c-3.344 0-6.054-2.711-6.054-6.054 0-3.344 2.71-6.054 6.054-6.054h44.73c3.344 0 6.054 2.71 6.054 6.054 0 3.344-2.71 6.054-6.054 6.054z"/><circle cx="13.373" cy="81.11" r="2.732"/><circle cx="57.557" cy="81.11" r="2.732"/><path d="M54.56 75.056h-38.721l2.663-6.114h33.395z"/><path d="M64.612 68.942h-55.552c-3.922 0-7.101-3.179-7.101-7.101v-10.049c0-3.922 3.179-7.101 7.101-7.101h50.414c1.488 0 2.799.982 3.217 2.41l5.138 17.547c.628 2.146-.981 4.294-3.217 4.294z"/><path d="M10.642 51.303v10.202"/><path d="M14.755 51.303v10.202"/><path d="M18.868 51.303v10.202"/><path d="M1 87.164h71.106"/><path d="M34.667 44.691v24.251"/><path d="M44.817 44.691v15.204h21.62"/><path d="M18.868 18.099l-4.113 26.592"/><path d="M31.713 44.691l-4.113-26.592"/><circle cx="23.285" cy="13.613" r="5.957"/><circle cx="71.761" cy="4.492" r="3.492"/><path d="M69.503 7.135c-.749-.64-1.233-1.58-1.233-2.643 0-.471.096-.918.265-1.328l-40.08 7.495c.499.871.788 1.878.788 2.953 0 .366-.038.722-.101 1.07l40.361-7.547z"/><path d="M71.761 7.984v17.919"/><path d="M67.477 25.903h8.487v4.251h-8.487z"/></g></svg>