<?xml version="1.0" encoding="utf-8"?>
<!-- Generator: Adobe Illustrator 17.0.0, SVG Export Plug-In . SVG Version: 6.00 Build 0)  -->
<!DOCTYPE svg PUBLIC "-//W3C//DTD SVG 1.1//EN" "http://www.w3.org/Graphics/SVG/1.1/DTD/svg11.dtd">
<svg version="1.1" id="Layer_1" xmlns="http://www.w3.org/2000/svg" xmlns:xlink="http://www.w3.org/1999/xlink" x="0px" y="0px"
	 width="48.166px" height="42.214px" viewBox="0 0 48.166 42.214" enable-background="new 0 0 48.166 42.214" xml:space="preserve">
<rect x="1" y="19.151" fill="none" stroke="#3B3735" stroke-width="2" stroke-linecap="round" stroke-linejoin="round" stroke-miterlimit="10" width="46.104" height="8.302"/>
<rect x="1" y="27.453" fill="none" stroke="#3B3735" stroke-width="2" stroke-linecap="round" stroke-linejoin="round" stroke-miterlimit="10" width="46.104" height="5.087"/>
<rect x="1" y="32.54" fill="none" stroke="#3B3735" stroke-width="2" stroke-linecap="round" stroke-linejoin="round" stroke-miterlimit="10" width="46.104" height="8.675"/>
<polyline fill="none" stroke="#3B3735" stroke-width="2" stroke-linecap="round" stroke-linejoin="round" stroke-miterlimit="10" points="
	22.017,9.056 47.166,19.151 1.062,19.151 11.97,9.19 "/>
<path fill="none" stroke="#3B3735" stroke-width="2" stroke-linecap="round" stroke-linejoin="round" stroke-miterlimit="10" d="
	M17.471,12.133c0,1.794-1.454,3.248-3.248,3.248s-3.248-1.454-3.248-3.248s1.454-3.248,3.248-3.248S17.471,10.339,17.471,12.133z"/>
<path fill="none" stroke="#3B3735" stroke-width="2" stroke-linecap="round" stroke-linejoin="round" stroke-miterlimit="10" d="
	M17.471,2.934c-1.794,0-3.248,1.454-3.248,3.248s1.454,3.248,3.248,3.248s3.248-1.454,3.248-3.248S19.265,2.934,17.471,2.934z"/>
<path fill="none" stroke="#3B3735" stroke-width="2" stroke-linecap="round" stroke-linejoin="round" stroke-miterlimit="10" d="
	M20.982,8.885c-1.794,0-3.248,1.454-3.248,3.248s1.454,3.248,3.248,3.248s3.248-1.454,3.248-3.248S22.776,8.885,20.982,8.885z"/>
<path fill="none" stroke="#3B3735" stroke-width="2" stroke-linecap="round" stroke-linejoin="round" stroke-miterlimit="10" d="
	M6.025,1c0,0,0.675,5.617,2.062,7.004s3.617,1.405,4.982,0.04s1.347-3.595-0.04-4.982S6.025,1,6.025,1z"/>
</svg>
