<svg xmlns="http://www.w3.org/2000/svg" width="35.862" height="48.292" viewBox="0 0 35.862 48.292"><g stroke="#333" stroke-width="2" stroke-linecap="round" stroke-linejoin="round" stroke-miterlimit="10" fill="none"><path d="M33.862 47.292h-31.862c-.552 0-1-.448-1-1v-44.292c0-.552.448-1 1-1h31.862c.552 0 1 .448 1 1v44.292c0 .552-.447 1-1 1z"/><path d="M28.559 42.667h-21.285c-.552 0-1-.448-1-1v-21.14c0-.552.448-1 1-1h21.285c.552 0 1 .448 1 1v21.139c0 .553-.447 1.001-1 1.001z"/><path d="M13.978 19.667v23"/><path d="M21.978 19.667v23"/><path d="M6.978 27.667h23"/><path d="M6.978 34.667h23"/><path d="M28.559 14.833h-21.285c-.552 0-1-.448-1-1v-6.166c0-.552.448-1 1-1h21.285c.552 0 1 .448 1 1v6.167c0 .552-.447.999-1 .999z"/></g></svg>