<svg xmlns="http://www.w3.org/2000/svg" width="34.625" height="46.333" viewBox="0 0 34.625 46.333"><g stroke="#3B3735" stroke-width="2" stroke-linecap="round" stroke-linejoin="round" stroke-miterlimit="10" fill="none"><path d="M32.625 45.333h-30.625c-.552 0-1-.448-1-1v-42.333c0-.552.448-1 1-1h30.625c.552 0 1 .448 1 1v42.333c0 .553-.448 1-1 1z"/><path d="M28.34 14h-22.055c-.552 0-1-.448-1-1v-5.667c0-.552.448-1 1-1h22.055c.552 0 1 .448 1 1v5.667c0 .552-.447 1-1 1z"/><path d="M10.229 23.543h-2.833c-.552 0-1-.448-1-1v-2.833c0-.552.448-1 1-1h2.833c.552 0 1 .448 1 1v2.833c0 .552-.448 1-1 1z"/><path d="M18.729 23.543h-2.833c-.552 0-1-.448-1-1v-2.833c0-.552.448-1 1-1h2.833c.552 0 1 .448 1 1v2.833c0 .552-.448 1-1 1z"/><path d="M27.229 23.543h-2.833c-.552 0-1-.448-1-1v-2.833c0-.552.448-1 1-1h2.833c.552 0 1 .448 1 1v2.833c0 .552-.448 1-1 1z"/><path d="M10.229 31.753h-2.833c-.552 0-1-.448-1-1v-2.833c0-.552.448-1 1-1h2.833c.552 0 1 .448 1 1v2.833c0 .553-.448 1-1 1z"/><path d="M18.729 31.753h-2.833c-.552 0-1-.448-1-1v-2.833c0-.552.448-1 1-1h2.833c.552 0 1 .448 1 1v2.833c0 .553-.448 1-1 1z"/><path d="M27.229 31.753h-2.833c-.552 0-1-.448-1-1v-2.833c0-.552.448-1 1-1h2.833c.552 0 1 .448 1 1v2.833c0 .553-.448 1-1 1z"/><path d="M10.229 40.128h-2.833c-.552 0-1-.448-1-1v-2.833c0-.552.448-1 1-1h2.833c.552 0 1 .448 1 1v2.833c0 .553-.448 1-1 1z"/><path d="M18.729 40.128h-2.833c-.552 0-1-.448-1-1v-2.833c0-.552.448-1 1-1h2.833c.552 0 1 .448 1 1v2.833c0 .553-.448 1-1 1z"/><path d="M27.229 40.128h-2.833c-.552 0-1-.448-1-1v-2.833c0-.552.448-1 1-1h2.833c.552 0 1 .448 1 1v2.833c0 .553-.448 1-1 1z"/></g></svg>