<svg xmlns="http://www.w3.org/2000/svg" width="45.996" height="40.226" viewBox="0 0 45.996 40.226"><g stroke="#3B3735" stroke-width="2" stroke-linecap="round" stroke-linejoin="round" stroke-miterlimit="10" fill="none"><path d="M43.996 39.226h-41.996c-.552 0-1-.448-1-1v-32.265c0-.552.448-1 1-1h41.996c.552 0 1 .448 1 1v32.265c0 .552-.448 1-1 1z"/><path d="M1.911 13h43"/><path d="M8.911 8v-7"/><path d="M37.911 8v-7"/><path d="M11.246 24.183h-2.833c-.552 0-1-.448-1-1v-2.833c0-.552.448-1 1-1h2.833c.552 0 1 .448 1 1v2.833c0 .552-.448 1-1 1z"/><path d="M19.913 24.183h-2.833c-.552 0-1-.448-1-1v-2.833c0-.552.448-1 1-1h2.833c.552 0 1 .448 1 1v2.833c0 .552-.448 1-1 1z"/><path d="M28.579 24.183h-2.833c-.552 0-1-.448-1-1v-2.833c0-.552.448-1 1-1h2.833c.552 0 1 .448 1 1v2.833c0 .552-.447 1-1 1z"/><path d="M37.246 24.183h-2.833c-.552 0-1-.448-1-1v-2.833c0-.552.448-1 1-1h2.833c.552 0 1 .448 1 1v2.833c0 .552-.448 1-1 1z"/><path d="M11.246 33.183h-2.833c-.552 0-1-.448-1-1v-2.833c0-.552.448-1 1-1h2.833c.552 0 1 .448 1 1v2.833c0 .552-.448 1-1 1z"/><path d="M19.913 33.183h-2.833c-.552 0-1-.448-1-1v-2.833c0-.552.448-1 1-1h2.833c.552 0 1 .448 1 1v2.833c0 .552-.448 1-1 1z"/><path d="M28.579 33.183h-2.833c-.552 0-1-.448-1-1v-2.833c0-.552.448-1 1-1h2.833c.552 0 1 .448 1 1v2.833c0 .552-.447 1-1 1z"/><path d="M37.246 33.183h-2.833c-.552 0-1-.448-1-1v-2.833c0-.552.448-1 1-1h2.833c.552 0 1 .448 1 1v2.833c0 .552-.448 1-1 1z"/></g></svg>