<svg xmlns="http://www.w3.org/2000/svg" width="56.474" height="42.815" viewBox="0 0 56.474 42.815"><g stroke="#3B3735" stroke-width="2" stroke-linecap="round" stroke-linejoin="round" stroke-miterlimit="10" fill="none"><path d="M11.511 8.945c-2.868 3.359-4.606 7.756-4.606 12.57 0 9.126 6.247 16.758 14.599 18.649"/><path d="M14.222 37.667c1.832.016 3.366 1.442 3.847 1.94.087.091.086.247-.003.336-.489.489-2.046 1.888-3.879 1.872-1.832-.016-3.366-1.442-3.847-1.94-.087-.091-.086-.247.003-.336.489-.489 2.047-1.888 3.879-1.872z"/><path d="M7.626 30.709c1.712.668 2.667 2.552 2.948 3.19.051.116-.003.262-.117.314-.624.285-2.56 1.041-4.272.373-1.712-.668-2.667-2.552-2.948-3.19-.051-.116.003-.262.117-.314.624-.285 2.559-1.041 4.272-.373z"/><path d="M5.402 21.567c1.46 1.134 1.86 3.216 1.955 3.91.017.126-.075.251-.198.268-.677.094-2.742.262-4.202-.872s-1.86-3.216-1.955-3.91c-.017-.126.075-.251.198-.268.677-.093 2.742-.262 4.202.872z"/><path d="M7.279 12.23c.835 1.671.312 3.725.104 4.392-.038.121-.174.193-.292.153-.65-.217-2.581-.983-3.416-2.655-.835-1.671-.312-3.725-.104-4.392.038-.121.174-.193.292-.153.65.217 2.581.983 3.416 2.655z"/><path d="M15.118 5.513c-.643 1.758-2.476 2.746-3.098 3.037-.113.053-.256-.002-.307-.118-.281-.638-1.029-2.617-.386-4.375.643-1.757 2.476-2.745 3.098-3.037.113-.053.256.002.307.118.281.638 1.029 2.617.386 4.375z"/><path d="M44.963 8.945c2.868 3.359 4.606 7.756 4.606 12.57 0 9.126-6.247 16.758-14.599 18.649"/><path d="M42.252 37.667c-1.832.016-3.366 1.442-3.847 1.94-.087.091-.086.247.003.336.489.489 2.046 1.888 3.879 1.872 1.832-.016 3.366-1.442 3.847-1.94.087-.091.086-.247-.003-.336-.489-.489-2.047-1.888-3.879-1.872z"/><path d="M48.849 30.709c-1.712.668-2.667 2.552-2.948 3.19-.051.116.003.262.117.314.624.285 2.56 1.041 4.272.373 1.712-.668 2.667-2.552 2.948-3.19.051-.116-.003-.262-.117-.314-.625-.285-2.56-1.041-4.272-.373z"/><path d="M51.072 21.567c-1.46 1.134-1.86 3.216-1.955 3.91-.017.126.075.251.198.268.677.094 2.742.262 4.202-.872s1.86-3.216 1.955-3.91c.017-.126-.075-.251-.198-.268-.677-.093-2.742-.262-4.202.872z"/><path d="M49.195 12.23c-.835 1.671-.312 3.725-.104 4.392.038.121.174.193.292.153.65-.217 2.581-.983 3.416-2.655.835-1.671.312-3.725.104-4.392-.038-.121-.174-.193-.292-.153-.649.217-2.581.983-3.416 2.655z"/><path d="M41.357 5.513c.643 1.758 2.476 2.746 3.097 3.038.113.053.256-.002.307-.118.281-.638 1.029-2.617.386-4.375-.643-1.758-2.476-2.746-3.097-3.038-.113-.053-.256.002-.307.118-.281.638-1.03 2.617-.386 4.375z"/></g></svg>