<svg xmlns="http://www.w3.org/2000/svg" width="50.056" height="43.744" viewBox="0 0 50.056 43.744"><g stroke="#231F20" stroke-width="2" stroke-linecap="round" stroke-linejoin="round" stroke-miterlimit="10" fill="none"><path d="M7.478 5.514l39.897 6.439c1.016.164 1.741 1.072 1.678 2.098l-.724 11.671c-.065 1.054-.94 1.876-1.996 1.876h-30.93c-.885 0-1.665-.582-1.917-1.431l-6.504-21.917c-.285-.96-1.031-1.715-1.988-2.011l-3.994-1.239"/><path d="M43.165 35.598h-25.444l-1.805-2.421c-.492-.66-.529-1.554-.094-2.252l2.004-3.218"/><circle cx="18.391" cy="39.171" r="3.573"/><circle cx="43.386" cy="39.171" r="3.573"/><path d="M9.471 12.485l38.741 4.41"/><path d="M11.662 19.833l36.55 2.303"/><path d="M14.095 6.564l5.611 20.812"/><path d="M21.768 7.782l4.449 19.594"/><path d="M29.318 8.981l2.537 18.395"/><path d="M36.286 10.087l.492 17.289"/><path d="M43.241 11.259l-.428 16.117"/></g></svg>