<svg xmlns="http://www.w3.org/2000/svg" width="44.106" height="38.236" viewBox="0 0 44.106 38.236"><g stroke="#000" stroke-width="2" stroke-linecap="round" stroke-linejoin="round" stroke-miterlimit="10" fill="none"><path d="M41.969 37.236h-39.969c-.552 0-1-.448-1-1v-26.487c0-.552.448-1 1-1h39.969c.552 0 1 .448 1 1v26.487c0 .552-.448 1-1 1z"/><path d="M26.823 23.25h-9.451c-.552 0-1-.448-1-1v-3.25c0-.552.448-1 1-1h9.451c.552 0 1 .448 1 1v3.25c0 .552-.448 1-1 1z"/><path d="M1.106 20.64h15"/><path d="M28.106 20.64h15"/><path d="M28.215 1h-12.461c-1.767 0-3.199 1.432-3.199 3.199v4.55h18.86v-4.55c-.001-1.767-1.433-3.199-3.2-3.199z"/></g></svg>