<svg xmlns="http://www.w3.org/2000/svg" width="33.448" height="48.314" viewBox="0 0 33.448 48.314"><g stroke="#3B3735" stroke-width="2" stroke-linecap="round" stroke-linejoin="round" stroke-miterlimit="10" fill="none"><path d="M17.574 38.996h-15.758c-.451 0-.816-.365-.816-.815v-36.365c0-.451.365-.816.816-.816h29.816c.451 0 .816.365.816.816v36.365c0 .451-.365.816-.816.816h-1.408"/><circle cx="23.4" cy="38.035" r="5.91"/><path d="M26.026 43.295v3.695c0 .235-.243.391-.457.294l-2.154-.982c-.085-.039-.183-.039-.268 0l-2.154.982c-.214.097-.457-.059-.457-.294v-3.695"/><path d="M10.663 27.963h13"/><path d="M7.663 19.963h19"/><path d="M7.663 23.963h19"/><path d="M7.663 11.963h19"/><path d="M7.663 7.963h19"/><path d="M7.663 15.963h19"/></g></svg>