<svg xmlns="http://www.w3.org/2000/svg" width="44.49" height="44.49" viewBox="0 0 44.49 44.49"><g stroke="#3B3735" stroke-width="2" stroke-linecap="round" stroke-linejoin="round" stroke-miterlimit="10" fill="none"><path d="M33.084 22.245c0 .199-.006.395-.018.591-.009.148 10.351.865 10.351.865.033-.483.074-.965.074-1.456 0-7.687-4.096-14.4-10.211-18.13l-4.789 9.285c2.776 1.962 4.593 5.188 4.593 8.845z"/><path d="M29.598 30.189l7.353 7.353c2.818-2.719 4.896-6.203 5.879-10.126 0 0-10.269-1.865-10.336-1.672-.586 1.719-1.595 3.237-2.896 4.445z"/><path d="M27.161 31.897c-1.474.757-3.143 1.187-4.915 1.187-5.986 0-10.839-4.853-10.839-10.839s4.853-10.839 10.839-10.839c1.107 0 2.174.168 3.18.478 0 0 3.424-6.041 4.711-9.354-2.442-.977-5.101-1.53-7.892-1.53-11.733 0-21.245 9.512-21.245 21.245 0 11.734 9.512 21.245 21.245 21.245 3.98 0 7.693-1.104 10.871-3.012l-5.955-8.581z"/></g></svg>