<svg xmlns="http://www.w3.org/2000/svg" width="44.951" height="44.839" viewBox="0 0 44.951 44.839"><path stroke="#3B3735" stroke-width="2" stroke-linecap="round" stroke-linejoin="round" stroke-miterlimit="10" d="M24.586 5.108v19.365h-19.366c0 10.696 8.67 19.367 19.366 19.367s19.366-8.67 19.366-19.366-8.671-19.366-19.366-19.366z" fill="none"/><path stroke="#3B3735" stroke-width="2" stroke-linecap="round" stroke-linejoin="round" stroke-miterlimit="10" d="M3.856 9.74l9.722 9.722h5.598l-12.855-12.855c-.936.945-1.761 1.994-2.465 3.133z" fill="none"/><path stroke="#3B3735" stroke-width="2" stroke-linecap="round" stroke-linejoin="round" stroke-miterlimit="10" d="M2.075 13.557l5.905 5.905h5.598l-9.722-9.722c-.731 1.182-1.337 2.454-1.781 3.817z" fill="none"/><path stroke="#3B3735" stroke-width="2" stroke-linecap="round" stroke-linejoin="round" stroke-miterlimit="10" d="M1.148 19.462h6.832l-5.905-5.905c-.597 1.831-.927 3.808-.927 5.905z" fill="none"/><path stroke="#3B3735" stroke-width="2" stroke-linecap="round" stroke-linejoin="round" stroke-miterlimit="10" d="M6.321 6.607l12.855 12.855h1.257v-4.341l-11.024-11.024c-1.128.723-2.157 1.569-3.088 2.51z" fill="none"/><path stroke="#3B3735" stroke-width="2" stroke-linecap="round" stroke-linejoin="round" stroke-miterlimit="10" d="M13.162 2.252c-1.333.487-2.592 1.101-3.753 1.845l11.024 11.024v-5.598l-7.271-7.271z" fill="none"/><path stroke="#3B3735" stroke-width="2" stroke-linecap="round" stroke-linejoin="round" stroke-miterlimit="10" d="M20.433 1.019c0-.003.018-.019-.106-.019-2.548 0-4.959.447-7.165 1.252l7.271 7.271v-8.504z" fill="none"/></svg>