<svg xmlns="http://www.w3.org/2000/svg" width="47.295" height="46.631" viewBox="0 0 47.295 46.631"><path stroke="#3B3735" stroke-width="2" stroke-linecap="round" stroke-linejoin="round" stroke-miterlimit="10" d="M38.87 37.615c-3.892 4.885-9.893 8.016-16.625 8.016-6.631 0-12.552-3.038-16.448-7.797-1.088-1.329-2.018-2.792-2.761-4.361-1.306-2.755-2.036-5.836-2.036-9.087 0-11 8.36-20.048 19.073-21.136l.255 10.433c-5.09.906-8.954 5.353-8.954 10.703 0 1.507.307 2.942.861 4.247.644 1.517 1.624 2.858 2.845 3.929 1.913 1.678 4.42 2.695 7.165 2.695 3.002 0 5.72-1.217 7.687-3.184l8.938 5.542z" fill="none"/><path stroke="#3B3735" stroke-width="2" stroke-linecap="round" stroke-linejoin="round" stroke-miterlimit="10" d="M44.071 34.22c1.426-3.023 2.224-6.4 2.224-9.964 0-12.104-9.199-22.059-20.987-23.256l-.394 11.46c5.656.95 9.965 5.87 9.965 11.796 0 1.652-.335 3.225-.94 4.656l9.788 5.308" fill="none"/><path stroke="#3B3735" stroke-width="2" stroke-linecap="round" stroke-linejoin="round" stroke-miterlimit="10" fill="none" d="M13.382 30.678l-8.828 5.469"/><path stroke="#3B3735" stroke-width="2" stroke-linecap="round" stroke-linejoin="round" stroke-miterlimit="10" fill="none" d="M22.647 20.072l-3.409 7.175"/><path stroke="#3B3735" stroke-width="2" stroke-linecap="round" stroke-linejoin="round" stroke-miterlimit="10" fill="none" d="M26.057 27.247l-3.41-7.175"/><path stroke="#3B3735" stroke-width="2" stroke-linecap="round" stroke-linejoin="round" stroke-miterlimit="10" fill="none" d="M20.089 25.455h5.117"/></svg>