<svg xmlns="http://www.w3.org/2000/svg" width="48.152" height="48.125" viewBox="0 0 48.152 48.125"><path stroke="#3B3735" stroke-width="2" stroke-linecap="round" stroke-linejoin="round" stroke-miterlimit="10" d="M2 32.424h44.152c.552 0 1 .448 1 1v2.735c0 .552-.448 1-1 1h-44.152c-.552 0-1-.448-1-1v-2.735c0-.552.448-1 1-1z" fill="none"/><path stroke="#3B3735" stroke-width="2" stroke-linecap="round" stroke-linejoin="round" stroke-miterlimit="10" d="M43.664 5.674h-39.176c-.552 0-1 .448-1 1v25.75h41.176v-25.75c0-.552-.448-1-1-1z" fill="none"/><path stroke="#3B3735" stroke-width="2" stroke-linecap="round" stroke-linejoin="round" stroke-miterlimit="10" fill="none" d="M24.576 47.159v-10"/><path stroke="#3B3735" stroke-width="2" stroke-linecap="round" stroke-linejoin="round" stroke-miterlimit="10" fill="none" d="M13.736 47.125l5.375-9.966"/><path stroke="#3B3735" stroke-width="2" stroke-linecap="round" stroke-linejoin="round" stroke-miterlimit="10" fill="none" d="M35.236 47.125l-5.375-9.966"/><path stroke="#3B3735" stroke-width="2" stroke-linecap="round" stroke-linejoin="round" stroke-miterlimit="10" fill="none" d="M11.073 25.217v-11.315"/><g stroke="#3B3735" stroke-width="2" stroke-linecap="round" stroke-linejoin="round" stroke-miterlimit="10" fill="none"><path d="M15.238 25.217v-11.315"/><path d="M15.238 13.902h4.861"/><path d="M15.238 19.316h4.861"/></g><g stroke="#3B3735" stroke-width="2" stroke-linecap="round" stroke-linejoin="round" stroke-miterlimit="10" fill="none"><path d="M23.567 25.217v-11.315"/><path d="M26.274 19.316l2.707 5.901"/><path d="M23.567 19.316h2.707c1.495 0 2.707-1.212 2.707-2.707s-1.212-2.707-2.707-2.707h-2.707"/></g><path stroke="#3B3735" stroke-width="2" stroke-linecap="round" stroke-linejoin="round" stroke-miterlimit="10" d="M32.315 22.352c0 1.592 1.29 2.882 2.882 2.882s2.882-1.29 2.882-2.882c0-2.549-2.882-2.882-2.882-2.882s-2.792-.483-2.792-2.792c0-1.542 1.25-2.792 2.792-2.792s2.792 1.25 2.792 2.792" fill="none"/></svg>