<svg xmlns="http://www.w3.org/2000/svg" width="48.152" height="48.125" viewBox="0 0 48.152 48.125"><path stroke="#3B3735" stroke-width="2" stroke-linecap="round" stroke-linejoin="round" stroke-miterlimit="10" d="M2 32.424h44.152c.552 0 1 .448 1 1v2.735c0 .552-.448 1-1 1h-44.152c-.552 0-1-.448-1-1v-2.735c0-.552.448-1 1-1z" fill="none"/><path stroke="#3B3735" stroke-width="2" stroke-linecap="round" stroke-linejoin="round" stroke-miterlimit="10" d="M43.664 5.674h-39.176c-.552 0-1 .448-1 1v25.75h41.176v-25.75c0-.552-.448-1-1-1z" fill="none"/><path stroke="#3B3735" stroke-width="2" stroke-linecap="round" stroke-linejoin="round" stroke-miterlimit="10" fill="none" d="M24.576 46.765v-10"/><path stroke="#3B3735" stroke-width="2" stroke-linecap="round" stroke-linejoin="round" stroke-miterlimit="10" fill="none" d="M13.736 47.125l5.375-9.966"/><path stroke="#3B3735" stroke-width="2" stroke-linecap="round" stroke-linejoin="round" stroke-miterlimit="10" fill="none" d="M35.236 47.125l-5.375-9.966"/><g stroke="#3B3735" stroke-width="2" stroke-linecap="round" stroke-linejoin="round" stroke-miterlimit="10" fill="none"><path d="M12.811 25.45l5.175-5.325 6.09 5 10.035-10"/><path d="M35.251 18.406l-.342-4.465-4.301.376"/></g></svg>