<svg xmlns="http://www.w3.org/2000/svg" width="48" height="39.191" viewBox="0 0 48 39.191"><path stroke="#3B3735" stroke-width="2" stroke-linecap="round" stroke-linejoin="round" stroke-miterlimit="10" d="M30.05 11h-27.649c-.791 0-1.401 1.011-1.401 1.801v24.259999999999998c0 1.234 1.441 1.468 2.365.651l5.965-5.712h20.72c.79 0 1.95.201 1.95-.589v-18.61c0-.79-1.16-1.801-1.95-1.801z" fill="none"/><path stroke="#3B3735" stroke-width="2" stroke-linecap="round" stroke-linejoin="round" stroke-miterlimit="10" d="M12 11v-8.546c0-.909.405-1.454 1.314-1.454h31.775c.909 0 1.911.545 1.911 1.454v27.878999999999998c0 1.418-1.806 1.929-2.868.989l-7.006-6.322h-5.126" fill="none"/></svg>