<svg xmlns="http://www.w3.org/2000/svg" width="48" height="39.191" viewBox="0 0 48 39.191"><path stroke="#3B3735" stroke-width="2" stroke-linecap="round" stroke-linejoin="round" stroke-miterlimit="10" d="M30.917 11h-27.649c-.791 0-2.268 1.011-2.268 1.801v24.259999999999998c0 1.234 1.874 1.468 2.798.651l6.399-5.712h20.72c.79 0 1.083.201 1.083-.589v-18.61c0-.79-.293-1.801-1.083-1.801z" fill="none"/><path stroke="#3B3735" stroke-width="2" stroke-linecap="round" stroke-linejoin="round" stroke-miterlimit="10" d="M12 11v-8.546c0-.909 1.272-1.454 2.181-1.454h31.775c.909 0 1.044.545 1.044 1.454v27.878999999999998c0 1.418-1.373 1.929-2.434.989l-6.573-6.322h-5.993" fill="none"/><g stroke="#3B3735" stroke-width="2" stroke-linecap="round" stroke-linejoin="round" stroke-miterlimit="10" fill="none"><path d="M9 18h16"/><path d="M9 22h16"/><path d="M9 26h16"/></g></svg>