<?xml version="1.0" encoding="utf-8"?>
<!-- Generator: Adobe Illustrator 17.0.0, SVG Export Plug-In . SVG Version: 6.00 Build 0)  -->
<!DOCTYPE svg PUBLIC "-//W3C//DTD SVG 1.1//EN" "http://www.w3.org/Graphics/SVG/1.1/DTD/svg11.dtd">
<svg version="1.1" id="Layer_1" xmlns="http://www.w3.org/2000/svg" xmlns:xlink="http://www.w3.org/1999/xlink" x="0px" y="0px"
	 width="43.589px" height="40.14px" viewBox="0 0 43.589 40.14" enable-background="new 0 0 43.589 40.14" xml:space="preserve">
<g>
	<g>
		<path fill="none" stroke="#3B3735" stroke-width="2" stroke-linecap="round" stroke-linejoin="round" stroke-miterlimit="10" d="
			M21.462,1C9.834,1,1,8.736,1,18.279c0,4.182,1.37,8.016,5.414,11.004c0,0.001,0,0.001,0,0.002
			c0.759,3.025,0.223,6.051-0.391,8.116c-0.315,1.06,0.697,2.027,1.739,1.658l10.592-3.747c1.111,0.149,2.094,0.246,3.256,0.246
			c11.627,0,20.979-7.736,20.979-17.279S33.089,1,21.462,1z"/>
	</g>
	<g>
		
			<line fill="none" stroke="#3B3735" stroke-width="2" stroke-linecap="round" stroke-linejoin="round" stroke-miterlimit="10" x1="11.061" y1="13.196" x2="33.061" y2="13.196"/>
		
			<line fill="none" stroke="#3B3735" stroke-width="2" stroke-linecap="round" stroke-linejoin="round" stroke-miterlimit="10" x1="11.061" y1="18.196" x2="33.061" y2="18.196"/>
		
			<line fill="none" stroke="#3B3735" stroke-width="2" stroke-linecap="round" stroke-linejoin="round" stroke-miterlimit="10" x1="11.061" y1="23.196" x2="33.061" y2="23.196"/>
	</g>
</g>
</svg>
