<svg xmlns="http://www.w3.org/2000/svg" width="30.838" height="47.731" viewBox="0 0 30.838 47.731"><g stroke="#000" stroke-width="2" stroke-linecap="round" stroke-linejoin="round" stroke-miterlimit="10" fill="none"><path d="M7.133 30.205s5.733-12.002 7.939-16.918c0 0-2.735 5.172-5.131 5.305-1.59.088-2.87 1.515-4.891 2.765-2.591 1.602-6.474-4.371-2.014-6.615 6.419-3.23 5.733-9.675 9.515-9.675 5.988 0 13.867.138 12.291 25.138h-17.709z"/><path d="M11.38 5.521v-3.657c0-.494.409-.889.902-.863 4.225.225 21.489 2.305 12.561 29.563"/><path d="M24.97 33.731h-18.29c-.552 0-1-.448-1-1v-1.175c0-.552.448-1 1-1h18.29c.552 0 1 .448 1 1v1.175c0 .553-.447 1-1 1z"/><path d="M28.838 46.731h-26.026c-.552 0-1-.448-1-1v-1.597c0-.552.448-1 1-1h26.026c.552 0 1 .448 1 1v1.597c0 .553-.448 1-1 1z"/><path d="M6.65 33.731s-3.564 2.227-3.503 9.403"/><path d="M25 33.731s3.564 2.227 3.503 9.403"/></g></svg>