<svg xmlns="http://www.w3.org/2000/svg" width="34.901" height="47.909" viewBox="0 0 34.901 47.909"><g stroke="#000" stroke-width="2" stroke-linecap="round" stroke-linejoin="round" stroke-miterlimit="10" fill="none"><path d="M23.625 1.888v2.662c0 .49-.369.887-.823.887h-2.47c-.455 0-.823-.397-.823-.887v-2.662c0-.491-.369-.888-.824-.888h-2.47c-.455 0-.823.397-.823.888v2.662c0 .49-.369.887-.823.887h-2.47c-.455 0-.823-.397-.823-.887v-2.662c0-.49-.369-.888-.823-.888h-2.47c-.456 0-.824.397-.824.888v11.503l2.058 4.36h16.878l1.647-4.36v-11.503c0-.49-.369-.888-.823-.888h-2.47c-.455 0-.824.397-.824.888z"/><path d="M8.009 12.64h19"/><path d="M28.361 43.312h-21.821c-.552 0-1-.448-1-1v-1.479c0-.552.448-1 1-1h21.82c.552 0 1 .448 1 1v1.479c.001.553-.447 1-.999 1z"/><path d="M32.901 46.909h-30.901c-.552 0-1-.448-1-1v-1.597c0-.552.448-1 1-1h30.901c.552 0 1 .448 1 1v1.597c0 .552-.448 1-1 1z"/><path d="M27.796 39.833h-20.691l2-22.083h16.691z"/></g></svg>