<svg xmlns="http://www.w3.org/2000/svg" width="46.304" height="44.169" viewBox="0 0 46.304 44.169"><g stroke="#3B3735" stroke-width="2" stroke-linecap="round" stroke-linejoin="round" stroke-miterlimit="10" fill="none"><path d="M6.655 27.91s5.287-11.058 7.321-15.59c0 0-2.522 4.774-4.732 4.896-1.466.081-2.646 1.399-4.51 2.552-2.389 1.477-5.969-4.03-1.857-6.098 5.919-2.978 5.287-8.93 8.774-8.93 5.522 0 12.787.17 11.334 23.17h-16.33z"/><path d="M10.571 5.169v-3.372c0-.455.377-.82.831-.796 3.896.207 19.815 2.125 11.583 27.26"/><path d="M23.103 31.181h-16.866c-.509 0-.922-.413-.922-.922v-1.084c0-.509.413-.922.922-.922h16.866c.509 0 .922.413.922.922v1.084c0 .51-.413.922-.922.922z"/><path d="M26.669 43.169h-23.998c-.509 0-.922-.413-.922-.922v-1.472c0-.509.413-.922.922-.922h23.998c.509 0 .922.413.922.922v1.472c0 .509-.413.922-.922.922z"/><path d="M6.209 31.181s-3.286 2.054-3.23 8.671"/><path d="M23.131 31.181s3.286 2.054 3.23 8.671"/><path d="M38.874 10.818v1.913c0 .352-.265.638-.592.638h-1.775c-.327 0-.592-.286-.592-.638v-1.913c0-.352-.265-.638-.592-.638h-1.773c-.327 0-.592.286-.592.638v1.913c0 .352-.265.638-.592.638h-1.775c-.327 0-.592-.286-.592-.638v-1.913c0-.352-.265-.638-.592-.638h-1.775c-.327 0-.592.286-.592.638v8.265l1.479 3.133h12.128l1.183-3.133v-8.265c0-.352-.265-.638-.592-.638h-1.775c-.324.001-.589.286-.589.638z"/><path d="M28.304 17.91h13"/><path d="M41.871 39.852h-14.868l1.437-17.636h11.994z"/><path d="M44.333 39.91h-17.664c.509 0 1.635.355 1.635.864v1.472c0 .509-1.125.664-1.635.664h17.664c.509 0 .97-.155.97-.664v-1.472c.001-.509-.46-.864-.97-.864z"/></g></svg>