<?xml version="1.0" encoding="utf-8"?>
<!-- Generator: Adobe Illustrator 17.0.0, SVG Export Plug-In . SVG Version: 6.00 Build 0)  -->
<!DOCTYPE svg PUBLIC "-//W3C//DTD SVG 1.1//EN" "http://www.w3.org/Graphics/SVG/1.1/DTD/svg11.dtd">
<svg version="1.1" id="Layer_1" xmlns="http://www.w3.org/2000/svg" xmlns:xlink="http://www.w3.org/1999/xlink" x="0px" y="0px"
	 width="48px" height="41px" viewBox="0 0 48 41" enable-background="new 0 0 48 41" xml:space="preserve">
<g>
	<path fill="none" stroke="#3B3735" stroke-width="2" stroke-linecap="round" stroke-linejoin="round" stroke-miterlimit="10" d="
		M1,1h46v26H1V1z"/>
	<path fill="none" stroke="#3B3735" stroke-width="2" stroke-linecap="round" stroke-linejoin="round" stroke-miterlimit="10" d="
		M34,34v-2.64c0-0.552-0.538-1.36-1.09-1.36h-6C26.357,30,26,30.808,26,31.36V34"/>
	<path fill="none" stroke="#3B3735" stroke-width="2" stroke-linecap="round" stroke-linejoin="round" stroke-miterlimit="10" d="
		M22,34v-2.64c0-0.552-0.538-1.36-1.09-1.36h-6C14.357,30,14,30.808,14,31.36V34"/>
	<path fill="none" stroke="#3B3735" stroke-width="2" stroke-linecap="round" stroke-linejoin="round" stroke-miterlimit="10" d="
		M28,40v-4.64c0-0.552-0.538-1.36-1.09-1.36h-6C20.357,34,20,34.808,20,35.36V40H28z"/>
	<path fill="none" stroke="#3B3735" stroke-width="2" stroke-linecap="round" stroke-linejoin="round" stroke-miterlimit="10" d="
		M40,40v-4.64c0-0.552-0.538-1.36-1.09-1.36h-6C32.357,34,32,34.808,32,35.36V40H40z"/>
	<path fill="none" stroke="#3B3735" stroke-width="2" stroke-linecap="round" stroke-linejoin="round" stroke-miterlimit="10" d="
		M16,40v-4.64c0-0.552-0.538-1.36-1.09-1.36h-6C8.357,34,8,34.808,8,35.36V40H16z"/>
	<path fill="none" stroke="#3B3735" stroke-width="2" stroke-linecap="round" stroke-linejoin="round" stroke-miterlimit="10" d="
		M5,40h38"/>
</g>
<g>
	<path fill="none" stroke="#3B3735" stroke-width="2" stroke-linecap="round" stroke-linejoin="round" stroke-miterlimit="10" d="
		M1,1h46v26H1V1z"/>
	<path fill="none" stroke="#3B3735" stroke-width="2" stroke-linecap="round" stroke-linejoin="round" stroke-miterlimit="10" d="
		M34,34v-2.64c0-0.552-0.538-1.36-1.09-1.36h-6C26.357,30,26,30.808,26,31.36V34"/>
	<path fill="none" stroke="#3B3735" stroke-width="2" stroke-linecap="round" stroke-linejoin="round" stroke-miterlimit="10" d="
		M22,34v-2.64c0-0.552-0.538-1.36-1.09-1.36h-6C14.357,30,14,30.808,14,31.36V34"/>
	<path fill="none" stroke="#3B3735" stroke-width="2" stroke-linecap="round" stroke-linejoin="round" stroke-miterlimit="10" d="
		M28,40v-4.64c0-0.552-0.538-1.36-1.09-1.36h-6C20.357,34,20,34.808,20,35.36V40H28z"/>
	<path fill="none" stroke="#3B3735" stroke-width="2" stroke-linecap="round" stroke-linejoin="round" stroke-miterlimit="10" d="
		M40,40v-4.64c0-0.552-0.538-1.36-1.09-1.36h-6C32.357,34,32,34.808,32,35.36V40H40z"/>
	<path fill="none" stroke="#3B3735" stroke-width="2" stroke-linecap="round" stroke-linejoin="round" stroke-miterlimit="10" d="
		M16,40v-4.64c0-0.552-0.538-1.36-1.09-1.36h-6C8.357,34,8,34.808,8,35.36V40H16z"/>
	<path fill="none" stroke="#3B3735" stroke-width="2" stroke-linecap="round" stroke-linejoin="round" stroke-miterlimit="10" d="
		M5,40h38"/>
</g>
<line fill="#FFFFFF" stroke="#000000" stroke-miterlimit="10" x1="12" y1="8.833" x2="36" y2="8.833"/>
<line fill="#FFFFFF" stroke="#000000" stroke-miterlimit="10" x1="36" y1="14" x2="27.333" y2="14"/>
</svg>
