<svg xmlns="http://www.w3.org/2000/svg" width="44.17" height="47.479" viewBox="0 0 44.17 47.479"><g stroke="#3B3735" stroke-width="2" stroke-linecap="round" stroke-linejoin="round" stroke-miterlimit="10" fill="none"><ellipse transform="matrix(.4 -.917 .917 .4 -24.502 34.221)" cx="13.875" cy="35.817" rx="10.072" ry="13.338"/><path d="M2.539 30.237s5.891 6.551 10.489 5.968c4.598-.583 7.08 1.228 12.341 6.255"/><path d="M16.679 25.845c.065-4.946 4.844-9.182 11.426-10.391 7.245-1.33 13.933 2.026 14.937 7.497 1.004 5.471-4.055 10.984-11.3 12.314-1.811.333-3.588.372-5.249.159"/><path d="M42.444 23.655s-8.546-2.142-12.034.91-6.227 2.893-13.399 1.663"/><ellipse transform="matrix(.181 .984 -.984 .181 22.838 -6.632)" cx="15.399" cy="10.39" rx="9.275" ry="12.283"/><path d="M26.929 8.82s-7.87-1.973-11.082.838-6.04 2.704-12.644 1.571"/></g></svg>