<svg xmlns="http://www.w3.org/2000/svg" width="46.931" height="44.91" viewBox="0 0 46.931 44.91"><g stroke="#3B3735" stroke-width="2" stroke-linecap="round" stroke-linejoin="round" stroke-miterlimit="10" fill="none"><path d="M1 5.035h44.931v11.298h-44.931z"/><path d="M4.188 1h38.554v3.945h-38.554z"/><path d="M7.044 16.332h32.843v23.451h-32.843z"/><path d="M4.188 39.784h38.554v4.126h-38.554z"/><path d="M29.431 28.413s4.174-.954 4.174 2.569c0 2.404-4.174 4.552-4.174 4.552"/><path d="M25.819 39.784c.576 0 1.132-.27 1.627-.648 1.292-.985 1.985-2.523 1.985-4.102v-8.089h-12.522v8.089c0 1.579.693 3.117 1.985 4.102.495.378 1.051.648 1.627.648"/><path d="M19.431 16.332h7.625v6.928h-7.625z"/><path d="M27.247 18.929h8.812c.82 0 1.49.671 1.49 1.49 0 .82-.671 1.49-1.49 1.49h-8.812"/><circle cx="11.306" cy="10.684" r="2.75"/><path d="M18.681 10.684h3"/><path d="M24.681 10.684h3"/><path d="M30.681 10.684h3"/><path d="M7.514 10.684h7.417"/></g></svg>