<svg xmlns="http://www.w3.org/2000/svg" width="43.199" height="40.067" viewBox="0 0 43.199 40.067"><g stroke="#3B3735" stroke-width="2" stroke-linecap="round" stroke-linejoin="round" stroke-miterlimit="10" fill="none"><path d="M26.372 19.959h-20.049c-.552 0-1-.448-1-1v-4.32c0-.552.448-1 1-1h20.049c.552 0 1 .448 1 1v4.32c0 .552-.447 1-1 1z"/><path d="M22.049 13.639h-20.049c-.552 0-1-.448-1-1v-4.319c0-.552.448-1 1-1h20.049c.552 0 1 .448 1 1v4.32c0 .552-.448.999-1 .999z"/><path d="M26.372 7.32h-20.049c-.552 0-1-.448-1-1v-4.32c0-.552.448-1 1-1h20.049c.552 0 1 .448 1 1v4.32c0 .552-.447 1-1 1z"/><path d="M36.353 38.479l-8.268-18.265c-.228-.503-.005-1.096.499-1.323l3.935-1.781c.503-.228 1.096-.005 1.323.499l8.268 18.265c.228.503.005 1.096-.499 1.323l-3.935 1.781c-.503.227-1.095.004-1.323-.499z"/><path d="M24.263 38.918h-20.049c-.552 0-1-.448-1-1v-4.32c0-.552.448-1 1-1h20.049c.552 0 1 .448 1 1v4.32c0 .553-.448 1-1 1z"/><path d="M24.263 32.599h-20.049c-.552 0-1-.448-1-1v-4.32c0-.552.448-1 1-1h20.049c.552 0 1 .448 1 1v4.32c0 .552-.448 1-1 1z"/><path d="M26.372 26.279h-20.049c-.552 0-1-.448-1-1v-4.32c0-.552.448-1 1-1h20.049c.552 0 1 .448 1 1v4.32c0 .552-.447 1-1 1z"/></g></svg>