<svg xmlns="http://www.w3.org/2000/svg" width="434.723" height="46.23" viewBox="0 0 434.723 46.23"><g stroke="#3B3735" stroke-width="2" stroke-linecap="round" stroke-linejoin="round" stroke-miterlimit="10" fill="none"><path d="M391.603 17.205h18.12v6.641h-18.12z"/><path d="M394.868 20.455h4"/><path d="M404.868 20.455h1"/></g><g stroke="#3B3735" stroke-width="2" stroke-linecap="round" stroke-linejoin="round" stroke-miterlimit="10" fill="none"><path d="M391.603 27.205h18.12v6.641h-18.12z"/><path d="M394.868 30.455h4"/><path d="M404.868 30.455h1"/></g><g stroke="#3B3735" stroke-width="2" stroke-linecap="round" stroke-linejoin="round" stroke-miterlimit="10" fill="none"><path d="M391.603 37.205h18.12v6.641h-18.12z"/><path d="M394.868 40.455h4"/><path d="M404.868 40.455h1"/></g><g stroke="#3B3735" stroke-width="2" stroke-linecap="round" stroke-linejoin="round" stroke-miterlimit="10" fill="none"><path d="M415.603 1.205h18.12v6.641h-18.12z"/><path d="M418.868 4.455h4"/><path d="M428.868 4.455h1"/></g><g stroke="#3B3735" stroke-width="2" stroke-linecap="round" stroke-linejoin="round" stroke-miterlimit="10" fill="none"><path d="M415.603 11.205h18.12v6.641h-18.12z"/><path d="M418.868 14.455h4"/><path d="M428.868 14.455h1"/></g><g stroke="#3B3735" stroke-width="2" stroke-linecap="round" stroke-linejoin="round" stroke-miterlimit="10" fill="none"><path d="M415.603 21.205h18.12v6.641h-18.12z"/><path d="M418.868 24.455h4"/><path d="M428.868 24.455h1"/></g><path stroke="#3B3735" stroke-width="2" stroke-linecap="round" stroke-linejoin="round" stroke-miterlimit="10" fill="none" d="M409.868 40.455h15v-12"/><g stroke="#3B3735" stroke-width="2" stroke-linecap="round" stroke-linejoin="round" stroke-miterlimit="10" fill="none"><path d="M13.473 1.205h18.12v6.641h-18.12z"/><path d="M16.738 4.455h4"/><path d="M26.738 4.455h1"/></g><g stroke="#3B3735" stroke-width="2" stroke-linecap="round" stroke-linejoin="round" stroke-miterlimit="10" fill="none"><path d="M13.473 11.205h18.12v6.641h-18.12z"/><path d="M16.738 14.455h4"/><path d="M26.738 14.455h1"/></g><g stroke="#3B3735" stroke-width="2" stroke-linecap="round" stroke-linejoin="round" stroke-miterlimit="10" fill="none"><path d="M3.564 30.421h12.498v7.965h-12.498z"/><path d="M16.061 40.761h-12.497l-2.564 4.469h17.625z"/></g><g stroke="#3B3735" stroke-width="2" stroke-linecap="round" stroke-linejoin="round" stroke-miterlimit="10" fill="none"><path d="M28.568 30.421h12.498v7.965h-12.498z"/><path d="M41.065 40.761h-12.497l-2.564 4.469h17.625z"/></g><g stroke="#3B3735" stroke-width="2" stroke-linecap="round" stroke-linejoin="round" stroke-miterlimit="10" fill="none"><path d="M9.812 27.37v-3.76h12.504v-2.708"/><path d="M34.82 27.37v-3.76h-12.504v-2.708"/></g><g stroke="#3B3735" stroke-width="2" stroke-linecap="round" stroke-linejoin="round" stroke-miterlimit="10" fill="none"><path d="M108.442 25.37v-3.76h12.504v-2.708"/><path d="M133.45 25.37v-3.76h-12.504v-2.708"/><path d="M127.866 15.322h-13.84c-.182 0-.333-.14-.347-.32l-.733-9.241c-.016-.202.144-.375.347-.375h15.305c.203 0 .363.173.347.375l-.733 9.241c-.014.181-.165.32-.346.32z"/><path d="M119.68 2.678v-1.228c0-.192-.156-.348-.348-.348h-4.82c-.192 0-.348.156-.348.348v3.936h13.396v-2.36c0-.192-.156-.348-.348-.348h-7.532z"/><path d="M113.614 43.156h-13.84c-.182 0-.333-.14-.347-.32l-.733-9.241c-.016-.202.144-.375.347-.375h15.305c.203 0 .363.173.347.375l-.733 9.241c-.013.18-.164.32-.346.32z"/><path d="M105.429 30.512v-1.228c0-.192-.156-.348-.348-.348h-4.82c-.192 0-.348.156-.348.348v3.936h13.396v-2.36c0-.192-.156-.348-.348-.348h-7.532z"/><path d="M140.566 43.156h-13.84c-.182 0-.333-.14-.347-.32l-.733-9.241c-.016-.202.144-.375.347-.375h15.305c.203 0 .363.173.347.375l-.733 9.241c-.014.18-.165.32-.346.32z"/><path d="M132.38 30.512v-1.228c0-.192-.156-.348-.348-.348h-4.82c-.192 0-.348.156-.348.348v3.936h13.396v-2.36c0-.192-.156-.348-.348-.348h-7.532z"/></g><g stroke="#3B3735" stroke-width="2" stroke-linecap="round" stroke-linejoin="round" stroke-miterlimit="10" fill="none"><path d="M199.756 31.265v-8.612h18.091v-9.664"/><path d="M235.938 31.265v-8.612h-18.091v-9.664"/><path d="M217.847 22.653v8.26"/><path d="M203.89 42.161h-8.268c-.552 0-1-.448-1-1v-8.268c0-.552.448-1 1-1h8.268c.552 0 1 .448 1 1v8.268c0 .552-.447 1-1 1z"/><path d="M221.981 42.161h-8.268c-.552 0-1-.448-1-1v-8.268c0-.552.448-1 1-1h8.268c.552 0 1 .448 1 1v8.268c0 .552-.448 1-1 1z"/><path d="M221.981 12.538h-8.268c-.552 0-1-.448-1-1v-8.267c0-.552.448-1 1-1h8.268c.552 0 1 .448 1 1v8.268c0 .552-.448.999-1 .999z"/><path d="M240.072 42.161h-8.268c-.552 0-1-.448-1-1v-8.268c0-.552.448-1 1-1h8.268c.552 0 1 .448 1 1v8.268c0 .552-.448 1-1 1z"/></g><g stroke="#3B3735" stroke-width="2" stroke-linecap="round" stroke-linejoin="round" stroke-miterlimit="10" fill="none"><path d="M294.013 27.442h12.498v7.965h-12.498z"/><path d="M306.511 37.783h-12.498l-2.564 4.468h17.625z"/><path d="M325.233 27.442h12.498v7.965h-12.498z"/><path d="M337.731 37.783h-12.498l-2.564 4.468h17.625z"/><path d="M309.2 1h12.498v7.965h-12.498z"/><path d="M321.698 11.341h-12.498l-2.563 4.468h17.625z"/><path d="M301.148 24.526l3.667-5.64"/><path d="M329.481 24.526l-3.666-5.64"/><path d="M310.544 37.205h9.937"/></g></svg>