<svg xmlns="http://www.w3.org/2000/svg" width="33.896" height="42" viewBox="0 0 33.896 42"><path stroke="#3B3735" stroke-width="2" stroke-linecap="round" stroke-linejoin="round" stroke-miterlimit="10" d="M28.701 9.077c.824-1.493-.337-3.537-2.606-3.537-3.049 0-3.252 3.049-3.252 3.049-.407 2.236 1.626 3.911 4.015 3.911 3.302 0 6.038-2.457 6.038-5.75s-2.593-5.75-5.886-5.75h-20.125c-3.292 0-5.885 2.457-5.885 5.75s2.736 5.885 6.038 5.885c2.389 0 4.422-1.743 4.015-3.979 0 0-.203-3.083-3.252-3.083-2.269 0-3.43 2.027-2.606 3.52" fill="none"/><path stroke="#3B3735" stroke-width="2" stroke-linecap="round" stroke-linejoin="round" stroke-miterlimit="10" fill="none" d="M11.705 8h11"/><path stroke="#3B3735" stroke-width="2" stroke-linecap="round" stroke-linejoin="round" stroke-miterlimit="10" fill="none" d="M26.705 13v23h-20v-23"/><path stroke="#3B3735" stroke-width="2" stroke-linecap="round" stroke-linejoin="round" stroke-miterlimit="10" fill="none" d="M16.705 14v18"/><path stroke="#3B3735" stroke-width="2" stroke-linecap="round" stroke-linejoin="round" stroke-miterlimit="10" fill="none" d="M21.705 14v18"/><path stroke="#3B3735" stroke-width="2" stroke-linecap="round" stroke-linejoin="round" stroke-miterlimit="10" fill="none" d="M11.705 14v18"/><path stroke="#3B3735" stroke-width="2" stroke-linecap="round" stroke-linejoin="round" stroke-miterlimit="10" fill="none" d="M4.705 36h25v5h-25z"/></svg>