<svg xmlns="http://www.w3.org/2000/svg" width="32.892" height="46.829" viewBox="0 0 32.892 46.829"><g stroke="#000" stroke-width="2" stroke-linecap="round" stroke-linejoin="round" stroke-miterlimit="10" fill="none"><circle cx="16.316" cy="15.85" r="4.142"/><path d="M14.863 20.403l-9.417 25.426"/><path d="M17.77 20.403l9.416 25.426"/><path d="M12.877 25.443h7"/><path d="M10.877 32.443h11"/><path d="M7.877 39.443h17"/><path d="M8.511 23.133c-1.462-1.775-2.341-4.049-2.341-6.529 0-5.675 4.6-10.275 10.275-10.275s10.275 4.6 10.275 10.275c0 2.477-.876 4.749-2.336 6.523"/><path d="M5.756 27.595c-2.931-2.811-4.756-6.767-4.756-11.149 0-8.531 6.915-15.446 15.446-15.446s15.446 6.915 15.446 15.446c0 4.265-1.729 8.127-4.524 10.922"/></g></svg>