<svg xmlns="http://www.w3.org/2000/svg" width="76.369" height="90.164" viewBox="0 0 76.369 90.164"><g stroke="#3B3735" stroke-width="2" stroke-linecap="round" stroke-linejoin="round" stroke-miterlimit="10" fill="none"><path d="M57.564 89.164h-44.73c-3.344 0-6.054-2.711-6.054-6.054 0-3.344 2.71-6.054 6.054-6.054h44.73c3.344 0 6.054 2.71 6.054 6.054 0 3.344-2.71 6.054-6.054 6.054z"/><circle cx="13.373" cy="83.11" r="2.732"/><circle cx="57.557" cy="83.11" r="2.732"/><path d="M54.56 77.056h-38.721l2.663-6.114h33.395z"/><path d="M64.612 70.942h-55.552c-3.922 0-7.101-3.179-7.101-7.101v-10.049c0-3.922 3.179-7.101 7.101-7.101h50.414c1.488 0 2.799.982 3.217 2.41l5.138 17.547c.628 2.146-.981 4.294-3.217 4.294z"/><path d="M10.642 53.303v10.202"/><path d="M14.755 53.303v10.202"/><path d="M18.868 53.303v10.202"/><path d="M1 89.164h71.106"/><path d="M34.667 46.691v24.251"/><path d="M44.817 46.691v15.204h21.62"/><path d="M67.997 37.116c1.328 4.803 6.438 2.555 6.336-.204-.102-2.759-3.234-3.577-3.234-3.577v-3.181"/><circle cx="71.165" cy="4.492" r="3.492"/><path d="M71.165 7.984v17.919"/><path d="M66.882 25.903h8.487v4.251h-8.487z"/><path d="M52.526 4.925l-41.766 41.766"/><path d="M24.277 33.173l12.297 2.992-2.991-12.297"/><path d="M33.583 23.868l12.296 2.991-2.991-12.297"/><path d="M43.221 14.23l12.296 2.991-2.991-12.296 14.599.688-40.678 40.678"/><path d="M14.972 42.479l12.296 2.991-2.991-12.297"/></g></svg>