<svg xmlns="http://www.w3.org/2000/svg" width="21.744" height="48.636" viewBox="0 0 21.744 48.636"><g stroke="#3B3735" stroke-width="2" stroke-linecap="round" stroke-linejoin="round" stroke-miterlimit="10" fill="none"><path d="M15.732 10.416c0 2.684-2.176 4.86-4.86 4.86s-4.86-2.176-4.86-4.86 4.86-9.416 4.86-9.416 4.86 6.732 4.86 9.416z"/><path d="M1 30.156v3.645c0 4.529 4.294 8.201 9.592 8.201 0 0 2.842-9.72-9.592-11.846z"/><path d="M20.744 30.156v3.645c0 4.529-4.294 8.201-9.592 8.201-.001 0-2.843-9.72 9.592-11.846z"/><path d="M1 20.74v3.645c0 4.529 4.294 8.201 9.592 8.201 0 0 2.842-9.72-9.592-11.846z"/><path d="M20.744 20.74v3.645c0 4.529-4.294 8.201-9.592 8.201-.001 0-2.843-9.72 9.592-11.846z"/><path d="M1 11.387v3.645c0 4.529 4.294 8.201 9.592 8.201 0 0 2.842-9.72-9.592-11.846z"/><path d="M20.744 11.387v3.645c0 4.529-4.294 8.201-9.592 8.201-.001 0-2.843-9.72 9.592-11.846z"/><path d="M10.949 41.636v6"/></g></svg>