<svg xmlns="http://www.w3.org/2000/svg" width="480" height="480"><path stroke="#3B3735" stroke-linecap="round" stroke-linejoin="round" stroke-miterlimit="10" d="M162.308 152.65c0 10.153-8.232 18.385-18.385 18.385s-18.385-8.232-18.385-18.385 18.385-35.62 18.385-35.62 18.385 25.467 18.385 35.62z" fill="none"/><path stroke="#3B3735" stroke-linecap="round" stroke-linejoin="round" stroke-miterlimit="10" d="M106.537 230.566v13.789c0 17.133 16.244 31.023 36.285 31.023 0 0 10.751-36.769-36.285-44.812z" fill="none"/><path stroke="#3B3735" stroke-linecap="round" stroke-linejoin="round" stroke-miterlimit="10" d="M106.537 195.325v13.789c0 17.133 16.244 31.023 36.285 31.023 0 0 10.751-36.769-36.285-44.812z" fill="none"/><path stroke="#3B3735" stroke-linecap="round" stroke-linejoin="round" stroke-miterlimit="10" d="M106.537 160.394v13.789c0 17.133 16.244 31.023 36.285 31.023 0 0 10.751-36.766-36.285-44.812z" fill="none"/><path stroke="#3B3735" stroke-linecap="round" stroke-linejoin="round" stroke-miterlimit="10" d="M181.309 230.566v13.789c0 17.133-16.244 31.023-36.285 31.023 0 0-10.751-36.769 36.285-44.812z" fill="none"/><path stroke="#3B3735" stroke-linecap="round" stroke-linejoin="round" stroke-miterlimit="10" d="M181.309 195.446v13.789c0 17.133-16.244 31.023-36.285 31.023 0 0-10.751-36.769 36.285-44.812z" fill="none"/><path stroke="#3B3735" stroke-linecap="round" stroke-linejoin="round" stroke-miterlimit="10" d="M181.309 160.515v13.789c0 17.133-16.244 31.023-36.285 31.023 0 0-10.751-36.77 36.285-44.812z" fill="none"/><path stroke="#3B3735" stroke-linecap="round" stroke-linejoin="round" stroke-miterlimit="10" d="M143.923 172.946v127.142" fill="none"/></svg>