<svg xmlns="http://www.w3.org/2000/svg" width="35.667" height="47" viewBox="0 0 35.667 47"><path stroke="#3B3735" stroke-width="2" stroke-linecap="round" stroke-linejoin="round" stroke-miterlimit="10" d="M28.196 5.792c.792.887 1.475 1.874 2.028 2.939" fill="none"/><path stroke="#3B3735" stroke-width="2" stroke-linecap="round" stroke-linejoin="round" stroke-miterlimit="10" d="M9.151 3.745c2.351-1.728 5.235-2.745 8.352-2.745 3.146 0 6.054 1.036 8.417 2.793" fill="none"/><path stroke="#3B3735" stroke-width="2" stroke-linecap="round" stroke-linejoin="round" stroke-miterlimit="10" d="M4.845 8.781c.677-1.302 1.54-2.487 2.554-3.518" fill="none"/><path stroke="#3B3735" stroke-width="2" stroke-linecap="round" stroke-linejoin="round" stroke-miterlimit="10" d="M6.833 35.404c-2.266-2.497-3.656-5.865-3.656-9.569v-10.149c0-.869.072-1.721.209-2.549" fill="none"/><path stroke="#3B3735" stroke-width="2" stroke-linecap="round" stroke-linejoin="round" stroke-miterlimit="10" d="M24.833 38.083c-1.907 1.082-4.094 1.698-6.419 1.698h-1.822c-2.368 0-4.592-.638-6.523-1.757" fill="none"/><path stroke="#3B3735" stroke-width="2" stroke-linecap="round" stroke-linejoin="round" stroke-miterlimit="10" d="M31.692 13.628c.089.673.136 1.36.136 2.059v10.148c0 3.691-1.379 7.047-3.631 9.542" fill="none"/><path stroke="#3B3735" stroke-width="2" stroke-linecap="round" stroke-linejoin="round" stroke-miterlimit="10" d="M21.92 28c.352 0 .682-.18.863-.482 2.346-3.917 3.883-10.701 3.883-13.77 0-4.971-4.029-9.083-9-9.083s-9 4.154-9 9.125c0 3.069 1.538 9.814 3.883 13.728.182.302.512.482.864.482h8.507z" fill="none"/><g stroke="#3B3735" stroke-width="2" stroke-linecap="round" stroke-linejoin="round" stroke-miterlimit="10" fill="none"><path d="M15.924 27.64v-2"/><path d="M19.924 27.64v-2"/></g><g stroke="#3B3735" stroke-width="2" stroke-linecap="round" stroke-linejoin="round" stroke-miterlimit="10" fill="none"><path d="M9.672 9.095s-3.006-1.761-8.672 1.072c0 0 1.225 4.123 7.392 4.623"/><path d="M25.709 9.408s3.291-2.074 8.957.759c0 0-1.667 4.167-7.833 4.667"/></g><path stroke="#3B3735" stroke-width="2" stroke-linecap="round" stroke-linejoin="round" stroke-miterlimit="10" d="M12.996 6.016s-4.33-2.579-5.788-3.391c0 0-.703 3.19 2.464 6.47" fill="none"/><path stroke="#3B3735" stroke-width="2" stroke-linecap="round" stroke-linejoin="round" stroke-miterlimit="10" d="M22.337 6.016s4.33-2.579 5.788-3.391c0 0 .703 3.19-2.464 6.47" fill="none"/><g fill="#3B3735"><circle cx="13.775" cy="15.332" r="1.161"/><circle cx="21.126" cy="15.332" r="1.161"/></g><path stroke="#3B3735" stroke-width="2" stroke-linecap="round" stroke-linejoin="round" stroke-miterlimit="10" d="M10.069 34v10.382c0 .894-.724 1.618-1.618 1.618-.894 0-1.618-.724-1.618-1.618v-14.382" fill="none"/><path stroke="#3B3735" stroke-width="2" stroke-linecap="round" stroke-linejoin="round" stroke-miterlimit="10" d="M28.069 30v14.382c0 .894-.724 1.618-1.618 1.618-.894 0-1.618-.724-1.618-1.618v-10.382" fill="none"/></svg>