<svg xmlns="http://www.w3.org/2000/svg" width="47.971" height="48.302" viewBox="0 0 47.971 48.302"><g stroke="#3B3735" stroke-width="2" stroke-linecap="round" stroke-linejoin="round" stroke-miterlimit="10" fill="none"><path d="M22.081 31v7"/><path d="M26.081 31v7"/><path d="M23.567 30.116c14.407 0 14.925-29.116 14.925-29.116h-29.002s-.33 29.116 14.077 29.116z"/><path d="M13.658 24.245c-10.09 0-12.658-10.101-12.658-15.106s3.645-5.346 8.142-5.346"/><path d="M33.596 24.245c10.09 0 13.374-10.101 13.374-15.106s-3.645-5.346-8.142-5.346"/><path d="M32.985 47.302h-18c0-4.525 3.668-8.192 8.192-8.192h1.615c4.525 0 8.193 3.668 8.193 8.192z"/><path d="M21.646 12.411l2.435-2.606v9.195"/></g></svg>