<svg xmlns="http://www.w3.org/2000/svg" width="17.854" height="48.904" viewBox="0 0 17.854 48.904"><g stroke="#3B3735" stroke-width="2" stroke-linecap="round" stroke-linejoin="round" stroke-miterlimit="10" fill="none"><path d="M1.022 1s-.293 9.381 8.794 12.605 9.674 16.71 0 21.986-8.795 12.313-8.795 12.313"/><path d="M16.832 1s.293 9.381-8.794 12.605-9.674 16.71 0 21.986 8.796 12.312 8.796 12.312"/><path d="M1.609 2.991h5"/><path d="M16.609 2.991h-5"/><path d="M3.609 6.991h3"/><path d="M14.609 6.991h-3"/><path d="M1.609 45.991h5"/><path d="M16.609 45.991h-5"/><path d="M3.609 41.991h3"/><path d="M14.609 41.991h-3"/><path d="M2.609 18.991h4"/><path d="M2.609 28.991h4"/><path d="M1.609 23.991h5"/><path d="M15.609 18.991h-4"/><path d="M15.609 28.991h-4"/><path d="M16.609 23.991h-5"/></g></svg>