<svg xmlns="http://www.w3.org/2000/svg" width="46.702" height="42.277" viewBox="0 0 46.702 42.277"><g stroke="#3B3735" stroke-width="2" stroke-linecap="round" stroke-linejoin="round" stroke-miterlimit="10" fill="none"><path d="M44.702 41.277h-42.702c-.552 0-1-.448-1-1v-21.139h44.702v21.139c0 .553-.448 1-1 1z"/><path d="M14.907 24.615h16.888v4.087h-16.888z"/><path d="M39.202 9.162h-31.702c-.552 0-1 .448-1 1v8.976h33.701v-8.976c.001-.552-.447-1-.999-1z"/><path d="M37.871 9.162h-29.04v-3.081c0-.552.448-1 1-1h27.039c.552 0 1 .448 1 1v3.081z"/><path d="M35.704 5.081h-24.706v-3.081c0-.552.448-1 1-1h22.706c.552 0 1 .448 1 1v3.081z"/><path d="M6.286 12.971l-5.286 6.167h44.702l-5.501-6.417"/></g></svg>