<svg xmlns="http://www.w3.org/2000/svg" width="46.315" height="24.898" viewBox="0 0 46.315 24.898"><g stroke="#231F20" stroke-width="2" stroke-linecap="round" stroke-linejoin="round" stroke-miterlimit="10" fill="none"><path d="M44.315 23.898h-42.315c-.552 0-1-.448-1-1v-20.898c0-.552.448-1 1-1h42.315c.552 0 1 .448 1 1v20.898c0 .552-.448 1-1 1z"/><ellipse cx="23.158" cy="12.79" rx="4.95" ry="4.899"/><path d="M39.35 3.663h-32.368c-.014 2-.74 3.13-2.74 3.403v11.57c2 .272 2.726.027 2.74 2.027h32.368c.103-1 .891-1.713 2.891-2.016v-11.593c-1.999-.303-2.787-1.391-2.891-3.391z"/></g></svg>