<svg xmlns="http://www.w3.org/2000/svg" width="46.315" height="45.756" viewBox="0 0 46.315 45.756"><g stroke="#3B3735" stroke-width="2" stroke-linecap="round" stroke-linejoin="round" stroke-miterlimit="10" fill="none"><path d="M44.315 34.325h-42.315c-.552 0-1-.448-1-1v-20.898c0-.552.448-1 1-1h42.315c.552 0 1 .448 1 1v20.898c0 .552-.448 1-1 1z"/><ellipse cx="23.158" cy="23.217" rx="4.95" ry="4.899"/><path d="M39.35 14.09h-32.368c-.014 2-.74 3.13-2.74 3.403v11.57c2 .272 2.726.027 2.74 2.027h32.368c.103-1 .891-1.713 2.891-2.016v-11.594c-1.999-.302-2.787-1.39-2.891-3.39z"/><path d="M26.448 34.465l-9.989 9.989c-.403.403-1.055.403-1.458 0l-9.991-9.991"/><path d="M19.712 11.44l10.133-10.134c.408-.408 1.071-.408 1.479 0l10.135 10.135"/><path d="M37.158 11.442l-.668-.668-3.941-3.941c-1.252.84-2.535 1.133-3.965-.156l-4.763 4.763"/><path d="M9.233 34.463l1.205 1.205 3.877 3.877c1.523-1.158 2.147-1.628 3.497-.297l4.783-4.783"/></g></svg>