<svg xmlns="http://www.w3.org/2000/svg" width="45.25" height="42.685" viewBox="0 0 45.25 42.685"><g stroke="#3B3735" stroke-width="2" stroke-linecap="round" stroke-linejoin="round" stroke-miterlimit="10" fill="none"><path d="M43.25 41.685h-41.25c-.552 0-1-.448-1-1v-20.348c0-.552.448-1 1-1h41.25c.552 0 1 .448 1 1v20.347c0 .553-.448 1.001-1 1.001z"/><ellipse cx="22.625" cy="30.844" rx="4.831" ry="4.782"/><path d="M38.429 21.45h-31.591c-.013 2-.596 3.541-2.596 3.807v11.292c2 .266 2.583-.099 2.596 1.901h31.591c.101-1 1.813-1.594 2.813-1.89v-11.314c-1-.296-2.712-1.796-2.813-3.796z"/><path d="M40.043 19.338c.516-1.444.798-2.999.798-4.62 0-7.577-6.142-13.718-13.718-13.718s-13.717 6.141-13.717 13.717c0 1.622.282 3.178.798 4.623"/><path d="M33.735 19.338c.281-1.444.434-2.999.434-4.62.001-7.577-3.344-13.718-7.469-13.718s-7.47 6.141-7.47 13.717c0 1.621.153 3.177.434 4.62"/><path d="M39.242 10.45h-25"/><path d="M27.242 1.45v17"/></g></svg>