<svg xmlns="http://www.w3.org/2000/svg" width="30.113" height="30.113" viewBox="0 0 30.113 30.113"><g stroke="#3B3735" stroke-width="2" stroke-linecap="round" stroke-linejoin="round" stroke-miterlimit="10" fill="none"><circle cx="15.057" cy="15.057" r="14.057"/><path d="M15.057 1c-.271 0-.536.025-.804.041.203 2.046.997 3.916 2.211 5.44l-.004.003s-1.621 2.667 1.103 5.282 4.359-.109 6.211 1.743c1.852 1.852 5.339 1.547 5.339 1.547 0-7.763-6.293-14.056-14.056-14.056z"/><path d="M1.551 18.951s3.372-1.424 5.006 0c1.634 1.424 12.64.936 11.223 9.741"/><path d="M24.688 19.92c-.239-1.115-1.163-1.989-2.297-2.114-.518-.057-1.015.038-1.233.512-.545 1.185.872 2.492 0 3.473-.872.981 1.09 2.615 2.833.763.811-.861.868-1.836.697-2.634z"/><path d="M1.551 11.657c1.719 3.378 5.333 1.634 8.602 1.142 3.269-.493 1.199-2.232.654-4.761s-3.814-.848-3.814-.848 1.706-2.145.907-4.233"/></g></svg>