<?xml version="1.0" encoding="utf-8"?>
<!-- Generator: Adobe Illustrator 17.0.0, SVG Export Plug-In . SVG Version: 6.00 Build 0)  -->
<!DOCTYPE svg PUBLIC "-//W3C//DTD SVG 1.1//EN" "http://www.w3.org/Graphics/SVG/1.1/DTD/svg11.dtd">
<svg version="1.1" id="Layer_1" xmlns="http://www.w3.org/2000/svg" xmlns:xlink="http://www.w3.org/1999/xlink" x="0px" y="0px"
	 width="49.18px" height="43.055px" viewBox="0 0 49.18 43.055" enable-background="new 0 0 49.18 43.055" xml:space="preserve">
<path fill="none" stroke="#3B3735" stroke-width="2" stroke-linecap="round" stroke-linejoin="round" stroke-miterlimit="10" d="
	M48.18,29.251v-13"/>
<path fill="none" stroke="#3B3735" stroke-width="2" stroke-linecap="round" stroke-linejoin="round" stroke-miterlimit="10" d="
	M8.889,22.028v9.431c0,0.316,0.167,0.613,0.451,0.801l14.487,9.599c0.394,0.261,0.932,0.261,1.326,0L39.64,32.26
	c0.284-0.188,0.451-0.485,0.451-0.801v-9.431"/>
<path fill="none" stroke="#3B3735" stroke-width="2" stroke-linecap="round" stroke-linejoin="round" stroke-miterlimit="10" d="
	M23.82,31.673L1.481,17.275c-0.641-0.413-0.641-1.268,0-1.681L23.82,1.195c0.404-0.26,0.949-0.26,1.353,0l22.339,14.398
	c0.641,0.413,0.641,1.268,0,1.681L25.174,31.673C24.769,31.933,24.225,31.933,23.82,31.673z"/>
</svg>
