<svg xmlns="http://www.w3.org/2000/svg" width="42.587" height="42.587" viewBox="0 0 42.587 42.587"><g stroke="#3B3735" stroke-width="2" stroke-linecap="round" stroke-linejoin="round" stroke-miterlimit="10" fill="none"><path d="M12.294 18.467v8.57c0 1.207 1.286 2.387 2.493 2.387h13.321c1.207 0 2.186-1.179 2.186-2.387v-8.57h-18z"/><path d="M18.554 29.423h5.478v5.478h-5.478z"/><path d="M21.685 34.902v6.685h-.391c-11.208 0-20.294-9.086-20.294-20.293s9.086-20.294 20.294-20.294 20.294 9.086 20.294 20.294c0 7.143-3.691 13.425-9.27 17.041"/><path d="M13.859 18.467v-8.164c0-.564.56-1.227 1.124-1.227h.408c.564 0 .816.663.816 1.227v8.164"/><path d="M26.381 18.467v-8.164c0-.564.287-1.227.851-1.227h.408c.564 0 1.089.663 1.089 1.227v8.164"/><path d="M20.12 26.293l.587-2.152 1.76.587.758-2.739"/></g></svg>