<?xml version="1.0" encoding="utf-8"?>
<!-- Generator: Adobe Illustrator 17.0.0, SVG Export Plug-In . SVG Version: 6.00 Build 0)  -->
<!DOCTYPE svg PUBLIC "-//W3C//DTD SVG 1.1//EN" "http://www.w3.org/Graphics/SVG/1.1/DTD/svg11.dtd">
<svg version="1.1" id="Layer_1" xmlns="http://www.w3.org/2000/svg" xmlns:xlink="http://www.w3.org/1999/xlink" x="0px" y="0px"
	 width="53.503px" height="46.496px" viewBox="0 0 53.503 46.496" enable-background="new 0 0 53.503 46.496" xml:space="preserve">
<g>
	<path fill="none" stroke="#3B3735" stroke-width="2" stroke-linecap="round" stroke-linejoin="round" stroke-miterlimit="10" d="
		M18.724,3.278C16.606,1.836,14.134,1,11.486,1C3.66,1,1,8.216,1,17.117s2.66,16.117,10.486,16.117c3.055,0,4.997-0.837,7.311-2.707
		"/>
	<path fill="none" stroke="#3B3735" stroke-width="2" stroke-linecap="round" stroke-linejoin="round" stroke-miterlimit="10" d="
		M34.795,3.266C36.909,1.832,39.375,1,42.016,1c7.826,0,10.486,7.216,10.486,16.117s-2.66,16.117-10.486,16.117
		c-3.055,0-4.792-1.055-7.106-2.924"/>
	<g>
		<circle fill="#3B3735" cx="16.801" cy="17.571" r="1.546"/>
		<circle fill="#3B3735" cx="36.533" cy="17.571" r="1.546"/>
	</g>
	<path fill="none" stroke="#3B3735" stroke-width="2" stroke-linecap="round" stroke-linejoin="round" stroke-miterlimit="10" d="
		M45.066,16.79c0-8.315-8.205-15.057-18.297-15.057c-2.899,0-5.631,0.556-8.038,1.546c-5.973,2.456-9.969,7.584-9.969,13.511
		c0,6.508,4.314,12.036,12.314,14.138v8.834c0,3.167,2.333,5.734,5.5,5.734c3.167,0,5.5-2.567,5.5-5.734v-8.55
		C40.075,29.357,45.066,23.606,45.066,16.79z"/>
	<path fill="none" stroke="#3B3735" stroke-width="2" stroke-linecap="round" stroke-linejoin="round" stroke-miterlimit="10" d="
		M20.985,31.212c0,0,0.5,4.619-5.167,7.29c0,0,2.417-5.985,0.875-6.407"/>
	<path fill="none" stroke="#3B3735" stroke-width="2" stroke-linecap="round" stroke-linejoin="round" stroke-miterlimit="10" d="
		M31.985,31.212c0,0,0.185,4.619,5.851,7.29c0,0-2.417-5.985-0.875-6.407"/>
	
		<line fill="none" stroke="#3B3735" stroke-width="2" stroke-linecap="round" stroke-linejoin="round" stroke-miterlimit="10" x1="25.075" y1="34.98" x2="28.075" y2="34.98"/>
	
		<line fill="none" stroke="#3B3735" stroke-width="2" stroke-linecap="round" stroke-linejoin="round" stroke-miterlimit="10" x1="25.075" y1="38.98" x2="28.075" y2="38.98"/>
</g>
</svg>
