<svg xmlns="http://www.w3.org/2000/svg" width="50" height="41.123" viewBox="0 0 50 41.123"><g stroke="#3B3735" stroke-width="2" stroke-linecap="round" stroke-linejoin="round" stroke-miterlimit="10" fill="none"><circle cx="11.727" cy="26.455" r="4.454"/><path d="M18.227 40.123v-3.889c0-2.823-2.288-5.111-5.111-5.111h-3.206c-2.586 0-4.683 2.097-4.683 4.683v4.317h13z"/><circle cx="25" cy="26.455" r="4.454"/><path d="M31.5 40.123v-3.889c0-2.823-2.288-5.111-5.111-5.111h-3.206c-2.586 0-4.683 2.097-4.683 4.683v4.317h13z"/><circle cx="25" cy="10.559" r="4.454"/><path d="M31.5 20.338c0-2.823-2.288-5.111-5.111-5.111h-3.206c-2.586 0-4.683 2.097-4.683 4.683"/><circle cx="38" cy="26.455" r="4.454"/><path d="M44.5 40.123v-3.889c0-2.823-2.288-5.111-5.111-5.111h-3.206c-2.586 0-4.683 2.097-4.683 4.683v4.317h13z"/><path d="M5.384 34.623h-4.384v-33.623h48v33.623h-4.5"/></g></svg>