<svg xmlns="http://www.w3.org/2000/svg" width="36.831" height="39.145" viewBox="0 0 36.831 39.145"><g stroke="#231F20" stroke-width="1.5" stroke-miterlimit="2.613" fill="none"><circle cx="8.896" cy="28.822" r="8.146"/><circle cx="27.935" cy="10.323" r="8.146"/><path stroke-linecap="round" stroke-linejoin="round" d="M1.747 15.978c0-6.599 5.351-11.95 11.95-11.95"/><path stroke-linecap="round" stroke-linejoin="round" d="M9.087.75l4.61 3.278-3.278 4.61"/><path stroke-linecap="round" stroke-linejoin="round" d="M35.085 23.168c0 6.598-5.351 11.95-11.95 11.95"/><path stroke-linecap="round" stroke-linejoin="round" d="M27.745 38.395l-4.61-3.278 3.278-4.61"/><path stroke-linecap="round" stroke-linejoin="round" d="M31.56 13.326c-1.658 1.658-4.348 1.658-6.006 0-1.658-1.658-1.658-4.348 0-6.006 1.658-1.658 4.348-1.658 6.006 0"/><path stroke-linecap="round" stroke-linejoin="round" d="M11.812 26.522c0-1.972-3.123-3.09-4.978-1.626-1.138.898-1.138 2.355 0 3.253.626.494 1.313.574 2.062.674.704.094 1.473.209 2.062.674 1.138.898 1.138 2.355 0 3.253-1.854 1.463-4.978.346-4.978-1.626"/><path stroke-linecap="round" d="M23.008 9.056h3.95"/><path stroke-linecap="round" d="M23.008 11.59h3.95"/><path stroke-linecap="round" d="M8.896 23.119v11.406"/></g></svg>