<svg xmlns="http://www.w3.org/2000/svg" width="39.331" height="41.739" viewBox="0 0 39.331 41.739"><path d="M37.949 15.973c-2.037-10.101-11.875-16.638-21.976-14.601-10.101 2.036-16.638 14.305-14.601 24.406" stroke="#3B3735" stroke-width="2" stroke-linecap="round" stroke-linejoin="round" stroke-miterlimit="10" fill="none"/><g stroke="#3B3735" stroke-width="2" stroke-linecap="round" stroke-linejoin="round" stroke-miterlimit="10" fill="none"><path d="M38.327 22.466c.026-1.338-.093-5.129-.368-6.495"/><path d="M1.382 25.776c.054.268.114.533.179.796"/></g><path d="M14.844 40.117c4.18-4.757 6.17-13.771 4.822-20.457" stroke="#3B3735" stroke-width="2" stroke-linecap="round" stroke-linejoin="round" stroke-miterlimit="10" fill="none"/><path d="M20.257 40.739c3.777-5.519 5.408-14.928 3.981-22.001l.005-.002c-.51-2.531-2.976-4.169-5.507-3.659-2.531.51-4.169 2.976-3.658 5.507l.015-.003c1.162 5.764-.865 13.861-4.865 17.604" stroke="#3B3735" stroke-width="2" stroke-linecap="round" stroke-linejoin="round" stroke-miterlimit="10" fill="none"/><path d="M26.354 39.506c2.812-5.773 3.823-14.91 2.456-21.69l.001-.001c-1.019-5.054-5.942-8.325-10.996-7.306-5.054 1.019-8.325 5.942-7.306 10.997l.011-.002c.885 4.388-.818 11.125-4.055 13.777" stroke="#3B3735" stroke-width="2" stroke-linecap="round" stroke-linejoin="round" stroke-miterlimit="10" fill="none"/><path d="M32.904 35.232c1.343-5.037 1.579-12.882.479-18.338h-.003c-1.527-7.578-8.908-12.482-16.486-10.954-7.577 1.528-12.481 11.339-10.953 18.917l.007-.002c.523 2.594-.46 5.142-2.346 6.74" stroke="#3B3735" stroke-width="2" stroke-linecap="round" stroke-linejoin="round" stroke-miterlimit="10" fill="none"/></svg>