<svg xmlns="http://www.w3.org/2000/svg" width="48.75" height="49.257" viewBox="0 0 48.75 49.257"><g stroke="#3B3735" stroke-width="2" stroke-linecap="round" stroke-linejoin="round" stroke-miterlimit="10" fill="none"><path d="M14 46.269c0 .552-.448 1-1 1h-11c-.552 0-1-.448-1-1v-44c0-.552.448-1 1-1h11c.552 0 1 .448 1 1v44z"/><circle cx="7.263" cy="8.942" r="2.687"/><path d="M1 29.269h13v8h-13z"/><path d="M1 25.269h13v16h-13z"/><path d="M27 46.269c0 .552-.448 1-1 1h-11c-.552 0-1-.448-1-1v-44c0-.552.448-1 1-1h11c.552 0 1 .448 1 1v44z"/><circle cx="20.263" cy="8.942" r="2.687"/><path d="M14 29.269h13v8h-13z"/><path d="M14 25.269h13v16h-13z"/><path d="M47.734 45.114c.099.543-.262 1.064-.805 1.163l-10.823 1.965c-.543.099-1.064-.262-1.163-.805l-7.858-43.294c-.099-.543.262-1.064.805-1.162l10.823-1.965c.543-.099 1.064.262 1.163.805l7.858 43.293z"/><circle cx="34.464" cy="9.22" r="2.687"/><path d="M31.907 30.708l12.791-2.322 1.429 7.871-12.791 2.322z"/><path d="M31.192 26.773l12.791-2.322 2.858 15.742-12.791 2.322z"/></g></svg>