<svg xmlns="http://www.w3.org/2000/svg" width="43.046" height="49" viewBox="0 0 43.046 49"><g stroke="#3B3735" stroke-width="2" stroke-linecap="round" stroke-linejoin="round" stroke-miterlimit="10" fill="none"><path d="M33 44v-41.64c0-.552-.604-1.36-1.083-1.36h-26.015c-.479 0-.902.808-.902 1.36v41.64h28z"/><path d="M9 6h20v15h-20z"/><path d="M9 26h6"/><path d="M22 26h6"/><path d="M1 44h36v4h-36z"/><path d="M33.068 14.443s2.932.917 2.932 3.25 0 .667 0 .667v10s-.042 3.667 3.292 3.667c3.333 0 2.708-2.917 2.708-2.917v-18.75s.137-3.833-4.443-4.167"/><ellipse cx="39.499" cy="13.214" rx="2.16" ry="2.229"/></g></svg>