<svg xmlns="http://www.w3.org/2000/svg" width="43.046" height="49" viewBox="0 0 43.046 49"><g stroke="#3B3735" stroke-width="2" stroke-linecap="round" stroke-linejoin="round" stroke-miterlimit="10" fill="none"><path d="M33 44v-42c0-.552-.513-1-.992-1h-26.016c-.479 0-.992.448-.992 1v42h28z"/><path d="M9 6h20v15h-20z"/><path d="M1 44h36v4h-36z"/><path d="M33.113 14.083s2.887.917 2.887 3.25 0 .667 0 .667v10s-.042 3.667 3.292 3.667c3.333 0 2.708-2.917 2.708-2.917v-18.75s.16-3.833-4.42-4.167"/><ellipse cx="39.59" cy="12.854" rx="2.16" ry="2.229"/></g></svg>