<svg xmlns="http://www.w3.org/2000/svg" width="45.89" height="48" viewBox="0 0 45.89 48"><g stroke="#3B3735" stroke-width="2" stroke-linecap="round" stroke-linejoin="round" stroke-miterlimit="10" fill="none"><path d="M41.568 30.715c0-.915-.094-1.807-.264-2.672l3.512-1.732-3.165-6.417-3.227 1.738c-1.764-2.004-4.455-3.485-6.455-4.198v-3.434h-7v3.433c-3 .713-5.36 2.195-7.123 4.198l-3.709-1.738-3.259 6.417 3.465 1.732c-.17.865-.287 1.757-.287 2.672s.082 1.807.252 2.672l-3.518 1.732 3.163 6.417 3.894-1.738c1.764 2.004 4.122 3.485 7.122 4.198v3.005h7v-3.003c2-.713 4.691-2.195 6.455-4.198l3.375 1.738 3.092-6.417-3.549-1.732c.169-.866.226-1.759.226-2.673z"/><circle cx="27.719" cy="30.64" r="6.826"/><path d="M16.95 9.785c0-.474-.049-.936-.137-1.385l1.82-.898-1.64-3.325-1.676.9c-.914-1.038-2.348-1.806-3.348-2.175v-1.902h-4v1.903c-1 .37-2.586 1.137-3.5 2.175l-1.827-.9-1.641 3.325 1.819.897c-.088.448-.137.911-.137 1.385s.049.936.137 1.385l-1.82.897 1.64 3.325 1.828-.9c.914 1.038 2.5 1.806 3.5 2.175v1.333h4v-1.334c1-.37 2.435-1.137 3.348-2.175l1.751.9 1.603-3.325-1.838-.898c.088-.447.118-.909.118-1.383z"/><circle cx="9.775" cy="9.746" r="3.537"/></g></svg>