<?xml version="1.0" encoding="utf-8"?>
<!-- Generator: Adobe Illustrator 17.0.0, SVG Export Plug-In . SVG Version: 6.00 Build 0)  -->
<!DOCTYPE svg PUBLIC "-//W3C//DTD SVG 1.1//EN" "http://www.w3.org/Graphics/SVG/1.1/DTD/svg11.dtd">
<svg version="1.1" id="Layer_1" xmlns="http://www.w3.org/2000/svg" xmlns:xlink="http://www.w3.org/1999/xlink" x="0px" y="0px"
	 width="37px" height="46.502px" viewBox="0 0 37 46.502" enable-background="new 0 0 37 46.502" xml:space="preserve">
<g>
	<g>
		
			<line fill="none" stroke="#3B3735" stroke-width="2" stroke-linecap="round" stroke-linejoin="round" stroke-miterlimit="10" x1="14.528" y1="12.428" x2="14.528" y2="18.039"/>
		
			<line fill="none" stroke="#3B3735" stroke-width="2" stroke-linecap="round" stroke-linejoin="round" stroke-miterlimit="10" x1="21.978" y1="12.428" x2="21.978" y2="18.039"/>
		
			<line fill="none" stroke="#3B3735" stroke-width="2" stroke-linecap="round" stroke-linejoin="round" stroke-miterlimit="10" x1="15.295" y1="18.891" x2="15.295" y2="45.362"/>
		
			<line fill="none" stroke="#3B3735" stroke-width="2" stroke-linecap="round" stroke-linejoin="round" stroke-miterlimit="10" x1="21.226" y1="18.891" x2="21.226" y2="45.362"/>
		
			<rect x="1" y="11.502" fill="none" stroke="#3B3735" stroke-width="2" stroke-linecap="round" stroke-linejoin="round" stroke-miterlimit="10" width="35" height="6"/>
		
			<rect x="4" y="17.502" fill="none" stroke="#3B3735" stroke-width="2" stroke-linecap="round" stroke-linejoin="round" stroke-miterlimit="10" width="29" height="28"/>
	</g>
	
		<line fill="none" stroke="#3B3735" stroke-width="2" stroke-linecap="round" stroke-linejoin="round" stroke-miterlimit="10" x1="16" y1="6.502" x2="21" y2="6.502"/>
	<path fill="none" stroke="#3B3735" stroke-width="2" stroke-linecap="round" stroke-linejoin="round" stroke-miterlimit="10" d="
		M5.871,6.029c0,0,4.129,0.833,10.129,5.833V6.705c0,0-2.92-6.176-6.087-5.676s-4.064,5-4.064,5c-3.333,1.5-3.072,5.833-3.072,5.833
		"/>
	<path fill="none" stroke="#3B3735" stroke-width="2" stroke-linecap="round" stroke-linejoin="round" stroke-miterlimit="10" d="
		M31.288,6.029c0,0-3.288,0.833-10.288,5.833V6.705c0,0,3.08-6.176,6.246-5.676s4.144,5,4.144,5c3.333,1.5,3.032,5.833,3.032,5.833"
		/>
</g>
</svg>
