<svg xmlns="http://www.w3.org/2000/svg" width="41.776" height="31.796" viewBox="0 0 41.776 31.796"><g stroke="#231F20" stroke-width="1.5" stroke-miterlimit="2.613" fill="none"><path stroke-linecap="round" stroke-linejoin="round" d="M41.015 21.19v-17.962c0-2.236-2.893-3.687-3.978-1.098"/><path stroke-linecap="round" stroke-linejoin="round" d="M.762 21.19v-17.962c0-2.236 2.893-3.687 3.978-1.098"/><path d="M9.663 16.943c4.921 0 8.913.268 8.913 5.19 0 4.921-3.991 8.913-8.913 8.913s-8.913-3.991-8.913-8.913c0-4.921 3.991-5.19 8.913-5.19z"/><path d="M32.114 16.943c-4.921 0-8.913.268-8.913 5.19 0 4.921 3.991 8.913 8.913 8.913 4.922 0 8.913-3.991 8.913-8.913-.001-4.921-3.992-5.19-8.913-5.19z"/><path d="M18.499 21.035c.672-.385 1.497-.613 2.389-.613.892 0 1.716.227 2.389.612"/><path stroke-linecap="round" stroke-linejoin="round" d="M15.75 24.042c-.451 1.878-1.733 3.434-3.436 4.255"/><path stroke-linecap="round" stroke-linejoin="round" d="M38.16 24.042c-.451 1.878-1.733 3.434-3.437 4.255"/></g></svg>