<?xml version="1.0" encoding="utf-8"?>
<!-- Generator: Adobe Illustrator 17.0.0, SVG Export Plug-In . SVG Version: 6.00 Build 0)  -->
<!DOCTYPE svg PUBLIC "-//W3C//DTD SVG 1.1//EN" "http://www.w3.org/Graphics/SVG/1.1/DTD/svg11.dtd">
<svg version="1.1" id="Layer_1" xmlns="http://www.w3.org/2000/svg" xmlns:xlink="http://www.w3.org/1999/xlink" x="0px" y="0px"
	 width="46.418px" height="48.196px" viewBox="0 0 46.418 48.196" enable-background="new 0 0 46.418 48.196" xml:space="preserve">
<g>
	<path fill="none" stroke="#3B3735" stroke-width="2" stroke-linecap="round" stroke-linejoin="round" stroke-miterlimit="10" d="
		M1,47.196l8.93-2.944l10.891,1.218c2.007,0.213,4.026-0.28,5.708-1.395l17.995-12.877c0.879-0.582,1.153-1.747,0.626-2.66v0
		c-0.539-0.934-1.723-1.27-2.673-0.759l-14.423,7.765"/>
	<path fill="none" stroke="#3B3735" stroke-width="2" stroke-linecap="round" stroke-linejoin="round" stroke-miterlimit="10" d="
		M13.418,36.087c0,0,0,0,3.184-0.989c2.122-0.659,6.365,0.424,8.96,1.219c1.221,0.374,2.51-0.304,2.895-1.522v0
		c0.396-1.253-0.325-2.584-1.59-2.938l-8.24-2.302c-3.582-1.001-7.425-0.267-10.386,1.984L1,35.042"/>
	<path fill="none" stroke="#3B3735" stroke-width="2" stroke-linecap="round" stroke-linejoin="round" stroke-miterlimit="10" d="
		M26.866,31.858l7.749-4.287c1.733-0.959,3.787-1.148,5.666-0.523l2.196,0.731"/>
	<path fill="none" stroke="#3B3735" stroke-width="2" stroke-linecap="round" stroke-linejoin="round" stroke-miterlimit="10" d="
		M21.975,30.491l6.211-3.44c1.917-1.062,4.163-1.366,6.294-0.853l2.021,0.487"/>
</g>
<g>
	
		<circle fill="none" stroke="#3B3735" stroke-width="2" stroke-linecap="round" stroke-linejoin="round" stroke-miterlimit="10" cx="21.725" cy="13.39" r="12.39"/>
	<path fill="none" stroke="#3B3735" stroke-width="2" stroke-linecap="round" stroke-linejoin="round" stroke-miterlimit="10" d="
		M21.725,1c-0.239,0-0.473,0.022-0.709,0.036c0.179,1.803,0.879,3.452,1.948,4.795l-0.003,0.003c0,0-1.429,2.351,0.972,4.656
		c2.401,2.305,3.842-0.096,5.475,1.537c1.633,1.633,4.706,1.364,4.706,1.364C34.115,6.547,28.568,1,21.725,1z"/>
	<path fill="none" stroke="#3B3735" stroke-width="2" stroke-linecap="round" stroke-linejoin="round" stroke-miterlimit="10" d="
		M9.821,16.822c0,0,2.972-1.255,4.413,0s11.141,0.825,9.893,8.586"/>
	<path fill="none" stroke="#3B3735" stroke-width="2" stroke-linecap="round" stroke-linejoin="round" stroke-miterlimit="10" d="
		M30.215,17.677c-0.211-0.983-1.025-1.753-2.025-1.863c-0.456-0.05-0.894,0.033-1.086,0.451c-0.48,1.044,0.768,2.197,0,3.061
		s0.96,2.305,2.497,0.672C30.315,19.239,30.366,18.38,30.215,17.677z"/>
	<path fill="none" stroke="#3B3735" stroke-width="2" stroke-linecap="round" stroke-linejoin="round" stroke-miterlimit="10" d="
		M9.821,10.394c1.515,2.977,4.701,1.441,7.582,1.006s1.057-1.967,0.576-4.197s-3.362-0.748-3.362-0.748s1.504-1.891,0.8-3.731"/>
</g>
</svg>
