<svg xmlns="http://www.w3.org/2000/svg" width="42.886" height="48.273" viewBox="0 0 42.886 48.273"><g stroke="#333" stroke-width="2" stroke-linecap="round" stroke-linejoin="round" stroke-miterlimit="10" fill="none"><circle cx="23.181" cy="19.646" r="17.184"/><path d="M10.976 1.12c-1.23.812-2.397 1.759-3.48 2.842-8.662 8.662-8.662 22.706 0 31.368s22.706 8.662 31.368 0c.886-.886 1.681-1.827 2.385-2.814"/><ellipse transform="matrix(-.707 .707 -.707 -.707 53.464 17.147)" cx="23.181" cy="19.646" rx="9.357" ry="17.184"/><path d="M30.986 4.406l-23.164 23.164"/><path d="M38.48 11.9l-23.164 23.164"/><path d="M11.229 7.813l23.844 23.844"/><path d="M4.416 1l2.725 2.725"/><path d="M41.886 38.47l-2.725-2.725"/><path d="M23.301 42.273v5"/><path d="M14.301 47.273h18"/></g></svg>