<svg xmlns="http://www.w3.org/2000/svg" width="45.861" height="45.861" viewBox="0 0 45.861 45.861"><g stroke="#3B3735" stroke-width="2" stroke-linecap="round" stroke-linejoin="round" stroke-miterlimit="10" fill="none"><circle cx="22.93" cy="22.93" r="21.93"/><path d="M34.612 27.508c.171-1.476.261-3.008.261-4.577-.001-12.112-5.347-21.931-11.943-21.931-4.677 0-8.725 4.937-10.685 12.127"/><path d="M11.192 18.878c-.134 1.313-.203 2.668-.203 4.052 0 12.112 5.347 21.93 11.942 21.93 4.542 0 8.492-4.657 10.511-11.512"/><path d="M9.212 16.066h-6.231"/><path d="M43.59 16.066h-28.408"/><path d="M19.946 30.923h-16.965"/><path d="M30.586 30.923h-4.67"/><path d="M42.599 30.923h-5.434"/><path d="M22.79 33.907v10.882"/><path d="M22.79 1.209v26.729"/><circle cx="22.93" cy="30.923" r="2.987"/><circle cx="12.197" cy="16.066" r="2.987"/><circle cx="34.214" cy="30.465" r="2.987"/></g></svg>