<svg xmlns="http://www.w3.org/2000/svg" width="47.476" height="41.36" viewBox="0 0 47.476 41.36"><g stroke="#3B3735" stroke-width="2" stroke-linecap="round" stroke-linejoin="round" stroke-miterlimit="10" fill="none"><path d="M15.46 40.36h-13.731c-.489 0-.839-.589-.698-1.172l1.745-7.171c.093-.383.376-.645.698-.645h10.242c.321 0 .604.262.698.645l1.745 7.171c.141.583-.21 1.172-.699 1.172z"/><path d="M30.65 40.36h-13.731c-.489 0-.839-.589-.698-1.172l1.745-7.171c.093-.383.376-.645.698-.645h10.242c.321 0 .604.262.698.645l1.745 7.171c.14.583-.21 1.172-.699 1.172z"/><path d="M45.746 40.36h-13.731c-.489 0-.839-.589-.698-1.172l1.745-7.171c.093-.383.376-.645.698-.645h10.242c.321 0 .604.262.698.645l1.745 7.171c.141.583-.21 1.172-.699 1.172z"/><path d="M23.06 31.372h-13.731c-.489 0-.839-.589-.698-1.172l1.745-7.171c.093-.383.376-.645.698-.645h10.242c.321 0 .604.262.698.645l1.745 7.171c.141.584-.21 1.172-.699 1.172z"/><path d="M30.562 22.354h-13.731c-.489 0-.839-.589-.698-1.172l1.745-7.171c.093-.383.376-.645.698-.645h10.242c.321 0 .604.262.698.645l1.745 7.171c.14.584-.21 1.172-.699 1.172z"/><path d="M38.157 31.372h-13.731c-.489 0-.839-.589-.698-1.172l1.745-7.171c.093-.383.376-.645.698-.645h10.242c.321 0 .604.262.698.645l1.745 7.171c.14.584-.21 1.172-.699 1.172z"/><path d="M23.536 1v5"/><path d="M39.536 13h-5"/><path d="M34.433 4.548l-3.828 3.216"/><path d="M7.536 13h5"/><path d="M12.457 4.548l3.829 3.216"/></g></svg>