<svg xmlns="http://www.w3.org/2000/svg" width="35.525" height="46.188" viewBox="0 0 35.525 46.188"><g stroke="#3B3735" stroke-width="2" stroke-linecap="round" stroke-linejoin="round" stroke-miterlimit="10" fill="none"><path d="M2.008 1h31.509c.557 0 1.008.451 1.008 1.008v32.197l-10.983 10.983h-21.534c-.557 0-1.008-.451-1.008-1.008v-42.172c0-.557.451-1.008 1.008-1.008z"/><path d="M24.551 34.206h9.975l-10.984 10.982v-9.975c0-.556.452-1.007 1.009-1.007z"/></g><g stroke="#3B3735" stroke-width="2" stroke-linecap="round" stroke-linejoin="round" stroke-miterlimit="10" fill="none"><circle cx="9.01" cy="23.645" r="2.077"/><circle cx="15.283" cy="16.676" r="2.068"/><circle cx="22.572" cy="19.783" r="1.975"/><circle cx="28.549" cy="10.219" r="1.975"/><path d="M11.087 21.393l2.128-2.506"/><path d="M17.351 17.808l2.584 1.079"/><path d="M5.534 28.913l2.086-3.612"/><path d="M23.921 18.347l3.784-6.153"/></g></svg>