<svg xmlns="http://www.w3.org/2000/svg" width="48.609" height="37.438" viewBox="0 0 48.609 37.438"><g stroke="#000" stroke-width="2" stroke-linecap="round" stroke-linejoin="round" stroke-miterlimit="10" fill="none"><path d="M36.39 21.458l11.219-11.219"/><path d="M10.311 21.448l-9.311-9.311"/><path d="M37.049 22.778l2.18 2.18c.866.866.866 2.269 0 3.135-.866.866-2.269.866-3.135 0l-1.52-1.52"/><path d="M33.915 25.913l3.5 3.5c.866.866.866 2.269 0 3.135-.866.866-2.269.866-3.135 0l-3.5-3.5"/><path d="M29.9 28.168l3.72 3.72c.866.866.866 2.269 0 3.135-.866.866-2.269.866-3.135 0l-3.72-3.72"/><path d="M25.885 30.423l2.09 2.09c.866.866.829 2.306-.082 3.217-.911.911-2.352.948-3.217.082l-1.567-1.567"/><path d="M26.15 11.879l10.899 10.899"/><path d="M10.799 2.467l4.472 4.472s4.632-1.201 9.237.15"/><path d="M23.959 30.132l.126.126c.831.831.831 2.178 0 3.008l-1.955 1.955c-.831.831-2.178.831-3.008 0l-.126-.126c-.831-.831-.831-2.178 0-3.008l1.955-1.955c.831-.83 2.178-.83 3.008 0z"/><path d="M21.165 26.142l.126.126c.831.831.831 2.178 0 3.008l-2.795 2.795c-.831.831-2.178.831-3.008 0l-.126-.126c-.831-.831-.831-2.178 0-3.008l2.795-2.795c.83-.831 2.177-.831 3.008 0z"/><path d="M14.895 19.872l.126.126c.831.831.831 2.178 0 3.008l-2.795 2.795c-.831.831-2.178.831-3.008 0l-.126-.126c-.831-.831-.831-2.178 0-3.008l2.795-2.795c.831-.83 2.178-.83 3.008 0z"/><path d="M18.606 22.431l.126.126c.831.831.831 2.178 0 3.008l-3.947 3.947c-.831.831-2.178.831-3.008 0l-.126-.126c-.831-.831-.831-2.178 0-3.008l3.947-3.947c.83-.83 2.177-.83 3.008 0z"/><path d="M38.369 1l-7.974 8.194s-5.307-3.657-8.277-1.347c-1.443 1.122-2.886 2.05-3.989 2.707-1.099.655-1.521 2.034-.991 3.199.599 1.317 2.181 1.861 3.463 1.189l5.219-2.734"/></g></svg>