<svg xmlns="http://www.w3.org/2000/svg" width="480" height="480" viewBox="0 0 480 480"><g stroke="#3B3735" stroke-width="2" stroke-linecap="round" stroke-linejoin="round" stroke-miterlimit="10" fill="none"><path d="M220.406 239.543c0 11.721 9.502 21.222 21.222 21.222 8.622 0 16.044-5.142 19.365-12.527"/><path d="M216.536 243.174l3.87-3.891 4.756 3.833"/></g><g stroke="#3B3735" stroke-width="2" stroke-linecap="round" stroke-linejoin="round" stroke-miterlimit="10" fill="none"><path d="M261.672 240.464c0-11.721-9.502-21.222-21.222-21.222-8.622 0-16.044 5.142-19.365 12.527"/><path d="M265.543 236.833l-3.871 3.891-4.755-3.833"/></g><g stroke="#3B3735" stroke-width="2" stroke-linecap="round" stroke-linejoin="round" stroke-miterlimit="10" fill="none"><path d="M240.976 230.282l-7.788 7.853c-.077.078-.12.183-.12.292v8.02c0 .229.186.415.415.415h15.153c.229 0 .415-.186.415-.415v-8.02c0-.11-.043-.215-.12-.292l-7.788-7.853c-.163-.164-.005-.164-.167 0z"/><path d="M231.243 239.838l9.733-9.556"/><path d="M250.758 239.838l-9.733-9.556"/></g></svg>