<?xml version="1.0" encoding="utf-8"?>
<!-- Generator: Adobe Illustrator 17.0.0, SVG Export Plug-In . SVG Version: 6.00 Build 0)  -->
<!DOCTYPE svg PUBLIC "-//W3C//DTD SVG 1.1//EN" "http://www.w3.org/Graphics/SVG/1.1/DTD/svg11.dtd">
<svg version="1.1" id="Layer_1" xmlns="http://www.w3.org/2000/svg" xmlns:xlink="http://www.w3.org/1999/xlink" x="0px" y="0px"
	 width="51.007px" height="43.523px" viewBox="0 0 51.007 43.523" enable-background="new 0 0 51.007 43.523" xml:space="preserve">
<g>
	<g>
		<g>
			<g>
				
					<path fill="none" stroke="#3B3735" stroke-width="2" stroke-linecap="round" stroke-linejoin="round" stroke-miterlimit="10" d="
					M4.871,21.301c0,11.721,9.502,21.222,21.222,21.222c8.622,0,16.044-5.142,19.365-12.527"/>
				
					<polyline fill="none" stroke="#3B3735" stroke-width="2" stroke-linecap="round" stroke-linejoin="round" stroke-miterlimit="10" points="
					1,24.932 4.871,21.041 9.626,24.874 				"/>
			</g>
		</g>
		<g>
			<g>
				
					<path fill="none" stroke="#3B3735" stroke-width="2" stroke-linecap="round" stroke-linejoin="round" stroke-miterlimit="10" d="
					M46.136,22.222C46.136,10.502,36.635,1,24.914,1C16.292,1,8.87,6.142,5.549,13.527"/>
				
					<polyline fill="none" stroke="#3B3735" stroke-width="2" stroke-linecap="round" stroke-linejoin="round" stroke-miterlimit="10" points="
					50.007,18.591 46.136,22.482 41.381,18.649 				"/>
			</g>
		</g>
	</g>
	<g>
		<path fill="none" stroke="#3B3735" stroke-width="2" stroke-linecap="round" stroke-linejoin="round" stroke-miterlimit="10" d="
			M25.44,12.04l-7.788,7.853c-0.077,0.078-0.12,0.183-0.12,0.292v8.02c0,0.229,0.186,0.415,0.415,0.415h7.365H33.1
			c0.229,0,0.415-0.186,0.415-0.415v-8.02c0-0.11-0.043-0.215-0.12-0.292l-7.788-7.853C25.444,11.876,25.603,11.876,25.44,12.04z"/>
		
			<line fill="none" stroke="#3B3735" stroke-width="2" stroke-linecap="round" stroke-linejoin="round" stroke-miterlimit="10" x1="15.707" y1="21.596" x2="25.44" y2="12.04"/>
		
			<line fill="none" stroke="#3B3735" stroke-width="2" stroke-linecap="round" stroke-linejoin="round" stroke-miterlimit="10" x1="35.222" y1="21.596" x2="25.489" y2="12.04"/>
	</g>
</g>
</svg>
