<svg xmlns="http://www.w3.org/2000/svg" width="50" height="44.154" viewBox="0 0 50 44.154"><g stroke="#3B3735" stroke-width="2" stroke-linecap="round" stroke-linejoin="round" stroke-miterlimit="10" fill="none"><path d="M43.301 32.338h-32.463c-1.657 0-3-1.343-3-3v-17.937c0-1.657 1.343-3 3-3h32.463c1.657 0 3 1.343 3 3v17.936c0 1.657-1.344 3.001-3 3.001z"/><path d="M33.392 8.401h-11.778v-2.874c0-1.105.895-2 2-2h7.778c1.105 0 2 .895 2 2v2.874z"/><path d="M14 8v24"/><path d="M40 8v24"/><path d="M24.088 23.73h-6.061v-6.666l3.031-2.871 3.03 2.871z"/><path d="M21 8v6"/><path d="M1 1h3v35h45"/><circle cx="8.697" cy="39.757" r="3.397"/><circle cx="43.307" cy="39.757" r="3.397"/></g></svg>