<svg xmlns="http://www.w3.org/2000/svg" width="27" height="47.226" viewBox="0 0 27 47.226"><g stroke="#3B3735" stroke-width="2" stroke-linecap="round" stroke-linejoin="round" stroke-miterlimit="10" fill="none"><path d="M12.357 1.06c-6.516.629-11.356 6.362-11.357 12.908v.113c0 1.457.798 2.854 2.135 3.432 2.201.951 4.29-.824 4.29-2.911 0-.089-.015-.647-.015-.941 0-3.605 2.923-6.304 6.528-6.304 1.639 0 3.177.73 4.335 1.891 4.801 4.814.973 11.977-4.335 11.977h-5.301c-4.2 0-7.637 3.437-7.637 7.637v16.363c0 .552.448 1 1 1h23c.552 0 1-.448 1-1v-31.785c0-7.278-6.212-13.097-13.643-12.38z"/><path d="M13.749 1z"/><path d="M5.551 27.54h15.898v14.426h-15.898z"/></g></svg>