<svg xmlns="http://www.w3.org/2000/svg" width="49.306" height="40" viewBox="0 0 49.306 40"><g stroke="#3B3735" stroke-width="2" stroke-linecap="round" stroke-linejoin="round" stroke-miterlimit="10" fill="none"><path d="M1 26.298h47.306v8.396h-47.306z"/><path d="M4.578 35v4"/><path d="M44.578 35v4"/><path d="M20.313 17.767h-7.75c-.552 0-1-.448-1-1v-3.974c0-.552.448-1 1-1h7.75c.552 0 1 .448 1 1v3.974c0 .552-.448 1-1 1z"/><path d="M36.313 17.767h-7.75c-.552 0-1-.448-1-1v-3.974c0-.552.448-1 1-1h7.75c.552 0 1 .448 1 1v3.974c0 .552-.448 1-1 1z"/><path d="M11.578 15h-5.161l-5.417 11h47.306l-5.416-11h-5.312"/><path d="M27.578 15h-6"/><path d="M37.578 15h5v-11.89c0-1.105-.584-2.11-1.689-2.11h-32.472c-1.105 0-1.839 1.005-1.839 2.11v11.89h5"/><path d="M21.578 15h6"/></g></svg>