<svg xmlns="http://www.w3.org/2000/svg" width="34.422" height="15.624" viewBox="0 0 34.422 15.624"><path stroke="#3B3735" stroke-width="2" stroke-linecap="round" stroke-linejoin="round" stroke-miterlimit="10" fill="none" d="M1 14.604v-13.584"/><g stroke="#3B3735" stroke-width="2" stroke-linecap="round" stroke-linejoin="round" stroke-miterlimit="10" fill="none"><path d="M6 14.604v-13.584"/><path d="M6 1.02h5.836"/><path d="M6 7.52h5.836"/></g><g stroke="#3B3735" stroke-width="2" stroke-linecap="round" stroke-linejoin="round" stroke-miterlimit="10" fill="none"><path d="M16 14.604v-13.584"/><path d="M19.25 7.52l3.25 7.084"/><path d="M16 7.52h3.25c1.795 0 3.25-1.455 3.25-3.25s-1.455-3.25-3.25-3.25h-3.25"/></g><path stroke="#3B3735" stroke-width="2" stroke-linecap="round" stroke-linejoin="round" stroke-miterlimit="10" d="M26.502 11.164c0 1.911 1.549 3.46 3.46 3.46s3.46-1.549 3.46-3.46c0-3.06-3.46-3.46-3.46-3.46s-3.352-.58-3.352-3.352c0-1.851 1.501-3.352 3.352-3.352s3.352 1.501 3.352 3.352" fill="none"/></svg>