<svg xmlns="http://www.w3.org/2000/svg" width="16.169" height="20.737" viewBox="0 0 16.169 20.737"><path stroke="#3B3735" stroke-linecap="round" stroke-linejoin="round" stroke-miterlimit="10" fill="none" d="M.5 13.498v-6.355"/><g stroke="#3B3735" stroke-linecap="round" stroke-linejoin="round" stroke-miterlimit="10" fill="none"><path d="M2.839 13.498v-6.355"/><path d="M2.839 7.143h2.731"/><path d="M2.839 10.184h2.731"/></g><g stroke="#3B3735" stroke-linecap="round" stroke-linejoin="round" stroke-miterlimit="10" fill="none"><path d="M7.518 13.498v-6.355"/><path d="M9.038 10.184l1.521 3.314"/><path d="M7.518 10.184h1.521c.84 0 1.521-.681 1.521-1.521s-.682-1.52-1.522-1.52h-1.52"/></g><path stroke="#3B3735" stroke-linecap="round" stroke-linejoin="round" stroke-miterlimit="10" d="M12.432 11.889c0 .894.725 1.619 1.619 1.619s1.619-.725 1.619-1.619c0-1.432-1.619-1.619-1.619-1.619s-1.568-.271-1.568-1.568c0-.866.702-1.568 1.568-1.568s1.568.702 1.568 1.568" fill="none"/><path stroke="#3B3735" stroke-linecap="round" stroke-linejoin="round" stroke-miterlimit="10" fill="none" d="M.5 16.244h15.169"/><path stroke="#3B3735" stroke-linecap="round" stroke-linejoin="round" stroke-miterlimit="10" fill="none" d="M.5 18.244h15.169"/><path stroke="#3B3735" stroke-linecap="round" stroke-linejoin="round" stroke-miterlimit="10" fill="none" d="M.5 20.237h15.169"/><path stroke="#3B3735" stroke-linecap="round" stroke-linejoin="round" stroke-miterlimit="10" fill="none" d="M.5.5h15.169"/><path stroke="#3B3735" stroke-linecap="round" stroke-linejoin="round" stroke-miterlimit="10" fill="none" d="M.5 2.5h15.169"/><path stroke="#3B3735" stroke-linecap="round" stroke-linejoin="round" stroke-miterlimit="10" fill="none" d="M.5 4.494h15.169"/></svg>