<svg xmlns="http://www.w3.org/2000/svg" width="44.845" height="48.107" viewBox="0 0 44.845 48.107"><g stroke="#3B3735" stroke-width="2" stroke-linecap="round" stroke-linejoin="round" stroke-miterlimit="10" fill="none"><path d="M35.123 22.988c0-6.799-5.437-12.329-12.2-12.479-6.721-.149-12.471 5.23-12.752 11.947-.095 2.267.42 4.414 1.39 6.283.564 1.086 1.097 2.187 1.492 3.345l2.538 7.445h14.49l1.973-6.493c.455-1.496.995-2.969 1.707-4.362.869-1.705 1.362-3.642 1.362-5.686z"/><path d="M30.257 43.176h-14.408c-.552 0-1-.448-1-1v-1.647c0-.552.448-1 1-1h14.407c.552 0 1 .448 1 1v1.647c.001.553-.447 1-.999 1z"/><path d="M28.763 47.107h-11.42c-.552 0-1-.448-1-1v-2.931h13.421v2.931c-.001.553-.448 1-1.001 1z"/><path d="M22.347 1v5"/><path d="M32.188 3.582l-2.618 4.26"/><path d="M39.809 9.123l-3.86 3.178"/><path d="M12.19 3.582l2.619 4.26"/><path d="M4.57 9.123l3.86 3.178"/><path d="M1 18.751l4.999-.078"/><path d="M43.845 18.751l-5-.078"/><path d="M21.007 39.529l-1.75-9.294"/><path d="M25.007 39.529l1.75-9.294"/><path d="M20.347 31h6"/></g></svg>