<?xml version="1.0" encoding="utf-8"?>
<!-- Generator: Adobe Illustrator 17.0.0, SVG Export Plug-In . SVG Version: 6.00 Build 0)  -->
<!DOCTYPE svg PUBLIC "-//W3C//DTD SVG 1.1//EN" "http://www.w3.org/Graphics/SVG/1.1/DTD/svg11.dtd">
<svg version="1.1" id="Layer_1" xmlns="http://www.w3.org/2000/svg" xmlns:xlink="http://www.w3.org/1999/xlink" x="0px" y="0px"
	 width="45.09px" height="37.852px" viewBox="0 0 45.09 37.852" enable-background="new 0 0 45.09 37.852" xml:space="preserve">
<path fill="none" stroke="#3B3735" stroke-width="2" stroke-linecap="round" stroke-linejoin="round" stroke-miterlimit="10" d="
	M40.996,14.825H28.003l0,0h-2.012l4.955-7.543C32.364,5.187,31.61,2.145,29.298,1L15.837,16.825H11.09v16h6.23l1.844,1.346
	c1.444,1.136,3.272,1.654,5.16,1.654h3.853h7.688h0.742c1.519,0,2.751-0.981,2.751-2.5s-1.231-2.5-2.751-2.5h0.487
	c1.72,0,3.115-1.544,3.115-3.264c0-1.428-1.158-2.736-2.586-2.736h1.341c1.428,0,2.586-1.072,2.586-2.5s-1.158-2.5-2.586-2.5h2.031
	c1.619,0,3.095-1.008,3.095-2.627v-0.015C44.09,15.563,42.615,14.825,40.996,14.825z"/>
<line fill="none" stroke="#3B3735" stroke-width="2" stroke-linecap="round" stroke-linejoin="round" stroke-miterlimit="10" x1="36.09" y1="30.825" x2="34.09" y2="30.825"/>
<line fill="none" stroke="#3B3735" stroke-width="2" stroke-linecap="round" stroke-linejoin="round" stroke-miterlimit="10" x1="37.09" y1="24.825" x2="35.09" y2="24.825"/>
<line fill="none" stroke="#3B3735" stroke-width="2" stroke-linecap="round" stroke-linejoin="round" stroke-miterlimit="10" x1="39.09" y1="19.825" x2="36.09" y2="19.825"/>
<path fill="none" stroke="#3B3735" stroke-width="2" stroke-linecap="round" stroke-linejoin="round" stroke-miterlimit="10" d="
	M9.09,36.852h-6c-1.105,0-2-0.895-2-2V15.254c0-1.105,0.895-2,2-2h6c1.105,0,2,0.895,2,2v19.598
	C11.09,35.957,10.195,36.852,9.09,36.852z"/>
</svg>
