<svg xmlns="http://www.w3.org/2000/svg" width="46.467" height="46.773" viewBox="0 0 46.467 46.773"><g stroke="#3B3735" stroke-width="2" stroke-linecap="round" stroke-linejoin="round" stroke-miterlimit="10" fill="none"><circle cx="28.406" cy="28.734" r="11.936"/><circle cx="28.406" cy="28.734" r="8.44"/><path d="M36.857 37.163c-.612.612-1.476 1.338-2.068 1.683l6.233 6.233c.985.985 2.674.893 3.659-.092.985-.985 1.077-2.674.092-3.659l-6.233-6.233c-.345.593-1.07 1.456-1.683 2.068z"/><path d="M34.525 18.378v-6.395l-10.983-10.983h-21.534c-.557 0-1.008.451-1.008 1.008v42.172c0 .557.451 1.008 1.008 1.008h31.509c.557 0 1.008-.451 1.008-1.008v-4.927"/><path d="M24.551 11.983h9.975l-10.984-10.983v9.975c0 .556.452 1.008 1.009 1.008z"/><path d="M7.138 18.018h15"/><path d="M7.138 23.018h10"/><path d="M7.138 28.018h9"/><path d="M7.138 33.018h10"/><path d="M21.138 26.018h7"/><path d="M21.138 30.018h7"/></g></svg>