<svg xmlns="http://www.w3.org/2000/svg" width="48.91" height="37.348" viewBox="0 0 48.91 37.348"><g stroke="#231F20" stroke-width="2" stroke-linecap="round" stroke-linejoin="round" stroke-miterlimit="10" fill="none"><circle cx="40.171" cy="32.477" r="3.871"/><circle cx="14.961" cy="32.477" r="3.871"/><path d="M38.976 9.024l-5.862-.063v23.603h3.186c0-2.959 1.733-3.871 3.871-3.871s3.871.912 3.871 3.871h2.867c.552 0 1-.448 1-1v-11.886c0-.45-.154-.886-.436-1.236l-6.981-8.682c-.37-.459-.926-.73-1.516-.736z"/><path d="M4.509 3v28.564c0 .552.448 1 1 1h5.586c.03-2.959 1.746-3.817 3.866-3.817 2.119 0 3.836.857 3.866 3.817h14.287v-29.564c0-1.105-.895-2-2-2h-24.605c-1.104 0-2 .895-2 2z"/><path d="M9 4.64h15"/><path d="M2 8.64h14"/><path d="M9 12.64h3"/><path d="M1 16.64h10"/></g></svg>