<svg xmlns="http://www.w3.org/2000/svg" width="48.09" height="37.071" viewBox="0 0 48.09 37.071"><g stroke="#3B3735" stroke-width="2" stroke-linecap="round" stroke-linejoin="round" stroke-miterlimit="10" fill="none"><path d="M24.705 28.071h-23.615v8h14v-3h19v3h13v-8z"/><path d="M1 1h18.201v27.799h-18.201z"/><path d="M19.201 1h27.799v27.799h-27.799z"/><path d="M19.201 18.217h27.799v10.583h-27.799z"/><path d="M23.1 6.514h20v6.677h-20z"/><path d="M4.781 6.514h10.852v5.432h-10.852z"/><path d="M6.09 16.071h1"/><path d="M10.09 16.071h1"/><path d="M14.09 16.071h1"/><path d="M6.09 19.071h1"/><path d="M10.09 19.071h1"/><path d="M14.09 19.071h1"/><path d="M6.09 22.071h1"/><path d="M10.09 22.071h1"/><path d="M14.09 22.071h1"/></g></svg>