<svg xmlns="http://www.w3.org/2000/svg" width="50" height="44.11" viewBox="0 0 50 44.11"><g stroke="#3B3735" stroke-width="2" stroke-linecap="round" stroke-linejoin="round" stroke-miterlimit="10" fill="none"><path d="M1 26v8.36l3.745 4.64h40l4.255-4.64v-8.36z"/><path d="M1 34h48"/><path d="M4.745 39.36h8.165v3.75h-8.165z"/><path d="M36.827 39.36h8.165v3.75h-8.165z"/><path d="M14.233 26.36h-7.657v-9.34c0-2.114 1.714-3.829 3.829-3.829 2.114 0 3.829 1.714 3.829 3.829v9.34z"/><path d="M6 19h-4v-13.64l4.576-4.36h18.424"/><path d="M25 1h18.243l4.757 4.36v6.64h-29v7h-4"/><path d="M24.91 8.424h18.312v3.936h-18.312z"/><path d="M24.91 22.424h18.312v3.936h-18.312z"/><path d="M24.91 18.489h23v3.936h-23z"/></g></svg>