<svg xmlns="http://www.w3.org/2000/svg" width="47.388" height="40.243" viewBox="0 0 47.388 40.243"><g stroke="#3B3735" stroke-width="2" stroke-linecap="round" stroke-linejoin="round" stroke-miterlimit="10" fill="none"><path d="M46.388 26.356c0 4.657-6.479 12.887-8.433 12.887-2.291 0-8.433-8.23-8.433-12.887s3.776-8.433 8.433-8.433 8.433 3.776 8.433 8.433z"/><circle cx="37.955" cy="26.935" r="2.724"/><path d="M12 30.458l-11 6.861v-29.459l11-6.86z"/><path d="M12 30.458l10 6.861v-29.459l-10-6.86z"/><path d="M38.045 17.923c1.854 0 3.955.606 4.955 1.62v-11.683l-10-6.86v18.61c1-1.054 3.151-1.687 5.045-1.687z"/><path d="M41.6 36.359l1.4.96v-2.781c-1 .65-.932 1.263-1.4 1.821z"/><path d="M29.567 26.356c0-2.763 1.433-5.208 3.433-6.746v-18.61l-11 6.86v29.458l9.176-5.737c-.943-1.849-1.609-3.722-1.609-5.225z"/></g></svg>