<svg xmlns="http://www.w3.org/2000/svg" width="38.08" height="48.453" viewBox="0 0 38.08 48.453"><g stroke="#3B3735" stroke-width="2" stroke-linecap="round" stroke-linejoin="round" stroke-miterlimit="10" fill="none"><path d="M36.967 9.584c0 4.741-6.595 13.118-8.584 13.118-2.332 0-8.584-8.377-8.584-13.118s3.843-8.584 8.584-8.584 8.584 3.843 8.584 8.584z"/><circle cx="28.383" cy="10.173" r="2.773"/><path d="M19.04 11.372c-9.963 0-18.04 8.077-18.04 18.04s8.077 18.04 18.04 18.04 18.04-8.077 18.04-18.04c0-4.224-1.452-8.109-3.883-11.183"/><path d="M19.04 11.372c-5.425 0-9.824 8.077-9.824 18.04s4.398 18.04 9.824 18.04 9.824-8.077 9.824-18.04c0-2.354-.246-4.603-.692-6.665"/><path d="M35.399 22.799h-33"/><path d="M35.399 35.799h-33"/><path d="M18.399 11.799v35"/></g></svg>