<svg xmlns="http://www.w3.org/2000/svg" width="30.429" height="41.282" viewBox="0 0 30.429 41.282"><g stroke="#231F20" stroke-linecap="round" stroke-linejoin="round" stroke-miterlimit="2.613" fill="none"><path stroke-width="1.5" d="M18.576 12.872v27.66h-14.818"/><path stroke-width="1.5" d="M29.679 14.448v23.076c0 1.661-1.347 3.008-3.008 3.008h-8.095v-27.66l2.776-3.457 2.776-3.458 2.776 3.458 1.789 2.228c.638.795.986 1.785.986 2.805z"/><path stroke-width="1.5" d="M6.302 5.956l-2.776 3.458-1.789 2.228c-.639.796-.987 1.785-.987 2.806v23.076c0 1.661 1.347 3.008 3.008 3.008"/><path stroke-width="1.5" d="M6.302 5.956h17.826"/><path stroke-width="1.5" d="M7.749.75h14.931c.799 0 1.448.648 1.448 1.448v3.759h-17.826v-3.759c0-.8.648-1.448 1.447-1.448z"/><path stroke-width="1.5" d="M.75 22.86h17.826v7.683h-17.826z"/><path stroke-width="1.479" d="M1.256 12.872h17.32"/></g></svg>