<?xml version="1.0" encoding="utf-8"?>
<!-- Generator: Adobe Illustrator 17.0.0, SVG Export Plug-In . SVG Version: 6.00 Build 0)  -->
<!DOCTYPE svg PUBLIC "-//W3C//DTD SVG 1.1//EN" "http://www.w3.org/Graphics/SVG/1.1/DTD/svg11.dtd">
<svg version="1.1" id="Layer_1" xmlns="http://www.w3.org/2000/svg" xmlns:xlink="http://www.w3.org/1999/xlink" x="0px" y="0px"
	 width="30.312px" height="42.36px" viewBox="0 0 30.312 42.36" enable-background="new 0 0 30.312 42.36" xml:space="preserve">
<g>
	<path fill="none" stroke="#3B3735" stroke-width="2" stroke-linecap="round" stroke-linejoin="round" stroke-miterlimit="10" d="
		M14.252,41.36H26.91c0.499,0,0.904-0.405,0.904-0.904V15.513c0-0.24-0.095-0.47-0.265-0.639l-4.895-4.895
		c-0.17-0.17-0.265-0.4-0.265-0.639V2.48c0-0.499-0.405-0.904-0.904-0.904h-7.234H8.826c-0.499,0-0.904,0.405-0.904,0.904v6.859
		c0,0.24-0.095,0.47-0.265,0.639l-4.895,4.895c-0.17,0.17-0.265,0.4-0.265,0.639v24.943c0,0.499,0.405,0.904,0.904,0.904H14.252z"/>
	
		<line fill="none" stroke="#3B3735" stroke-width="2" stroke-linecap="round" stroke-linejoin="round" stroke-miterlimit="10" x1="5.746" y1="1" x2="24.746" y2="1"/>
	
		<line fill="none" stroke="#3B3735" stroke-width="2" stroke-linecap="round" stroke-linejoin="round" stroke-miterlimit="10" x1="1" y1="7.137" x2="5.812" y2="11.823"/>
	
		<line fill="none" stroke="#3B3735" stroke-width="2" stroke-linecap="round" stroke-linejoin="round" stroke-miterlimit="10" x1="29.312" y1="7.137" x2="24.499" y2="11.823"/>
</g>
</svg>
