<?xml version="1.0" encoding="utf-8"?>
<!-- Generator: Adobe Illustrator 17.0.0, SVG Export Plug-In . SVG Version: 6.00 Build 0)  -->
<!DOCTYPE svg PUBLIC "-//W3C//DTD SVG 1.1//EN" "http://www.w3.org/Graphics/SVG/1.1/DTD/svg11.dtd">
<svg version="1.1" id="Layer_1" xmlns="http://www.w3.org/2000/svg" xmlns:xlink="http://www.w3.org/1999/xlink" x="0px" y="0px"
	 width="37.576px" height="47.562px" viewBox="0 0 37.576 47.562" enable-background="new 0 0 37.576 47.562" xml:space="preserve">
<g>
	
		<polyline fill="none" stroke="#3B3735" stroke-width="2" stroke-linecap="round" stroke-linejoin="round" stroke-miterlimit="10" points="
		7.841,34.562 7.841,46.562 30.841,46.562 30.841,33.562 	"/>
	
		<polyline fill="none" stroke="#3B3735" stroke-width="2" stroke-linecap="round" stroke-linejoin="round" stroke-miterlimit="10" points="
		11.841,15.562 11.841,17.225 9.74,25.408 	"/>
	<path fill="none" stroke="#3B3735" stroke-width="2" stroke-linecap="round" stroke-linejoin="round" stroke-miterlimit="10" d="
		M24.056,8.533c-1.29-1.091-2.957-1.747-4.805-1.747c-2.843,0-5.258,1.552-6.532,3.855"/>
	<path fill="none" stroke="#3B3735" stroke-width="2" stroke-linecap="round" stroke-linejoin="round" stroke-miterlimit="10" d="
		M27.961,21.699l-1.12-4.474v-2.792c0-0.527-0.074-1.041-0.171-1.538"/>
	<g>
		<g>
			<g>
				
					<polygon fill="none" stroke="#3B3735" stroke-width="2" stroke-linecap="round" stroke-linejoin="round" stroke-miterlimit="10" points="
					5.784,36.468 1.928,31.468 13.596,22.469 16.424,26.136 				"/>
				
					<line fill="none" stroke="#3B3735" stroke-width="2" stroke-linecap="round" stroke-linejoin="round" stroke-miterlimit="10" x1="13.808" y1="22.571" x2="18.475" y2="18.971"/>
			</g>
			<g>
				
					<polygon fill="none" stroke="#3B3735" stroke-width="2" stroke-linecap="round" stroke-linejoin="round" stroke-miterlimit="10" points="
					1,5.784 6.001,1.928 15,13.596 11.332,16.424 				"/>
				
					<line fill="none" stroke="#3B3735" stroke-width="2" stroke-linecap="round" stroke-linejoin="round" stroke-miterlimit="10" x1="14.897" y1="13.808" x2="18.497" y2="18.475"/>
			</g>
			<g>
				
					<polygon fill="none" stroke="#3B3735" stroke-width="2" stroke-linecap="round" stroke-linejoin="round" stroke-miterlimit="10" points="
					31.684,1 35.541,6.001 23.872,15 21.044,11.332 				"/>
				
					<line fill="none" stroke="#3B3735" stroke-width="2" stroke-linecap="round" stroke-linejoin="round" stroke-miterlimit="10" x1="23.66" y1="14.897" x2="18.993" y2="18.497"/>
			</g>
			<g>
				
					<polygon fill="none" stroke="#3B3735" stroke-width="2" stroke-linecap="round" stroke-linejoin="round" stroke-miterlimit="10" points="
					36.576,30.849 31.575,34.705 22.577,23.037 26.244,20.209 				"/>
				
					<line fill="none" stroke="#3B3735" stroke-width="2" stroke-linecap="round" stroke-linejoin="round" stroke-miterlimit="10" x1="22.679" y1="22.825" x2="19.079" y2="18.158"/>
			</g>
		</g>
		
			<circle fill="none" stroke="#3B3735" stroke-width="2" stroke-linecap="round" stroke-linejoin="round" stroke-miterlimit="10" cx="19.088" cy="18.598" r="2.173"/>
	</g>
	
		<line fill="none" stroke="#3B3735" stroke-width="2" stroke-linecap="round" stroke-linejoin="round" stroke-miterlimit="10" x1="10.841" y1="38.562" x2="21.841" y2="38.562"/>
	
		<line fill="none" stroke="#3B3735" stroke-width="2" stroke-linecap="round" stroke-linejoin="round" stroke-miterlimit="10" x1="14.841" y1="41.562" x2="14.841" y2="38.562"/>
	
		<line fill="none" stroke="#3B3735" stroke-width="2" stroke-linecap="round" stroke-linejoin="round" stroke-miterlimit="10" x1="10.841" y1="42.562" x2="17.841" y2="42.562"/>
	
		<line fill="none" stroke="#3B3735" stroke-width="2" stroke-linecap="round" stroke-linejoin="round" stroke-miterlimit="10" x1="19.841" y1="32.562" x2="26.841" y2="32.562"/>
	
		<line fill="none" stroke="#3B3735" stroke-width="2" stroke-linecap="round" stroke-linejoin="round" stroke-miterlimit="10" x1="22.841" y1="29.562" x2="22.841" y2="32.562"/>
</g>
</svg>
