<svg xmlns="http://www.w3.org/2000/svg" width="47" height="46" viewBox="0 0 47 46"><g stroke="#3B3735" stroke-width="2" stroke-linecap="round" stroke-linejoin="round" stroke-miterlimit="10" fill="none"><path d="M19.535 4.83l4.76 8.245-4.76 8.245h-9.52l-4.76-8.245 4.76-8.245z"/><path d="M19.535 23.929l4.76 8.245-4.76 8.245h-9.52l-4.76-8.245 4.76-8.245z"/><path d="M9.198 32.174l2.726-4.631"/><path d="M36.535 13.929l4.76 8.245-4.76 8.245h-9.52l-4.76-8.245 4.76-8.245z"/><path d="M26.198 22.174l2.726-4.631"/><path d="M12 17.557h6"/><path d="M1 12.557h4"/><path d="M10.015 40.419l-2.772 4.581"/><path d="M41 21.557h5"/><path d="M36.535 13.929l2.708-3.929"/><path d="M10.015 4.83l-2.272-3.83"/></g></svg>