<svg xmlns="http://www.w3.org/2000/svg" width="27.071" height="47.281" viewBox="0 0 27.071 47.281"><g stroke="#231F20" stroke-width="2" stroke-linecap="round" stroke-linejoin="round" stroke-miterlimit="10" fill="none"><path d="M13.613 32.049s2.617 4.593 2.617 14.233"/><path d="M4.806 46.043l-3.534-13.737c-.485-1.861-.318-3.831.473-5.584l2.458-5.441"/><path d="M19.421 45.921v-5"/><path d="M15.977 41.208h9.094c.552 0 1-.448 1-1v-38.208c0-.552-.448-1-1-1h-19.855c-.552 0-1 .448-1 1v28.698999999999998c0 .554.45 1.002 1.003 1l1.204-.004c.551-.002.997-.449.997-1v-10.366c0-1.611 1.333-2.918 2.977-2.918s2.977 1.306 2.977 2.918v11.363"/><path d="M12.031 17.89c.759-.692 1.765-1.113 2.868-1.113 2.366 0 4.283 1.937 4.283 4.327s-1.918 4.327-4.283 4.327c-.566 0-.612.091-1.106-.111"/><path d="M16.421 37.921h4.15c.238-2 1.85-2.567 2.85-2.579v-28.298c-1-.09-2.575-1.122-2.84-3.122h-10.136c-.265 2-1.024 3.032-3.024 3.122v22.878"/></g></svg>