<svg xmlns="http://www.w3.org/2000/svg" width="32.398" height="46.774" viewBox="0 0 32.398 46.774"><g stroke="#3B3735" stroke-width="2" stroke-linecap="round" stroke-linejoin="round" stroke-miterlimit="10" fill="none"><path d="M11.563 11.686l19.835 19.487-8.804.756 5.017 11.901-4.61 1.944-5.017-11.901-6.488 5.69z"/><path d="M11.563 11.686l3.971 3.902c1.003-.989 1.626-2.363 1.626-3.883 0-3.013-2.442-5.455-5.455-5.455s-5.455 2.442-5.455 5.455c0 2.96 2.359 5.364 5.3 5.447l.013-5.466z"/><path d="M11.563 11.686l7.718 7.582c1.934-1.937 3.13-4.61 3.13-7.563-.001-5.912-4.794-10.705-10.706-10.705s-10.705 4.793-10.705 10.705c0 5.856 4.703 10.606 10.537 10.696l.026-10.715z"/></g></svg>