<?xml version="1.0" encoding="utf-8"?>
<!-- Generator: Adobe Illustrator 17.0.0, SVG Export Plug-In . SVG Version: 6.00 Build 0)  -->
<!DOCTYPE svg PUBLIC "-//W3C//DTD SVG 1.1//EN" "http://www.w3.org/Graphics/SVG/1.1/DTD/svg11.dtd">
<svg version="1.1" id="Layer_1" xmlns="http://www.w3.org/2000/svg" xmlns:xlink="http://www.w3.org/1999/xlink" x="0px" y="0px"
	 width="40.099px" height="48.188px" viewBox="0 0 40.099 48.188" enable-background="new 0 0 40.099 48.188" xml:space="preserve">
<g>
	<path fill="none" stroke="#3B3735" stroke-width="2" stroke-linecap="round" stroke-linejoin="round" stroke-miterlimit="10" d="
		M8.362,38.459v-2.608v-8.314c0-1.549,1.281-2.805,2.862-2.805h0c1.581,0,2.862,1.256,2.862,2.805v10.922"/>
	<path fill="none" stroke="#3B3735" stroke-width="2" stroke-linecap="round" stroke-linejoin="round" stroke-miterlimit="10" d="
		M14.086,38.504c0,0,0.238,1.667,1.022,8.683"/>
	<path fill="none" stroke="#3B3735" stroke-width="2" stroke-linecap="round" stroke-linejoin="round" stroke-miterlimit="10" d="
		M5.85,47.152l-3.351-7.646c-0.826-1.265-1.352-4.139-0.591-5.823l3.739-10.928"/>
	
		<line fill="none" stroke="#3B3735" stroke-width="2" stroke-linecap="round" stroke-linejoin="round" stroke-miterlimit="10" x1="20" y1="46.878" x2="20" y2="38.878"/>
</g>
<path fill="none" stroke="#3B3735" stroke-width="2" stroke-linecap="round" stroke-linejoin="round" stroke-miterlimit="10" d="
	M35.587,1h0.409c1.714,0,3.103,1.389,3.103,3.103v3.819h-6.615V4.103C32.483,2.389,33.873,1,35.587,1z"/>
<path fill="none" stroke="#3B3735" stroke-width="2" stroke-linecap="round" stroke-linejoin="round" stroke-miterlimit="10" d="
	M8.362,38.762H5.788V5.585C5.788,3.053,7.841,1,10.373,1h25.418"/>
<polyline fill="none" stroke="#3B3735" stroke-width="2" stroke-linecap="round" stroke-linejoin="round" stroke-miterlimit="10" points="
	32.483,4.308 32.483,38.762 20.291,38.762 14.29,38.762 "/>
<rect x="10.821" y="6.957" fill="none" stroke="#3B3735" stroke-width="2" stroke-linecap="round" stroke-linejoin="round" stroke-miterlimit="10" width="16.415" height="14.155"/>
<line fill="none" stroke="#3B3735" stroke-width="2" stroke-linecap="round" stroke-linejoin="round" stroke-miterlimit="10" x1="13" y1="24.878" x2="27" y2="24.878"/>
<line fill="none" stroke="#3B3735" stroke-width="2" stroke-linecap="round" stroke-linejoin="round" stroke-miterlimit="10" x1="14" y1="28.878" x2="27" y2="28.878"/>
<line fill="none" stroke="#3B3735" stroke-width="2" stroke-linecap="round" stroke-linejoin="round" stroke-miterlimit="10" x1="14" y1="33.878" x2="27" y2="33.878"/>
<polyline fill="none" stroke="#3B3735" stroke-width="2" stroke-linecap="round" stroke-linejoin="round" stroke-miterlimit="10" stroke-dasharray="1,3" points="
	27,43.878 38,43.878 38,10.878 "/>
<line fill="none" stroke="#3B3735" stroke-width="2" stroke-linecap="round" stroke-linejoin="round" stroke-miterlimit="10" stroke-dasharray="1,3" x1="1" y1="2.878" x2="1" y2="24.878"/>
<polygon fill="none" stroke="#3B3735" stroke-width="2" stroke-linecap="round" stroke-linejoin="round" stroke-miterlimit="10" points="
	18,11.402 18,16.571 20.859,13.987 "/>
</svg>
