<svg xmlns="http://www.w3.org/2000/svg" width="36.427" height="47.844" viewBox="0 0 36.427 47.844"><g stroke="#3B3735" stroke-width="2" stroke-linecap="round" stroke-linejoin="round" stroke-miterlimit="10" fill="none"><circle cx="18.214" cy="18.214" r="11.97"/><circle cx="18.214" cy="18.214" r="17.214"/></g><path stroke="#3B3735" stroke-width="2" stroke-linecap="round" stroke-linejoin="round" stroke-miterlimit="10" fill="none" d="M16.278 16.711l2.436-2.605v9.194"/><path stroke="#3B3735" stroke-width="2" stroke-linecap="round" stroke-linejoin="round" stroke-miterlimit="10" d="M18.623 36.375l-2.56 9.643c-.187.703-.747 1.056-1.053.662l-3.082-3.965c-.122-.157-.297-.203-.48-.128l-4.643 1.914c-.461.19-.772-.394-.586-1.097l2.749-9.629" fill="none"/><path stroke="#3B3735" stroke-width="2" stroke-linecap="round" stroke-linejoin="round" stroke-miterlimit="10" d="M18.623 36.375l2.56 9.643c.187.703.747 1.056 1.053.662l3.082-3.965c.122-.157.297-.203.48-.128l4.643 1.914c.461.19.772-.394.586-1.097l-2.749-9.629" fill="none"/></svg>