<svg xmlns="http://www.w3.org/2000/svg" width="48" height="50.197" viewBox="0 0 48 50.197"><g stroke="#3B3735" stroke-width="2" stroke-linecap="round" stroke-linejoin="round" stroke-miterlimit="10" fill="none"><path d="M1 45.197h46v4h-46z"/><path d="M14.599 45.377l8.401-29.82v29.64"/><path d="M31.401 45.377l-8.401-29.82v29.64"/><path d="M30.019 40.943l-12.71-5.386 9.053-6"/><path d="M12.824 10.987l25.308 9.794"/><path d="M5.221 17l7.896-6.143-1.705-9.857c-2.792 1.313-5.108 3.651-6.31 6.756s-1.063 6.394.119 9.244z"/><path d="M4.77 11.75l8.347-.892"/><path d="M7.545 4.58l5.572 6.278"/><circle cx="40.729" cy="21.382" r="2.072"/><path d="M3 40.197h7v5h-7z"/><path d="M6 40.197v-24"/><path d="M38 40.197h7v5h-7z"/><path d="M41 40.197v-17"/></g></svg>