<svg xmlns="http://www.w3.org/2000/svg" width="46.377" height="48.031" viewBox="0 0 46.377 48.031"><g stroke="#3B3735" stroke-width="2" stroke-linecap="round" stroke-linejoin="round" stroke-miterlimit="10" fill="none"><path d="M22.691 1.128l-21.157 11.656c-.329.181-.534.528-.534.904v20.655c0 .376.205.722.534.904l21.157 11.656c.31.171.686.171.996 0l21.157-11.656c.329-.181.534-.528.534-.904v-20.655c0-.376-.205-.722-.534-.904l-21.157-11.656c-.31-.171-.686-.171-.996 0z"/><path d="M44.99 12.932l-21.874 12.224-21.875-12.224"/><path d="M23.116.707"/><path d="M44.99 12.932l-21.874 12.224v21.875"/><path d="M11.675 26.89v-7.718l22.579-12.223"/><path d="M33.432 27.94l-5.858 3.098c-.585.309-1.289-.115-1.289-.777v-1.966c0-.326.18-.625.468-.777l5.858-3.098c.585-.309 1.289.115 1.289.777v1.966c0 .326-.18.625-.468.777z"/></g></svg>