<svg xmlns="http://www.w3.org/2000/svg" width="47.09" height="46.765" viewBox="0 0 47.09 46.765"><path stroke="#3B3735" stroke-width="2" stroke-linecap="round" stroke-linejoin="round" stroke-miterlimit="10" fill="none" d="M1.09 41.765h45v4h-45z"/><path stroke="#3B3735" stroke-width="2" stroke-linecap="round" stroke-linejoin="round" stroke-miterlimit="10" fill="none" d="M1.09 29.765h45v12h-45z"/><path stroke="#3B3735" stroke-width="2" stroke-linecap="round" stroke-linejoin="round" stroke-miterlimit="10" fill="none" d="M18.09 24.765h24v5h-24z"/><path stroke="#3B3735" stroke-width="2" stroke-linecap="round" stroke-linejoin="round" stroke-miterlimit="10" fill="none" d="M22.09 19.765h16v5h-16z"/><path stroke="#3B3735" stroke-width="2" stroke-linecap="round" stroke-linejoin="round" stroke-miterlimit="10" d="M31.812 3c-2.224 0-2.224-2-4.449-2-2.226 0-2.226 2-4.453 2-2.228 0-2.228-2-4.456-2-2.226 0-2.226 2-4.454 2" fill="none"/><path stroke="#3B3735" stroke-width="2" stroke-linecap="round" stroke-linejoin="round" stroke-miterlimit="10" d="M39.828 10.125c-2.224 0-2.224-2-4.449-2-2.226 0-2.226 2-4.453 2-2.228 0-2.228-2-4.456-2s-2.228 2-4.456 2" fill="none"/><g stroke="#3B3735" stroke-width="2" stroke-linecap="round" stroke-linejoin="round" stroke-miterlimit="10" fill="none"><path d="M8.09 35.765h2"/><path d="M13.09 35.765h2"/><path d="M18.09 35.765h2"/><path d="M23.09 35.765h2"/><path d="M28.09 35.765h2"/><path d="M33.09 35.765h2"/><path d="M38.09 35.765h2"/></g><path stroke="#3B3735" stroke-width="2" stroke-linecap="round" stroke-linejoin="round" stroke-miterlimit="10" fill="none" d="M1 29.765h8.337l-1.667-23h-5.003z"/><path stroke="#3B3735" stroke-width="2" stroke-linecap="round" stroke-linejoin="round" stroke-miterlimit="10" fill="none" d="M9.376 29.765h8.337l-1.667-23h-5.003z"/></svg>