<svg xmlns="http://www.w3.org/2000/svg" width="49.502" height="43.836" viewBox="0 0 49.502 43.836"><g stroke="#000" stroke-width="2" stroke-linecap="round" stroke-linejoin="round" stroke-miterlimit="10" fill="none"><path d="M24.324 1.096c.235-.128.619-.128.854 0l19.616 10.39h-40.086l19.616-10.39z"/><path d="M4.063 11.486h41.376c.518 0 .937.365.937.814v2.227c0 .45-.42.814-.937.814h-41.376c-.518 0-.937-.365-.937-.814v-2.227c0-.45.42-.814.937-.814z"/><path d="M4.063 35.203h41.376c.518 0 .937.365.937.814v2.227c0 .45-.42.814-.937.814h-41.376c-.518 0-.937-.365-.937-.814v-2.227c0-.449.42-.814.937-.814z"/><path d="M2.029 39.059h45.444c.568 0 1.029.357 1.029.798v2.181c0 .441-.461.798-1.029.798h-45.444c-.568 0-1.029-.357-1.029-.798v-2.181c0-.441.461-.798 1.029-.798z"/><path d="M12.605 18.631h-5.806c-.552 0-1-.448-1-1v-2.289h7.806v2.289c0 .552-.448 1-1 1z"/><path d="M6.799 31.914h5.806c.552 0 1 .448 1 1v2.289h-7.806v-2.289c0-.552.447-1 1-1z"/><path d="M6.977 18.631h5.597v13.283h-5.597z"/><path d="M43.794 18.631h-5.806c-.552 0-1-.448-1-1v-2.289h7.806v2.289c0 .552-.447 1-1 1z"/><path d="M37.988 31.914h5.806c.552 0 1 .448 1 1v2.289h-7.806v-2.289c0-.552.448-1 1-1z"/><path d="M38.166 18.631h5.597v13.283h-5.597z"/><path d="M27.675 18.631h-5.806c-.552 0-1-.448-1-1v-2.289h7.806v2.289c0 .552-.448 1-1 1z"/><path d="M21.869 31.914h5.806c.552 0 1 .448 1 1v2.289h-7.806v-2.289c0-.552.447-1 1-1z"/><path d="M22.047 18.631h5.597v13.283h-5.597z"/></g></svg>