<svg xmlns="http://www.w3.org/2000/svg" width="39.725" height="49.585" viewBox="0 0 39.725 49.585"><g stroke="#3B3735" stroke-width="2" stroke-linecap="round" stroke-linejoin="round" stroke-miterlimit="10" fill="none"><circle cx="19.863" cy="29.723" r="18.863"/><path d="M7.557 43.692c-1.061-4.609-1.495-8.893-1.495-13.983 0-4.745.497-9.331 1.424-13.664"/><path d="M15.662 48.11c-.963-5.931-1.377-11.845-1.377-18.53 0-6.258.479-12.363 1.39-18.248"/><path d="M24.092 47.929c.942-5.87 1.348-11.732 1.348-18.349 0-6.259-.479-12.364-1.39-18.25"/><path d="M1.472 25.52c5.931-.963 11.845-1.377 18.53-1.377 6.258 0 12.363.479 18.248 1.39"/><path d="M1.654 33.95c5.87.942 11.732 1.348 18.349 1.348 6.259 0 12.364-.479 18.25-1.39"/><path d="M32.168 43.692c1.061-4.609 1.495-8.893 1.495-13.983 0-4.995-.551-9.813-1.574-14.346"/><path d="M5.891 17.415c4.609-1.061 8.893-1.495 13.983-1.495 4.745 0 9.331.497 13.664 1.424"/><path d="M5.891 42.027c4.609 1.061 8.893 1.495 13.983 1.495 4.995 0 9.813-.551 14.346-1.574"/><path d="M19.725 10v-9"/></g></svg>