<svg xmlns="http://www.w3.org/2000/svg" width="480" height="480" viewBox="0 0 480 480"><g stroke="#3B3735" stroke-width="2" stroke-linecap="round" stroke-linejoin="round" stroke-miterlimit="10" fill="none"><path d="M230.595 257.863l-9.737 2.844c-.812.237-1.565-.516-1.328-1.328l2.844-9.737c.05-.173.144-.33.271-.457l27.889-27.889c.418-.418 1.096-.418 1.514 0l6.893 6.893c.418.418.418 1.096 0 1.514l-27.889 27.889c-.127.127-.284.22-.457.271z"/><path d="M257.262 226.509l-3.534-3.534 4.747-4.747c.391-.391 1.024-.391 1.414 0l2.12 2.12c.391.391.391 1.024 0 1.414l-4.747 4.747z"/><path d="M248.338 247.029l10.511-10.511c.205-.205.319-.485.314-.776l-.102-5.873"/><path d="M234.599 238.487l7.778 7.779"/><path d="M219.749 260.408l-1.414 1.414"/></g></svg>