<svg xmlns="http://www.w3.org/2000/svg" width="45.064" height="45.064" viewBox="0 0 45.064 45.064"><g stroke="#3B3735" stroke-width="2" stroke-linecap="round" stroke-linejoin="round" stroke-miterlimit="10" fill="none"><path d="M14.859 40.167l-12.652 3.852c-.735.224-1.386-.428-1.163-1.163l3.852-12.652 24.473-24.472 9.963 9.963-24.473 24.472z"/><path d="M29.369 5.732l9.962 9.962-3.013 3.013-9.962-9.962z"/><path d="M14.859 40.167l.272-4.276c.036-.564-.413-1.012-.976-.976l-3.235.205c-.564.036-1.012-.413-.976-.976l.205-3.234c.036-.564-.413-1.012-.976-.976l-4.276.272 21.516-21.517 9.963 9.963-21.517 21.515z"/><path d="M31.394 13.67l-20.978 20.977"/><path d="M6.791 28.311l19.622-19.622"/><path d="M28.903 11.179l-18.974 18.974"/><path d="M36.375 18.651l-19.622 19.622"/><path d="M14.911 35.135l18.974-18.974"/><path d="M3.554 36.977l4.949 4.95"/><path d="M42.001 3.063c-2.751-2.751-7.211-2.751-9.963 0l-2.669 2.669 9.963 9.963 2.669-2.669c2.751-2.751 2.751-7.212 0-9.963z"/></g></svg>