<?xml version="1.0" encoding="utf-8"?>
<!-- Generator: Adobe Illustrator 17.0.0, SVG Export Plug-In . SVG Version: 6.00 Build 0)  -->
<!DOCTYPE svg PUBLIC "-//W3C//DTD SVG 1.1//EN" "http://www.w3.org/Graphics/SVG/1.1/DTD/svg11.dtd">
<svg version="1.1" id="Layer_1" xmlns="http://www.w3.org/2000/svg" xmlns:xlink="http://www.w3.org/1999/xlink" x="0px" y="0px"
	 width="46.608px" height="46.127px" viewBox="0 0 46.608 46.127" enable-background="new 0 0 46.608 46.127" xml:space="preserve">
<g>
	<g>
		<g>
			
				<rect x="8.046" y="27.719" transform="matrix(0.7107 0.7035 -0.7035 0.7107 26.1434 -1.6938)" fill="none" stroke="#3B3735" stroke-width="2" stroke-linecap="round" stroke-linejoin="round" stroke-miterlimit="10" width="14.171" height="6.441"/>
			<path fill="none" stroke="#3B3735" stroke-width="2" stroke-linecap="round" stroke-linejoin="round" stroke-miterlimit="10" d="
				M16.43,36.918l-3.669,6.311C9.109,41.709,1,45.127,1,45.127s3.335-8.143,1.778-11.779l6.273-3.733"/>
			<path fill="none" stroke="#3B3735" stroke-width="2" stroke-linecap="round" stroke-linejoin="round" stroke-miterlimit="10" d="
				M7.743,38.861"/>
			
				<line fill="none" stroke="#3B3735" stroke-width="2" stroke-linecap="round" stroke-linejoin="round" stroke-miterlimit="10" x1="1.99" y1="44.216" x2="7.428" y2="38.722"/>
			
				<circle fill="none" stroke="#3B3735" stroke-width="2" stroke-linecap="round" stroke-linejoin="round" stroke-miterlimit="10" cx="8.358" cy="37.959" r="1.197"/>
		</g>
	</g>
	
		<line fill="none" stroke="#3B3735" stroke-width="2" stroke-linecap="round" stroke-linejoin="round" stroke-miterlimit="10" x1="16.322" y1="19.91" x2="26.929" y2="30.517"/>
	<path fill="none" stroke="#3B3735" stroke-width="2" stroke-linecap="round" stroke-linejoin="round" stroke-miterlimit="10" d="
		M44.371,9.412c1.743-2.017,1.632-5.037-0.252-6.922l0,0c-1.884-1.884-4.903-1.995-6.921-0.253L16.017,18.99
		c-0.107,0.092-0.196,0.203-0.263,0.328l-1.523,6.198l6.937,6.867l6.018-1.424c0.126-0.067,0.239-0.158,0.333-0.266L44.371,9.412z"
		/>
</g>
</svg>
