<svg xmlns="http://www.w3.org/2000/svg" width="41.273" height="36.018" viewBox="0 0 41.273 36.018"><g stroke="#3B3735" stroke-width="2" stroke-linecap="round" stroke-linejoin="round" stroke-miterlimit="10" fill="none"><circle cx="7.5" cy="21.35" r="4.454"/><path d="M14 35.018v-3.889c0-2.823-2.288-5.111-5.111-5.111h-3.206c-2.586 0-4.683 2.096-4.683 4.682v4.317h13z"/></g><g stroke="#3B3735" stroke-width="2" stroke-linecap="round" stroke-linejoin="round" stroke-miterlimit="10" fill="none"><circle cx="20.773" cy="21.35" r="4.454"/><path d="M27.273 35.018v-3.889c0-2.823-2.288-5.111-5.111-5.111h-3.206c-2.586 0-4.683 2.097-4.683 4.683v4.317h13z"/></g><g stroke="#3B3735" stroke-width="2" stroke-linecap="round" stroke-linejoin="round" stroke-miterlimit="10" fill="none"><circle cx="20.773" cy="5.454" r="4.454"/><path d="M27.273 15.234c0-2.823-2.288-5.111-5.111-5.111h-3.206c-2.586 0-4.683 2.097-4.683 4.683"/></g><g stroke="#3B3735" stroke-width="2" stroke-linecap="round" stroke-linejoin="round" stroke-miterlimit="10" fill="none"><circle cx="33.773" cy="21.35" r="4.454"/><path d="M40.273 35.018v-3.889c0-2.823-2.288-5.111-5.111-5.111h-3.206c-2.586 0-4.683 2.097-4.683 4.683v4.317h13z"/></g></svg>