<svg xmlns="http://www.w3.org/2000/svg" width="47.626" height="42.875" viewBox="0 0 47.626 42.875"><g stroke="#3B3735" stroke-width="2" stroke-linecap="round" stroke-linejoin="round" stroke-miterlimit="10" fill="none"><path d="M44.626 41.875h-17.153c-1.105 0-2-.895-2-2v-36.875c0-1.105.895-2 2-2h17.153c1.105 0 2 .895 2 2v36.875c0 1.105-.896 2-2 2z"/><path d="M26.262 7.265h20"/><path d="M26.262 34.265h20"/><path d="M33.262 4.265h5"/><circle cx="36.049" cy="38.37" r=".959"/></g><g stroke="#3B3735" stroke-width="2" stroke-linecap="round" stroke-linejoin="round" stroke-miterlimit="10" fill="none"><path d="M25.245 9.484c-2.397-1.422-5.195-2.238-8.183-2.238-8.871-.001-16.062 7.191-16.062 16.062s7.191 16.062 16.062 16.062c3.047 0 5.895-.848 8.322-2.321"/><path d="M25.424 18.583c-1.099-6.565-4.427-11.337-8.362-11.337-4.83 0-8.746 7.191-8.746 16.062s3.916 16.062 8.746 16.062c3.489 0 6.88-3.762 8.413-9.192"/><path d="M25.262 18.265h-23"/><path d="M25.262 27.265h-23"/><path d="M18.262 7.265v31"/></g></svg>