<svg xmlns="http://www.w3.org/2000/svg" width="42.206" height="42.636" viewBox="0 0 42.206 42.636"><g stroke="#000" stroke-miterlimit="10" fill="none"><path stroke-width="2" stroke-linecap="round" stroke-linejoin="round" d="M11.909 41.636h-8.909c-1.105 0-2-.895-2-2v-36.636c0-1.105.895-2 2-2h8.909c1.105 0 2 .895 2 2v36.636c0 1.105-.895 2-2 2z"/><path stroke-width="2" stroke-linecap="round" stroke-linejoin="round" d="M39.206 40.082h-25.297v-36.942h25.297c1.105 0 2 .895 2 2v32.942c0 1.104-.895 2-2 2z"/><path stroke-width="2" stroke-linecap="round" stroke-linejoin="round" d="M14.906 12.69h26"/><path d="M20.285 18.436h2.942v2.942h-2.942z"/><path d="M20.285 24.989h2.942v2.942h-2.942z"/><path d="M20.285 31.541h2.942v2.942h-2.942z"/><path d="M26.185 18.436h2.942v2.942h-2.942z"/><path d="M26.185 24.989h2.942v2.942h-2.942z"/><path d="M26.185 31.541h2.942v2.942h-2.942z"/><path d="M32.084 18.436h2.942v2.942h-2.942z"/><path d="M32.084 24.989h2.942v2.942h-2.942z"/><path d="M32.084 31.541h2.942v2.942h-2.942z"/></g></svg>