<?xml version="1.0" encoding="utf-8"?>
<!-- Generator: Adobe Illustrator 17.0.0, SVG Export Plug-In . SVG Version: 6.00 Build 0)  -->
<!DOCTYPE svg PUBLIC "-//W3C//DTD SVG 1.1//EN" "http://www.w3.org/Graphics/SVG/1.1/DTD/svg11.dtd">
<svg version="1.1" id="Layer_1" xmlns="http://www.w3.org/2000/svg" xmlns:xlink="http://www.w3.org/1999/xlink" x="0px" y="0px"
	 width="33.333px" height="44.602px" viewBox="0 0 33.333 44.602" enable-background="new 0 0 33.333 44.602" xml:space="preserve">
<g>
	<g>
		<g>
			<path fill="none" stroke="#3B3735" stroke-width="2" stroke-linecap="round" stroke-linejoin="round" stroke-miterlimit="10" d="
				M29.551,14.842c0,6.944-5.768,8.288-12.884,8.288S3.782,21.786,3.782,14.842S9.551,2.174,16.666,2.174
				S29.551,7.898,29.551,14.842z"/>
			<path fill="none" stroke="#3B3735" stroke-width="2" stroke-linecap="round" stroke-linejoin="round" stroke-miterlimit="10" d="
				M11.699,3.143c0,0-4.16-6.595-9.701,3.355c0,0-3.35,5.432,2.223,4.941"/>
			<path fill="none" stroke="#3B3735" stroke-width="2" stroke-linecap="round" stroke-linejoin="round" stroke-miterlimit="10" d="
				M21.634,3.143c0,0,4.16-6.595,9.701,3.355c0,0,3.35,5.432-2.223,4.941"/>
			<path fill="none" stroke="#3B3735" stroke-width="2" stroke-linecap="round" stroke-linejoin="round" stroke-miterlimit="10" d="
				M24.488,15.73c0,3.038-3.522,4.27-7.867,4.27s-7.867-1.232-7.867-4.27s3.522-6.116,7.867-6.116S24.488,12.692,24.488,15.73z"/>
			<ellipse fill="#3B3735" stroke="#3B3735" stroke-miterlimit="10" cx="13.403" cy="15.23" rx="0.763" ry="2.154"/>
			<ellipse fill="#3B3735" stroke="#3B3735" stroke-miterlimit="10" cx="19.84" cy="15.23" rx="0.763" ry="2.154"/>
			<g>
				<circle fill="#3B3735" cx="10.491" cy="8.146" r="1.161"/>
				<circle fill="#3B3735" cx="22.842" cy="8.146" r="1.161"/>
			</g>
		</g>
		<ellipse fill="#3B3735" stroke="#3B3735" stroke-miterlimit="10" cx="19.84" cy="15.23" rx="0.763" ry="2.154"/>
	</g>
	<path fill="none" stroke="#3B3735" stroke-width="2" stroke-linecap="round" stroke-linejoin="round" stroke-miterlimit="10" d="
		M6.077,35.956C2.961,33.087,1,28.979,1,24.435v-3.799c0-3.475,1.147-6.696,3.081-9.301"/>
	<path fill="none" stroke="#3B3735" stroke-width="2" stroke-linecap="round" stroke-linejoin="round" stroke-miterlimit="10" d="
		M24.004,38.265c-2.192,1.171-4.691,1.837-7.338,1.837h0c-2.645,0-5.142-0.664-7.333-1.834"/>
	<path fill="none" stroke="#3B3735" stroke-width="2" stroke-linecap="round" stroke-linejoin="round" stroke-miterlimit="10" d="
		M29.252,11.335c1.934,2.606,3.081,5.826,3.081,9.301v3.799c0,4.571-1.984,8.7-5.133,11.571"/>
	<path fill="none" stroke="#3B3735" stroke-width="2" stroke-linecap="round" stroke-linejoin="round" stroke-miterlimit="10" d="
		M9.239,32.602v4.083v5.299c0,0.894-0.724,1.618-1.618,1.618h0c-0.894,0-1.618-0.724-1.618-1.618v-5.942v-4.44"/>
	<path fill="none" stroke="#3B3735" stroke-width="2" stroke-linecap="round" stroke-linejoin="round" stroke-miterlimit="10" d="
		M27.239,31.602v10.382c0,0.894-0.724,1.618-1.618,1.618h0c-0.894,0-1.618-0.724-1.618-1.618v-9.382"/>
</g>
</svg>
