<svg xmlns="http://www.w3.org/2000/svg" width="34.045" height="48" viewBox="0 0 34.045 48"><path stroke="#3B3735" stroke-width="2" stroke-linecap="round" stroke-linejoin="round" stroke-miterlimit="10" d="M33.045 2c0-.552-.448-1-1-1h-30c-.552 0-1 .448-1 1v4c0 .552.448 1 1 1h30c.552 0 1-.448 1-1v-4z" fill="none"/><path stroke="#3B3735" stroke-width="2" stroke-linecap="round" stroke-linejoin="round" stroke-miterlimit="10" fill="none" d="M1.045 14h32v33h-32z"/><path stroke="#3B3735" stroke-width="2" stroke-linecap="round" stroke-linejoin="round" stroke-miterlimit="10" d="M1 14s2.955-4 2.955-7h12.09" fill="none"/><path stroke="#3B3735" stroke-width="2" stroke-linecap="round" stroke-linejoin="round" stroke-miterlimit="10" d="M33 14s-3.045-4-3.045-7h-11.91" fill="none"/><path stroke="#3B3735" stroke-width="2" stroke-linecap="round" stroke-linejoin="round" stroke-miterlimit="10" fill="none" d="M5.045 21h24v18h-24z"/><g stroke="#3B3735" stroke-width="2" stroke-linecap="round" stroke-linejoin="round" stroke-miterlimit="10" fill="none"><path d="M17.045 26v8"/><path d="M21.045 30h-8"/></g></svg>