<svg xmlns="http://www.w3.org/2000/svg" width="480" height="480" viewBox="0 0 480 480"><g stroke="#3B3735" stroke-width="2" stroke-linecap="round" stroke-linejoin="round" stroke-miterlimit="10" fill="none"><path d="M220.734 255.036c5.408 5.514 12.099 6.657 19.345 6.657 7.246 0 13.937-1.143 19.345-6.657l-19.345-36.045-19.345 36.045z"/><path d="M240.079 256.693c-6.309 0-12.196-1.627-17.183-5.686l-2.162 4.029c5.408 5.514 12.099 6.657 19.345 6.657 7.246 0 13.937-1.143 19.345-6.657l-2.162-4.029c-4.987 4.059-10.874 5.686-17.183 5.686z"/><circle cx="234.16" cy="247.091" r="3.25"/><circle cx="240.16" cy="236.091" r="3.25"/><circle cx="246.16" cy="247.091" r="3.25"/><path d="M240 251v-1"/><path d="M252 250v-1"/><path d="M228 250v-1"/><path d="M234 240v-1"/><path d="M240 244v-1"/><path d="M246 240v-1"/><path d="M240 228v-1"/></g></svg>