<svg xmlns="http://www.w3.org/2000/svg" width="48" height="40.466" viewBox="0 0 48 40.466"><g stroke="#3B3735" stroke-width="2" stroke-linecap="round" stroke-linejoin="round" stroke-miterlimit="10" fill="none"><path d="M18.687 21.825v-7.335l13.001-6.437v27.773h-8.018"/><path d="M21.616 18.85h2.37v3.886h-2.37z"/><path d="M26.593 18.85h2.37v3.886h-2.37z"/><path d="M21.616 25.407h2.37v3.886h-2.37z"/><path d="M26.593 25.407h2.37v3.886h-2.37z"/></g><g stroke="#3B3735" stroke-width="2" stroke-linecap="round" stroke-linejoin="round" stroke-miterlimit="10" fill="none"><path d="M44.689 35.826h-13.001v-21.336l13.001-6.437z"/><path d="M34.617 18.85h2.37v3.886h-2.37z"/><path d="M39.594 18.85h2.37v3.886h-2.37z"/><path d="M34.617 25.407h2.37v3.886h-2.37z"/><path d="M39.594 25.407h2.37v3.886h-2.37z"/></g><path stroke="#3B3735" stroke-width="2" stroke-linecap="round" stroke-linejoin="round" stroke-miterlimit="10" fill="none" d="M1 35.466h46v4h-46z"/><path stroke="#3B3735" stroke-width="2" stroke-linecap="round" stroke-linejoin="round" stroke-miterlimit="10" fill="none" d="M8 9.466h11v12h-11z"/><path stroke="#3B3735" stroke-width="2" stroke-linecap="round" stroke-linejoin="round" stroke-miterlimit="10" fill="none" d="M8 9.466h11v5h-11z"/><path stroke="#3B3735" stroke-width="2" stroke-linecap="round" stroke-linejoin="round" stroke-miterlimit="10" d="M24.176 3c-1.764 0-1.764-2-3.529-2s-1.765 2-3.529 2c-1.768 0-1.768-2-3.535-2-1.768 0-1.768 2-3.535 2" fill="none"/><path stroke="#3B3735" stroke-width="2" stroke-linecap="round" stroke-linejoin="round" stroke-miterlimit="10" fill="none" d="M7.795 21.466h10.991l4.885 14h-20.761z"/><path stroke="#3B3735" stroke-width="2" stroke-linecap="round" stroke-linejoin="round" stroke-miterlimit="10" fill="none" d="M7.795 21.466h10.991l4.885 14h-20.761z"/></svg>