<svg xmlns="http://www.w3.org/2000/svg" width="42.497" height="42.497" viewBox="0 0 42.497 42.497"><g stroke="#231F20" stroke-width="1.5" stroke-miterlimit="2.613" fill="none"><path stroke-linecap="round" stroke-linejoin="round" d="M41.25 1.247c-2.411-2.411-11.125 4.413-17.029 10.633l-17.303-4.662-1.435 3.218 12.187 8.882c-2.679 3.212-5.299 6.505-7.791 9.557l-8.621-1.725-.508 1.479 8.782 4.336 4.336 8.782 1.479-.507-1.725-8.622c3.052-2.492 6.345-5.112 9.556-7.791l8.882 12.186 3.217-1.434-4.662-17.303c6.222-5.904 13.046-14.619 10.635-17.029z"/><path d="M17.755 6.143l2.259 2.259c.386.386.386 1.018 0 1.404l-.742.741-5.771-1.555 2.849-2.849c.387-.386 1.019-.386 1.405 0z"/><path d="M36.353 24.742l-2.259-2.259c-.386-.386-1.018-.386-1.404 0l-.741.741 1.555 5.771 2.849-2.849c.387-.387.387-1.018 0-1.404z"/></g></svg>