<svg xmlns="http://www.w3.org/2000/svg" width="48" height="46.466" viewBox="0 0 48 46.466"><path stroke="#3B3735" stroke-width="2" stroke-linecap="round" stroke-linejoin="round" stroke-miterlimit="10" d="M23.176 11c-1.764 0-1.764-2-3.529-2s-1.765 2-3.529 2c-1.768 0-1.768-2-3.535-2s-1.768 2-3.535 2" fill="none"/><path stroke="#3B3735" stroke-width="2" stroke-linecap="round" stroke-linejoin="round" stroke-miterlimit="10" fill="none" d="M7 15.466h11v12h-11z"/><path stroke="#3B3735" stroke-width="2" stroke-linecap="round" stroke-linejoin="round" stroke-miterlimit="10" fill="none" d="M7 15.466h11v5h-11z"/><path stroke="#3B3735" stroke-width="2" stroke-linecap="round" stroke-linejoin="round" stroke-miterlimit="10" fill="none" d="M18 20.466h9v3h-9z"/><path stroke="#3B3735" stroke-width="2" stroke-linecap="round" stroke-linejoin="round" stroke-miterlimit="10" fill="none" d="M6.795 27.466h10.991l4.885 14h-20.761z"/><path stroke="#3B3735" stroke-width="2" stroke-linecap="round" stroke-linejoin="round" stroke-miterlimit="10" fill="none" d="M18 27.917v-7.451h9v9h-8.4z"/><path stroke="#3B3735" stroke-width="2" stroke-linecap="round" stroke-linejoin="round" stroke-miterlimit="10" fill="none" d="M27.333 29.466l4.062 12h-8.724l-4.071-12z"/><path stroke="#3B3735" stroke-width="2" stroke-linecap="round" stroke-linejoin="round" stroke-miterlimit="10" fill="none" d="M1 41.466h46v4h-46z"/><path stroke="#3B3735" stroke-width="2" stroke-linecap="round" stroke-linejoin="round" stroke-miterlimit="10" d="M34.176 3c-1.764 0-1.764-2-3.529-2s-1.765 2-3.529 2c-1.768 0-1.768-2-3.535-2-1.768 0-1.768 2-3.535 2" fill="none"/><g stroke="#3B3735" stroke-width="2" stroke-linecap="round" stroke-linejoin="round" stroke-miterlimit="10" fill="none"><path d="M30 30.466h15"/><path d="M30 19.466h15"/><path d="M43 31.062c0 2.984-2.419 5.403-5.403 5.403h-.194c-2.984 0-5.403-2.419-5.403-5.403v-11.193c0-2.984 2.419-5.403 5.403-5.403h.194c2.984 0 5.403 2.419 5.403 5.403v11.193z"/><path d="M33.456 35.204l-1.546 6.622"/><path d="M41.557 35.204l1.546 6.622"/></g></svg>