<svg xmlns="http://www.w3.org/2000/svg" width="47.09" height="47.765" viewBox="0 0 47.09 47.765"><path stroke="#3B3735" stroke-width="2" stroke-linecap="round" stroke-linejoin="round" stroke-miterlimit="10" fill="none" d="M1.09 42.765h45v4h-45z"/><path stroke="#3B3735" stroke-width="2" stroke-linecap="round" stroke-linejoin="round" stroke-miterlimit="10" fill="none" d="M1.09 30.765h45v12h-45z"/><path stroke="#3B3735" stroke-width="2" stroke-linecap="round" stroke-linejoin="round" stroke-miterlimit="10" d="M24.812 3c-2.224 0-2.224-2-4.449-2-2.226 0-2.226 2-4.453 2-2.228 0-2.228-2-4.456-2-2.226 0-2.226 2-4.454 2" fill="none"/><path stroke="#3B3735" stroke-width="2" stroke-linecap="round" stroke-linejoin="round" stroke-miterlimit="10" d="M43.812 7c-2.224 0-2.224-2-4.449-2-2.226 0-2.226 2-4.453 2-2.228 0-2.228-2-4.456-2s-2.226 2-4.454 2" fill="none"/><g stroke="#3B3735" stroke-width="2" stroke-linecap="round" stroke-linejoin="round" stroke-miterlimit="10" fill="none"><path d="M8.09 36.765h2"/><path d="M13.09 36.765h2"/><path d="M18.09 36.765h2"/><path d="M23.09 36.765h2"/><path d="M28.09 36.765h2"/><path d="M33.09 36.765h2"/><path d="M38.09 36.765h2"/></g><path stroke="#3B3735" stroke-width="2" stroke-linecap="round" stroke-linejoin="round" stroke-miterlimit="10" fill="none" d="M5.09 9.765h10v9h-10z"/><path stroke="#3B3735" stroke-width="2" stroke-linecap="round" stroke-linejoin="round" stroke-miterlimit="10" fill="none" d="M5.09 9.765h10v3h-10z"/><path stroke="#3B3735" stroke-width="2" stroke-linecap="round" stroke-linejoin="round" stroke-miterlimit="10" fill="none" d="M29.86 18.765h-9.595l-4.265 12h18.125z"/><path stroke="#3B3735" stroke-width="2" stroke-linecap="round" stroke-linejoin="round" stroke-miterlimit="10" fill="none" d="M14.86 18.765h-9.595l-4.265 12h15l1.562-4.397z"/><path stroke="#3B3735" stroke-width="2" stroke-linecap="round" stroke-linejoin="round" stroke-miterlimit="10" fill="none" d="M20.09 9.765h10v9h-10z"/><path stroke="#3B3735" stroke-width="2" stroke-linecap="round" stroke-linejoin="round" stroke-miterlimit="10" fill="none" d="M20.09 9.765h10v3h-10z"/></svg>