<svg xmlns="http://www.w3.org/2000/svg" width="48" height="38" viewBox="0 0 48 38"><path stroke="#3B3735" stroke-width="2" stroke-linecap="round" stroke-linejoin="round" stroke-miterlimit="10" fill="none" d="M1 32h46v5h-46z"/><g stroke="#3B3735" stroke-width="2" stroke-linecap="round" stroke-linejoin="round" stroke-miterlimit="10" fill="none"><path d="M9 22h13"/><path d="M9 13h13"/><path d="M20 22.239c0 2.629-2.132 4.761-4.761 4.761h-.478c-2.629 0-4.761-2.132-4.761-4.761v-9.478c0-2.629 2.132-4.761 4.761-4.761h.478c2.629 0 4.761 2.132 4.761 4.761v9.478z"/><path d="M11.677 26.526l-1.362 5.834"/><path d="M18.816 26.526l1.363 5.834"/><path d="M15 8v-3.955c0-1.46-1.463-3.045-2.922-3.045h-3.525c-1.46 0-2.553 1.585-2.553 3.045v27.955"/></g><g stroke="#3B3735" stroke-width="2" stroke-linecap="round" stroke-linejoin="round" stroke-miterlimit="10" fill="none"><path d="M30 22h13"/><path d="M30 13h13"/><path d="M41 22.239c0 2.629-2.132 4.761-4.761 4.761h-.478c-2.629 0-4.761-2.132-4.761-4.761v-9.478c0-2.629 2.132-4.761 4.761-4.761h.478c2.629 0 4.761 2.132 4.761 4.761v9.478z"/><path d="M32.677 26.526l-1.362 5.834"/><path d="M39.816 26.526l1.363 5.834"/><path d="M36 8v-3.955c0-1.46-1.463-3.045-2.922-3.045h-3.525c-1.46 0-2.553 1.585-2.553 3.045v27.955"/></g></svg>