<svg xmlns="http://www.w3.org/2000/svg" width="25" height="44" viewBox="0 0 25 44"><g stroke="#3B3735" stroke-width="2" stroke-linecap="round" stroke-linejoin="round" stroke-miterlimit="10" fill="none"><path d="M1 13v11.31c0 1.543 1.553 2.69 3.095 2.69h17.022c1.542 0 2.883-1.147 2.883-2.69v-11.31h-23z"/><path d="M9 27h7v7h-7z"/><path d="M13 34v9"/><path d="M3 13v-10.072c0-.721.625-1.928 1.346-1.928h.522c.72 0 1.132 1.207 1.132 1.928v10.072"/><path d="M19 13v-10.072c0-.721.276-1.928.997-1.928h.522c.72 0 1.481 1.207 1.481 1.928v10.072"/><path d="M10.91 23.36l.75-2.75 2.25.75.968-3.5"/></g></svg>