<svg xmlns="http://www.w3.org/2000/svg" width="46" height="47" viewBox="0 0 46 47"><g stroke="#3B3735" stroke-width="2" stroke-linecap="round" stroke-linejoin="round" stroke-miterlimit="10" fill="none"><path d="M20.214 6.345c-.082 0-.214.019-.214.025v-5.37h-19v19h5.959c.336-1 1.799-2.902 3.554-2.902s3.219 1.902 3.555 2.902h5.932v-6.424c0 .005.132.024.214.024 2.003 0 3.628-1.624 3.628-3.628 0-2.003-1.624-3.627-3.628-3.627z"/><path d="M26.979 40.569c.078 0 .021-.018.021-.023v5.454h18v-18h-5.437c-.315 1-1.684 2.716-3.326 2.716s-3.012-1.716-3.326-2.716h-5.911v5.802c0-.005.057-.023-.021-.023-1.875 0-3.395 1.52-3.395 3.395.001 1.875 1.521 3.395 3.395 3.395z"/><path d="M1 20v19h19v-6.126c-1-.336-2.902-1.799-2.902-3.554s.902-3.219 2.902-3.555v-5.765"/><path d="M20 20h6.257c-.005 0-.024.103-.024.186 0 2.003 1.624 3.599 3.628 3.599 2.003 0 3.628-1.582 3.628-3.585 0-.083-.019-.2-.024-.2h5.535v-19h-19"/></g></svg>