<svg xmlns="http://www.w3.org/2000/svg" width="43.867" height="47.993" viewBox="0 0 43.867 47.993"><path stroke="#3B3735" stroke-width="2" stroke-linecap="round" stroke-linejoin="round" stroke-miterlimit="10" d="M42.867 33.528c0 11.282-9.372 13.465-20.933 13.465s-20.934-2.183-20.934-13.465 9.372-20.581 20.933-20.581 20.934 9.3 20.934 20.581z" fill="none"/><path stroke="#3B3735" stroke-width="2" stroke-linecap="round" stroke-linejoin="round" stroke-miterlimit="10" d="M15.514 13.445c.382-1.67.434-2.605.434-4.232 0-6.007-2.908-8.213-6.496-8.213s-6.497 2.206-6.497 8.213c0 3.908 1.357 8.725 2.574 11.154" fill="none"/><path stroke="#3B3735" stroke-width="2" stroke-linecap="round" stroke-linejoin="round" stroke-miterlimit="10" d="M12.189 14.616c.167-.906.263-1.848.263-2.731 0-3.259-1.272-4.456-2.841-4.456s-2.841 1.197-2.841 4.456c0 2.12.54 4.584 1.348 6.052" fill="none"/><path stroke="#3B3735" stroke-width="2" stroke-linecap="round" stroke-linejoin="round" stroke-miterlimit="10" d="M28.352 13.445c-.382-1.67-.434-2.605-.434-4.232 0-6.007 2.909-8.213 6.497-8.213s6.497 2.206 6.497 8.213c0 3.908-1.357 8.725-2.574 11.154" fill="none"/><path stroke="#3B3735" stroke-width="2" stroke-linecap="round" stroke-linejoin="round" stroke-miterlimit="10" d="M31.677 14.616c-.167-.906-.263-1.848-.263-2.731 0-3.259 1.272-4.456 2.841-4.456 1.569 0 2.841 1.197 2.841 4.456 0 2.12-.54 4.584-1.348 6.052" fill="none"/><g fill="#3B3735"><circle cx="12.547" cy="29.729" r="1.886"/><circle cx="32.614" cy="29.729" r="1.886"/></g><path stroke="#3B3735" stroke-width="2" stroke-linecap="round" stroke-linejoin="round" stroke-miterlimit="10" d="M28.47 35.761s-2.928 2.509-6.006 0c-3.078 2.509-6.006 0-6.006 0" fill="none"/><path stroke="#3B3735" stroke-width="2" stroke-linecap="round" stroke-linejoin="round" stroke-miterlimit="10" d="M23.525 31.728l-.211.172c-.645.524-1.568.524-2.213 0l-.211-.172" fill="none"/></svg>