<svg xmlns="http://www.w3.org/2000/svg" width="44.996" height="44.996" viewBox="0 0 44.996 44.996"><g stroke="#3B3735" stroke-width="2" stroke-linecap="round" stroke-linejoin="round" stroke-miterlimit="10" fill="none"><circle cx="22.498" cy="22.498" r="21.498"/><circle cx="22.498" cy="22.498" r="3.497"/><path d="M31.159 8.967l-5.125 8.271c1.69 1.138 2.802 2.889 2.802 5.08 0 .151-.012.267-.023.267h9.74c.004 0 .023-.116.023-.267 0-5.687-2.961-10.493-7.417-13.351z"/><path d="M16.16 22.318c0-2.191 1.112-4.032 2.802-5.17l-5.125-8.226c-4.456 2.858-7.417 7.686-7.417 13.374 0 .151.018.29.023.29h9.74c-.011 0-.023-.117-.023-.268z"/><path d="M25.518 28.072c-.898.487-1.927.764-3.02.764-.99 0-1.924-.234-2.759-.639l-4.528 8.619c2.189 1.117 4.661 1.759 7.288 1.759 2.898 0 5.611-.778 7.959-2.12l-4.94-8.383z"/></g></svg>