<svg xmlns="http://www.w3.org/2000/svg" width="45.355" height="48.86" viewBox="0 0 45.355 48.86"><g stroke="#3B3735" stroke-width="2" stroke-linecap="round" stroke-linejoin="round" stroke-miterlimit="10" fill="none"><path d="M11.605 47.86l1.847-4.104c.859-2.645 1.232-4.894 3.61-6.336l2.299-1.394 2.816-7.503h2.464l-1.76 9.945 8.097-9.945h4.929l-11.729 15.118c-.613.79-.946 1.762-.946 2.761v1.457"/><path d="M15.784 28.523s-1.012 6.074 2.156 8.08"/><path d="M13.452 43.756s-1.01-4.577-1.097-8.885c-.07-3.471.125-6.349.125-6.349"/><path d="M1 24.498h43.355v3.862h-43.355z"/><path d="M22.677 4.041c-10.946 0-19.82 8.959-19.82 19.959h39.641c0-11-8.874-19.959-19.821-19.959z"/><path d="M22.445 4v-3"/></g></svg>