<svg xmlns="http://www.w3.org/2000/svg" width="39.657" height="48.135" viewBox="0 0 39.657 48.135"><g stroke="#3B3735" stroke-width="2" stroke-linecap="round" stroke-linejoin="round" stroke-miterlimit="10" fill="none"><circle cx="24.172" cy="32.669" r="10.134"/><path d="M31.347 39.825c-.52.52-1.253 1.136-1.756 1.429l5.292 5.292c.836.836 2.27.758 3.107-.078s.914-2.27.078-3.107l-5.292-5.292c-.293.503-.909 1.236-1.429 1.756z"/></g><g stroke="#3B3735" stroke-width="2" stroke-linecap="round" stroke-linejoin="round" stroke-miterlimit="10" fill="none"><path d="M34.525 39.818v-27.835l-10.983-10.983h-21.534c-.557 0-1.008.451-1.008 1.008v42.172c0 .557.451 1.008 1.008 1.008h31.509"/><path d="M24.551 11.983h9.975l-10.984-10.983v9.975c0 .556.452 1.008 1.009 1.008z"/></g><path stroke="#3B3735" stroke-width="2" stroke-linecap="round" stroke-linejoin="round" stroke-miterlimit="10" fill="none" d="M7.138 26.506h8"/><path stroke="#3B3735" stroke-width="2" stroke-linecap="round" stroke-linejoin="round" stroke-miterlimit="10" fill="none" d="M7.138 31.506h6"/><path stroke="#3B3735" stroke-width="2" stroke-linecap="round" stroke-linejoin="round" stroke-miterlimit="10" fill="none" d="M7.138 36.506h7"/><path stroke="#3B3735" stroke-width="2" stroke-linecap="round" stroke-linejoin="round" stroke-miterlimit="10" fill="none" d="M15.138 29.506h9"/><path stroke="#3B3735" stroke-width="2" stroke-linecap="round" stroke-linejoin="round" stroke-miterlimit="10" fill="none" d="M15.138 34.506h9"/><path stroke="#3B3735" stroke-width="2" stroke-linecap="round" stroke-linejoin="round" stroke-miterlimit="10" d="M15.479 14.444c.541-.684.795-1.613.565-2.608-.249-1.076-1.103-1.949-2.154-2.198-1.926-.455-3.637 1.032-3.637 2.93 0 .709.241 1.356.643 1.867.31.394.187.979-.253 1.208-1.521.792-2.627 2.282-2.907 4.12-.074.485.305.922.783.922h9.341c.478 0 .857-.438.783-.922-.279-1.838-1.386-3.329-2.906-4.12-.433-.227-.566-.81-.258-1.199z" fill="none"/><path stroke="#3B3735" stroke-width="2" stroke-linecap="round" stroke-linejoin="round" stroke-miterlimit="10" fill="none" d="M7.138 6.686h12v14h-12z"/></svg>