<svg xmlns="http://www.w3.org/2000/svg" width="35.525" height="46.188" viewBox="0 0 35.525 46.188"><g stroke="#3B3735" stroke-width="2" stroke-linecap="round" stroke-linejoin="round" stroke-miterlimit="10" fill="none"><path d="M2.008 45.188h31.509c.557 0 1.008-.451 1.008-1.008v-32.197l-10.983-10.983h-21.534c-.557 0-1.008.451-1.008 1.008v42.172c0 .557.451 1.008 1.008 1.008z"/><path d="M24.551 11.983h9.975l-10.984-10.983v9.975c0 .556.452 1.008 1.009 1.008z"/><path d="M7.138 26.506h22"/><path d="M7.138 31.506h22"/><path d="M7.138 36.506h13"/><path d="M16.491 14.299c.606-.746.891-1.761.633-2.848-.279-1.176-1.235-2.129-2.412-2.4-2.157-.497-4.073 1.128-4.073 3.2 0 .774.27 1.481.72 2.039.347.43.209 1.069-.283 1.319-1.703.864-2.942 2.493-3.255 4.5-.083.529.342 1.007.877 1.007h10.462c.536 0 .96-.478.877-1.007-.313-2.007-1.552-3.635-3.255-4.5-.487-.248-.636-.885-.291-1.31z"/></g></svg>