<svg xmlns="http://www.w3.org/2000/svg" width="35.525" height="46.188" viewBox="0 0 35.525 46.188"><g stroke="#3B3735" stroke-width="2" stroke-linecap="round" stroke-linejoin="round" stroke-miterlimit="10" fill="none"><path d="M2.008 1h31.509c.557 0 1.008.451 1.008 1.008v32.197l-10.983 10.983h-21.534c-.557 0-1.008-.451-1.008-1.008v-42.172c0-.557.451-1.008 1.008-1.008z"/><path d="M24.551 34.206h9.975l-10.984 10.982v-9.975c0-.556.452-1.007 1.009-1.007z"/><path d="M7.634 28.506h22"/><path d="M7.634 33.506h10"/><path d="M20.976 15.509c.745-.918 1.095-2.165.778-3.501-.342-1.445-1.518-2.616-2.965-2.95-2.651-.611-5.006 1.386-5.006 3.933 0 .951.332 1.82.885 2.506.426.529.257 1.314-.348 1.621-2.093 1.062-3.616 3.064-4.001 5.531-.101.65.42 1.238 1.078 1.238h12.859c.658 0 1.18-.588 1.078-1.238-.385-2.467-1.907-4.468-4-5.531-.6-.305-.783-1.087-.358-1.609z"/></g></svg>