<svg xmlns="http://www.w3.org/2000/svg" width="48.09" height="47.875" viewBox="0 0 48.09 47.875"><g stroke="#231F20" stroke-width="2" stroke-linecap="round" stroke-linejoin="round" stroke-miterlimit="10" fill="none"><path d="M1 33.25h46v13.625h-46z"/><path d="M4.336 36.326h39.495v10.549h-39.495z"/><path d="M18.183 26.25h-10.87v-19.322l2.717 1.645 2.718-1.645 2.717 1.645 2.718-1.645z"/><path d="M46.09 22.25v-11.36h-28v15h-11v-15h-4v11.36l-2 4.612v6.028h46v-6.028z"/><path d="M23.765 1h21.632v6.099h-21.632z"/><path d="M23.765 14.407h17.009v4.605h-17.009z"/><path d="M32.68 7.099h3.803v3.838h-3.803z"/><path d="M5.09 25.89h15"/><path d="M25.09 22.89h3"/><path d="M31.09 22.89h3"/><path d="M37.09 22.89h3"/><path d="M25.09 25.89h3"/><path d="M31.09 25.89h3"/><path d="M37.09 25.89h3"/><path d="M25.09 28.89h3"/><path d="M31.09 28.89h3"/><path d="M37.09 28.89h3"/><path d="M22.09 39.89h4"/></g></svg>