<svg xmlns="http://www.w3.org/2000/svg" width="46.166" height="46.166" viewBox="0 0 46.166 46.166"><path stroke="#231F20" stroke-width="2" stroke-linecap="round" stroke-linejoin="round" stroke-miterlimit="10" d="M45.166 23.083c0 1.888-2.214 3.459-2.68 5.2-.482 1.801.636 4.267-.277 5.844-.926 1.6-3.628 1.859-4.926 3.157s-1.557 4.001-3.157 4.926c-1.577.912-4.042-.205-5.844.276-1.741.465-3.312 2.68-5.2 2.68-1.888 0-3.459-2.214-5.2-2.68-1.801-.482-4.267.636-5.844-.277-1.6-.926-1.859-3.628-3.157-4.926s-4.001-1.557-4.926-3.157c-.912-1.577.205-4.042-.276-5.844-.465-1.74-2.679-3.311-2.679-5.199s2.214-3.459 2.68-5.2c.482-1.801-.636-4.267.277-5.844.926-1.6 3.628-1.859 4.926-3.157s1.557-4.001 3.157-4.926c1.577-.912 4.042.205 5.844-.276 1.74-.466 3.311-2.68 5.199-2.68s3.459 2.214 5.2 2.68c1.801.482 4.267-.636 5.844.277 1.6.926 1.859 3.628 3.157 4.926s4.001 1.557 4.926 3.157c.912 1.577-.205 4.042.276 5.844.466 1.74 2.68 3.311 2.68 5.199z" fill="none"/></svg>