<svg xmlns="http://www.w3.org/2000/svg" width="49.348" height="44.272" viewBox="0 0 49.348 44.272"><g stroke="#3B3735" stroke-width="2" stroke-linecap="round" stroke-linejoin="round" stroke-miterlimit="10" fill="none"><path d="M41.333 43.272h-40.333l2-3.795h36.333z"/><path d="M15.167 39.477h-10.167l1.129-10.334h7.909z"/><path d="M10 23.783h4.09v-3h3v3.694l-2.09 4.306h-10l-1.91-4.306v-3.694h3v3z"/><path d="M25.875 38.783l.125-12h15.09v9.36l-3.231 2.64z"/><circle cx="32.652" cy="22.346" r="4.513"/><path d="M32.939 17.848l5.453-6.548"/><path d="M45.032 11.744l-7.583 9.107"/><path d="M48.347 8.735c-.019 1.488-1.241 2.678-2.728 2.658l-24.903-.219.07-5.387 24.903.219c1.487.02 2.678 1.241 2.658 2.729z"/><path d="M20.945 9.835l-5.83.076-.037-2.82 5.83-.076z"/><path d="M7.918 12.762l6.473.599.79-8.767c.163-1.812-1.153-3.415-2.941-3.58-1.787-.165-3.369 1.169-3.532 2.981l-.79 8.767z"/><path d="M11.195 13.066l-.362 4.767"/></g></svg>