<svg xmlns="http://www.w3.org/2000/svg" width="53.714" height="47.555" viewBox="0 0 53.714 47.555"><g stroke="#3B3735" stroke-width="2" stroke-linecap="round" stroke-linejoin="round" stroke-miterlimit="10" fill="none"><path d="M30.518 1h19.556v4.128h-19.556z"/><circle cx="40.296" cy="8.448" r="3.319"/><path d="M40.807 11.724l4.432 4.432"/><path d="M50.074 15.387l-6.164-6.164"/><path d="M52.703 17.369c-.114-1.088-1.088-1.878-2.176-1.765l-12.367 1.291.412 3.941 12.367-1.291c1.088-.114 1.878-1.088 1.764-2.176z"/><path d="M38.366 19.646l-3.582.374-.179-1.709 3.582-.374z"/><path d="M30.518 22.151h4.014v-5.364c0-1.108-.899-2.007-2.007-2.007s-2.007.899-2.007 2.007v5.364z"/><path d="M32.988 22.151l2.779 3.037-1.39 2.367"/><path d="M31.83 22.151l-2.741 3.037 1.429 2.367"/></g><g stroke="#3B3735" stroke-width="2" stroke-linecap="round" stroke-linejoin="round" stroke-miterlimit="10" fill="none"><path d="M41.833 46.555h-33.666c-3.958 0-7.167-3.209-7.167-7.167 0-3.958 3.209-7.167 7.167-7.167h33.667c3.958 0 7.167 3.209 7.167 7.167-.001 3.958-3.21 7.167-7.168 7.167z"/><circle cx="9.949" cy="39.388" r="2.25"/><circle cx="20.115" cy="39.388" r="2.25"/><circle cx="30.474" cy="39.388" r="2.25"/><circle cx="39.93" cy="39.388" r="2.25"/><path d="M8.199 19.055h17.25v13.167h-17.25z"/><path d="M14.852 19.055h3.292v4.202h-3.292z"/></g></svg>