<svg xmlns="http://www.w3.org/2000/svg" width="55" height="43.753" viewBox="0 0 55 43.753"><g stroke="#3B3735" stroke-width="2" stroke-linecap="round" stroke-linejoin="round" stroke-miterlimit="10" fill="none"><path d="M4.317 32.25h25.276v10.503h-25.276z"/><path d="M29.593 32.25h14.317v10.503h-14.317z"/><path d="M33.593 42.753h6.91v-3.455c0-1.908-1.547-3.455-3.455-3.455-1.908 0-3.455 1.547-3.455 3.455v3.455z"/><path d="M43.91 32.25h6.592v10.503h-6.592z"/><path d="M9 35.557v2"/><path d="M12 35.557v2"/><path d="M15 35.557v2"/><path d="M18 35.557v2"/><path d="M21 35.557v2"/><path d="M24 35.557v2"/><path d="M14.801 32.206h-9.002l.896-3.893h7.21z"/><path d="M6.695 22.954h7.169v5.359h-7.169z"/><path d="M13.773 22.75s1.934-.622 1.934-2.8-5.43-6.222-5.43-6.222-5.43 4.044-5.43 6.222 1.934 2.8 1.934 2.8"/><path d="M10 13.557v-4"/><path d="M5.799 22.089l6.579-6.578"/><path d="M9.415 22.954l4.77-4.77"/><path d="M27.243 32.206h-9.002l.896-3.893h7.21z"/><path d="M19.137 22.954h7.169v5.359h-7.169z"/><path d="M26.215 22.75s1.934-.622 1.934-2.8-5.43-6.222-5.43-6.222-5.43 4.044-5.43 6.222 1.934 2.8 1.934 2.8"/><path d="M23 13.557v-4"/><path d="M48.243 32.206h-4.333l-2.906-3.893h6.343z"/><path d="M41.004 28.313h6.302v-5.359h-7.169v4.186"/><path d="M47.215 22.75s1.934-.622 1.934-2.8-5.43-6.222-5.43-6.222-5.43 4.044-5.43 6.222 1.934 2.8 1.934 2.8"/><path d="M44 13.557v-4"/><path d="M30.285 32.206l6.763-9.252 6.862 9.296"/><path d="M37.048 22.954l-2.555 9.252"/><path d="M37.048 22.954l2.555 9.252"/><path d="M42.857 32.206l-12.422-28.499-4.908 11.261"/><path d="M26 9.557h9"/><path d="M38 18.557h-10"/><path d="M30.435 3.707l-.15-2.707"/><path d="M1 42.557h53"/></g></svg>