<svg xmlns="http://www.w3.org/2000/svg" width="40.719" height="40.719" viewBox="0 0 40.719 40.719"><g stroke="#3B3735" stroke-width="2" stroke-linecap="round" stroke-linejoin="round" stroke-miterlimit="10" fill="none"><path d="M38.719 39.719h-36.719c-.552 0-1-.448-1-1v-36.719c0-.552.448-1 1-1h36.719c.552 0 1 .448 1 1v36.719c0 .553-.447 1-1 1z"/><path d="M34.532 29.61v3.922c0 .552-.448 1-1 1h-26.345c-.552 0-1-.448-1-1v-26.345c0-.552.448-1 1-1h26.345c.552 0 1 .448 1 1v3.923"/><path d="M34.532 16.772v7.203"/><circle cx="20.36" cy="20.36" r="8.25"/><circle cx="20.36" cy="20.36" r="4.682"/><path d="M20.363 12.079v3"/><path d="M20.363 28.079v-3"/><path d="M28.363 20.079h-3"/><path d="M12.363 20.079h3"/><path d="M25.929 14.782l-2.121 2.121"/><path d="M14.616 26.096l2.121-2.122"/><path d="M25.929 26.096l-2.121-2.122"/><path d="M14.616 14.782l2.121 2.121"/><path d="M32.606 11.109h3.5v5.663h-3.5z"/><path d="M32.606 23.947h3.5v5.663h-3.5z"/></g></svg>