<?xml version="1.0" encoding="utf-8"?>
<!-- Generator: Adobe Illustrator 17.0.0, SVG Export Plug-In . SVG Version: 6.00 Build 0)  -->
<!DOCTYPE svg PUBLIC "-//W3C//DTD SVG 1.1//EN" "http://www.w3.org/Graphics/SVG/1.1/DTD/svg11.dtd">
<svg version="1.1" id="Layer_1" xmlns="http://www.w3.org/2000/svg" xmlns:xlink="http://www.w3.org/1999/xlink" x="0px" y="0px"
	 width="45.827px" height="50.851px" viewBox="0 0 45.827 50.851" enable-background="new 0 0 45.827 50.851" xml:space="preserve">
<g>
	
		<circle fill="none" stroke="#3B3735" stroke-width="2" stroke-linecap="round" stroke-linejoin="round" stroke-miterlimit="10" cx="29.848" cy="16.6" r="2.567"/>
	<path fill="none" stroke="#3B3735" stroke-width="2" stroke-linecap="round" stroke-linejoin="round" stroke-miterlimit="10" d="
		M31.645,7.607c0.526-0.679,1.119-1.353,1.773-2.007c4-4,8.767-5.718,10.647-3.838c1.88,1.88,0.162,6.647-3.838,10.647
		s-8.767,5.718-10.647,3.838"/>
	<path fill="none" stroke="#3B3735" stroke-width="2" stroke-linecap="round" stroke-linejoin="round" stroke-miterlimit="10" d="
		M18.454,44.196c-0.38,0.38-1.101,0.984-1.481,0.604L1.163,28.989c-0.38-0.38-0.025-1.35,0.355-1.73L21.453,7.324
		c0.19-0.19,4.597-0.224,9.203-0.457l8.592,8.592c-0.127,4.712-0.651,8.594-0.859,8.802L18.454,44.196z"/>
	<g>
		<path fill="none" stroke="#3B3735" stroke-width="2" stroke-linecap="round" stroke-linejoin="round" stroke-miterlimit="10" d="
			M29.098,49.267L41.421,23.91c0.121-0.249-0.969-3.92-2.199-8.228c-0.253,4.637-0.632,8.377-0.833,8.578L18.454,44.196
			c-0.38,0.38-1.101,0.984-1.481,0.604l-8.687-8.687l-1.225,2.708c-0.235,0.483,0.055,0.976,0.538,1.211l20.155,9.729
			C28.237,49.996,28.863,49.75,29.098,49.267z"/>
		<path fill="none" stroke="#3B3735" stroke-width="2" stroke-linecap="round" stroke-linejoin="round" stroke-miterlimit="10" d="
			M39.147,15.108c-0.011-0.037-0.021-0.073-0.031-0.11l-0.153-0.074L39.147,15.108z"/>
	</g>
</g>
</svg>
