<svg xmlns="http://www.w3.org/2000/svg" width="47.25" height="46.488" viewBox="0 0 47.25 46.488"><g stroke="#000" stroke-width="2" stroke-linecap="round" stroke-linejoin="round" stroke-miterlimit="10" fill="none"><path d="M33.113 23.819l-9.294 9.294c-.781.781-2.047.781-2.828 0l-9.294-9.294c-.781-.781-.781-2.047 0-2.828l9.294-9.294c.781-.781 2.047-.781 2.828 0l9.294 9.294c.781.78.781 2.047 0 2.828z"/><path d="M19.939 32.062l-11.426 11.426c-.781.781-2.047.781-2.828 0l-4.099-4.098c-.781-.781-.781-2.047 0-2.828l11.427-11.427 6.926 6.927z"/><path d="M32.062 19.939l11.426-11.426c.781-.781.781-2.047 0-2.828l-4.098-4.099c-.781-.781-2.047-.781-2.828 0l-11.427 11.426 6.927 6.927z"/><path d="M28.388 28.379c-3.469 3.469-3.151 9.411.398 12.961l12.562-12.562c-3.549-3.55-9.491-3.868-12.96-.399z"/><path d="M36.841 36.832c.979-.979 1.183-2.363 0-3.546l-3.546 3.546c1.183 1.183 2.566.979 3.546 0z"/><path d="M46.203 37.933c.28 1.711-.732 3.843-2.199 5.31-1.509 1.509-3.72 2.536-5.455 2.172"/><path d="M42.104 36.755c.172 1.051-.45 2.36-1.35 3.26-.926.926-2.284 1.557-3.349 1.334"/></g></svg>