<svg xmlns="http://www.w3.org/2000/svg" width="480" height="480" viewBox="0 0 480 480"><g stroke="#000" stroke-width="2" stroke-linecap="round" stroke-linejoin="round" stroke-miterlimit="10" fill="none"><path d="M249.432 241.089l-9.294 9.294c-.781.781-2.047.781-2.828 0l-9.294-9.294c-.781-.781-.781-2.047 0-2.828l9.294-9.294c.781-.781 2.047-.781 2.828 0l9.294 9.294c.781.781.781 2.047 0 2.828z"/><path d="M236.259 249.332l-11.427 11.427c-.781.781-2.047.781-2.828 0l-4.099-4.099c-.781-.781-.781-2.047 0-2.828l11.427-11.427 6.927 6.927z"/><path d="M248.381 237.21l11.427-11.427c.781-.781.781-2.047 0-2.828l-4.099-4.099c-.781-.781-2.047-.781-2.828 0l-11.427 11.427 6.927 6.927z"/><path d="M244.708 245.65c-3.469 3.469-3.151 9.411.398 12.961l12.562-12.562c-3.549-3.55-9.491-3.868-12.96-.399z"/><path d="M253.16 254.103c.979-.979 1.183-2.363 0-3.546l-3.546 3.546c1.183 1.183 2.567.979 3.546 0z"/><path d="M262.523 255.204c.28 1.711-.732 3.843-2.199 5.31-1.509 1.509-3.72 2.536-5.455 2.172"/><path d="M258.424 254.026c.172 1.051-.45 2.36-1.35 3.26-.926.926-2.284 1.557-3.349 1.334"/></g></svg>