<svg xmlns="http://www.w3.org/2000/svg" width="44.12" height="44.641" viewBox="0 0 44.12 44.641"><g stroke="#3B3735" stroke-width="2" stroke-linecap="round" stroke-linejoin="round" stroke-miterlimit="10" fill="none"><path d="M1 17h18.12v6.641h-18.12z"/><path d="M4.265 20.25h4"/><path d="M14.265 20.25h1"/></g><g stroke="#3B3735" stroke-width="2" stroke-linecap="round" stroke-linejoin="round" stroke-miterlimit="10" fill="none"><path d="M1 27h18.12v6.641h-18.12z"/><path d="M4.265 30.25h4"/><path d="M14.265 30.25h1"/></g><g stroke="#3B3735" stroke-width="2" stroke-linecap="round" stroke-linejoin="round" stroke-miterlimit="10" fill="none"><path d="M1 37h18.12v6.641h-18.12z"/><path d="M4.265 40.25h4"/><path d="M14.265 40.25h1"/></g><g stroke="#3B3735" stroke-width="2" stroke-linecap="round" stroke-linejoin="round" stroke-miterlimit="10" fill="none"><path d="M25 1h18.12v6.641h-18.12z"/><path d="M28.265 4.25h4"/><path d="M38.265 4.25h1"/></g><g stroke="#3B3735" stroke-width="2" stroke-linecap="round" stroke-linejoin="round" stroke-miterlimit="10" fill="none"><path d="M25 11h18.12v6.641h-18.12z"/><path d="M28.265 14.25h4"/><path d="M38.265 14.25h1"/></g><g stroke="#3B3735" stroke-width="2" stroke-linecap="round" stroke-linejoin="round" stroke-miterlimit="10" fill="none"><path d="M25 21h18.12v6.641h-18.12z"/><path d="M28.265 24.25h4"/><path d="M38.265 24.25h1"/></g><path stroke="#3B3735" stroke-width="2" stroke-linecap="round" stroke-linejoin="round" stroke-miterlimit="10" fill="none" d="M19.265 40.25h15v-12"/></svg>