<svg xmlns="http://www.w3.org/2000/svg" width="41.369" height="42.062" viewBox="0 0 41.369 42.062"><g stroke="#231F20" stroke-width="1.5" stroke-linecap="round" stroke-linejoin="round" stroke-miterlimit="2.613" fill="none"><path d="M29.286 35.613c.718-.694 1.352-1.461 1.912-2.271 3.665-5.299 4.153-12.393 4.153-12.393s-5.678-5.207-14.667-7.023c-8.988 1.816-14.666 7.023-14.666 7.023s.481 6.994 4.076 12.281c.579.851 1.238 1.657 1.989 2.383"/><path d="M20.684 11.747h-9.56v5.713c2.451-1.35 5.7-2.755 9.56-3.535 3.86.78 7.108 2.185 9.56 3.535v-5.713h-9.56z"/><path d="M20.684 11.747h-11.723v-5.217h23.446v5.217z"/><path d="M20.684.75h-2.494v5.78h4.989000000000001v-5.78z"/><path d="M20.684.75h-2.494v2.489h4.989000000000001v-2.489z"/><path d="M21.463 9.139h-1.557"/><path d="M15.345 9.139h-1.557"/><path d="M27.58 9.139h-1.556"/><path d="M.75 33.428l1.602 1.849c.448.517 1.037.786 1.721.786.684 0 1.273-.269 1.721-.786l1.602-1.849 1.602 1.849c.448.517 1.037.786 1.721.786.684 0 1.273-.269 1.721-.786l1.602-1.849 1.602 1.849c.448.517 1.037.786 1.721.786.684 0 1.273-.269 1.721-.786l1.602-1.849 1.602 1.849c.448.517 1.037.786 1.721.786s1.273-.269 1.721-.786l1.602-1.849 1.602 1.849c.448.517 1.037.786 1.721.786.684 0 1.273-.269 1.721-.786l1.602-1.849 1.602 1.849c.448.517 1.037.786 1.721.786.684 0 1.273-.269 1.721-.786l1.602-1.849"/><path d="M.75 38.676l1.602 1.849c.448.517 1.037.786 1.721.786.684 0 1.273-.269 1.721-.786l1.602-1.849 1.602 1.849c.448.517 1.037.786 1.721.786.684 0 1.273-.269 1.721-.786l1.602-1.849 1.602 1.849c.448.517 1.037.786 1.721.786.684 0 1.273-.269 1.721-.786l1.602-1.849 1.602 1.849c.448.517 1.037.786 1.721.786s1.273-.269 1.721-.786l1.602-1.849 1.602 1.849c.448.517 1.037.786 1.721.786.684 0 1.273-.269 1.721-.786l1.602-1.849 1.602 1.849c.448.517 1.037.786 1.721.786.684 0 1.273-.269 1.721-.786l1.602-1.849"/><path d="M20.692 28.513l-.015-14.587"/></g></svg>