<svg xmlns="http://www.w3.org/2000/svg" width="34" height="44" viewBox="0 0 34 44"><g stroke="#3B3735" stroke-width="2" stroke-linecap="round" stroke-linejoin="round" stroke-miterlimit="10" fill="none"><path d="M1 8h32v35h-32z"/><circle cx="10.144" cy="14.176" r=".715"/><circle cx="23.676" cy="14.176" r=".715"/><path d="M10 14v-5.874c0-3.737 2.939-7.126 6.676-7.126h.468c3.736 0 6.856 3.389 6.856 7.126v5.874"/><path d="M28 31.947c0 .203-.404.053-.606.053h-8.445c-.204 0 .051.15.051-.053v-9.18c0-.203 4.582-5.141 4.582-5.141s4.418 4.939 4.418 5.141v9.18z"/><path d="M21.784 19.207c-.092-.463-.143-.972-.143-1.506 0-2.137.814-3.869 1.819-3.869 1.004 0 1.819 1.732 1.819 3.869s-.814 3.869-1.819 3.869"/></g></svg>