<svg xmlns="http://www.w3.org/2000/svg" width="37.667" height="45.291" viewBox="0 0 37.667 45.291"><g stroke="#3B3735" stroke-width="2" stroke-linecap="round" stroke-linejoin="round" stroke-miterlimit="10" fill="none"><path d="M35.667 44.291h-33.667c-.552 0-1-.448-1-1v-18.283c0-.552.448-1 1-1h33.667c.552 0 1 .448 1 1v18.283c0 .552-.448 1-1 1z"/><path d="M27.952 44.291l-5.226-31.566c-.097-.926.509-1.771 1.415-1.99 1.188-.287 2.716-1.056 3.419-3.078 1.044-3.006-.694-6.657-8.786-6.657s-9.83 3.651-8.786 6.656c.702 2.022 2.231 2.791 3.419 3.078.905.219 1.511 1.064 1.415 1.99l-5.108 31.567"/><path d="M9.714 44.291h-7.77c-.521 0-.944-.423-.944-.945v-2.292h7.061c.42 0 .789.277.907.68l.746 2.557z"/><path d="M27.952 44.291h7.77c.522 0 .945-.423.945-.945v-2.292h-7.061c-.42 0-.789.277-.907.68l-.747 2.557z"/><path d="M23.944 44.291h-10.224l.746-2.557c.118-.403.487-.68.907-.68h6.918c.42 0 .789.277.907.68l.746 2.557z"/></g></svg>