<svg xmlns="http://www.w3.org/2000/svg" width="39.394" height="37.869" viewBox="0 0 39.394 37.869"><path stroke="#3B3735" stroke-width="2" stroke-linecap="round" stroke-linejoin="round" stroke-miterlimit="10" d="M22.488 2.735l3.366 6.82c.453.919 1.33 1.556 2.344 1.703l7.527 1.094c2.553.371 3.573 3.509 1.725 5.31l-5.446 5.309c-.734.715-1.068 1.746-.895 2.755l1.286 7.496c.436 2.543-2.233 4.482-4.517 3.282l-6.732-3.539c-.907-.477-1.99-.477-2.897 0l-6.732 3.539c-2.284 1.201-4.953-.739-4.517-3.282l1.286-7.496c.173-1.01-.162-2.04-.895-2.755l-5.446-5.309c-1.848-1.801-.828-4.939 1.725-5.31l7.527-1.094c1.014-.147 1.89-.784 2.344-1.703l3.366-6.82c1.14-2.313 4.439-2.313 5.581 0z" fill="none"/></svg>