<svg xmlns="http://www.w3.org/2000/svg" width="38.427" height="42.93" viewBox="0 0 38.427 42.93"><g stroke="#231F20" stroke-width="1.5" stroke-miterlimit="2.613" fill="none"><path stroke-linecap="round" stroke-linejoin="round" d="M.75 14.153h28.647v11.084c0 7.604-6.445 13.826-14.323 13.826s-14.323-6.222-14.323-13.826v-11.084z"/><path stroke-linecap="round" stroke-linejoin="round" d="M.75 42.18h28.647"/><path d="M29.397 16.603c4.599-1.07 8.28.926 8.28 4.55 0 3.703-3.844 7.705-8.583 8.937-.227.059-.453.11-.675.155.631-1.554.978-3.243.978-5.007v-8.635z"/><path stroke-linecap="round" stroke-linejoin="round" d="M7.909 19.939h7.161v8.17h-7.161z"/><path stroke-linecap="round" stroke-linejoin="round" d="M11.489 19.939v-5.786"/><path stroke-linecap="round" stroke-linejoin="round" d="M15.342.75c-3.333 2.581 2.937 6.871-.697 10.084"/><path stroke-linecap="round" stroke-linejoin="round" d="M10.352 3.642c-2.378 1.841 2.095 4.901-.498 7.193"/><path stroke-linecap="round" stroke-linejoin="round" d="M20.178 3.642c-2.378 1.841 2.095 4.901-.498 7.193"/></g></svg>