<?xml version="1.0" encoding="utf-8"?>
<!-- Generator: Adobe Illustrator 17.0.0, SVG Export Plug-In . SVG Version: 6.00 Build 0)  -->
<!DOCTYPE svg PUBLIC "-//W3C//DTD SVG 1.1//EN" "http://www.w3.org/Graphics/SVG/1.1/DTD/svg11.dtd">
<svg version="1.1" id="Layer_1" xmlns="http://www.w3.org/2000/svg" xmlns:xlink="http://www.w3.org/1999/xlink" x="0px" y="0px"
	 width="52.25px" height="41.295px" viewBox="0 0 52.25 41.295" enable-background="new 0 0 52.25 41.295" xml:space="preserve">
<path fill="none" stroke="#3B3735" stroke-width="2" stroke-linecap="round" stroke-linejoin="round" stroke-miterlimit="10" d="
	M36.652,1.609c1.837,0,3.327,1.489,3.327,3.327s-1.489,3.327-3.327,3.327c-1.838,0-3.327-1.489-3.327-3.327
	S34.814,1.609,36.652,1.609"/>
<path fill="none" stroke="#3B3735" stroke-width="2" stroke-linecap="round" stroke-linejoin="round" stroke-miterlimit="10" d="
	M19.991,40.295v-3.889c0-2.823-2.288-5.111-5.111-5.111h-3.206c-2.586,0-4.683,2.097-4.683,4.683v4.317H19.991z"/>
<path fill="none" stroke="#3B3735" stroke-width="2" stroke-linecap="round" stroke-linejoin="round" stroke-miterlimit="10" d="
	M21.465,15.294v-2.785c0-2.207-2.223-4.214-4.43-4.214H14.79c-2.207,0-4.325,2.008-4.325,4.214v2.786L21.465,15.294L21.465,15.294z"
	/>
<path fill="none" stroke="#3B3735" stroke-width="2" stroke-linecap="round" stroke-linejoin="round" stroke-miterlimit="10" d="
	M45.923,40.295v-3.889c0-2.823-2.288-5.111-5.111-5.111h-3.206c-2.586,0-4.683,2.097-4.683,4.683v4.317H45.923z"/>
<path fill="none" stroke="#3B3735" stroke-width="2" stroke-linecap="round" stroke-linejoin="round" stroke-miterlimit="10" d="
	M42.465,15.294v-2.785c0-2.207-2.484-4.214-4.691-4.214h-2.245c-2.207,0-5.064,2.008-5.064,4.214v2.786L42.465,15.294L42.465,15.294
	z"/>
<path fill="none" stroke="#3B3735" stroke-width="2" stroke-linecap="round" stroke-linejoin="round" stroke-miterlimit="10" d="
	M13.491,22.173c2.46,0,4.454,1.994,4.454,4.454s-1.994,4.454-4.454,4.454s-4.454-1.994-4.454-4.454S11.031,22.173,13.491,22.173"/>
<path fill="none" stroke="#3B3735" stroke-width="2" stroke-linecap="round" stroke-linejoin="round" stroke-miterlimit="10" d="
	M15.913,1.632c1.825,0,3.304,1.479,3.304,3.304S17.738,8.24,15.913,8.24s-3.304-1.479-3.304-3.304S14.088,1.632,15.913,1.632"/>
<line fill="none" stroke="#3B3735" stroke-width="2" stroke-linecap="round" stroke-linejoin="round" stroke-miterlimit="10" x1="32.923" y1="37.802" x2="19.991" y2="37.802"/>
<polyline fill="none" stroke="#3B3735" stroke-width="2" stroke-linecap="round" stroke-linejoin="round" stroke-miterlimit="10" points="
	6.991,37.802 1,37.802 7.099,15.295 43.931,15.295 51.25,37.802 45.923,37.802 "/>
<path fill="none" stroke="#3B3735" stroke-width="2" stroke-linecap="round" stroke-linejoin="round" stroke-miterlimit="10" d="
	M39.423,22.173c2.46,0,4.454,1.994,4.454,4.454s-1.994,4.454-4.454,4.454s-4.454-1.994-4.454-4.454S36.963,22.173,39.423,22.173"/>
</svg>
