<svg xmlns="http://www.w3.org/2000/svg" width="48.175" height="43.125" viewBox="0 0 48.175 43.125"><path stroke="#3B3735" stroke-width="2" stroke-linecap="round" stroke-linejoin="round" stroke-miterlimit="10" d="M27.812 3c-2.224 0-2.224-2-4.449-2-2.226 0-2.226 2-4.453 2-2.228 0-2.228-2-4.456-2-2.226 0-2.226 2-4.454 2" fill="none"/><path stroke="#3B3735" stroke-width="2" stroke-linecap="round" stroke-linejoin="round" stroke-miterlimit="10" d="M44.812 10c-2.224 0-2.224-2-4.449-2-2.226 0-2.226 2-4.453 2-2.228 0-2.228-2-4.456-2s-2.226 2-4.454 2" fill="none"/><g stroke="#3B3735" stroke-width="2" stroke-linecap="round" stroke-linejoin="round" stroke-miterlimit="10" fill="none"><path d="M6.835 9.125h14v15h-14z"/><path d="M6.835 9.125h14v6h-14z"/><path d="M20.835 15.125h12v5h-12z"/><path d="M7.159 24.125h13.857l6.159 18h-26.175z"/><path d="M32.835 20.125h10v4h-10z"/><path d="M20.835 24.125v-9h12v12"/><path d="M33.053 27.125l5.122 15h-11l-5.132-15z"/><path d="M32.835 27.482v-7.357h10v10h-8.757z"/><path d="M43.03 30.125l4.145 12h-9l-4.097-12z"/></g></svg>