<svg xmlns="http://www.w3.org/2000/svg" width="23.892" height="48.872" viewBox="0 0 23.892 48.872"><g stroke="#000" stroke-width="2" stroke-linecap="round" stroke-linejoin="round" stroke-miterlimit="10" fill="none"><path d="M11.633 9.874l-5.132-.004c-.193-.146-.314-.354-.34-.58l-.817-7.333c-.057-.511.388-.957.958-.957h11.287c.57 0 1.016.446.958.957l-.817 7.334c-.025.227-.146.435-.339.58l-5.758.003"/><path d="M15.804 10.75l7.056 27.449c.095.371-.03.764-.322 1.012l-9.946 8.424c-.373.316-.92.316-1.293 0l-9.946-8.424c-.292-.248-.418-.641-.322-1.012l7.057-27.449"/><path d="M4.446 26.043l12.086-12.461"/><path d="M1.128 38.986l17.425-17.425"/><path d="M7.065 44.049l13.761-13.761"/></g></svg>