<svg xmlns="http://www.w3.org/2000/svg" width="30.495" height="44.744" viewBox="0 0 30.495 44.744"><g stroke="#231F20" stroke-width="1.5" stroke-miterlimit="2.613" fill="none"><path d="M29.745 6.422v29.067c0 4.782-28.994 4.783-28.994 0v-29.067c0-1.703 3.676-2.799 8.409-3.289v2.279c0 .413.334.752.742.752h10.692c.408 0 .742-.339.742-.752v-2.279c4.733.491 8.409 1.586 8.409 3.289z"/><path d="M29.745 9.105v9.434c-6.872 7.68-22.124 7.679-28.994 0v-9.434h28.994z"/><path stroke-linecap="round" stroke-linejoin="round" d="M15.255 24.298l8.553-4.966"/><circle cx="7.389" cy="30.125" r="2.011"/><circle cx="23.105" cy="30.125" r="2.011"/><path stroke-linecap="round" stroke-linejoin="round" d="M13.816 27.092l2.862-.024"/><path d="M9.901.75h10.692c.408 0 .742.339.742.752v3.91c0 .413-.334.752-.742.752h-10.692c-.408 0-.742-.339-.742-.752v-3.91c0-.413.334-.752.742-.752z"/><path stroke-linecap="round" stroke-linejoin="round" d="M5.778 43.994l3.017-5.255"/><path stroke-linecap="round" stroke-linejoin="round" d="M24.716 43.994l-3.017-5.255"/><path stroke-linecap="round" stroke-linejoin="round" d="M7.043 41.812l16.408-.023"/></g></svg>