<svg xmlns="http://www.w3.org/2000/svg" width="45.685" height="47.707" viewBox="0 0 45.685 47.707"><g stroke="#3B3735" stroke-width="2" stroke-linecap="round" stroke-linejoin="round" stroke-miterlimit="10" fill="none"><path d="M34.295 11.632l-11.146 5.549h-5.618l7.335-6.038"/><path d="M32.776 12.181h9.569c1.293 0 2.341-1.207 2.341-2.5s-1.048-2.5-2.341-2.5h-32.674l-4.313-4.516-4.358-1.665 3.485 8.992c.341 1.196 1.048 2.189 2.341 2.189h15.95"/><path d="M33.08 43.707h-20.574"/><path d="M6.018 43.707h-2.393c-.887 0-1.606-.719-1.606-1.606v-19.43c0-.887.719-1.606 1.606-1.606h29.96c.452 0 .882.19 1.187.524l8.494 9.309c.27.296.42.682.42 1.083v10.121c0 .887-.719 1.606-1.606 1.606h-2.51"/><circle cx="9.269" cy="43.457" r="3.25"/><circle cx="36.331" cy="43.457" r="3.25"/><path d="M2.776 31.181h41"/><path d="M10.776 21.181v10"/><path d="M19.776 21.181v10"/><path d="M28.776 21.181v10"/></g></svg>