<svg xmlns="http://www.w3.org/2000/svg" width="48.195" height="47" viewBox="0 0 48.195 47"><g stroke="#3B3735" stroke-width="2" stroke-linecap="round" stroke-linejoin="round" stroke-miterlimit="10" fill="none"><path d="M24.177 46h-13v-28.108l-3.55 3.094-6.627-7.733 8.929-9.067 7.67-3.186h12.974l7.681 3.186 8.941 9.021-6.559 7.756-3.459-3.071v28.108h-13"/><path d="M23.921 6.963c3.294 0 5.963-1.963 5.963-5.963h-11.926c0 4 2.67 5.963 5.963 5.963z"/><path d="M14.982 2.401c.514 4.526 4.339 7.999 8.981 7.999 4.679 0 8.528-3.528 8.993-8.107"/><path d="M3.256 10.988l6.58 7.705"/><path d="M44.916 10.988l-6.58 7.705"/></g></svg>