<svg xmlns="http://www.w3.org/2000/svg" width="437" height="396.27" viewBox="0 0 437 396.27"><path d="M198.576 200.204c0-11.552 9.365-20.917 20.917-20.917 11.552 0 20.917 9.365 20.917 20.917" stroke="#3B3735" stroke-width="2" stroke-linecap="round" stroke-linejoin="round" stroke-miterlimit="10" fill="none"/><path d="M239.983 200.322c-3.421 0-3.421-2-6.842-2-3.422 0-3.422 2-6.844 2-3.42 0-3.42-2-6.84-2-3.423 0-3.423 2-6.846 2-3.425 0-3.425-2-6.851-2s-3.425 2-6.851 2" stroke="#3B3735" stroke-width="2" stroke-linecap="round" stroke-linejoin="round" stroke-miterlimit="10" fill="none"/><path d="M219.493 179.287s-9.563 7.346-7.393 20.917" stroke="#3B3735" stroke-width="2" stroke-linecap="round" stroke-linejoin="round" stroke-miterlimit="10" fill="none"/><path d="M219.447 174.996l.046 4.291s9.563 7.346 7.393 20.917" stroke="#3B3735" stroke-width="2" stroke-linecap="round" stroke-linejoin="round" stroke-miterlimit="10" fill="none"/><path d="M229.992 215.191c0 2.766-2.229 5.089-4.996 5.089-2.766 0-4.996-2.162-4.996-4.929v-17.351" stroke="#3B3735" stroke-width="2" stroke-linecap="round" stroke-linejoin="round" stroke-miterlimit="10" fill="none"/></svg>