<svg xmlns="http://www.w3.org/2000/svg" width="437" height="396.27" viewBox="0 0 437 396.27"><g stroke="#3B3735" stroke-width="2" stroke-linecap="round" stroke-linejoin="round" stroke-miterlimit="10" fill="none"><path d="M201 181h37v35h-37z"/><path d="M201 181h7v7h-7z"/><path d="M231 181h7v7h-7z"/><path d="M201 188h7v7h-7z"/><path d="M231 188h7v7h-7z"/><path d="M201 195h7v7h-7z"/><path d="M231 195h7v7h-7z"/><path d="M201 202h7v7h-7z"/><path d="M231 202h7v7h-7z"/><path d="M201 209h7v7h-7z"/><path d="M231 209h7v7h-7z"/><path d="M215.351 191.957l9.72 6.615c.188.128.188.448 0 .576l-9.72 6.615c-.187.127-.421-.032-.421-.288v-13.23c0-.255.234-.415.421-.288z"/></g><g stroke="#3B3735" stroke-width="2" stroke-linecap="round" stroke-linejoin="round" stroke-miterlimit="10" fill="none"><path d="M201 181h37v35h-37z"/><path d="M201 181h7v7h-7z"/><path d="M231 181h7v7h-7z"/><path d="M201 188h7v7h-7z"/><path d="M231 188h7v7h-7z"/><path d="M201 195h7v7h-7z"/><path d="M231 195h7v7h-7z"/><path d="M201 202h7v7h-7z"/><path d="M231 202h7v7h-7z"/><path d="M201 209h7v7h-7z"/><path d="M231 209h7v7h-7z"/><path d="M215.351 191.957l9.72 6.615c.188.128.188.448 0 .576l-9.72 6.615c-.187.127-.421-.032-.421-.288v-13.23c0-.255.234-.415.421-.288z"/></g></svg>