<svg xmlns="http://www.w3.org/2000/svg" width="39" height="37" viewBox="0 0 39 37"><g stroke="#3B3735" stroke-width="2" stroke-linecap="round" stroke-linejoin="round" stroke-miterlimit="10" fill="none"><path d="M1 1h37v35h-37z"/><path d="M1 1h7v7h-7z"/><path d="M31 1h7v7h-7z"/><path d="M1 8h7v7h-7z"/><path d="M31 8h7v7h-7z"/><path d="M1 15h7v7h-7z"/><path d="M31 15h7v7h-7z"/><path d="M1 22h7v7h-7z"/><path d="M31 22h7v7h-7z"/><path d="M1 29h7v7h-7z"/><path d="M31 29h7v7h-7z"/><path d="M15.351 11.957l9.72 6.615c.188.128.188.448 0 .576l-9.72 6.615c-.187.127-.421-.032-.421-.288v-13.23c0-.255.234-.415.421-.288z"/></g><g stroke="#3B3735" stroke-width="2" stroke-linecap="round" stroke-linejoin="round" stroke-miterlimit="10" fill="none"><path d="M1 1h37v35h-37z"/><path d="M1 1h7v7h-7z"/><path d="M31 1h7v7h-7z"/><path d="M1 8h7v7h-7z"/><path d="M31 8h7v7h-7z"/><path d="M1 15h7v7h-7z"/><path d="M31 15h7v7h-7z"/><path d="M1 22h7v7h-7z"/><path d="M31 22h7v7h-7z"/><path d="M1 29h7v7h-7z"/><path d="M31 29h7v7h-7z"/><path d="M15.351 11.957l9.72 6.615c.188.128.188.448 0 .576l-9.72 6.615c-.187.127-.421-.032-.421-.288v-13.23c0-.255.234-.415.421-.288z"/></g></svg>