<?xml version="1.0" encoding="utf-8"?>
<!-- Generator: Adobe Illustrator 17.0.0, SVG Export Plug-In . SVG Version: 6.00 Build 0)  -->
<!DOCTYPE svg PUBLIC "-//W3C//DTD SVG 1.1//EN" "http://www.w3.org/Graphics/SVG/1.1/DTD/svg11.dtd">
<svg version="1.1" id="Layer_1" xmlns="http://www.w3.org/2000/svg" xmlns:xlink="http://www.w3.org/1999/xlink" x="0px" y="0px"
	 width="47.352px" height="38.287px" viewBox="0 0 47.352 38.287" enable-background="new 0 0 47.352 38.287" xml:space="preserve">
<g>
	<path fill="none" stroke="#3B3735" stroke-width="2" stroke-linecap="round" stroke-linejoin="round" stroke-miterlimit="10" d="
		M37.417,37.287H13.925c-0.585,0-1.045-0.499-0.997-1.082l2.159-26.184h21.166l2.159,26.184
		C38.461,36.788,38.001,37.287,37.417,37.287z"/>
	<path fill="none" stroke="#3B3735" stroke-width="2" stroke-linecap="round" stroke-linejoin="round" stroke-miterlimit="10" d="
		M24.109,1L24.109,1c-4.982,0-9.021,4.039-9.021,9.021v0h9.021V1z"/>
	<path fill="none" stroke="#3B3735" stroke-width="2" stroke-linecap="round" stroke-linejoin="round" stroke-miterlimit="10" d="
		M35.268,10.021c0.331,0,0.658,0.014,0.982,0.043c5.661,0.497,10.102,5.25,10.102,11.04c0,5.159-3.524,9.494-8.297,10.73"/>
	<path fill="none" stroke="#3B3735" stroke-width="2" stroke-linecap="round" stroke-linejoin="round" stroke-miterlimit="10" d="
		M7.24,16.745L7.24,16.745C4.769,17.72,1.975,16.508,1,14.037l0,0l8.948-3.532l0,0C10.924,12.976,9.711,15.77,7.24,16.745z"/>
	<path fill="none" stroke="#3B3735" stroke-width="2" stroke-linecap="round" stroke-linejoin="round" stroke-miterlimit="10" d="
		M14.041,22.513l-4.312-8.086H9.554c-0.526,1-1.308,1.741-2.314,2.138c-0.654,0.258-1.329,0.444-1.989,0.413l7.677,19.092"/>
</g>
</svg>
