<svg xmlns="http://www.w3.org/2000/svg" width="51.007" height="43.523" viewBox="0 0 51.007 43.523"><g stroke="#3B3735" stroke-width="2" stroke-linecap="round" stroke-linejoin="round" stroke-miterlimit="10" fill="none"><path d="M4.871 21.301c0 11.721 9.502 21.222 21.222 21.222 8.622 0 16.044-5.142 19.365-12.527"/><path d="M1 24.932l3.871-3.891 4.755 3.833"/></g><g stroke="#3B3735" stroke-width="2" stroke-linecap="round" stroke-linejoin="round" stroke-miterlimit="10" fill="none"><path d="M46.136 22.222c0-11.72-9.501-21.222-21.222-21.222-8.622 0-16.044 5.142-19.365 12.527"/><path d="M50.007 18.591l-3.871 3.891-4.755-3.833"/></g><g stroke="#3B3735" stroke-width="2" stroke-linecap="round" stroke-linejoin="round" stroke-miterlimit="10" fill="none"><path d="M34.246 24.057c0 4.829-3.914 8.743-8.743 8.743s-8.743-3.914-8.743-8.743 8.743-14.774 8.743-14.774 8.743 9.945 8.743 14.774z"/><path d="M25.205 30.181c-3.018 0-5.464-2.446-5.464-5.464"/></g></svg>