<svg xmlns="http://www.w3.org/2000/svg" width="46.512" height="45.984" viewBox="0 0 46.512 45.984"><g stroke="#3B3735" stroke-width="2" stroke-linecap="round" stroke-linejoin="round" stroke-miterlimit="10" fill="none"><path d="M10.512 11.402v-7.402h-4v7.58c-1 1.648-4 5.359-4 8.035v4.385h12v-4.385c0-2.62-3-5.963-4-8.213z"/><path d="M11.512 2.531c0 .811-.657 1.469-1.469 1.469h-3.062c-.811 0-1.469-.658-1.469-1.469v-.062c0-.811.658-1.469 1.469-1.469h3.062c.811 0 1.469.658 1.469 1.469v.062z"/><path d="M25.512 11.402v-7.402h-4v7.58c-1 1.648-4 5.359-4 8.035v4.385h12v-4.385c0-2.62-3-5.963-4-8.213z"/><path d="M26.512 2.531c0 .811-.657 1.469-1.469 1.469h-3.062c-.811 0-1.469-.658-1.469-1.469v-.062c0-.811.658-1.469 1.469-1.469h3.062c.811 0 1.469.658 1.469 1.469v.062z"/><path d="M40.512 11.402v-7.402h-4v7.58c-1 1.648-4 5.359-4 8.035v4.385h12v-4.385c0-2.62-3-5.963-4-8.213z"/><path d="M41.512 2.531c0 .811-.657 1.469-1.469 1.469h-3.062c-.811 0-1.469-.658-1.469-1.469v-.062c0-.811.658-1.469 1.469-1.469h3.062c.811 0 1.469.658 1.469 1.469v.062z"/><path d="M1 24.318h44.422v10.27h-44.422z"/><path d="M1 34.588h44.422v10.396h-44.422z"/><path d="M1.512 29h3"/><path d="M1.512 39h3"/><path d="M45.512 29h-3"/><path d="M45.512 39h-3"/></g></svg>