<?xml version="1.0" encoding="utf-8"?>
<!-- Generator: Adobe Illustrator 17.0.0, SVG Export Plug-In . SVG Version: 6.00 Build 0)  -->
<!DOCTYPE svg PUBLIC "-//W3C//DTD SVG 1.1//EN" "http://www.w3.org/Graphics/SVG/1.1/DTD/svg11.dtd">
<svg version="1.1" id="Layer_1" xmlns="http://www.w3.org/2000/svg" xmlns:xlink="http://www.w3.org/1999/xlink" x="0px" y="0px"
	 width="148.167px" height="95.833px" viewBox="-2.664 -12.23 148.167 95.833"
	 enable-background="new -2.664 -12.23 148.167 95.833" xml:space="preserve">
<path fill="none" stroke="#000000" stroke-linecap="round" stroke-linejoin="round" stroke-miterlimit="10" d="M66.631,55.981
	c-0.673,0.433-1.334,0.843-1.986,1.234c-8.478,5.09-15.299,6.964-24.296,13.626c15.38-4.824,29.075-5.54,39.451-8.017
	c15.222-3.636,22.335-8.414,29.708-14.145c6.953-4.826,13.905-10.018,21.756-13.113c4.16-1.637,6.266-2.019,9.218-1.972
	c1.104,0,1.212-0.03,1.212-0.03c0.422,0.049,0.525-0.319,0.158-0.429c-0.369-0.127-1.685-0.459-2.318-0.683
	c-0.422-0.141-2.318-0.999-3.163-1.301c-2.74-1.349-4.001-1.89-4.478-2.081c-2.367-0.937-5.794-1.445-8.899-1.634
	c-8.272-0.511-13.326,1.679-20.809,5.553C95.286,20.431,93.862,6.364,79.22,1.982c-8.084-2.43-16.303,1.767-25.262,7.776"/>
<path fill="none" stroke="#000000" stroke-linecap="round" stroke-linejoin="round" stroke-miterlimit="10" d="M53.959,9.758
	c-11.123,7.46-23.386,17.714-37.944,21.549C10.221,32.847,6.901,33.578,1,34.656c6.113,2.525,9.85,3.86,16.489,4.176
	c8.745,0.429,19.017-0.666,25.758-2.904c-2.16,1.174-4.163,1.967-6.953,2.904c-4.375,1.509-7.113,2.096-11.642,2.542
	c8.585,0.699,13.641,0.126,22.175-1.191c6.27-0.954,11.642-2.763,16.907-4.97l-2.897,2.017l-3.423,1.842l-3.948,1.587
	c5.002,0.175,8.952-0.397,14.063-1.746c1.37-0.35,2.421-0.635,3.266-0.905c1.001-0.253,2.106-1.096,1.051-0.158
	c-0.418,0.381-0.997,0.904-1.578,1.318c-0.951,0.681-1.845,1.191-2.11,1.397c1.531-0.033,3.269,0.064,4.635,0.476
	c0.898,0.224,2.269,1.08,2.848,2.382c0.736,1.54-0.423,4.334-1.688,6.288c-1.051,1.477-4.263,4.302-7.321,6.27"/>
<path fill="none" stroke="#000000" stroke-linecap="round" stroke-linejoin="round" stroke-miterlimit="10" d="M120.201,2.41
	c-5.057-1.826-14.643,3.684-23.859,2.096c-2.529-0.445-3.953-0.825-6.166-1.841c-0.262-0.095-0.788-0.459-2.318-1.381
	c2.529,5.335,9.063,9.176,15.171,8.176c5.952-0.969,13.116-3.73,16.539-2.238c0.844,0.348,1.738,1.73,1.477,2.508
	c1.419-0.81,1.949-1.969,1.999-3.636C123.152,4.428,121.939,3.029,120.201,2.41z"/>
<path fill="none" stroke="#000000" stroke-linecap="round" stroke-linejoin="round" stroke-miterlimit="10" d="M115.462,11.714
	c-3.32-1.19-9.643,2.795-15.594,1.366c-1.896-0.476-2.843-0.762-4.739-1.699c1.95,3.493,5.107,5.588,9.114,4.922
	c3.845-0.619,8.691-2.731,10.798-1.46c0.63,0.398,1.159,1.096,0.947,1.651c0.948-0.523,1.263-1.285,1.317-2.382
	C117.357,13.034,116.567,12.111,115.462,11.714z"/>
<path fill="none" stroke="#000000" stroke-linecap="round" stroke-linejoin="round" stroke-miterlimit="10" d="M110.247,19.209
	c-2.003-0.699-5.744,1.683-9.324,0.826c-1.159-0.287-1.792-0.508-2.843-1.017c1.418,2.507,3.265,3.588,5.688,3.191
	c2.317-0.381,5.321-1.429,5.793-0.476c0,0.079,0.422,0.539,0.157,0.952c1.213-0.681,1.634-1.381,1.634-2.032
	C111.406,20.003,110.931,19.462,110.247,19.209z"/>
</svg>
