<svg class="svglogo" version="1.1" id="Layer_1" xmlns="http://www.w3.org/2000/svg" xmlns:xlink="http://www.w3.org/1999/xlink" x="0px" y="0px"
	 width="143.339px" height="72.207px" viewBox="0 0 143.339 72.207" enable-background="new 0 0 143.339 72.207"
	 xml:space="preserve">
<path fill="none" d="M102.947,32.989C96.048,20.431,94.624,6.364,79.982,1.982C61.862-3.464,43.06,24.383,16.776,31.307
	c-5.794,1.54-9.114,2.271-15.015,3.349"/>
<path fill="none" d="M41.111,70.841c15.38-4.824,29.075-5.54,39.451-8.017c15.222-3.636,22.335-8.414,29.708-14.145
	c6.953-4.826,13.905-10.018,21.756-13.113c4.16-1.637,6.266-2.019,9.218-1.972c1.104,0,1.212-0.03,1.212-0.03
	c0.422,0.049,0.525-0.319,0.158-0.429c-0.369-0.127-1.685-0.459-2.318-0.683c-0.422-0.141-2.318-0.999-3.163-1.301
	c-2.74-1.349-4.001-1.89-4.478-2.081c-2.367-0.937-5.794-1.445-8.899-1.634c-8.272-0.511-13.326,1.679-20.809,5.553"/>
<path fill="none" d="M64.495,35.213l-2.897,2.017l-3.423,1.842l-3.948,1.587c5.002,0.175,8.952-0.397,14.063-1.746
	c1.37-0.35,2.421-0.635,3.266-0.905c1.001-0.253,2.106-1.096,1.051-0.158c-0.418,0.381-0.997,0.904-1.578,1.318
	c-0.951,0.681-1.845,1.191-2.11,1.397c1.531-0.033,3.269,0.064,4.635,0.476c0.898,0.224,2.269,1.08,2.848,2.382
	c0.736,1.54-0.423,4.334-1.688,6.288c-1.051,1.477-4.263,4.302-7.321,6.27c-9.428,6.065-16.593,7.686-26.282,14.86"/>
<path fill="none" d="M1.761,34.656c6.113,2.525,9.85,3.86,16.489,4.176c8.745,0.429,19.017-0.666,25.758-2.904
	c-2.16,1.174-4.163,1.967-6.953,2.904c-4.375,1.509-7.113,2.096-11.642,2.542c8.585,0.699,13.641,0.126,22.175-1.191
	c6.27-0.954,11.642-2.763,16.907-4.97"/>
<path fill="none" d="M120.963,2.41c-5.057-1.826-14.643,3.684-23.859,2.096c-2.529-0.445-3.953-0.825-6.166-1.841
	C90.676,2.57,90.15,2.206,88.62,1.284c2.529,5.335,9.063,9.176,15.171,8.176c5.952-0.969,13.116-3.73,16.539-2.238
	c0.844,0.348,1.738,1.73,1.477,2.508c1.419-0.81,1.949-1.969,1.999-3.636C123.914,4.428,122.701,3.029,120.963,2.41z"/>
<path fill="none" d="M116.224,11.714c-3.32-1.19-9.643,2.795-15.594,1.366c-1.896-0.476-2.843-0.762-4.739-1.699
	c1.95,3.493,5.107,5.588,9.114,4.922c3.845-0.619,8.691-2.731,10.798-1.46c0.63,0.398,1.159,1.096,0.947,1.651
	c0.948-0.523,1.263-1.285,1.317-2.382C118.119,13.034,117.329,12.111,116.224,11.714z"/>
<path fill="none" d="M111.009,19.209c-2.003-0.699-5.744,1.683-9.324,0.826c-1.159-0.287-1.792-0.508-2.843-1.017
	c1.418,2.507,3.265,3.588,5.688,3.191c2.317-0.381,5.321-1.429,5.793-0.476c0,0.079,0.422,0.539,0.157,0.952
	c1.213-0.681,1.634-1.381,1.634-2.032C112.168,20.003,111.693,19.462,111.009,19.209z"/>
</svg>
