<?xml version="1.0" encoding="utf-8"?>
<!-- Generator: Adobe Illustrator 17.0.0, SVG Export Plug-In . SVG Version: 6.00 Build 0)  -->
<!DOCTYPE svg PUBLIC "-//W3C//DTD SVG 1.1//EN" "http://www.w3.org/Graphics/SVG/1.1/DTD/svg11.dtd">
<svg version="1.1" id="Layer_1" xmlns="http://www.w3.org/2000/svg" xmlns:xlink="http://www.w3.org/1999/xlink" x="0px" y="0px"
	 width="143.339px" height="72.207px" viewBox="0 0 143.339 72.207" enable-background="new 0 0 143.339 72.207"
	 xml:space="preserve">
<path fill="none" stroke="#000000" stroke-miterlimit="10" d="M102.947,32.989C96.048,20.431,94.624,6.364,79.982,1.982
	C61.862-3.464,43.06,24.383,16.776,31.307c-5.794,1.54-9.114,2.271-15.015,3.349c6.113,2.525,9.85,3.86,16.489,4.176
	c8.745,0.429,19.017-0.666,25.758-2.904c-2.16,1.174-4.163,1.967-6.953,2.904c-4.375,1.509-7.113,2.096-11.642,2.542
	c8.585,0.699,13.641,0.126,22.175-1.191c6.27-0.954,11.642-2.763,16.907-4.97l-2.897,2.017l-3.423,1.842l-3.948,1.587
	c5.002,0.175,8.952-0.397,14.063-1.746c1.37-0.35,2.421-0.635,3.266-0.905c1.001-0.253,2.106-1.096,1.051-0.158
	c-0.418,0.381-0.997,0.904-1.578,1.318c-0.951,0.681-1.845,1.191-2.11,1.397c1.531-0.033,3.269,0.064,4.635,0.476
	c0.898,0.224,2.269,1.08,2.848,2.382c0.736,1.54-0.423,4.334-1.688,6.288c-1.051,1.477-4.263,4.302-7.321,6.27
	c-9.428,6.065-16.593,7.686-26.282,14.86c15.38-4.824,29.075-5.54,39.451-8.017c15.222-3.636,22.335-8.414,29.708-14.145
	c6.953-4.826,13.905-10.018,21.756-13.113c4.16-1.637,6.266-2.019,9.218-1.972c1.104,0,1.212-0.03,1.212-0.03
	c0.422,0.049,0.525-0.319,0.158-0.429c-0.369-0.127-1.685-0.459-2.318-0.683c-0.422-0.141-2.318-0.999-3.163-1.301
	c-2.74-1.349-4.001-1.89-4.478-2.081c-2.367-0.937-5.794-1.445-8.899-1.634C115.484,26.925,110.43,29.115,102.947,32.989"/>
<path fill="none" stroke="#000000" stroke-miterlimit="10" d="M88.62,1.284c1.53,0.922,2.056,1.286,2.318,1.381
	c2.213,1.016,3.637,1.396,6.166,1.841c9.216,1.588,18.802-3.922,23.859-2.096c1.738,0.619,2.951,2.018,2.843,3.684
	c-0.05,1.667-0.58,2.826-1.999,3.636c0.261-0.778-0.633-2.16-1.477-2.508c-3.423-1.492-10.587,1.269-16.539,2.238
	C97.683,10.46,91.149,6.619,88.62,1.284"/>
<path fill="none" stroke="#000000" stroke-miterlimit="10" d="M88.62,1.284c1.53,0.922,2.056,1.286,2.318,1.381
	c2.213,1.016,3.637,1.396,6.166,1.841c9.216,1.588,18.802-3.922,23.859-2.096c1.738,0.619,2.951,2.018,2.843,3.684
	c-0.05,1.667-0.58,2.826-1.999,3.636c0.261-0.778-0.633-2.16-1.477-2.508c-3.423-1.492-10.587,1.269-16.539,2.238
	C97.683,10.46,91.149,6.619,88.62,1.284z"/>
<path fill="none" stroke="#000000" stroke-miterlimit="10" d="M95.891,11.381c1.896,0.937,2.843,1.223,4.739,1.699
	c5.951,1.429,12.274-2.556,15.594-1.366c1.105,0.397,1.895,1.32,1.843,2.398c-0.054,1.097-0.369,1.859-1.317,2.382
	c0.212-0.555-0.317-1.253-0.947-1.651c-2.107-1.271-6.953,0.841-10.798,1.46C100.998,16.969,97.841,14.874,95.891,11.381"/>
<path fill="none" stroke="#000000" stroke-miterlimit="10" d="M95.891,11.381c1.896,0.937,2.843,1.223,4.739,1.699
	c5.951,1.429,12.274-2.556,15.594-1.366c1.105,0.397,1.895,1.32,1.843,2.398c-0.054,1.097-0.369,1.859-1.317,2.382
	c0.212-0.555-0.317-1.253-0.947-1.651c-2.107-1.271-6.953,0.841-10.798,1.46C100.998,16.969,97.841,14.874,95.891,11.381z"/>
<path fill="none" stroke="#000000" stroke-miterlimit="10" d="M98.842,19.018c1.051,0.509,1.684,0.73,2.843,1.017
	c3.58,0.857,7.321-1.525,9.324-0.826c0.684,0.253,1.159,0.794,1.105,1.444c0,0.651-0.421,1.351-1.634,2.032
	c0.265-0.413-0.157-0.873-0.157-0.952c-0.472-0.953-3.476,0.095-5.793,0.476C102.107,22.606,100.26,21.525,98.842,19.018"/>
<path fill="none" stroke="#000000" stroke-miterlimit="10" d="M98.842,19.018c1.051,0.509,1.684,0.73,2.843,1.017
	c3.58,0.857,7.321-1.525,9.324-0.826c0.684,0.253,1.159,0.794,1.105,1.444c0,0.651-0.421,1.351-1.634,2.032
	c0.265-0.413-0.157-0.873-0.157-0.952c-0.472-0.953-3.476,0.095-5.793,0.476C102.107,22.606,100.26,21.525,98.842,19.018z"/>
</svg>
