<?xml version="1.0" encoding="utf-8"?>
<!-- Generator: Adobe Illustrator 17.0.0, SVG Export Plug-In . SVG Version: 6.00 Build 0)  -->
<!DOCTYPE svg PUBLIC "-//W3C//DTD SVG 1.1//EN" "http://www.w3.org/Graphics/SVG/1.1/DTD/svg11.dtd">
<svg version="1.1" id="Layer_2" xmlns="http://www.w3.org/2000/svg" xmlns:xlink="http://www.w3.org/1999/xlink" x="0px" y="0px"
	 width="680px" height="600px" viewBox="0 0 680 600" enable-background="new 0 0 680 600" xml:space="preserve">
<g>
	<path fill="none" stroke="#3B3735" stroke-width="2" stroke-linecap="round" stroke-linejoin="round" stroke-miterlimit="10" d="
		M434.505,232.36h12.659c0.499,0,0.904-0.405,0.904-0.904v-24.943c0-0.24-0.095-0.47-0.265-0.639l-4.895-4.895
		c-0.17-0.17-0.265-0.4-0.265-0.639v-6.859c0-0.499-0.405-0.904-0.904-0.904h-7.233h-5.425c-0.499,0-0.904,0.405-0.904,0.904v6.859
		c0,0.24-0.095,0.47-0.265,0.639l-4.895,4.895c-0.17,0.17-0.265,0.4-0.265,0.639v24.943c0,0.499,0.405,0.904,0.904,0.904H434.505z"
		/>
	
		<line fill="none" stroke="#3B3735" stroke-width="2" stroke-linecap="round" stroke-linejoin="round" stroke-miterlimit="10" x1="425.91" y1="192.36" x2="444.91" y2="192.36"/>
	
		<line fill="none" stroke="#3B3735" stroke-width="2" stroke-linecap="round" stroke-linejoin="round" stroke-miterlimit="10" x1="421.254" y1="198.137" x2="426.066" y2="202.823"/>
	
		<line fill="none" stroke="#3B3735" stroke-width="2" stroke-linecap="round" stroke-linejoin="round" stroke-miterlimit="10" x1="449.565" y1="198.137" x2="444.753" y2="202.823"/>
</g>
<g>
	<path fill="none" stroke="#3B3735" stroke-width="2" stroke-linecap="round" stroke-linejoin="round" stroke-miterlimit="10" d="
		M233.491,209.378c1.054-9.363,4.781-19.797,9.216-19.797c4.429,0,8.111,10.075,9.171,19.419"/>
	<path fill="none" stroke="#3B3735" stroke-width="2" stroke-linecap="round" stroke-linejoin="round" stroke-miterlimit="10" d="
		M230.45,208.435c0,0,12.459,2.631,11.459,15.724v10.22C241.91,234.38,227.596,237.049,230.45,208.435z"/>
	<path fill="none" stroke="#3B3735" stroke-width="2" stroke-linecap="round" stroke-linejoin="round" stroke-miterlimit="10" d="
		M241.372,217.398c0,0,6.594-7.56,13.185-9.457c0,0,5.055,26.996-12.29,26.439"/>
</g>
<g>
	<path fill="none" stroke="#3B3735" stroke-width="2" stroke-linecap="round" stroke-linejoin="round" stroke-miterlimit="10" d="
		M334.787,232.958c1.065,2.782,4.623,2.782,5.688,0c3.065-8.008,7.438-20.937,6.887-28.255c-0.84-11.14-9.731-9.283-9.731-9.283
		s-8.891-1.857-9.731,9.283C327.349,212.022,331.722,224.95,334.787,232.958z"/>
	
		<line fill="none" stroke="#3B3735" stroke-width="2" stroke-linecap="round" stroke-linejoin="round" stroke-miterlimit="10" x1="346.91" y1="204.36" x2="339.91" y2="204.36"/>
	
		<line fill="none" stroke="#3B3735" stroke-width="2" stroke-linecap="round" stroke-linejoin="round" stroke-miterlimit="10" x1="328.91" y1="212.36" x2="333.91" y2="212.36"/>
	
		<line fill="none" stroke="#3B3735" stroke-width="2" stroke-linecap="round" stroke-linejoin="round" stroke-miterlimit="10" x1="331.91" y1="223.36" x2="336.91" y2="223.36"/>
	
		<line fill="none" stroke="#3B3735" stroke-width="2" stroke-linecap="round" stroke-linejoin="round" stroke-miterlimit="10" x1="346.91" y1="209.36" x2="342.91" y2="209.36"/>
	<path fill="none" stroke="#3B3735" stroke-width="2" stroke-linecap="round" stroke-linejoin="round" stroke-miterlimit="10" d="
		M342.91,190.61l-3.995,3.64c-0.693,0.631-1.776,0.539-2.352-0.199l-4.653-5.963"/>
</g>
<g>
	<g>
		
			<polyline fill="none" stroke="#3B3735" stroke-width="2" stroke-linecap="round" stroke-linejoin="round" stroke-miterlimit="10" points="
			144.41,101.675 128.516,111.511 121.23,130.185 		"/>
		
			<polyline fill="none" stroke="#3B3735" stroke-width="2" stroke-linecap="round" stroke-linejoin="round" stroke-miterlimit="10" points="
			124.91,121.36 124.91,146.36 143.91,146.36 		"/>
	</g>
	<g>
		
			<polyline fill="none" stroke="#3B3735" stroke-width="2" stroke-linecap="round" stroke-linejoin="round" stroke-miterlimit="10" points="
			144.41,101.675 160.303,111.511 167.589,130.185 		"/>
		
			<polyline fill="none" stroke="#3B3735" stroke-width="2" stroke-linecap="round" stroke-linejoin="round" stroke-miterlimit="10" points="
			163.91,121.36 163.91,146.36 144.91,146.36 		"/>
	</g>
	
		<rect x="134.41" y="133.86" fill="none" stroke="#3B3735" stroke-width="2" stroke-linecap="round" stroke-linejoin="round" stroke-miterlimit="10" width="20" height="12.5"/>
	
		<line fill="none" stroke="#3B3735" stroke-width="2" stroke-linecap="round" stroke-linejoin="round" stroke-miterlimit="10" x1="134.41" y1="133.86" x2="154.41" y2="146.36"/>
	
		<line fill="none" stroke="#3B3735" stroke-width="2" stroke-linecap="round" stroke-linejoin="round" stroke-miterlimit="10" x1="134.41" y1="146.36" x2="154.41" y2="133.86"/>
	
		<rect x="136.91" y="117.36" fill="none" stroke="#3B3735" stroke-width="2" stroke-linecap="round" stroke-linejoin="round" stroke-miterlimit="10" width="14.5" height="7.315"/>
</g>
<g>
	<g>
		<path fill="none" stroke="#3B3735" stroke-width="2" stroke-linecap="round" stroke-linejoin="round" stroke-miterlimit="10" d="
			M148.783,197.78c0,2.684-2.176,4.86-4.86,4.86c-2.684,0-4.86-2.176-4.86-4.86c0-2.684,4.86-9.416,4.86-9.416
			S148.783,195.096,148.783,197.78z"/>
		<path fill="none" stroke="#3B3735" stroke-width="2" stroke-linecap="round" stroke-linejoin="round" stroke-miterlimit="10" d="
			M134.051,217.52v3.645c0,4.529,4.294,8.201,9.592,8.201h0C143.643,229.366,146.486,219.646,134.051,217.52z"/>
		<path fill="none" stroke="#3B3735" stroke-width="2" stroke-linecap="round" stroke-linejoin="round" stroke-miterlimit="10" d="
			M153.795,217.52v3.645c0,4.529-4.294,8.201-9.592,8.201l0,0C144.203,229.366,141.361,219.646,153.795,217.52z"/>
		<path fill="none" stroke="#3B3735" stroke-width="2" stroke-linecap="round" stroke-linejoin="round" stroke-miterlimit="10" d="
			M134.051,208.104v3.645c0,4.529,4.294,8.201,9.592,8.201h0C143.643,219.95,146.486,210.23,134.051,208.104z"/>
		<path fill="none" stroke="#3B3735" stroke-width="2" stroke-linecap="round" stroke-linejoin="round" stroke-miterlimit="10" d="
			M153.795,208.104v3.645c0,4.529-4.294,8.201-9.592,8.201l0,0C144.203,219.95,141.361,210.23,153.795,208.104z"/>
		<path fill="none" stroke="#3B3735" stroke-width="2" stroke-linecap="round" stroke-linejoin="round" stroke-miterlimit="10" d="
			M134.051,198.751v3.645c0,4.529,4.294,8.201,9.592,8.201h0C143.643,210.597,146.486,200.877,134.051,198.751z"/>
		<path fill="none" stroke="#3B3735" stroke-width="2" stroke-linecap="round" stroke-linejoin="round" stroke-miterlimit="10" d="
			M153.795,198.751v3.645c0,4.529-4.294,8.201-9.592,8.201l0,0C144.203,210.597,141.361,200.877,153.795,198.751z"/>
	</g>
	
		<line fill="none" stroke="#3B3735" stroke-width="2" stroke-linecap="round" stroke-linejoin="round" stroke-miterlimit="10" x1="143.91" y1="229.36" x2="143.91" y2="235.36"/>
</g>
<g>
	
		<polygon fill="none" stroke="#3B3735" stroke-width="2" stroke-linecap="round" stroke-linejoin="round" stroke-miterlimit="10" points="
		135.792,402.652 128.205,402.652 128.205,377.721 131.876,373.091 135.792,377.721 	"/>
	
		<polygon fill="none" stroke="#3B3735" stroke-width="2" stroke-linecap="round" stroke-linejoin="round" stroke-miterlimit="10" points="
		148.538,402.652 140.951,402.652 140.951,377.721 144.623,373.091 148.538,377.721 	"/>
	
		<polygon fill="none" stroke="#3B3735" stroke-width="2" stroke-linecap="round" stroke-linejoin="round" stroke-miterlimit="10" points="
		161.284,402.652 153.697,402.652 153.697,377.721 157.369,373.091 161.284,377.721 	"/>
	
		<rect x="135.792" y="393.234" fill="none" stroke="#3B3735" stroke-width="2" stroke-linecap="round" stroke-linejoin="round" stroke-miterlimit="10" width="5.159" height="4.211"/>
	
		<rect x="148.538" y="393.234" fill="none" stroke="#3B3735" stroke-width="2" stroke-linecap="round" stroke-linejoin="round" stroke-miterlimit="10" width="5.159" height="4.211"/>
	
		<rect x="135.792" y="382.309" fill="none" stroke="#3B3735" stroke-width="2" stroke-linecap="round" stroke-linejoin="round" stroke-miterlimit="10" width="5.159" height="4.211"/>
	
		<rect x="123.046" y="393.234" fill="none" stroke="#3B3735" stroke-width="2" stroke-linecap="round" stroke-linejoin="round" stroke-miterlimit="10" width="5.159" height="4.211"/>
	
		<rect x="123.046" y="382.309" fill="none" stroke="#3B3735" stroke-width="2" stroke-linecap="round" stroke-linejoin="round" stroke-miterlimit="10" width="5.159" height="4.211"/>
	
		<rect x="148.538" y="382.309" fill="none" stroke="#3B3735" stroke-width="2" stroke-linecap="round" stroke-linejoin="round" stroke-miterlimit="10" width="5.159" height="4.211"/>
	
		<rect x="161.284" y="393.234" fill="none" stroke="#3B3735" stroke-width="2" stroke-linecap="round" stroke-linejoin="round" stroke-miterlimit="10" width="5.159" height="4.211"/>
	
		<rect x="161.284" y="382.309" fill="none" stroke="#3B3735" stroke-width="2" stroke-linecap="round" stroke-linejoin="round" stroke-miterlimit="10" width="5.159" height="4.211"/>
</g>
<g>
	<path fill="none" stroke="#3B3735" stroke-width="2" stroke-linecap="round" stroke-linejoin="round" stroke-miterlimit="10" d="
		M522.144,213.36h-10.399c0,0-0.005,12,6.773,15h3.626h3.626c6.777-3,6.773-15,6.773-15H522.144z"/>
	<path fill="none" stroke="#3B3735" stroke-width="2" stroke-linecap="round" stroke-linejoin="round" stroke-miterlimit="10" d="
		M522.144,213.36h8.19c-0.973-4-4.228-10.889-8.103-10.889s-7.13,6.889-8.103,10.889H522.144z"/>
	
		<line fill="none" stroke="#3B3735" stroke-width="2" stroke-linecap="round" stroke-linejoin="round" stroke-miterlimit="10" x1="508.91" y1="213.36" x2="534.91" y2="213.36"/>
	<path fill="none" stroke="#3B3735" stroke-width="2" stroke-linecap="round" stroke-linejoin="round" stroke-miterlimit="10" d="
		M543.888,213.36h-10.399c0,0-0.005,12,6.773,15h3.626h3.626c6.777-3,6.773-15,6.773-15H543.888z"/>
	<path fill="none" stroke="#3B3735" stroke-width="2" stroke-linecap="round" stroke-linejoin="round" stroke-miterlimit="10" d="
		M543.888,213.36h8.19c-0.973-4-4.228-10.889-8.103-10.889s-7.13,6.889-8.103,10.889H543.888z"/>
	
		<line fill="none" stroke="#3B3735" stroke-width="2" stroke-linecap="round" stroke-linejoin="round" stroke-miterlimit="10" x1="530.91" y1="213.36" x2="556.91" y2="213.36"/>
</g>
<g>
	<g>
		<path fill="none" stroke="#3B3735" stroke-width="2" stroke-linecap="round" stroke-linejoin="round" stroke-miterlimit="10" d="
			M154.272,282.152c0.792,0.887,1.475,1.874,2.028,2.939"/>
		<path fill="none" stroke="#3B3735" stroke-width="2" stroke-linecap="round" stroke-linejoin="round" stroke-miterlimit="10" d="
			M135.227,280.105c2.351-1.727,5.235-2.745,8.352-2.745h0c3.146,0,6.054,1.036,8.417,2.793"/>
		<path fill="none" stroke="#3B3735" stroke-width="2" stroke-linecap="round" stroke-linejoin="round" stroke-miterlimit="10" d="
			M130.921,285.141c0.677-1.302,1.54-2.487,2.554-3.518"/>
		<path fill="none" stroke="#3B3735" stroke-width="2" stroke-linecap="round" stroke-linejoin="round" stroke-miterlimit="10" d="
			M132.909,311.764c-2.266-2.497-3.656-5.865-3.656-9.569v-10.148c0-0.869,0.072-1.721,0.209-2.549"/>
		<path fill="none" stroke="#3B3735" stroke-width="2" stroke-linecap="round" stroke-linejoin="round" stroke-miterlimit="10" d="
			M150.91,314.443c-1.907,1.082-4.094,1.698-6.419,1.698h-1.822c-2.368,0-4.592-0.638-6.523-1.757"/>
		<path fill="none" stroke="#3B3735" stroke-width="2" stroke-linecap="round" stroke-linejoin="round" stroke-miterlimit="10" d="
			M157.768,289.988c0.089,0.673,0.136,1.36,0.136,2.059v10.148c0,3.691-1.379,7.047-3.631,9.542"/>
		<g>
			<path fill="none" stroke="#3B3735" stroke-width="2" stroke-linecap="round" stroke-linejoin="round" stroke-miterlimit="10" d="
				M147.997,304.36c0.352,0,0.682-0.18,0.863-0.482c2.346-3.917,3.883-10.701,3.883-13.77c0-4.971-4.029-9.083-9-9.083
				s-9,4.154-9,9.125c0,3.069,1.538,9.814,3.883,13.728c0.181,0.302,0.511,0.482,0.863,0.482H147.997z"/>
			<g>
				
					<line fill="none" stroke="#3B3735" stroke-width="2" stroke-linecap="round" stroke-linejoin="round" stroke-miterlimit="10" x1="141.91" y1="304.36" x2="141.91" y2="302.36"/>
				
					<line fill="none" stroke="#3B3735" stroke-width="2" stroke-linecap="round" stroke-linejoin="round" stroke-miterlimit="10" x1="145.91" y1="304.36" x2="145.91" y2="302.36"/>
			</g>
			<g>
				
					<path fill="none" stroke="#3B3735" stroke-width="2" stroke-linecap="round" stroke-linejoin="round" stroke-miterlimit="10" d="
					M135.748,285.455c0,0-3.006-1.761-8.672,1.072c0,0,1.225,4.123,7.392,4.623"/>
				
					<path fill="none" stroke="#3B3735" stroke-width="2" stroke-linecap="round" stroke-linejoin="round" stroke-miterlimit="10" d="
					M151.786,285.768c0,0,3.291-2.074,8.957,0.759c0,0-1.667,4.167-7.833,4.667"/>
			</g>
			<path fill="none" stroke="#3B3735" stroke-width="2" stroke-linecap="round" stroke-linejoin="round" stroke-miterlimit="10" d="
				M139.073,282.376c0,0-4.33-2.579-5.788-3.391c0,0-0.703,3.19,2.464,6.47"/>
			<path fill="none" stroke="#3B3735" stroke-width="2" stroke-linecap="round" stroke-linejoin="round" stroke-miterlimit="10" d="
				M148.413,282.376c0,0,4.33-2.579,5.788-3.391c0,0,0.703,3.19-2.464,6.47"/>
			<g>
				<circle fill="#3B3735" cx="139.852" cy="291.692" r="1.161"/>
				<circle fill="#3B3735" cx="147.203" cy="291.692" r="1.161"/>
			</g>
		</g>
	</g>
	<path fill="none" stroke="#3B3735" stroke-width="2" stroke-linecap="round" stroke-linejoin="round" stroke-miterlimit="10" d="
		M136.145,310.36v10.382c0,0.894-0.724,1.618-1.618,1.618h0c-0.894,0-1.618-0.724-1.618-1.618V306.36"/>
	<path fill="none" stroke="#3B3735" stroke-width="2" stroke-linecap="round" stroke-linejoin="round" stroke-miterlimit="10" d="
		M154.145,306.36v14.382c0,0.894-0.724,1.618-1.618,1.618h0c-0.894,0-1.618-0.724-1.618-1.618V310.36"/>
</g>
<g>
	<g>
		<g>
			<path fill="none" stroke="#3B3735" stroke-width="2" stroke-linecap="round" stroke-linejoin="round" stroke-miterlimit="10" d="
				M352.461,293.85c0,6.944-5.768,8.288-12.884,8.288c-7.116,0-12.884-1.344-12.884-8.288c0-6.944,5.768-12.667,12.884-12.667
				C346.692,281.183,352.461,286.906,352.461,293.85z"/>
			<path fill="none" stroke="#3B3735" stroke-width="2" stroke-linecap="round" stroke-linejoin="round" stroke-miterlimit="10" d="
				M334.609,282.151c0,0-4.16-6.595-9.701,3.355c0,0-3.35,5.432,2.223,4.941"/>
			<path fill="none" stroke="#3B3735" stroke-width="2" stroke-linecap="round" stroke-linejoin="round" stroke-miterlimit="10" d="
				M344.544,282.151c0,0,4.16-6.595,9.701,3.355c0,0,3.35,5.432-2.223,4.941"/>
			<path fill="none" stroke="#3B3735" stroke-width="2" stroke-linecap="round" stroke-linejoin="round" stroke-miterlimit="10" d="
				M347.398,294.739c0,3.038-3.522,4.27-7.867,4.27c-4.345,0-7.867-1.232-7.867-4.27s3.522-6.116,7.867-6.116
				C343.876,288.622,347.398,291.701,347.398,294.739z"/>
			<ellipse fill="#3B3735" stroke="#3B3735" stroke-miterlimit="10" cx="336.313" cy="294.239" rx="0.763" ry="2.154"/>
			<ellipse fill="#3B3735" stroke="#3B3735" stroke-miterlimit="10" cx="342.75" cy="294.239" rx="0.763" ry="2.154"/>
			<g>
				<circle fill="#3B3735" cx="333.401" cy="287.154" r="1.161"/>
				<circle fill="#3B3735" cx="345.752" cy="287.154" r="1.161"/>
			</g>
		</g>
		<ellipse fill="#3B3735" stroke="#3B3735" stroke-miterlimit="10" cx="342.75" cy="294.239" rx="0.763" ry="2.154"/>
	</g>
	<path fill="none" stroke="#3B3735" stroke-width="2" stroke-linecap="round" stroke-linejoin="round" stroke-miterlimit="10" d="
		M328.987,314.964c-3.117-2.868-5.077-6.977-5.077-11.521v-3.799c0-3.475,1.147-6.696,3.081-9.301"/>
	<path fill="none" stroke="#3B3735" stroke-width="2" stroke-linecap="round" stroke-linejoin="round" stroke-miterlimit="10" d="
		M346.914,317.273c-2.192,1.171-4.691,1.836-7.338,1.836h0c-2.645,0-5.142-0.664-7.333-1.834"/>
	<path fill="none" stroke="#3B3735" stroke-width="2" stroke-linecap="round" stroke-linejoin="round" stroke-miterlimit="10" d="
		M352.162,290.343c1.934,2.606,3.081,5.826,3.081,9.301v3.799c0,4.571-1.984,8.7-5.133,11.571"/>
	<path fill="none" stroke="#3B3735" stroke-width="2" stroke-linecap="round" stroke-linejoin="round" stroke-miterlimit="10" d="
		M332.149,311.61v4.083v5.299c0,0.894-0.724,1.618-1.618,1.618l0,0c-0.894,0-1.618-0.724-1.618-1.618v-5.942v-4.44"/>
	<path fill="none" stroke="#3B3735" stroke-width="2" stroke-linecap="round" stroke-linejoin="round" stroke-miterlimit="10" d="
		M350.149,310.61v10.382c0,0.894-0.724,1.618-1.618,1.618l0,0c-0.894,0-1.618-0.724-1.618-1.618v-9.382"/>
</g>
<g>
	<path fill="none" stroke="#3B3735" stroke-width="2" stroke-linecap="round" stroke-linejoin="round" stroke-miterlimit="10" d="
		M253.172,315.058c3.632-1.391,6.212-4.91,6.212-9.031c0-0.277-0.019-0.549-0.041-0.819c3.402-1.497,5.78-4.892,5.78-8.847
		c0-3.955-2.378-7.35-5.78-8.847c0.023-0.271,0.041-0.543,0.041-0.819c0-5.339-4.328-9.667-9.667-9.667
		c-2.847,0-5.398,1.238-7.167,3.196c-1.769-1.958-4.32-3.196-7.167-3.196c-5.339,0-9.667,4.328-9.667,9.667
		c0,0.277,0.019,0.549,0.041,0.819c-3.402,1.497-5.78,4.892-5.78,8.847s2.378,7.351,5.78,8.847
		c-0.023,0.271-0.041,0.543-0.041,0.819c0,4.087,2.537,7.582,6.122,8.996 M235.384,315.693c2.847,0,5.398-1.238,7.167-3.196
		c1.769,1.958,4.32,3.196,7.167,3.196"/>
	<g>
		<path fill="none" stroke="#3B3735" stroke-width="2" stroke-linecap="round" stroke-linejoin="round" stroke-miterlimit="10" d="
			M248.576,289.936c0,3.328-2.698,10.266-6.026,10.266s-6.026-6.938-6.026-10.266s2.698-6.026,6.026-6.026
			S248.576,286.608,248.576,289.936z"/>
		
			<line fill="none" stroke="#3B3735" stroke-width="2" stroke-linecap="round" stroke-linejoin="round" stroke-miterlimit="10" x1="235.743" y1="282.693" x2="238.485" y2="285.497"/>
		
			<line fill="none" stroke="#3B3735" stroke-width="2" stroke-linecap="round" stroke-linejoin="round" stroke-miterlimit="10" x1="249.358" y1="282.693" x2="246.616" y2="285.497"/>
		<g>
			<circle fill="#3B3735" cx="240.243" cy="291.146" r="0.964"/>
			<circle fill="#3B3735" cx="244.831" cy="291.146" r="0.964"/>
		</g>
	</g>
	<path fill="none" stroke="#3B3735" stroke-width="2" stroke-linecap="round" stroke-linejoin="round" stroke-miterlimit="10" d="
		M235.168,311.61v4.083v5.299c0,0.894-0.724,1.618-1.618,1.618l0,0c-0.894,0-1.618-0.724-1.618-1.618v-5.942v-4.44"/>
	<path fill="none" stroke="#3B3735" stroke-width="2" stroke-linecap="round" stroke-linejoin="round" stroke-miterlimit="10" d="
		M253.168,310.61v10.382c0,0.894-0.724,1.618-1.618,1.618l0,0c-0.894,0-1.618-0.724-1.618-1.618v-9.382"/>
	<path fill="none" stroke="#3B3735" stroke-width="2" stroke-linecap="round" stroke-linejoin="round" stroke-miterlimit="10" d="
		M230.5,309.188c0,0,4.021,3.288,7.985,3.013"/>
	<path fill="none" stroke="#3B3735" stroke-width="2" stroke-linecap="round" stroke-linejoin="round" stroke-miterlimit="10" d="
		M254.6,309.188c0,0-4.021,3.288-7.985,3.013"/>
</g>
<g>
	<path fill="none" stroke="#3B3735" stroke-width="2" stroke-linecap="round" stroke-linejoin="round" stroke-miterlimit="10" d="
		M445.889,294.61c0,5.466-4.259,6.524-9.512,6.524c-5.253,0-9.512-1.058-9.512-6.524s4.259-9.971,9.512-9.971
		C441.63,284.639,445.889,289.144,445.889,294.61z"/>
	<g>
		<path fill="none" stroke="#3B3735" stroke-width="2" stroke-linecap="round" stroke-linejoin="round" stroke-miterlimit="10" d="
			M440.182,295.349c0,1.775-1.703,2.119-3.805,2.119c-2.101,0-3.805-0.344-3.805-2.119s1.703-4.144,3.805-4.144
			C438.478,291.205,440.182,293.573,440.182,295.349z"/>
		
			<line fill="none" stroke="#3B3735" stroke-width="2" stroke-linecap="round" stroke-linejoin="round" stroke-miterlimit="10" x1="432.91" y1="294.36" x2="438.91" y2="294.36"/>
	</g>
	<g>
		<circle fill="#3B3735" cx="431.287" cy="291.353" r="0.957"/>
		<circle fill="#3B3735" cx="441.467" cy="291.353" r="0.957"/>
	</g>
	
		<path fill="#3B3735" stroke="#3B3735" stroke-width="2" stroke-linecap="round" stroke-linejoin="round" stroke-miterlimit="10" d="
		M434.929,284.639c0,0-3.544-2.404-2.495-5.067c1.049-2.662,4.671-3.416,5.243,1.106c0,0,2.555-1.156,2.091,1.089
		c-0.314,1.52-2.184,2.872-2.184,2.872"/>
	<path fill="none" stroke="#3B3735" stroke-width="2" stroke-linecap="round" stroke-linejoin="round" stroke-miterlimit="10" d="
		M443.918,299.365c-1.739,1.397-4.465,1.768-7.541,1.768c-3.076,0-5.802-0.371-7.541-1.768c-2.914,2.017-4.798,5.166-4.798,8.716
		c0,6.091,5.524,11.029,12.339,11.029s12.339-4.938,12.339-11.029C448.716,304.532,446.832,301.383,443.918,299.365z"/>
	<path fill="none" stroke="#3B3735" stroke-width="2" stroke-linecap="round" stroke-linejoin="round" stroke-miterlimit="10" d="
		M428.66,306.86c0,0-0.046,3.826-3.898,4.913"/>
	<path fill="none" stroke="#3B3735" stroke-width="2" stroke-linecap="round" stroke-linejoin="round" stroke-miterlimit="10" d="
		M444.094,306.86c0,0,0.046,3.826,3.898,4.913"/>
	
		<line fill="none" stroke="#3B3735" stroke-width="2" stroke-linecap="round" stroke-linejoin="round" stroke-miterlimit="10" x1="431.91" y1="315.36" x2="431.91" y2="322.36"/>
	
		<line fill="none" stroke="#3B3735" stroke-width="2" stroke-linecap="round" stroke-linejoin="round" stroke-miterlimit="10" x1="440.91" y1="315.36" x2="440.91" y2="322.36"/>
</g>
<g>
	<path fill="none" stroke="#3B3735" stroke-width="2" stroke-linecap="round" stroke-linejoin="round" stroke-miterlimit="10" d="
		M526.66,306.86c0,0-0.046,3.826-3.898,4.913"/>
	<path fill="none" stroke="#3B3735" stroke-width="2" stroke-linecap="round" stroke-linejoin="round" stroke-miterlimit="10" d="
		M542.094,306.86c0,0,0.046,3.826,3.898,4.913"/>
	
		<line fill="none" stroke="#3B3735" stroke-width="2" stroke-linecap="round" stroke-linejoin="round" stroke-miterlimit="10" x1="529.91" y1="315.36" x2="529.91" y2="322.36"/>
	
		<line fill="none" stroke="#3B3735" stroke-width="2" stroke-linecap="round" stroke-linejoin="round" stroke-miterlimit="10" x1="538.91" y1="315.36" x2="538.91" y2="322.36"/>
	<path fill="none" stroke="#3B3735" stroke-width="2" stroke-linecap="round" stroke-linejoin="round" stroke-miterlimit="10" d="
		M537.517,294.854c1.392,2.964,4.4,4.512,4.4,4.512c2.914,2.017,4.798,5.166,4.798,8.716c0,6.091-5.524,11.029-12.339,11.029
		s-12.339-4.938-12.339-11.029c0-3.549,1.884-6.699,4.798-8.716c0,0,2.968-1.527,4.372-4.452"/>
	<g>
		<path fill="none" stroke="#3B3735" stroke-width="2" stroke-linecap="round" stroke-linejoin="round" stroke-miterlimit="10" d="
			M534.307,295.629c0,0,2.09,0.212,4.299-1.465c2.209-1.677-1.878-8.972-2.817-9.397c-0.939-0.425-1.483,0.314-1.483,0.314
			s-0.544-0.738-1.483-0.314s-5.026,7.72-2.817,9.397C532.217,295.841,534.307,295.629,534.307,295.629z"/>
		<path fill="none" stroke="#3B3735" stroke-width="2" stroke-linecap="round" stroke-linejoin="round" stroke-miterlimit="10" d="
			M539.251,291.962c1.818-0.981,2.992-2.508,2.992-4.229c0-1.411-0.793-2.691-2.079-3.648c0.06-0.349,0.097-0.706,0.097-1.073
			c0-3.316-2.578-6.004-5.759-6.004c-3.181,0-5.759,2.688-5.759,6.004c0,0.367,0.037,0.724,0.097,1.073
			c-1.286,0.957-2.079,2.237-2.079,3.648c0,1.597,1.014,3.028,2.614,4.01"/>
		<g>
			
				<ellipse transform="matrix(0.7071 -0.7071 0.7071 0.7071 -47.5841 461.4325)" fill="#3B3735" cx="533.206" cy="288.155" rx="0.526" ry="0.931"/>
			
				<ellipse transform="matrix(-0.7071 -0.7071 0.7071 -0.7071 710.1638 870.4701)" fill="#3B3735" cx="535.362" cy="288.155" rx="0.526" ry="0.931"/>
		</g>
		<g>
			<circle fill="#3B3735" cx="532.009" cy="282.297" r="1.01"/>
			<circle fill="#3B3735" cx="536.685" cy="282.297" r="1.01"/>
		</g>
	</g>
</g>
<g>
	
		<circle fill="none" stroke="#3B3735" stroke-width="2" stroke-linecap="round" stroke-linejoin="round" stroke-miterlimit="10" cx="227.123" cy="138.541" r="6.819"/>
	
		<circle fill="none" stroke="#3B3735" stroke-width="2" stroke-linecap="round" stroke-linejoin="round" stroke-miterlimit="10" cx="227.123" cy="138.541" r="2.591"/>
	
		<circle fill="none" stroke="#3B3735" stroke-width="2" stroke-linecap="round" stroke-linejoin="round" stroke-miterlimit="10" cx="252.624" cy="135.132" r="10.228"/>
	
		<circle fill="none" stroke="#3B3735" stroke-width="2" stroke-linecap="round" stroke-linejoin="round" stroke-miterlimit="10" cx="252.624" cy="135.132" r="5.601"/>
	<path fill="none" stroke="#3B3735" stroke-width="2" stroke-linecap="round" stroke-linejoin="round" stroke-miterlimit="10" d="
		M241.668,126.88c2.503-3.318,6.479-5.463,10.956-5.463c4.453,0,8.411,2.122,10.916,5.411"/>
	
		<line fill="none" stroke="#3B3735" stroke-width="2" stroke-linecap="round" stroke-linejoin="round" stroke-miterlimit="10" x1="242.396" y1="137.45" x2="233.849" y2="137.45"/>
	<path fill="none" stroke="#3B3735" stroke-width="2" stroke-linecap="round" stroke-linejoin="round" stroke-miterlimit="10" d="
		M224.122,132.425l3.273-10.814c0.529-1.808,1.526-3.409,3.409-3.409h26.047v3.884"/>
	<path fill="none" stroke="#3B3735" stroke-width="2" stroke-linecap="round" stroke-linejoin="round" stroke-miterlimit="10" d="
		M255.761,105.11h-13.91c-0.49,0-0.92,0.327-1.051,0.799l-3.419,12.293h19.471v-12.001
		C256.852,105.598,256.363,105.11,255.761,105.11z"/>
	
		<polyline fill="none" stroke="#3B3735" stroke-width="2" stroke-linecap="round" stroke-linejoin="round" stroke-miterlimit="10" points="
		241.721,117.428 244.169,108.36 252.91,108.36 252.91,117.36 	"/>
	<path fill="none" stroke="#3B3735" stroke-width="2" stroke-linecap="round" stroke-linejoin="round" stroke-miterlimit="10" d="
		M234.487,118.202"/>
</g>
<g>
	
		<polyline fill="none" stroke="#3B3735" stroke-width="2" stroke-linecap="round" stroke-linejoin="round" stroke-miterlimit="10" points="
		354.568,470.575 354.568,487.597 349.756,487.597 349.756,482.213 	"/>
	<path fill="none" stroke="#3B3735" stroke-width="2" stroke-linecap="round" stroke-linejoin="round" stroke-miterlimit="10" d="
		M340.659,454.339c7.877,1.212,13.909,8.02,13.909,16.236c0,9.073-7.355,16.428-16.428,16.428c-9.073,0-16.428-7.355-16.428-16.428
		c0-8.162,5.952-14.933,13.752-16.211"/>
	
		<polyline fill="none" stroke="#3B3735" stroke-width="2" stroke-linecap="round" stroke-linejoin="round" stroke-miterlimit="10" points="
		321.91,474.36 321.91,494.36 326.91,494.36 326.91,483.36 	"/>
	<path fill="none" stroke="#3B3735" stroke-width="2" stroke-linecap="round" stroke-linejoin="round" stroke-miterlimit="10" d="
		M340.659,459.233c5.204,1.151,9.097,5.792,9.097,11.342c0,6.415-5.201,11.616-11.616,11.616s-11.616-5.201-11.616-11.616
		c0-5.495,3.815-10.098,8.94-11.306"/>
	
		<rect x="335.464" y="453.132" fill="none" stroke="#3B3735" stroke-width="2" stroke-linecap="round" stroke-linejoin="round" stroke-miterlimit="10" width="5.195" height="7.018"/>
	
		<rect x="348.642" y="487.597" fill="none" stroke="#3B3735" stroke-width="2" stroke-linecap="round" stroke-linejoin="round" stroke-miterlimit="10" width="7.018" height="3.665"/>
	
		<polygon fill="none" stroke="#3B3735" stroke-width="2" stroke-linecap="round" stroke-linejoin="round" stroke-miterlimit="10" points="
		353.632,495.004 350.669,495.004 349.734,491.34 354.568,491.34 	"/>
</g>
<g>
	
		<polygon fill="none" stroke="#3B3735" stroke-width="2" stroke-linecap="round" stroke-linejoin="round" stroke-miterlimit="10" points="
		258.625,377.36 220.038,377.36 232.772,393.586 254.38,387.848 	"/>
	
		<line fill="none" stroke="#3B3735" stroke-width="2" stroke-linecap="round" stroke-linejoin="round" stroke-miterlimit="10" x1="232.772" y1="393.586" x2="227.608" y2="395.143"/>
	
		<circle fill="none" stroke="#3B3735" stroke-width="2" stroke-linecap="round" stroke-linejoin="round" stroke-miterlimit="10" cx="227.857" cy="398.673" r="3.53"/>
	<path fill="none" stroke="#3B3735" stroke-width="2" stroke-linecap="round" stroke-linejoin="round" stroke-miterlimit="10" d="
		M254.38,387.848l-3.9,12.319c-0.522,2.216-2.869,2.764-4.014,0.938l-4.727-9.129"/>
	
		<polyline fill="none" stroke="#3B3735" stroke-width="2" stroke-linecap="round" stroke-linejoin="round" stroke-miterlimit="10" points="
		258.83,377.027 261.076,369.36 265.91,369.36 	"/>
	<path fill="none" stroke="#3B3735" stroke-width="2" stroke-linecap="round" stroke-linejoin="round" stroke-miterlimit="10" d="
		M254.057,377.36c-3.484-4.27-8.784-7-14.725-7s-11.241,2.73-14.725,7H254.057z"/>
</g>
<g>
	<path fill="none" stroke="#3B3735" stroke-width="2" stroke-linecap="round" stroke-linejoin="round" stroke-miterlimit="10" d="
		M340.383,385.165l-6.94-6.94l8.106-8.106c4.477-4.477,11.736-4.477,16.213,0l0,0c4.477,4.477,4.477,11.736,0,16.213l-8.106,8.106
		l-6.939-6.939"/>
	<path fill="none" stroke="#3B3735" stroke-width="2" stroke-linecap="round" stroke-linejoin="round" stroke-miterlimit="10" d="
		M320.962,406.919L320.962,406.919c-0.644-0.644-0.644-1.689,0-2.333l24.439-24.439l4.255-1.921l-1.921,4.255l-24.439,24.439
		C322.651,407.563,321.606,407.563,320.962,406.919z"/>
</g>
<g>
	<path fill="none" stroke="#3B3735" stroke-width="2" stroke-linecap="round" stroke-linejoin="round" stroke-miterlimit="10" d="
		M438.865,389.26l-19.489,19.489c-0.644,0.644-1.689,0.644-2.333,0l0,0c-0.644-0.644-0.644-1.689,0-2.333l19.489-19.489"/>
	
		<line fill="none" stroke="#3B3735" stroke-width="2" stroke-linecap="round" stroke-linejoin="round" stroke-miterlimit="10" x1="450.084" y1="369.902" x2="435.942" y2="384.044"/>
	
		<line fill="none" stroke="#3B3735" stroke-width="2" stroke-linecap="round" stroke-linejoin="round" stroke-miterlimit="10" x1="455.741" y1="375.559" x2="441.599" y2="389.701"/>
	<path fill="none" stroke="#3B3735" stroke-width="2" stroke-linecap="round" stroke-linejoin="round" stroke-miterlimit="10" d="
		M461.093,380.911l-14.378,14.378c-0.391,0.391-1.024,0.391-1.414,0l-14.798-14.798c-0.391-0.391-0.391-1.024,0-1.414l14.378-14.378
		"/>
</g>
<g>
	<path fill="none" stroke="#3B3735" stroke-width="2" stroke-linecap="round" stroke-linejoin="round" stroke-miterlimit="10" d="
		M158.053,491.86h-23.492c-0.585,0-1.045-0.499-0.997-1.082l2.16-26.184h21.166l2.159,26.184
		C159.097,491.361,158.637,491.86,158.053,491.86z"/>
	<path fill="none" stroke="#3B3735" stroke-width="2" stroke-linecap="round" stroke-linejoin="round" stroke-miterlimit="10" d="
		M144.745,455.573L144.745,455.573c-4.982,0-9.021,4.039-9.021,9.021l0,0h9.021V455.573z"/>
	<path fill="none" stroke="#3B3735" stroke-width="2" stroke-linecap="round" stroke-linejoin="round" stroke-miterlimit="10" d="
		M155.904,464.594c0.331,0,0.658,0.014,0.982,0.043c5.661,0.497,10.102,5.25,10.102,11.04c0,5.159-3.524,9.494-8.297,10.73"/>
	<path fill="none" stroke="#3B3735" stroke-width="2" stroke-linecap="round" stroke-linejoin="round" stroke-miterlimit="10" d="
		M127.876,471.318L127.876,471.318c-2.471,0.975-5.265-0.237-6.24-2.708l0,0l8.948-3.532l0,0
		C131.559,467.549,130.347,470.343,127.876,471.318z"/>
	<path fill="none" stroke="#3B3735" stroke-width="2" stroke-linecap="round" stroke-linejoin="round" stroke-miterlimit="10" d="
		M134.677,477.266l-4.312-7.906h-0.175c-0.526,0.855-1.308,1.561-2.314,1.958c-0.654,0.258-1.329,0.354-1.989,0.323l7.677,19.137"/>
</g>
<g>
	
		<polygon fill="none" stroke="#3B3735" stroke-width="2" stroke-linecap="round" stroke-linejoin="round" stroke-miterlimit="10" points="
		254.287,491.913 228.626,491.913 223.712,459.36 259.201,459.36 	"/>
	
		<line fill="none" stroke="#3B3735" stroke-width="2" stroke-linecap="round" stroke-linejoin="round" stroke-miterlimit="10" x1="242.14" y1="467.027" x2="259.201" y2="478.693"/>
	
		<circle fill="none" stroke="#3B3735" stroke-width="2" stroke-linecap="round" stroke-linejoin="round" stroke-miterlimit="10" cx="241.46" cy="466.334" r="1.091"/>
</g>
<g>
	<path fill="none" stroke="#3B3735" stroke-width="2" stroke-linecap="round" stroke-linejoin="round" stroke-miterlimit="10" d="
		M554.708,381.736c0-5.966-3.432-11.118-8.423-13.626c2.559,2.611,4.142,6.182,4.142,10.127c0,7.993-6.48,14.473-14.473,14.473
		c-3.945,0-7.517-1.583-10.127-4.142c2.508,4.99,7.66,8.423,13.626,8.423C547.878,396.992,554.708,390.161,554.708,381.736z"/>
	<path fill="none" stroke="#3B3735" stroke-width="2" stroke-linecap="round" stroke-linejoin="round" stroke-miterlimit="10" d="
		M527.723,391.194l-12.418,12.418c-0.644,0.644-1.689,0.644-2.333,0h0c-0.644-0.644-0.644-1.689,0-2.333l12.418-12.418"/>
</g>
<g>
	<path fill="none" stroke="#3B3735" stroke-width="2" stroke-linecap="round" stroke-linejoin="round" stroke-miterlimit="10" d="
		M344.774,108.36h-10.833v-4.667c0-0.552,0.448-1,1-1h8.833c0.552,0,1,0.448,1,1V108.36z"/>
	
		<line fill="none" stroke="#3B3735" stroke-width="2" stroke-linecap="round" stroke-linejoin="round" stroke-miterlimit="10" x1="330.91" y1="108.36" x2="347.91" y2="108.36"/>
	<path fill="none" stroke="#3B3735" stroke-width="2" stroke-linecap="round" stroke-linejoin="round" stroke-miterlimit="10" d="
		M344.774,109.068c0,3.843-2.425,6.958-5.417,6.958c-2.992,0-5.417-3.115-5.417-6.958"/>
	<path fill="none" stroke="#3B3735" stroke-width="2" stroke-linecap="round" stroke-linejoin="round" stroke-miterlimit="10" d="
		M334.91,114.36h-10c-0.552,0-1,0.448-1,1v3c0,0.552,0.448,1,1,1h6v13c0,0.552,0.448,1,1,1h8"/>
	<path fill="none" stroke="#3B3735" stroke-width="2" stroke-linecap="round" stroke-linejoin="round" stroke-miterlimit="10" d="
		M342.91,114.36h11c0.552,0,1,0.448,1,1v3c0,0.552-0.448,1-1,1h-6v13c0,0.552-0.448,1-1,1h-7"/>
	
		<polyline fill="none" stroke="#3B3735" stroke-width="2" stroke-linecap="round" stroke-linejoin="round" stroke-miterlimit="10" points="
		318.91,118.36 323.91,117.235 318.91,115.36 	"/>
	
		<polyline fill="none" stroke="#3B3735" stroke-width="2" stroke-linecap="round" stroke-linejoin="round" stroke-miterlimit="10" points="
		360.805,118.36 355.805,117.235 360.805,115.36 	"/>
	
		<rect x="337.718" y="133.36" fill="none" stroke="#3B3735" stroke-width="2" stroke-linecap="round" stroke-linejoin="round" stroke-miterlimit="10" width="3.278" height="13.75"/>
</g>
<g>
	<g>
		<path fill="none" stroke="#3B3735" stroke-width="2" stroke-linecap="round" stroke-linejoin="round" stroke-miterlimit="10" d="
			M452.145,468.117h-31.553c-1.444,0-2.625-1.181-2.625-2.625v-0.561c0-1.444,1.181-2.625,2.625-2.625h31.553
			c1.444,0,2.625,1.181,2.625,2.625v0.561C454.77,466.936,453.588,468.117,452.145,468.117z"/>
		<path fill="none" stroke="#3B3735" stroke-width="2" stroke-linecap="round" stroke-linejoin="round" stroke-miterlimit="10" d="
			M419.131,487.941c-1.103-1.878-1.551-4.164-1.058-6.508l2.799-13.316"/>
		<path fill="none" stroke="#3B3735" stroke-width="2" stroke-linecap="round" stroke-linejoin="round" stroke-miterlimit="10" d="
			M436.783,492.468h-11.937c-0.242,0-0.482-0.006-0.72-0.018"/>
		<path fill="none" stroke="#3B3735" stroke-width="2" stroke-linecap="round" stroke-linejoin="round" stroke-miterlimit="10" d="
			M419.965,487.766c0,0-2.569,1.43-2.592,3.376c-0.031,2.562,4.718,5.918,8.086-0.77"/>
		<path fill="none" stroke="#3B3735" stroke-width="2" stroke-linecap="round" stroke-linejoin="round" stroke-miterlimit="10" d="
			M436.783,492.468h11.937c0.242,0,0.482-0.006,0.72-0.018"/>
		<path fill="none" stroke="#3B3735" stroke-width="2" stroke-linecap="round" stroke-linejoin="round" stroke-miterlimit="10" d="
			M453.602,487.766c0,0,2.569,1.43,2.592,3.376c0.031,2.562-4.718,5.918-8.086-0.77"/>
		<path fill="none" stroke="#3B3735" stroke-width="2" stroke-linecap="round" stroke-linejoin="round" stroke-miterlimit="10" d="
			M454.436,487.941c1.103-1.878,1.551-4.164,1.058-6.508l-2.799-13.316"/>
	</g>
	<g>
		<g>
			<path fill="none" stroke="#3B3735" stroke-width="2" stroke-linecap="round" stroke-linejoin="round" stroke-miterlimit="10" d="
				M428.175,481.116c1.525,1.525,3.997,1.525,5.522,0c1.525-1.525,1.525-3.997,0-5.522c-1.314-1.314-6.037-1.939-7.32-2.086
				c-0.168-0.019-0.308,0.121-0.289,0.289C426.236,475.079,426.861,479.802,428.175,481.116z"/>
			
				<line fill="none" stroke="#3B3735" stroke-width="2" stroke-linecap="round" stroke-linejoin="round" stroke-miterlimit="10" x1="429.483" y1="476.99" x2="435.712" y2="483.219"/>
		</g>
		<g>
			<path fill="none" stroke="#3B3735" stroke-width="2" stroke-linecap="round" stroke-linejoin="round" stroke-miterlimit="10" d="
				M437.915,474.126c-2.05,2.05-2.05,5.375,0,7.425s5.375,2.05,7.425,0c1.766-1.766,2.607-8.117,2.805-9.842
				c0.026-0.226-0.162-0.414-0.388-0.388C446.032,471.52,439.681,472.36,437.915,474.126z"/>
			
				<line fill="none" stroke="#3B3735" stroke-width="2" stroke-linecap="round" stroke-linejoin="round" stroke-miterlimit="10" x1="443.463" y1="475.886" x2="435.712" y2="483.219"/>
		</g>
		
			<line fill="none" stroke="#3B3735" stroke-width="2" stroke-linecap="round" stroke-linejoin="round" stroke-miterlimit="10" x1="435.91" y1="488.36" x2="435.91" y2="483.36"/>
	</g>
	<path fill="none" stroke="#3B3735" stroke-width="2" stroke-linecap="round" stroke-linejoin="round" stroke-miterlimit="10" d="
		M423.346,462.306l6.454-5.453c3.934-3.324,9.85-3.127,13.539,0.45l5.064,4.91"/>
</g>
<g>
	<g>
		<path fill="none" stroke="#3B3735" stroke-width="2" stroke-linecap="round" stroke-linejoin="round" stroke-miterlimit="10" d="
			M460.41,145.36c-1.975-10.461-11.549-18.75-23.072-18.75s-21.097,8.289-23.072,18.75H460.41z"/>
		<path fill="none" stroke="#3B3735" stroke-width="2" stroke-linecap="round" stroke-linejoin="round" stroke-miterlimit="10" d="
			M441.735,127.027c-9.492,1.791-16.957,9.237-18.674,18.333h37.349C458.692,136.264,451.228,128.818,441.735,127.027z"/>
		<path fill="none" stroke="#3B3735" stroke-width="2" stroke-linecap="round" stroke-linejoin="round" stroke-miterlimit="10" d="
			M447.598,128.957c-6.601,3.18-11.468,9.285-12.811,16.403h25.623C459.066,138.242,454.199,132.136,447.598,128.957z"/>
		<path fill="none" stroke="#3B3735" stroke-width="2" stroke-linecap="round" stroke-linejoin="round" stroke-miterlimit="10" d="
			M453.458,132.966c-3.543,3.288-6.042,7.61-6.945,12.394h13.897C459.506,140.575,457,136.257,453.458,132.966z"/>
	</g>
	<g>
		<path fill="none" stroke="#3B3735" stroke-width="2" stroke-linecap="round" stroke-linejoin="round" stroke-miterlimit="10" d="
			M437.338,126.61c1.971,0,3.879,0.259,5.708,0.714c1.157-1.33,1.863-3.063,1.863-4.964c0-4.182-3.39-7.572-7.571-7.572
			c-4.182,0-7.572,3.39-7.572,7.572c0,1.901,0.706,3.634,1.863,4.964C433.459,126.869,435.367,126.61,437.338,126.61z"/>
		
			<line fill="none" stroke="#3B3735" stroke-width="2" stroke-linecap="round" stroke-linejoin="round" stroke-miterlimit="10" x1="436.91" y1="110.36" x2="436.91" y2="109.36"/>
		
			<line fill="none" stroke="#3B3735" stroke-width="2" stroke-linecap="round" stroke-linejoin="round" stroke-miterlimit="10" x1="432.096" y1="111.182" x2="430.901" y2="108.43"/>
		
			<line fill="none" stroke="#3B3735" stroke-width="2" stroke-linecap="round" stroke-linejoin="round" stroke-miterlimit="10" x1="428.078" y1="113.919" x2="427.158" y2="113.059"/>
		
			<line fill="none" stroke="#3B3735" stroke-width="2" stroke-linecap="round" stroke-linejoin="round" stroke-miterlimit="10" x1="425.32" y1="117.931" x2="422.494" y2="116.925"/>
		
			<line fill="none" stroke="#3B3735" stroke-width="2" stroke-linecap="round" stroke-linejoin="round" stroke-miterlimit="10" x1="424.479" y1="122.742" x2="422.977" y2="122.843"/>
		
			<line fill="none" stroke="#3B3735" stroke-width="2" stroke-linecap="round" stroke-linejoin="round" stroke-miterlimit="10" x1="441.724" y1="111.182" x2="442.918" y2="108.43"/>
		
			<line fill="none" stroke="#3B3735" stroke-width="2" stroke-linecap="round" stroke-linejoin="round" stroke-miterlimit="10" x1="445.741" y1="113.919" x2="446.661" y2="113.059"/>
		
			<line fill="none" stroke="#3B3735" stroke-width="2" stroke-linecap="round" stroke-linejoin="round" stroke-miterlimit="10" x1="448.499" y1="117.931" x2="451.325" y2="116.925"/>
		
			<line fill="none" stroke="#3B3735" stroke-width="2" stroke-linecap="round" stroke-linejoin="round" stroke-miterlimit="10" x1="449.34" y1="122.742" x2="450.842" y2="122.843"/>
	</g>
</g>
<g>
	
		<polyline fill="none" stroke="#3B3735" stroke-width="2" stroke-linecap="round" stroke-linejoin="round" stroke-miterlimit="10" points="
		521.91,135.36 521.91,147.36 544.91,147.36 544.91,134.36 	"/>
	
		<polyline fill="none" stroke="#3B3735" stroke-width="2" stroke-linecap="round" stroke-linejoin="round" stroke-miterlimit="10" points="
		525.91,116.36 525.91,117.664 523.809,126.026 	"/>
	<path fill="none" stroke="#3B3735" stroke-width="2" stroke-linecap="round" stroke-linejoin="round" stroke-miterlimit="10" d="
		M538.215,108.972c-1.29-1.091-2.957-1.747-4.805-1.747c-2.843,0-5.258,1.552-6.532,3.855"/>
	<path fill="none" stroke="#3B3735" stroke-width="2" stroke-linecap="round" stroke-linejoin="round" stroke-miterlimit="10" d="
		M542.075,122.137l-1.165-4.474v-2.792c0-0.527-0.051-1.041-0.148-1.538"/>
	<g>
		<g>
			<g>
				
					<polygon fill="none" stroke="#3B3735" stroke-width="2" stroke-linecap="round" stroke-linejoin="round" stroke-miterlimit="10" points="
					519.943,136.907 516.087,131.906 527.755,122.907 530.583,126.574 				"/>
				
					<line fill="none" stroke="#3B3735" stroke-width="2" stroke-linecap="round" stroke-linejoin="round" stroke-miterlimit="10" x1="527.967" y1="123.009" x2="532.634" y2="119.41"/>
			</g>
			<g>
				
					<polygon fill="none" stroke="#3B3735" stroke-width="2" stroke-linecap="round" stroke-linejoin="round" stroke-miterlimit="10" points="
					515.159,106.223 520.159,102.366 529.158,114.035 525.491,116.863 				"/>
				
					<line fill="none" stroke="#3B3735" stroke-width="2" stroke-linecap="round" stroke-linejoin="round" stroke-miterlimit="10" x1="529.056" y1="114.246" x2="532.656" y2="118.914"/>
			</g>
			<g>
				
					<polygon fill="none" stroke="#3B3735" stroke-width="2" stroke-linecap="round" stroke-linejoin="round" stroke-miterlimit="10" points="
					545.843,101.438 549.699,106.439 538.031,115.438 535.203,111.771 				"/>
				
					<line fill="none" stroke="#3B3735" stroke-width="2" stroke-linecap="round" stroke-linejoin="round" stroke-miterlimit="10" x1="537.819" y1="115.336" x2="533.152" y2="118.935"/>
			</g>
			<g>
				
					<polygon fill="none" stroke="#3B3735" stroke-width="2" stroke-linecap="round" stroke-linejoin="round" stroke-miterlimit="10" points="
					550.735,131.287 545.734,135.144 536.735,123.475 540.402,120.647 				"/>
				
					<line fill="none" stroke="#3B3735" stroke-width="2" stroke-linecap="round" stroke-linejoin="round" stroke-miterlimit="10" x1="536.838" y1="123.263" x2="533.238" y2="118.596"/>
			</g>
		</g>
		
			<circle fill="none" stroke="#3B3735" stroke-width="2" stroke-linecap="round" stroke-linejoin="round" stroke-miterlimit="10" cx="533.247" cy="119.036" r="2.173"/>
	</g>
	
		<line fill="none" stroke="#3B3735" stroke-width="2" stroke-linecap="round" stroke-linejoin="round" stroke-miterlimit="10" x1="524.91" y1="139.36" x2="535.91" y2="139.36"/>
	
		<line fill="none" stroke="#3B3735" stroke-width="2" stroke-linecap="round" stroke-linejoin="round" stroke-miterlimit="10" x1="528.91" y1="142.36" x2="528.91" y2="139.36"/>
	
		<line fill="none" stroke="#3B3735" stroke-width="2" stroke-linecap="round" stroke-linejoin="round" stroke-miterlimit="10" x1="524.91" y1="143.36" x2="531.91" y2="143.36"/>
	
		<line fill="none" stroke="#3B3735" stroke-width="2" stroke-linecap="round" stroke-linejoin="round" stroke-miterlimit="10" x1="533.91" y1="133.36" x2="540.91" y2="133.36"/>
	
		<line fill="none" stroke="#3B3735" stroke-width="2" stroke-linecap="round" stroke-linejoin="round" stroke-miterlimit="10" x1="536.91" y1="130.36" x2="536.91" y2="133.36"/>
</g>
<g>
	<g>
		
			<rect x="512.488" y="472.318" fill="none" stroke="#3B3735" stroke-width="2" stroke-linecap="round" stroke-linejoin="round" stroke-miterlimit="10" width="44.422" height="10.27"/>
		
			<rect x="512.488" y="482.588" fill="none" stroke="#3B3735" stroke-width="2" stroke-linecap="round" stroke-linejoin="round" stroke-miterlimit="10" width="44.422" height="10.396"/>
		
			<line fill="none" stroke="#3B3735" stroke-width="2" stroke-linecap="round" stroke-linejoin="round" stroke-miterlimit="10" x1="512.91" y1="477.36" x2="515.91" y2="477.36"/>
		
			<line fill="none" stroke="#3B3735" stroke-width="2" stroke-linecap="round" stroke-linejoin="round" stroke-miterlimit="10" x1="512.91" y1="487.36" x2="515.91" y2="487.36"/>
		
			<line fill="none" stroke="#3B3735" stroke-width="2" stroke-linecap="round" stroke-linejoin="round" stroke-miterlimit="10" x1="556.91" y1="477.36" x2="553.91" y2="477.36"/>
		
			<line fill="none" stroke="#3B3735" stroke-width="2" stroke-linecap="round" stroke-linejoin="round" stroke-miterlimit="10" x1="556.91" y1="487.36" x2="553.91" y2="487.36"/>
	</g>
	<g>
		<path fill="none" stroke="#3B3735" stroke-width="2" stroke-linecap="round" stroke-linejoin="round" stroke-miterlimit="10" d="
			M517.585,468.735c-0.356-5.963,0.909-12.903,3.795-13.417c2.882-0.514,6.398,5.343,8.127,11.049"/>
		<path fill="none" stroke="#3B3735" stroke-width="2" stroke-linecap="round" stroke-linejoin="round" stroke-miterlimit="10" d="
			M515.482,472.323c-0.179-1.134-0.322-2.378-0.422-3.744c0,0,4.88,0.082,7.544,3.639"/>
		<path fill="none" stroke="#3B3735" stroke-width="2" stroke-linecap="round" stroke-linejoin="round" stroke-miterlimit="10" d="
			M522.604,472.217c0,0,4.451-4.875,8.529-6.823c0,0,0.985,2.545,1.473,5.723"/>
	</g>
	<g>
		<path fill="none" stroke="#3B3735" stroke-width="2" stroke-linecap="round" stroke-linejoin="round" stroke-miterlimit="10" d="
			M551.558,472.322c0.527-0.439,0.987-0.878,1.36-1.312c3.746-4.357-0.163-6.916-0.163-6.916s-2.559-3.909-6.916-0.163
			c-1.94,1.668-3.994,5.096-5.676,8.385"/>
		
			<line fill="none" stroke="#3B3735" stroke-width="2" stroke-linecap="round" stroke-linejoin="round" stroke-miterlimit="10" x1="543.796" y1="467.436" x2="545.21" y2="468.85"/>
		<path fill="none" stroke="#3B3735" stroke-width="2" stroke-linecap="round" stroke-linejoin="round" stroke-miterlimit="10" d="
			M556.424,464.266l-2.777-0.129c-0.481-0.022-0.842-0.45-0.783-0.928l0.476-3.861"/>
	</g>
	<g>
		<path fill="none" stroke="#3B3735" stroke-width="2" stroke-linecap="round" stroke-linejoin="round" stroke-miterlimit="10" d="
			M547.428,462.838c-0.856-1.326-2.346-2.203-4.041-2.203c-0.441,0-0.86,0.079-1.266,0.19c0.003-0.064,0.019-0.125,0.019-0.19
			c0-2.654-2.152-4.806-4.806-4.806s-4.806,2.152-4.806,4.806c0,0.065,0.017,0.125,0.019,0.19c-0.406-0.111-0.825-0.19-1.266-0.19
			c-1.201,0-2.299,0.44-3.141,1.168"/>
		
			<line fill="none" stroke="#3B3735" stroke-width="2" stroke-linecap="round" stroke-linejoin="round" stroke-miterlimit="10" x1="536.91" y1="472.36" x2="536.91" y2="464.36"/>
		
			<polyline fill="none" stroke="#3B3735" stroke-width="2" stroke-linecap="round" stroke-linejoin="round" stroke-miterlimit="10" points="
			533.576,466.36 536.91,469.36 540.268,466.36 		"/>
	</g>
</g>
</svg>
