<?xml version="1.0" encoding="utf-8"?>
<!-- Generator: Adobe Illustrator 17.0.0, SVG Export Plug-In . SVG Version: 6.00 Build 0)  -->
<!DOCTYPE svg PUBLIC "-//W3C//DTD SVG 1.1//EN" "http://www.w3.org/Graphics/SVG/1.1/DTD/svg11.dtd">
<svg version="1.1" id="Layer_1" xmlns="http://www.w3.org/2000/svg" xmlns:xlink="http://www.w3.org/1999/xlink" x="0px" y="0px"
	 width="43.735px" height="47.59px" viewBox="0 0 43.735 47.59" enable-background="new 0 0 43.735 47.59" xml:space="preserve">
<path fill="none" stroke="#3B3735" stroke-width="2" stroke-linecap="round" stroke-linejoin="round" stroke-miterlimit="10" d="
	M29.128,7.475c1.67,4.14,2.707,9.922,2.707,16.32c0,12.589-4.016,22.795-8.97,22.795s-8.97-10.206-8.97-22.795S17.911,1,22.865,1
	c0.857,0,1.685,0.305,2.47,0.875"/>
<path fill="none" stroke="#3B3735" stroke-width="2" stroke-linecap="round" stroke-linejoin="round" stroke-miterlimit="10" d="
	M6.235,26.515c2.648-3.43,6.775-7.109,11.845-10.307c10.648-6.716,21.423-8.764,24.066-4.574s-3.847,13.031-14.495,19.747
	S6.227,40.146,3.584,35.956c-0.59-0.935-0.725-2.102-0.46-3.425"/>
<ellipse transform="matrix(0.8458 0.5335 -0.5335 0.8458 16.2199 -8.5294)" fill="none" stroke="#3B3735" stroke-width="2" stroke-linecap="round" stroke-linejoin="round" stroke-miterlimit="10" cx="22.865" cy="23.794" rx="22.795" ry="8.97"/>
<circle fill="none" stroke="#3B3735" stroke-width="2" stroke-linecap="round" stroke-linejoin="round" stroke-miterlimit="10" cx="27.613" cy="4.415" r="3.415"/>
<circle fill="none" stroke="#3B3735" stroke-width="2" stroke-linecap="round" stroke-linejoin="round" stroke-miterlimit="10" cx="22.865" cy="23.795" r="3.415"/>
<circle fill="none" stroke="#3B3735" stroke-width="2" stroke-linecap="round" stroke-linejoin="round" stroke-miterlimit="10" cx="4.415" cy="29.402" r="3.415"/>
</svg>
