<?xml version="1.0" encoding="iso-8859-1"?>
<!-- Generator: Adobe Illustrator 17.0.0, SVG Export Plug-In . SVG Version: 6.00 Build 0)  -->
<!DOCTYPE svg PUBLIC "-//W3C//DTD SVG 1.1//EN" "http://www.w3.org/Graphics/SVG/1.1/DTD/svg11.dtd">
<svg version="1.1" id="Layer_1" xmlns="http://www.w3.org/2000/svg" xmlns:xlink="http://www.w3.org/1999/xlink" x="0px" y="0px"
	 width="32.781px" height="45.639px" viewBox="0 0 32.781 45.639" style="enable-background:new 0 0 32.781 45.639;"
	 xml:space="preserve">
<g>
	<path style="fill:none;stroke:#3B3735;stroke-width:2;stroke-linecap:round;stroke-linejoin:round;stroke-miterlimit:10;" d="
		M19.804,37.271c4.534-7,11.977-16.48,11.977-22.392C31.781,6.378,24.891,1,16.391,1S1,6.51,1,15.01
		c0,5.913,7.444,15.261,11.977,22.261H19.804z"/>
	<path style="fill:none;stroke:#3B3735;stroke-width:2;stroke-linecap:round;stroke-linejoin:round;stroke-miterlimit:10;" d="
		M18.294,37.271c2.528-7,6.68-16.48,6.68-22.392C24.974,6.378,21.131,1,16.391,1S7.807,6.51,7.807,15.01
		c0,5.913,4.151,15.261,6.68,22.261H18.294z"/>
	<path style="fill:none;stroke:#3B3735;stroke-width:2;stroke-linecap:round;stroke-linejoin:round;stroke-miterlimit:10;" d="
		M17.394,44.639h-1.552c-1.284,0-2.324-1.041-2.324-2.324v-1.849h6.2v1.849C19.718,43.598,18.678,44.639,17.394,44.639z"/>
</g>
</svg>
