<?xml version="1.0" encoding="utf-8"?>
<!-- Generator: Adobe Illustrator 17.0.0, SVG Export Plug-In . SVG Version: 6.00 Build 0)  -->
<!DOCTYPE svg PUBLIC "-//W3C//DTD SVG 1.1//EN" "http://www.w3.org/Graphics/SVG/1.1/DTD/svg11.dtd">
<svg version="1.1" id="Layer_1" xmlns="http://www.w3.org/2000/svg" xmlns:xlink="http://www.w3.org/1999/xlink" x="0px" y="0px"
	 width="47.949px" height="39.038px" viewBox="0 0 47.949 39.038" enable-background="new 0 0 47.949 39.038" xml:space="preserve">
<g>
	
		<ellipse fill="none" stroke="#3B3735" stroke-width="2" stroke-linecap="round" stroke-linejoin="round" stroke-miterlimit="10" cx="24.201" cy="19.519" rx="22.475" ry="18.519"/>
	<g>
		<path fill="none" stroke="#3B3735" stroke-width="2" stroke-linecap="round" stroke-linejoin="round" stroke-miterlimit="10" d="
			M3.359,11.261c1.854-3.06,4.703-5.636,8.201-7.442C10.578,2.135,8.757,1,6.667,1C3.537,1,1,3.537,1,6.667
			C1,8.56,1.932,10.232,3.359,11.261z"/>
		<path fill="none" stroke="#3B3735" stroke-width="2" stroke-linecap="round" stroke-linejoin="round" stroke-miterlimit="10" d="
			M44.59,11.261c-1.854-3.06-4.703-5.636-8.201-7.442C37.371,2.135,39.192,1,41.282,1c3.13,0,5.667,2.537,5.667,5.667
			C46.949,8.56,46.017,10.232,44.59,11.261z"/>
	</g>
	<g>
		
			<ellipse fill="none" stroke="#3B3735" stroke-width="2" stroke-linecap="round" stroke-linejoin="round" stroke-miterlimit="10" cx="23.946" cy="21.519" rx="8.948" ry="7.373"/>
		<ellipse fill="#3B3735" stroke="#3B3735" stroke-miterlimit="10" cx="23.946" cy="17.802" rx="2.182" ry="1"/>
		<path fill="none" stroke="#3B3735" stroke-width="2" stroke-linecap="round" stroke-linejoin="round" stroke-miterlimit="10" d="
			M29.083,21.881c0,0-2.51,2.151-5.148,0c-2.638,2.151-5.148,0-5.148,0"/>
	</g>
	<g>
		<circle fill="#3B3735" cx="11.985" cy="15.032" r="1.886"/>
		<circle fill="#3B3735" cx="36.052" cy="15.032" r="1.886"/>
	</g>
</g>
</svg>
