<?xml version="1.0" encoding="utf-8"?>
<!-- Generator: Adobe Illustrator 17.0.0, SVG Export Plug-In . SVG Version: 6.00 Build 0)  -->
<!DOCTYPE svg PUBLIC "-//W3C//DTD SVG 1.1//EN" "http://www.w3.org/Graphics/SVG/1.1/DTD/svg11.dtd">
<svg version="1.1" id="Layer_1" xmlns="http://www.w3.org/2000/svg" xmlns:xlink="http://www.w3.org/1999/xlink" x="0px" y="0px"
	 width="38.34px" height="45.5px" viewBox="0 0 38.34 45.5" enable-background="new 0 0 38.34 45.5" xml:space="preserve">
<g>
	<path fill="none" stroke="#3B3735" stroke-width="2" stroke-linecap="round" stroke-linejoin="round" stroke-miterlimit="10" d="
		M7.34,13.5h-3v28.36c0,1.657,1.253,2.64,2.91,2.64h19c1.657,0,3.09-0.983,3.09-2.64V13.5h-7"/>
	<path fill="none" stroke="#3B3735" stroke-width="2" stroke-linecap="round" stroke-linejoin="round" stroke-miterlimit="10" d="
		M28.009,5.591c-0.056,0-0.108,0.014-0.164,0.016c-0.473-2.256-2.472-3.952-4.869-3.952c-1.187,0-2.263,0.433-3.118,1.127
		c-0.727-0.735-1.734-1.192-2.849-1.192c-0.841,0-1.621,0.261-2.266,0.704C13.816,1.499,12.624,1,11.305,1
		C8.566,1,6.339,3.083,6.056,5.747C5.72,5.656,5.374,5.591,5.009,5.591C2.795,5.591,1,7.206,1,9.421C1,11.375,2.399,13.5,4.25,13.5
		l0,0h3.09v10.027c0,1.289,0.954,1.973,2.243,1.973h0.333c1.289,0,2.424-0.685,2.424-1.973v-4.333c0-1.289,0.954-2.693,2.243-2.693
		h0.333c1.289,0,2.424,1.008,2.424,2.335v0.359c0,1.25,0.954,2.307,2.243,2.307h0.333c1.667,0,2.424-1.14,2.424-2.973V13.5h6.91l0,0
		c1.603,0,2.768-2.301,2.768-4.079C32.018,7.206,30.223,5.591,28.009,5.591z"/>
	
		<line fill="none" stroke="#3B3735" stroke-width="2" stroke-linecap="round" stroke-linejoin="round" stroke-miterlimit="10" x1="16.34" y1="24.5" x2="16.34" y2="38.5"/>
	
		<line fill="none" stroke="#3B3735" stroke-width="2" stroke-linecap="round" stroke-linejoin="round" stroke-miterlimit="10" x1="10.34" y1="25.5" x2="10.34" y2="38.5"/>
	
		<line fill="none" stroke="#3B3735" stroke-width="2" stroke-linecap="round" stroke-linejoin="round" stroke-miterlimit="10" x1="22.34" y1="24.5" x2="22.34" y2="38.5"/>
	<path fill="none" stroke="#3B3735" stroke-width="2" stroke-linecap="round" stroke-linejoin="round" stroke-miterlimit="10" d="
		M34.25,16.5h-4.91v21h4.91c1.657,0,3.09-0.983,3.09-2.64v-15C37.34,18.203,35.907,16.5,34.25,16.5z"/>
</g>
</svg>
