<?xml version="1.0" encoding="utf-8"?>
<!-- Generator: Adobe Illustrator 17.0.0, SVG Export Plug-In . SVG Version: 6.00 Build 0)  -->
<!DOCTYPE svg PUBLIC "-//W3C//DTD SVG 1.1//EN" "http://www.w3.org/Graphics/SVG/1.1/DTD/svg11.dtd">
<svg version="1.1" id="Layer_1" xmlns="http://www.w3.org/2000/svg" xmlns:xlink="http://www.w3.org/1999/xlink" x="0px" y="0px"
	 width="49.5px" height="38.187px" viewBox="0 0 49.5 38.187" enable-background="new 0 0 49.5 38.187" xml:space="preserve">
<g>
	<path fill="none" stroke="#3B3735" stroke-width="2" stroke-linecap="round" stroke-linejoin="round" stroke-miterlimit="10" d="
		M45.079,6.65H47.5c0.552,0,1,0.448,1,1v28.537c0,0.552-0.448,1-1,1H2c-0.552,0-1-0.448-1-1V7.65c0-0.552,0.448-1,1-1h2.08"/>
	<path fill="none" stroke="#3B3735" stroke-width="2" stroke-linecap="round" stroke-linejoin="round" stroke-miterlimit="10" d="
		M24.379,35.962c-8.328-8.125-20.208-1-20.208-1v-28c0,0,12.041-8.01,20.251,0L24.379,35.962z"/>
	
		<line fill="none" stroke="#3B3735" stroke-width="2" stroke-linecap="round" stroke-linejoin="round" stroke-miterlimit="10" x1="24.693" y1="6.962" x2="24.6" y2="35.962"/>
	<path fill="none" stroke="#3B3735" stroke-width="2" stroke-linecap="round" stroke-linejoin="round" stroke-miterlimit="10" d="
		M34.632,32.072c5.659,0.055,10.538,2.889,10.538,2.889v-28c0,0-1.561-1.012-3.912-1.957"/>
	
		<polygon fill="none" stroke="#3B3735" stroke-width="2" stroke-linecap="round" stroke-linejoin="round" stroke-miterlimit="10" points="
		24.787,7.067 41.17,1 41.17,29.165 24.293,35.962 	"/>
	<path fill="none" stroke="#3B3735" stroke-width="2" stroke-linecap="round" stroke-linejoin="round" stroke-miterlimit="10" d="
		M8.413,11.983c0,0,7.5-3.536,12.167-0.786"/>
	<path fill="none" stroke="#3B3735" stroke-width="2" stroke-linecap="round" stroke-linejoin="round" stroke-miterlimit="10" d="
		M8.413,16.983c0,0,7.5-3.536,12.167-0.786"/>
	<path fill="none" stroke="#3B3735" stroke-width="2" stroke-linecap="round" stroke-linejoin="round" stroke-miterlimit="10" d="
		M8.413,21.983c0,0,7.5-3.536,12.167-0.786"/>
	<path fill="none" stroke="#3B3735" stroke-width="2" stroke-linecap="round" stroke-linejoin="round" stroke-miterlimit="10" d="
		M8.413,26.983c0,0,7.5-3.536,12.167-0.786"/>
	
		<line fill="none" stroke="#3B3735" stroke-width="2" stroke-linecap="round" stroke-linejoin="round" stroke-miterlimit="10" x1="28.58" y1="11.066" x2="36.58" y2="8.332"/>
</g>
</svg>
