<?xml version="1.0" encoding="utf-8"?>
<!-- Generator: Adobe Illustrator 17.0.0, SVG Export Plug-In . SVG Version: 6.00 Build 0)  -->
<!DOCTYPE svg PUBLIC "-//W3C//DTD SVG 1.1//EN" "http://www.w3.org/Graphics/SVG/1.1/DTD/svg11.dtd">
<svg version="1.1" id="Layer_1" xmlns="http://www.w3.org/2000/svg" xmlns:xlink="http://www.w3.org/1999/xlink" x="0px" y="0px"
	 width="41.498px" height="44.03px" viewBox="0 0 41.498 44.03" enable-background="new 0 0 41.498 44.03" xml:space="preserve">
<g>
	
		<polyline fill="none" stroke="#3B3735" stroke-width="2" stroke-linecap="round" stroke-linejoin="round" stroke-miterlimit="10" points="
		19.122,10.242 15.122,10.242 15.122,24.602 18.598,21.242 18.725,21.242 22.122,24.602 22.122,10.242 18.122,10.242 	"/>
	<g>
		<g>
			
				<line fill="none" stroke="#3B3735" stroke-width="2" stroke-linecap="round" stroke-linejoin="round" stroke-miterlimit="10" x1="9.122" y1="5.242" x2="37.122" y2="5.242"/>
			
				<line fill="none" stroke="#3B3735" stroke-width="2" stroke-linecap="round" stroke-linejoin="round" stroke-miterlimit="10" x1="40.498" y1="1" x2="18.532" y2="1"/>
			<path fill="none" stroke="#3B3735" stroke-width="2" stroke-linecap="round" stroke-linejoin="round" stroke-miterlimit="10" d="
				M18.699,1H5.643C3.079,1,1,3.079,1,5.643v0.146c0,2.564,2.079,4.643,4.643,4.643h31.855V1.667"/>
		</g>
		<path fill="none" stroke="#3B3735" stroke-width="2" stroke-linecap="round" stroke-linejoin="round" stroke-miterlimit="10" d="
			M5.643,10.431h33.112c0.521,0,0.943,0.422,0.943,0.943v30.713c0,0.521-0.422,0.943-0.943,0.943H7.38
			c-3.523,0-6.38-2.856-6.38-6.38V5.789"/>
		
			<line fill="none" stroke="#3B3735" stroke-width="2" stroke-linecap="round" stroke-linejoin="round" stroke-miterlimit="10" x1="8.122" y1="41.242" x2="8.122" y2="10.242"/>
	</g>
</g>
</svg>
