<?xml version="1.0" encoding="utf-8"?>
<!-- Generator: Adobe Illustrator 17.0.0, SVG Export Plug-In . SVG Version: 6.00 Build 0)  -->
<!DOCTYPE svg PUBLIC "-//W3C//DTD SVG 1.1//EN" "http://www.w3.org/Graphics/SVG/1.1/DTD/svg11.dtd">
<svg version="1.1" id="Layer_1" xmlns="http://www.w3.org/2000/svg" xmlns:xlink="http://www.w3.org/1999/xlink" x="0px" y="0px"
	 width="43.616px" height="47.917px" viewBox="0 0 43.616 47.917" enable-background="new 0 0 43.616 47.917" xml:space="preserve">
<g>
	<path fill="none" stroke="#3B3735" stroke-width="2" stroke-linecap="round" stroke-linejoin="round" stroke-miterlimit="10" d="
		M18.486,46.917l-3.282-7.111l-7.354,1.84c-0.558,0.14-1.119-0.22-1.225-0.785L4.408,29.093l-3.137-3.337
		c-0.367-0.39-0.361-0.999,0.012-1.383l5.537-5.686C6.821,18.687,3.425,1,25.36,1s20.247,21.628,9.901,31.974l2.188,13.943H18.486z"
		/>
	<g>
		<path fill="none" stroke="#3B3735" stroke-width="2" stroke-linecap="round" stroke-linejoin="round" stroke-miterlimit="10" d="
			M33.836,18.327c0-0.567-0.058-1.12-0.164-1.656l2.176-1.074l-1.962-3.977l-2.215,1.077c-1.093-1.242-2.215-2.16-4.215-2.602V7.557
			h-4v2.539c-2,0.442-3.276,1.36-4.369,2.602l-2.276-1.077l-2.008,3.977l2.153,1.074c-0.105,0.536-0.175,1.089-0.175,1.656
			s0.052,1.12,0.158,1.656l-2.179,1.074l1.96,3.977l2.368-1.077c1.093,1.242,2.368,2.16,4.368,2.602v1.999h4v-1.999
			c2-0.442,3.122-1.36,4.215-2.602l2.199,1.077l1.97-3.977l-2.172-1.074C33.773,19.447,33.836,18.894,33.836,18.327z"/>
		
			<circle fill="none" stroke="#3B3735" stroke-width="2" stroke-linecap="round" stroke-linejoin="round" stroke-miterlimit="10" cx="25.253" cy="18.28" r="4.23"/>
	</g>
</g>
</svg>
