<?xml version="1.0" encoding="utf-8"?>
<!-- Generator: Adobe Illustrator 17.0.0, SVG Export Plug-In . SVG Version: 6.00 Build 0)  -->
<!DOCTYPE svg PUBLIC "-//W3C//DTD SVG 1.1//EN" "http://www.w3.org/Graphics/SVG/1.1/DTD/svg11.dtd">
<svg version="1.1" id="Layer_1" xmlns="http://www.w3.org/2000/svg" xmlns:xlink="http://www.w3.org/1999/xlink" x="0px" y="0px"
	 width="47.047px" height="37.625px" viewBox="0 0 47.047 37.625" enable-background="new 0 0 47.047 37.625" xml:space="preserve">
<g>
	<g>
		
			<circle fill="none" stroke="#3B3735" stroke-width="2" stroke-linecap="round" stroke-linejoin="round" stroke-miterlimit="10" cx="22.159" cy="19.988" r="8.587"/>
		<path fill="none" stroke="#3B3735" stroke-width="2" stroke-linecap="round" stroke-linejoin="round" stroke-miterlimit="10" d="
			M28.239,26.052c-0.441,0.441-1.062,0.962-1.488,1.211l4.484,4.484c0.709,0.709,1.924,0.643,2.633-0.066
			c0.709-0.709,0.775-1.924,0.066-2.633l-4.484-4.484C29.202,24.991,28.68,25.612,28.239,26.052z"/>
	</g>
	
		<line fill="none" stroke="#3B3735" stroke-width="2" stroke-linecap="round" stroke-linejoin="round" stroke-miterlimit="10" x1="1.405" y1="7.265" x2="45.405" y2="7.265"/>
	
		<circle fill="none" stroke="#3B3735" stroke-width="2" stroke-linecap="round" stroke-linejoin="round" stroke-miterlimit="10" cx="5.366" cy="4.375" r="0.324"/>
	
		<circle fill="none" stroke="#3B3735" stroke-width="2" stroke-linecap="round" stroke-linejoin="round" stroke-miterlimit="10" cx="8.366" cy="4.375" r="0.324"/>
	
		<circle fill="none" stroke="#3B3735" stroke-width="2" stroke-linecap="round" stroke-linejoin="round" stroke-miterlimit="10" cx="11.366" cy="4.375" r="0.324"/>
	<path fill="none" stroke="#3B3735" stroke-width="2" stroke-linecap="round" stroke-linejoin="round" stroke-miterlimit="10" d="
		M45.047,36.625H2c-0.552,0-1-0.448-1-1V2c0-0.552,0.448-1,1-1h43.047c0.552,0,1,0.448,1,1v33.625
		C46.047,36.177,45.599,36.625,45.047,36.625z"/>
</g>
</svg>
