<?xml version="1.0" encoding="utf-8"?>
<!-- Generator: Adobe Illustrator 17.0.0, SVG Export Plug-In . SVG Version: 6.00 Build 0)  -->
<!DOCTYPE svg PUBLIC "-//W3C//DTD SVG 1.1//EN" "http://www.w3.org/Graphics/SVG/1.1/DTD/svg11.dtd">
<svg version="1.1" id="Layer_1" xmlns="http://www.w3.org/2000/svg" xmlns:xlink="http://www.w3.org/1999/xlink" x="0px" y="0px"
	 width="47.047px" height="42.03px" viewBox="0 0 47.047 42.03" enable-background="new 0 0 47.047 42.03" xml:space="preserve">
<g>
	<path fill="none" stroke="#3B3735" stroke-width="2" stroke-linecap="round" stroke-linejoin="round" stroke-miterlimit="10" d="
		M31.93,31.308l1.461,7.303c0.157,0.783,1.123,1.076,1.688,0.511l1.507-1.507l2.828,2.828c0.781,0.781,2.047,0.781,2.828,0h0l0,0
		c0.781-0.781,0.781-2.047,0-2.828l-2.828-2.828l1.507-1.507c0.565-0.565,0.272-1.531-0.511-1.688l-7.303-1.461
		C32.407,29.991,31.79,30.608,31.93,31.308z"/>
	<g>
		<path fill="none" stroke="#3B3735" stroke-width="2" stroke-linecap="round" stroke-linejoin="round" stroke-miterlimit="10" d="
			M32.993,36.625H2c-0.552,0-1-0.448-1-1V2c0-0.552,0.448-1,1-1h43.047c0.552,0,1,0.448,1,1v33.625c0,0.552-0.448,1-1,1h-3.796"/>
		
			<line fill="none" stroke="#3B3735" stroke-width="2" stroke-linecap="round" stroke-linejoin="round" stroke-miterlimit="10" x1="1.009" y1="7.265" x2="45.009" y2="7.265"/>
		<circle fill="#3B3735" cx="11.34" cy="4.375" r="1.022"/>
		<circle fill="#3B3735" cx="8.252" cy="4.375" r="1.022"/>
		<circle fill="#3B3735" cx="5.23" cy="4.375" r="1.022"/>
	</g>
	<g>
		<path fill="none" stroke="#3B3735" stroke-width="2" stroke-linecap="round" stroke-linejoin="round" stroke-miterlimit="10" d="
			M26.217,19.897c0.63-0.867,0.915-2.046,0.62-3.306c-0.296-1.262-1.168-2.251-2.306-2.6c-2.289-0.7-4.361,1.18-4.361,3.594
			c0,0.867,0.27,1.66,0.722,2.29c0.354,0.495,0.262,1.233-0.249,1.517c-1.867,1.035-3.198,3.051-3.424,5.523
			c-0.037,0.401,0.248,0.753,0.614,0.753h11.46c0.366,0,0.651-0.352,0.614-0.753c-0.225-2.463-1.546-4.472-3.401-5.511
			C26,21.123,25.863,20.384,26.217,19.897z"/>
		<path fill="none" stroke="#3B3735" stroke-width="2" stroke-linecap="round" stroke-linejoin="round" stroke-miterlimit="10" d="
			M26.868,27.67h2.423h7.96c0.331,0,0.589-0.319,0.556-0.683c-0.204-2.231-1.401-4.051-3.082-4.993
			c-0.456-0.256-0.58-0.926-0.26-1.367c0.57-0.785,0.829-1.854,0.561-2.995c-0.269-1.143-1.058-2.04-2.09-2.355
			c-2.074-0.634-3.952,1.069-3.952,3.257c0,0.786,0.245,1.504,0.654,2.075c0.321,0.449,0.237,1.117-0.226,1.374
			c-0.423,0.235-0.816,0.525-1.17,0.863"/>
		<path fill="none" stroke="#3B3735" stroke-width="2" stroke-linecap="round" stroke-linejoin="round" stroke-miterlimit="10" d="
			M20.179,27.67h-2.423h-7.96c-0.331,0-0.589-0.319-0.556-0.683c0.204-2.231,1.401-4.051,3.082-4.993
			c0.456-0.256,0.58-0.926,0.26-1.367c-0.57-0.785-0.829-1.854-0.561-2.995c0.269-1.143,1.058-2.04,2.09-2.355
			c2.074-0.634,3.952,1.069,3.952,3.257c0,0.786-0.245,1.504-0.654,2.075c-0.321,0.449-0.237,1.117,0.226,1.374
			c0.423,0.235,0.816,0.525,1.17,0.863"/>
	</g>
</g>
</svg>
