<?xml version="1.0" encoding="utf-8"?>
<!-- Generator: Adobe Illustrator 17.0.0, SVG Export Plug-In . SVG Version: 6.00 Build 0)  -->
<!DOCTYPE svg PUBLIC "-//W3C//DTD SVG 1.1//EN" "http://www.w3.org/Graphics/SVG/1.1/DTD/svg11.dtd">
<svg version="1.1" id="Layer_1" xmlns="http://www.w3.org/2000/svg" xmlns:xlink="http://www.w3.org/1999/xlink" x="0px" y="0px"
	 width="47.047px" height="42.03px" viewBox="0 0 47.047 42.03" enable-background="new 0 0 47.047 42.03" xml:space="preserve">
<g>
	<path fill="none" stroke="#3B3735" stroke-width="2" stroke-linecap="round" stroke-linejoin="round" stroke-miterlimit="10" d="
		M31.93,31.308l1.461,7.303c0.157,0.783,1.123,1.076,1.688,0.511l1.507-1.507l2.828,2.828c0.781,0.781,2.047,0.781,2.828,0l0,0h0
		c0.781-0.781,0.781-2.047,0-2.828l-2.828-2.828l1.507-1.507c0.565-0.565,0.272-1.531-0.511-1.688l-7.304-1.461
		C32.407,29.991,31.79,30.608,31.93,31.308z"/>
	<g>
		<path fill="none" stroke="#3B3735" stroke-width="2" stroke-linecap="round" stroke-linejoin="round" stroke-miterlimit="10" d="
			M32.993,36.625H2c-0.552,0-1-0.448-1-1V2c0-0.552,0.448-1,1-1h43.047c0.552,0,1,0.448,1,1v33.625c0,0.552-0.448,1-1,1h-3.796"/>
		
			<line fill="none" stroke="#3B3735" stroke-width="2" stroke-linecap="round" stroke-linejoin="round" stroke-miterlimit="10" x1="1.009" y1="7.265" x2="45.009" y2="7.265"/>
		<circle fill="#3B3735" cx="11.34" cy="4.375" r="1.022"/>
		<circle fill="#3B3735" cx="8.252" cy="4.375" r="1.022"/>
		<circle fill="#3B3735" cx="5.23" cy="4.375" r="1.022"/>
	</g>
</g>
</svg>
