<?xml version="1.0" encoding="utf-8"?>
<!-- Generator: Adobe Illustrator 17.0.0, SVG Export Plug-In . SVG Version: 6.00 Build 0)  -->
<!DOCTYPE svg PUBLIC "-//W3C//DTD SVG 1.1//EN" "http://www.w3.org/Graphics/SVG/1.1/DTD/svg11.dtd">
<svg version="1.1" id="Layer_1" xmlns="http://www.w3.org/2000/svg" xmlns:xlink="http://www.w3.org/1999/xlink" x="0px" y="0px"
	 width="47.047px" height="37.625px" viewBox="0 0 47.047 37.625" enable-background="new 0 0 47.047 37.625" xml:space="preserve">
<g>
	<g>
		
			<line fill="none" stroke="#3B3735" stroke-width="2" stroke-linecap="round" stroke-linejoin="round" stroke-miterlimit="10" x1="1.405" y1="7.265" x2="45.405" y2="7.265"/>
		
			<circle fill="none" stroke="#3B3735" stroke-width="2" stroke-linecap="round" stroke-linejoin="round" stroke-miterlimit="10" cx="5.366" cy="4.375" r="0.324"/>
		
			<circle fill="none" stroke="#3B3735" stroke-width="2" stroke-linecap="round" stroke-linejoin="round" stroke-miterlimit="10" cx="8.366" cy="4.375" r="0.324"/>
		
			<circle fill="none" stroke="#3B3735" stroke-width="2" stroke-linecap="round" stroke-linejoin="round" stroke-miterlimit="10" cx="11.366" cy="4.375" r="0.324"/>
		<path fill="none" stroke="#3B3735" stroke-width="2" stroke-linecap="round" stroke-linejoin="round" stroke-miterlimit="10" d="
			M45.047,36.625H2c-0.552,0-1-0.448-1-1V2c0-0.552,0.448-1,1-1h43.047c0.552,0,1,0.448,1,1v33.625
			C46.047,36.177,45.599,36.625,45.047,36.625z"/>
	</g>
	<path fill="none" stroke="#3B3735" stroke-width="2" stroke-linecap="round" stroke-linejoin="round" stroke-miterlimit="10" d="
		M20.189,15.17l9.72,6.615c0.188,0.128,0.188,0.448,0,0.576l-9.72,6.615c-0.187,0.127-0.421-0.032-0.421-0.288v-13.23
		C19.768,15.202,20.002,15.042,20.189,15.17z"/>
</g>
</svg>
