<?xml version="1.0" encoding="utf-8"?>
<!-- Generator: Adobe Illustrator 17.0.0, SVG Export Plug-In . SVG Version: 6.00 Build 0)  -->
<!DOCTYPE svg PUBLIC "-//W3C//DTD SVG 1.1//EN" "http://www.w3.org/Graphics/SVG/1.1/DTD/svg11.dtd">
<svg version="1.1" id="Layer_1" xmlns="http://www.w3.org/2000/svg" xmlns:xlink="http://www.w3.org/1999/xlink" x="0px" y="0px"
	 width="76.965px" height="88.164px" viewBox="0 0 76.965 88.164" enable-background="new 0 0 76.965 88.164" xml:space="preserve">
<g>
	<path fill="none" stroke="#3B3735" stroke-width="2" stroke-linecap="round" stroke-linejoin="round" stroke-miterlimit="10" d="
		M68.593,37.116c1.328,4.803,6.438,2.555,6.336-0.204s-3.234-3.577-3.234-3.577v-3.181"/>
	<g>
		<path fill="none" stroke="#3B3735" stroke-width="2" stroke-linecap="round" stroke-linejoin="round" stroke-miterlimit="10" d="
			M57.564,87.164h-44.73c-3.344,0-6.054-2.711-6.054-6.054v0c0-3.344,2.71-6.054,6.054-6.054h44.73c3.344,0,6.054,2.71,6.054,6.054
			v0C63.618,84.454,60.908,87.164,57.564,87.164z"/>
		
			<circle fill="none" stroke="#3B3735" stroke-width="2" stroke-linecap="round" stroke-linejoin="round" stroke-miterlimit="10" cx="13.373" cy="81.11" r="2.732"/>
		
			<circle fill="none" stroke="#3B3735" stroke-width="2" stroke-linecap="round" stroke-linejoin="round" stroke-miterlimit="10" cx="57.557" cy="81.11" r="2.732"/>
	</g>
	
		<polygon fill="none" stroke="#3B3735" stroke-width="2" stroke-linecap="round" stroke-linejoin="round" stroke-miterlimit="10" points="
		54.56,75.056 15.839,75.056 18.502,68.942 51.897,68.942 	"/>
	<path fill="none" stroke="#3B3735" stroke-width="2" stroke-linecap="round" stroke-linejoin="round" stroke-miterlimit="10" d="
		M64.612,68.942H9.06c-3.922,0-7.101-3.179-7.101-7.101V51.792c0-3.922,3.179-7.101,7.101-7.101h50.414
		c1.488,0,2.799,0.982,3.217,2.41l5.138,17.547C68.457,66.794,66.848,68.942,64.612,68.942z"/>
	
		<line fill="none" stroke="#3B3735" stroke-width="2" stroke-linecap="round" stroke-linejoin="round" stroke-miterlimit="10" x1="10.642" y1="51.303" x2="10.642" y2="61.505"/>
	
		<line fill="none" stroke="#3B3735" stroke-width="2" stroke-linecap="round" stroke-linejoin="round" stroke-miterlimit="10" x1="14.755" y1="51.303" x2="14.755" y2="61.505"/>
	
		<line fill="none" stroke="#3B3735" stroke-width="2" stroke-linecap="round" stroke-linejoin="round" stroke-miterlimit="10" x1="18.868" y1="51.303" x2="18.868" y2="61.505"/>
	
		<line fill="none" stroke="#3B3735" stroke-width="2" stroke-linecap="round" stroke-linejoin="round" stroke-miterlimit="10" x1="1" y1="87.164" x2="72.106" y2="87.164"/>
	
		<line fill="none" stroke="#3B3735" stroke-width="2" stroke-linecap="round" stroke-linejoin="round" stroke-miterlimit="10" x1="34.667" y1="44.691" x2="34.667" y2="68.942"/>
	
		<polyline fill="none" stroke="#3B3735" stroke-width="2" stroke-linecap="round" stroke-linejoin="round" stroke-miterlimit="10" points="
		44.817,44.691 44.817,59.895 66.437,59.895 	"/>
	
		<line fill="none" stroke="#3B3735" stroke-width="2" stroke-linecap="round" stroke-linejoin="round" stroke-miterlimit="10" x1="18.868" y1="18.099" x2="14.755" y2="44.691"/>
	
		<line fill="none" stroke="#3B3735" stroke-width="2" stroke-linecap="round" stroke-linejoin="round" stroke-miterlimit="10" x1="31.713" y1="44.691" x2="27.6" y2="18.099"/>
	
		<circle fill="none" stroke="#3B3735" stroke-width="2" stroke-linecap="round" stroke-linejoin="round" stroke-miterlimit="10" cx="23.285" cy="13.613" r="5.957"/>
	
		<circle fill="none" stroke="#3B3735" stroke-width="2" stroke-linecap="round" stroke-linejoin="round" stroke-miterlimit="10" cx="71.761" cy="4.492" r="3.492"/>
	<path fill="none" stroke="#3B3735" stroke-width="2" stroke-linecap="round" stroke-linejoin="round" stroke-miterlimit="10" d="
		M69.503,7.135c-0.749-0.64-1.233-1.58-1.233-2.643c0-0.471,0.096-0.918,0.265-1.328l-40.08,7.495
		c0.499,0.871,0.788,1.878,0.788,2.953c0,0.366-0.038,0.722-0.101,1.07L69.503,7.135z"/>
	
		<line fill="none" stroke="#3B3735" stroke-width="2" stroke-linecap="round" stroke-linejoin="round" stroke-miterlimit="10" x1="71.761" y1="7.984" x2="71.761" y2="25.903"/>
	
		<rect x="67.477" y="25.903" fill="none" stroke="#3B3735" stroke-width="2" stroke-linecap="round" stroke-linejoin="round" stroke-miterlimit="10" width="8.487" height="4.251"/>
</g>
</svg>
