<?xml version="1.0" encoding="utf-8"?>
<!-- Generator: Adobe Illustrator 17.0.0, SVG Export Plug-In . SVG Version: 6.00 Build 0)  -->
<!DOCTYPE svg PUBLIC "-//W3C//DTD SVG 1.1//EN" "http://www.w3.org/Graphics/SVG/1.1/DTD/svg11.dtd">
<svg version="1.1" id="Layer_1" xmlns="http://www.w3.org/2000/svg" xmlns:xlink="http://www.w3.org/1999/xlink" x="0px" y="0px"
	 width="35.862px" height="48.292px" viewBox="0 0 35.862 48.292" enable-background="new 0 0 35.862 48.292" xml:space="preserve">
<g>
	<path fill="none" stroke="#333333" stroke-width="2" stroke-linecap="round" stroke-linejoin="round" stroke-miterlimit="10" d="
		M33.862,47.292H2c-0.552,0-1-0.448-1-1V2c0-0.552,0.448-1,1-1h31.862c0.552,0,1,0.448,1,1v44.292
		C34.862,46.844,34.415,47.292,33.862,47.292z"/>
	<path fill="none" stroke="#333333" stroke-width="2" stroke-linecap="round" stroke-linejoin="round" stroke-miterlimit="10" d="
		M28.559,42.667H7.274c-0.552,0-1-0.448-1-1V20.527c0-0.552,0.448-1,1-1h21.285c0.552,0,1,0.448,1,1v21.139
		C29.559,42.219,29.112,42.667,28.559,42.667z"/>
	
		<line fill="none" stroke="#333333" stroke-width="2" stroke-linecap="round" stroke-linejoin="round" stroke-miterlimit="10" x1="13.978" y1="19.667" x2="13.978" y2="42.667"/>
	
		<line fill="none" stroke="#333333" stroke-width="2" stroke-linecap="round" stroke-linejoin="round" stroke-miterlimit="10" x1="21.978" y1="19.667" x2="21.978" y2="42.667"/>
	
		<line fill="none" stroke="#333333" stroke-width="2" stroke-linecap="round" stroke-linejoin="round" stroke-miterlimit="10" x1="6.978" y1="27.667" x2="29.978" y2="27.667"/>
	
		<line fill="none" stroke="#333333" stroke-width="2" stroke-linecap="round" stroke-linejoin="round" stroke-miterlimit="10" x1="6.978" y1="34.667" x2="29.978" y2="34.667"/>
	<path fill="none" stroke="#333333" stroke-width="2" stroke-linecap="round" stroke-linejoin="round" stroke-miterlimit="10" d="
		M28.559,14.833H7.274c-0.552,0-1-0.448-1-1V7.667c0-0.552,0.448-1,1-1h21.285c0.552,0,1,0.448,1,1v6.167
		C29.559,14.386,29.112,14.833,28.559,14.833z"/>
</g>
</svg>
