<?xml version="1.0" encoding="utf-8"?>
<!-- Generator: Adobe Illustrator 17.0.0, SVG Export Plug-In . SVG Version: 6.00 Build 0)  -->
<!DOCTYPE svg PUBLIC "-//W3C//DTD SVG 1.1//EN" "http://www.w3.org/Graphics/SVG/1.1/DTD/svg11.dtd">
<svg version="1.1" id="Layer_1" xmlns="http://www.w3.org/2000/svg" xmlns:xlink="http://www.w3.org/1999/xlink" x="0px" y="0px"
	 width="45.996px" height="40.226px" viewBox="0 0 45.996 40.226" enable-background="new 0 0 45.996 40.226" xml:space="preserve">
<g>
	<path fill="none" stroke="#3B3735" stroke-width="2" stroke-linecap="round" stroke-linejoin="round" stroke-miterlimit="10" d="
		M43.996,39.226H2c-0.552,0-1-0.448-1-1V5.961c0-0.552,0.448-1,1-1h41.996c0.552,0,1,0.448,1,1v32.265
		C44.996,38.778,44.548,39.226,43.996,39.226z"/>
	
		<line fill="none" stroke="#3B3735" stroke-width="2" stroke-linecap="round" stroke-linejoin="round" stroke-miterlimit="10" x1="1.911" y1="13" x2="44.911" y2="13"/>
	<g>
		
			<line fill="none" stroke="#3B3735" stroke-width="2" stroke-linecap="round" stroke-linejoin="round" stroke-miterlimit="10" x1="8.911" y1="8" x2="8.911" y2="1"/>
		
			<line fill="none" stroke="#3B3735" stroke-width="2" stroke-linecap="round" stroke-linejoin="round" stroke-miterlimit="10" x1="37.911" y1="8" x2="37.911" y2="1"/>
	</g>
	<g>
		<path fill="none" stroke="#3B3735" stroke-width="2" stroke-linecap="round" stroke-linejoin="round" stroke-miterlimit="10" d="
			M11.246,24.183H8.413c-0.552,0-1-0.448-1-1v-2.833c0-0.552,0.448-1,1-1h2.833c0.552,0,1,0.448,1,1v2.833
			C12.246,23.735,11.798,24.183,11.246,24.183z"/>
		<path fill="none" stroke="#3B3735" stroke-width="2" stroke-linecap="round" stroke-linejoin="round" stroke-miterlimit="10" d="
			M19.913,24.183h-2.833c-0.552,0-1-0.448-1-1v-2.833c0-0.552,0.448-1,1-1h2.833c0.552,0,1,0.448,1,1v2.833
			C20.913,23.735,20.465,24.183,19.913,24.183z"/>
		<path fill="none" stroke="#3B3735" stroke-width="2" stroke-linecap="round" stroke-linejoin="round" stroke-miterlimit="10" d="
			M28.579,24.183h-2.833c-0.552,0-1-0.448-1-1v-2.833c0-0.552,0.448-1,1-1h2.833c0.552,0,1,0.448,1,1v2.833
			C29.579,23.735,29.132,24.183,28.579,24.183z"/>
		<path fill="none" stroke="#3B3735" stroke-width="2" stroke-linecap="round" stroke-linejoin="round" stroke-miterlimit="10" d="
			M37.246,24.183h-2.833c-0.552,0-1-0.448-1-1v-2.833c0-0.552,0.448-1,1-1h2.833c0.552,0,1,0.448,1,1v2.833
			C38.246,23.735,37.798,24.183,37.246,24.183z"/>
	</g>
	<g>
		<path fill="none" stroke="#3B3735" stroke-width="2" stroke-linecap="round" stroke-linejoin="round" stroke-miterlimit="10" d="
			M11.246,33.183H8.413c-0.552,0-1-0.448-1-1v-2.833c0-0.552,0.448-1,1-1h2.833c0.552,0,1,0.448,1,1v2.833
			C12.246,32.735,11.798,33.183,11.246,33.183z"/>
		<path fill="none" stroke="#3B3735" stroke-width="2" stroke-linecap="round" stroke-linejoin="round" stroke-miterlimit="10" d="
			M19.913,33.183h-2.833c-0.552,0-1-0.448-1-1v-2.833c0-0.552,0.448-1,1-1h2.833c0.552,0,1,0.448,1,1v2.833
			C20.913,32.735,20.465,33.183,19.913,33.183z"/>
		<path fill="none" stroke="#3B3735" stroke-width="2" stroke-linecap="round" stroke-linejoin="round" stroke-miterlimit="10" d="
			M28.579,33.183h-2.833c-0.552,0-1-0.448-1-1v-2.833c0-0.552,0.448-1,1-1h2.833c0.552,0,1,0.448,1,1v2.833
			C29.579,32.735,29.132,33.183,28.579,33.183z"/>
		<path fill="none" stroke="#3B3735" stroke-width="2" stroke-linecap="round" stroke-linejoin="round" stroke-miterlimit="10" d="
			M37.246,33.183h-2.833c-0.552,0-1-0.448-1-1v-2.833c0-0.552,0.448-1,1-1h2.833c0.552,0,1,0.448,1,1v2.833
			C38.246,32.735,37.798,33.183,37.246,33.183z"/>
	</g>
</g>
</svg>
