<?xml version="1.0" encoding="utf-8"?>
<!-- Generator: Adobe Illustrator 17.0.0, SVG Export Plug-In . SVG Version: 6.00 Build 0)  -->
<!DOCTYPE svg PUBLIC "-//W3C//DTD SVG 1.1//EN" "http://www.w3.org/Graphics/SVG/1.1/DTD/svg11.dtd">
<svg version="1.1" id="Layer_1" xmlns="http://www.w3.org/2000/svg" xmlns:xlink="http://www.w3.org/1999/xlink" x="0px" y="0px"
	 width="22.519px" height="41.045px" viewBox="0 0 22.519 41.045" enable-background="new 0 0 22.519 41.045" xml:space="preserve">
<g>
	
		<path fill="none" stroke="#231F20" stroke-width="1.5735" stroke-linecap="round" stroke-linejoin="round" stroke-miterlimit="2.6131" d="
		M21.732,21.662v14.065c0,1.58-1.203,3.809-2.762,4.531H3.549c-1.56-0.722-2.762-2.951-2.762-4.531V21.662V7.597
		c0-1.58,1.203-3.809,2.762-4.531h15.42c1.56,0.722,2.762,2.951,2.762,4.531V21.662z"/>
	
		<polyline fill="none" stroke="#231F20" stroke-width="1.5735" stroke-linecap="round" stroke-linejoin="round" stroke-miterlimit="2.6131" points="
		0.787,3.066 11.259,3.066 21.732,3.066 	"/>
	
		<polyline fill="none" stroke="#231F20" stroke-width="1.5735" stroke-linecap="round" stroke-linejoin="round" stroke-miterlimit="2.6131" points="
		0.787,40.258 11.259,40.258 21.732,40.258 	"/>
	
		<polyline fill="none" stroke="#231F20" stroke-width="1.5735" stroke-linecap="round" stroke-linejoin="round" stroke-miterlimit="2.6131" points="
		1.339,7.026 8.808,7.026 16.276,7.026 	"/>
	
		<line fill="none" stroke="#231F20" stroke-width="1.5735" stroke-linecap="round" stroke-linejoin="round" stroke-miterlimit="2.6131" x1="15.578" y1="3.066" x2="19.526" y2="0.787"/>
	
		<line fill="none" stroke="#231F20" stroke-width="1.5735" stroke-linecap="round" stroke-linejoin="round" stroke-miterlimit="2.6131" x1="13.456" y1="40.258" x2="13.456" y2="7.026"/>
	
		<line fill="none" stroke="#231F20" stroke-width="1.5735" stroke-linecap="round" stroke-linejoin="round" stroke-miterlimit="2.6131" x1="9.063" y1="40.258" x2="9.063" y2="7.026"/>
</g>
</svg>
