<?xml version="1.0" encoding="utf-8"?>
<!-- Generator: Adobe Illustrator 17.0.0, SVG Export Plug-In . SVG Version: 6.00 Build 0)  -->
<!DOCTYPE svg PUBLIC "-//W3C//DTD SVG 1.1//EN" "http://www.w3.org/Graphics/SVG/1.1/DTD/svg11.dtd">
<svg version="1.1" id="Layer_1" xmlns="http://www.w3.org/2000/svg" xmlns:xlink="http://www.w3.org/1999/xlink" x="0px" y="0px"
	 width="56.474px" height="42.815px" viewBox="0 0 56.474 42.815" enable-background="new 0 0 56.474 42.815" xml:space="preserve">
<g>
	<g>
		<path fill="none" stroke="#3B3735" stroke-width="2" stroke-linecap="round" stroke-linejoin="round" stroke-miterlimit="10" d="
			M11.511,8.945c-2.868,3.359-4.606,7.756-4.606,12.57c0,9.126,6.247,16.758,14.599,18.649"/>
		<path fill="none" stroke="#3B3735" stroke-width="2" stroke-linecap="round" stroke-linejoin="round" stroke-miterlimit="10" d="
			M14.222,37.667c1.832,0.016,3.366,1.442,3.847,1.94c0.087,0.091,0.086,0.247-0.003,0.336c-0.489,0.489-2.046,1.888-3.879,1.872
			c-1.832-0.016-3.366-1.442-3.847-1.94c-0.087-0.091-0.086-0.247,0.003-0.336C10.832,39.05,12.39,37.651,14.222,37.667z"/>
		<path fill="none" stroke="#3B3735" stroke-width="2" stroke-linecap="round" stroke-linejoin="round" stroke-miterlimit="10" d="
			M7.626,30.709c1.712,0.668,2.667,2.552,2.948,3.19c0.051,0.116-0.003,0.262-0.117,0.314c-0.624,0.285-2.56,1.041-4.272,0.373
			c-1.712-0.668-2.667-2.552-2.948-3.19c-0.051-0.116,0.003-0.262,0.117-0.314C3.978,30.797,5.913,30.041,7.626,30.709z"/>
		<path fill="none" stroke="#3B3735" stroke-width="2" stroke-linecap="round" stroke-linejoin="round" stroke-miterlimit="10" d="
			M5.402,21.567c1.46,1.134,1.86,3.216,1.955,3.91c0.017,0.126-0.075,0.251-0.198,0.268c-0.677,0.094-2.742,0.262-4.202-0.872
			c-1.46-1.134-1.86-3.216-1.955-3.91c-0.017-0.126,0.075-0.251,0.198-0.268C1.877,20.602,3.942,20.433,5.402,21.567z"/>
		<path fill="none" stroke="#3B3735" stroke-width="2" stroke-linecap="round" stroke-linejoin="round" stroke-miterlimit="10" d="
			M7.279,12.23c0.835,1.671,0.312,3.725,0.104,4.392c-0.038,0.121-0.174,0.193-0.292,0.153c-0.65-0.217-2.581-0.983-3.416-2.655
			c-0.835-1.671-0.312-3.725-0.104-4.392c0.038-0.121,0.174-0.193,0.292-0.153C4.513,9.792,6.444,10.558,7.279,12.23z"/>
		<path fill="none" stroke="#3B3735" stroke-width="2" stroke-linecap="round" stroke-linejoin="round" stroke-miterlimit="10" d="
			M15.118,5.513c-0.643,1.758-2.476,2.746-3.098,3.037c-0.113,0.053-0.256-0.002-0.307-0.118c-0.281-0.638-1.029-2.617-0.386-4.375
			C11.97,2.3,13.803,1.312,14.425,1.02c0.113-0.053,0.256,0.002,0.307,0.118C15.013,1.776,15.761,3.755,15.118,5.513z"/>
	</g>
	<g>
		<path fill="none" stroke="#3B3735" stroke-width="2" stroke-linecap="round" stroke-linejoin="round" stroke-miterlimit="10" d="
			M44.963,8.945c2.868,3.359,4.606,7.756,4.606,12.57c0,9.126-6.247,16.758-14.599,18.649"/>
		<path fill="none" stroke="#3B3735" stroke-width="2" stroke-linecap="round" stroke-linejoin="round" stroke-miterlimit="10" d="
			M42.252,37.667c-1.832,0.016-3.366,1.442-3.847,1.94c-0.087,0.091-0.086,0.247,0.003,0.336c0.489,0.489,2.046,1.888,3.879,1.872
			c1.832-0.016,3.366-1.442,3.847-1.94c0.087-0.091,0.086-0.247-0.003-0.336C45.642,39.05,44.084,37.651,42.252,37.667z"/>
		<path fill="none" stroke="#3B3735" stroke-width="2" stroke-linecap="round" stroke-linejoin="round" stroke-miterlimit="10" d="
			M48.849,30.709c-1.712,0.668-2.667,2.552-2.948,3.19c-0.051,0.116,0.003,0.262,0.117,0.314c0.624,0.285,2.56,1.041,4.272,0.373
			c1.712-0.668,2.667-2.552,2.948-3.19c0.051-0.116-0.003-0.262-0.117-0.314C52.496,30.797,50.561,30.041,48.849,30.709z"/>
		<path fill="none" stroke="#3B3735" stroke-width="2" stroke-linecap="round" stroke-linejoin="round" stroke-miterlimit="10" d="
			M51.072,21.567c-1.46,1.134-1.86,3.216-1.955,3.91c-0.017,0.126,0.075,0.251,0.198,0.268c0.677,0.094,2.742,0.262,4.202-0.872
			c1.46-1.134,1.86-3.216,1.955-3.91c0.017-0.126-0.075-0.251-0.198-0.268C54.597,20.602,52.532,20.433,51.072,21.567z"/>
		<path fill="none" stroke="#3B3735" stroke-width="2" stroke-linecap="round" stroke-linejoin="round" stroke-miterlimit="10" d="
			M49.195,12.23c-0.835,1.671-0.312,3.725-0.104,4.392c0.038,0.121,0.174,0.193,0.292,0.153c0.65-0.217,2.581-0.983,3.416-2.655
			c0.835-1.671,0.312-3.725,0.104-4.392c-0.038-0.121-0.174-0.193-0.292-0.153C51.962,9.792,50.03,10.558,49.195,12.23z"/>
		<path fill="none" stroke="#3B3735" stroke-width="2" stroke-linecap="round" stroke-linejoin="round" stroke-miterlimit="10" d="
			M41.357,5.513C42,7.271,43.833,8.259,44.454,8.551c0.113,0.053,0.256-0.002,0.307-0.118c0.281-0.638,1.029-2.617,0.386-4.375
			C44.504,2.3,42.671,1.312,42.05,1.02c-0.113-0.053-0.256,0.002-0.307,0.118C41.462,1.776,40.713,3.755,41.357,5.513z"/>
	</g>
</g>
</svg>
