<?xml version="1.0" encoding="utf-8"?>
<!-- Generator: Adobe Illustrator 17.0.0, SVG Export Plug-In . SVG Version: 6.00 Build 0)  -->
<!DOCTYPE svg PUBLIC "-//W3C//DTD SVG 1.1//EN" "http://www.w3.org/Graphics/SVG/1.1/DTD/svg11.dtd">
<svg version="1.1" id="Layer_1" xmlns="http://www.w3.org/2000/svg" xmlns:xlink="http://www.w3.org/1999/xlink" x="0px" y="0px"
	 width="44.106px" height="38.236px" viewBox="0 0 44.106 38.236" enable-background="new 0 0 44.106 38.236" xml:space="preserve">
<g>
	<path fill="none" stroke="#000000" stroke-width="2" stroke-linecap="round" stroke-linejoin="round" stroke-miterlimit="10" d="
		M41.969,37.236H2c-0.552,0-1-0.448-1-1V9.749c0-0.552,0.448-1,1-1h39.969c0.552,0,1,0.448,1,1v26.487
		C42.969,36.788,42.521,37.236,41.969,37.236z"/>
	<path fill="none" stroke="#000000" stroke-width="2" stroke-linecap="round" stroke-linejoin="round" stroke-miterlimit="10" d="
		M26.823,23.25h-9.451c-0.552,0-1-0.448-1-1V19c0-0.552,0.448-1,1-1h9.451c0.552,0,1,0.448,1,1v3.25
		C27.823,22.802,27.375,23.25,26.823,23.25z"/>
	
		<line fill="none" stroke="#000000" stroke-width="2" stroke-linecap="round" stroke-linejoin="round" stroke-miterlimit="10" x1="1.106" y1="20.64" x2="16.106" y2="20.64"/>
	
		<line fill="none" stroke="#000000" stroke-width="2" stroke-linecap="round" stroke-linejoin="round" stroke-miterlimit="10" x1="28.106" y1="20.64" x2="43.106" y2="20.64"/>
	<path fill="none" stroke="#000000" stroke-width="2" stroke-linecap="round" stroke-linejoin="round" stroke-miterlimit="10" d="
		M28.215,1H15.754c-1.767,0-3.199,1.432-3.199,3.199v4.55h18.86v-4.55C31.414,2.432,29.982,1,28.215,1z"/>
</g>
</svg>
