<?xml version="1.0" encoding="utf-8"?>
<!-- Generator: Adobe Illustrator 17.0.0, SVG Export Plug-In . SVG Version: 6.00 Build 0)  -->
<!DOCTYPE svg PUBLIC "-//W3C//DTD SVG 1.1//EN" "http://www.w3.org/Graphics/SVG/1.1/DTD/svg11.dtd">
<svg version="1.1" id="Layer_1" xmlns="http://www.w3.org/2000/svg" xmlns:xlink="http://www.w3.org/1999/xlink" x="0px" y="0px"
	 width="33.448px" height="48.314px" viewBox="0 0 33.448 48.314" enable-background="new 0 0 33.448 48.314" xml:space="preserve">
<g>
	<path fill="none" stroke="#3B3735" stroke-width="2" stroke-linecap="round" stroke-linejoin="round" stroke-miterlimit="10" d="
		M17.574,38.996H1.816C1.365,38.996,1,38.631,1,38.181V1.816C1,1.365,1.365,1,1.816,1h29.816c0.451,0,0.816,0.365,0.816,0.816
		v36.365c0,0.451-0.365,0.816-0.816,0.816h-1.408"/>
	<g>
		
			<circle fill="none" stroke="#3B3735" stroke-width="2" stroke-linecap="round" stroke-linejoin="round" stroke-miterlimit="10" cx="23.4" cy="38.035" r="5.91"/>
		<path fill="none" stroke="#3B3735" stroke-width="2" stroke-linecap="round" stroke-linejoin="round" stroke-miterlimit="10" d="
			M26.026,43.295v3.695c0,0.235-0.243,0.391-0.457,0.294l-2.154-0.982c-0.085-0.039-0.183-0.039-0.268,0l-2.154,0.982
			c-0.214,0.097-0.457-0.059-0.457-0.294v-3.695"/>
	</g>
	<g>
		
			<line fill="none" stroke="#3B3735" stroke-width="2" stroke-linecap="round" stroke-linejoin="round" stroke-miterlimit="10" x1="10.663" y1="27.963" x2="23.663" y2="27.963"/>
		
			<line fill="none" stroke="#3B3735" stroke-width="2" stroke-linecap="round" stroke-linejoin="round" stroke-miterlimit="10" x1="7.663" y1="19.963" x2="26.663" y2="19.963"/>
		
			<line fill="none" stroke="#3B3735" stroke-width="2" stroke-linecap="round" stroke-linejoin="round" stroke-miterlimit="10" x1="7.663" y1="23.963" x2="26.663" y2="23.963"/>
		
			<line fill="none" stroke="#3B3735" stroke-width="2" stroke-linecap="round" stroke-linejoin="round" stroke-miterlimit="10" x1="7.663" y1="11.963" x2="26.663" y2="11.963"/>
		
			<line fill="none" stroke="#3B3735" stroke-width="2" stroke-linecap="round" stroke-linejoin="round" stroke-miterlimit="10" x1="7.663" y1="7.963" x2="26.663" y2="7.963"/>
		
			<line fill="none" stroke="#3B3735" stroke-width="2" stroke-linecap="round" stroke-linejoin="round" stroke-miterlimit="10" x1="7.663" y1="15.963" x2="26.663" y2="15.963"/>
	</g>
</g>
</svg>
