<?xml version="1.0" encoding="utf-8"?>
<!-- Generator: Adobe Illustrator 17.0.0, SVG Export Plug-In . SVG Version: 6.00 Build 0)  -->
<!DOCTYPE svg PUBLIC "-//W3C//DTD SVG 1.1//EN" "http://www.w3.org/Graphics/SVG/1.1/DTD/svg11.dtd">
<svg version="1.1" id="Layer_1" xmlns="http://www.w3.org/2000/svg" xmlns:xlink="http://www.w3.org/1999/xlink" x="0px" y="0px"
	 width="48.152px" height="48.125px" viewBox="0 0 48.152 48.125" enable-background="new 0 0 48.152 48.125" xml:space="preserve">
<path fill="none" stroke="#3B3735" stroke-width="2" stroke-linecap="round" stroke-linejoin="round" stroke-miterlimit="10" d="
	M2,32.424h44.152c0.552,0,1,0.448,1,1v2.735c0,0.552-0.448,1-1,1H2c-0.552,0-1-0.448-1-1v-2.735C1,32.872,1.448,32.424,2,32.424z"/>
<path fill="none" stroke="#3B3735" stroke-width="2" stroke-linecap="round" stroke-linejoin="round" stroke-miterlimit="10" d="
	M43.664,5.674H4.488c-0.552,0-1,0.448-1,1v25.75h41.176V6.674C44.664,6.122,44.216,5.674,43.664,5.674z"/>
<line fill="none" stroke="#3B3735" stroke-width="2" stroke-linecap="round" stroke-linejoin="round" stroke-miterlimit="10" x1="24.576" y1="47.159" x2="24.576" y2="37.159"/>
<line fill="none" stroke="#3B3735" stroke-width="2" stroke-linecap="round" stroke-linejoin="round" stroke-miterlimit="10" x1="13.736" y1="47.125" x2="19.111" y2="37.159"/>
<line fill="none" stroke="#3B3735" stroke-width="2" stroke-linecap="round" stroke-linejoin="round" stroke-miterlimit="10" x1="35.236" y1="47.125" x2="29.861" y2="37.159"/>
<line fill="none" stroke="#3B3735" stroke-width="2" stroke-linecap="round" stroke-linejoin="round" stroke-miterlimit="10" x1="11.073" y1="25.217" x2="11.073" y2="13.902"/>
<g>
	
		<line fill="none" stroke="#3B3735" stroke-width="2" stroke-linecap="round" stroke-linejoin="round" stroke-miterlimit="10" x1="15.238" y1="25.217" x2="15.238" y2="13.902"/>
	
		<line fill="none" stroke="#3B3735" stroke-width="2" stroke-linecap="round" stroke-linejoin="round" stroke-miterlimit="10" x1="15.238" y1="13.902" x2="20.099" y2="13.902"/>
	
		<line fill="none" stroke="#3B3735" stroke-width="2" stroke-linecap="round" stroke-linejoin="round" stroke-miterlimit="10" x1="15.238" y1="19.316" x2="20.099" y2="19.316"/>
</g>
<g>
	
		<line fill="none" stroke="#3B3735" stroke-width="2" stroke-linecap="round" stroke-linejoin="round" stroke-miterlimit="10" x1="23.567" y1="25.217" x2="23.567" y2="13.902"/>
	
		<line fill="none" stroke="#3B3735" stroke-width="2" stroke-linecap="round" stroke-linejoin="round" stroke-miterlimit="10" x1="26.274" y1="19.316" x2="28.981" y2="25.217"/>
	<path fill="none" stroke="#3B3735" stroke-width="2" stroke-linecap="round" stroke-linejoin="round" stroke-miterlimit="10" d="
		M23.567,19.316h2.707c1.495,0,2.707-1.212,2.707-2.707s-1.212-2.707-2.707-2.707h-2.707"/>
</g>
<g>
	<path fill="none" stroke="#3B3735" stroke-width="2" stroke-linecap="round" stroke-linejoin="round" stroke-miterlimit="10" d="
		M32.315,22.352c0,1.592,1.29,2.882,2.882,2.882c1.592,0,2.882-1.29,2.882-2.882c0-2.549-2.882-2.882-2.882-2.882
		s-2.792-0.483-2.792-2.792c0-1.542,1.25-2.792,2.792-2.792s2.792,1.25,2.792,2.792"/>
</g>
</svg>
