<?xml version="1.0" encoding="utf-8"?>
<!-- Generator: Adobe Illustrator 17.0.0, SVG Export Plug-In . SVG Version: 6.00 Build 0)  -->
<!DOCTYPE svg PUBLIC "-//W3C//DTD SVG 1.1//EN" "http://www.w3.org/Graphics/SVG/1.1/DTD/svg11.dtd">
<svg version="1.1" id="Layer_1" xmlns="http://www.w3.org/2000/svg" xmlns:xlink="http://www.w3.org/1999/xlink" x="0px" y="0px"
	 width="44.49px" height="44.49px" viewBox="0 0 44.49 44.49" enable-background="new 0 0 44.49 44.49" xml:space="preserve">
<g>
	<path fill="none" stroke="#3B3735" stroke-width="2" stroke-linecap="round" vector-effect="non-scaling-stroke" stroke-linejoin="round" stroke-miterlimit="10" d="
		M33.084,22.245c0,0.199-0.006,0.395-0.018,0.591c-0.009,0.148,10.351,0.865,10.351,0.865c0.033-0.483,0.074-0.965,0.074-1.456
		c0-7.687-4.096-14.4-10.211-18.13L28.491,13.4C31.267,15.362,33.084,18.588,33.084,22.245z"/>
	<g>
		<path fill="none" stroke="#3B3735" stroke-width="2" stroke-linecap="round" stroke-linejoin="round" stroke-miterlimit="10" d="
			M29.598,30.189l7.353,7.353c2.818-2.719,4.896-6.203,5.879-10.126c0,0-10.269-1.865-10.336-1.672
			C31.908,27.463,30.899,28.981,29.598,30.189z"/>
		<path fill="none" stroke="#3B3735" stroke-width="2" stroke-linecap="round" stroke-linejoin="round" stroke-miterlimit="10" d="
			M27.161,31.897c-1.474,0.757-3.143,1.187-4.915,1.187c-5.986,0-10.839-4.853-10.839-10.839s4.853-10.839,10.839-10.839
			c1.107,0,2.174,0.168,3.18,0.478c0,0,3.424-6.041,4.711-9.354C27.695,1.553,25.036,1,22.245,1C10.512,1,1,10.512,1,22.245
			C1,33.979,10.512,43.49,22.245,43.49c3.98,0,7.693-1.104,10.871-3.012L27.161,31.897z"/>
	</g>
</g>
</svg>
