<?xml version="1.0" encoding="utf-8"?>
<!-- Generator: Adobe Illustrator 17.0.0, SVG Export Plug-In . SVG Version: 6.00 Build 0)  -->
<!DOCTYPE svg PUBLIC "-//W3C//DTD SVG 1.1//EN" "http://www.w3.org/Graphics/SVG/1.1/DTD/svg11.dtd">
<svg version="1.1" id="Layer_1" xmlns="http://www.w3.org/2000/svg" xmlns:xlink="http://www.w3.org/1999/xlink" x="0px" y="0px"
	 width="44.951px" height="44.839px" viewBox="0 0 44.951 44.839" enable-background="new 0 0 44.951 44.839" xml:space="preserve">
<path fill="none" stroke="#3B3735" stroke-width="2" stroke-linecap="round" stroke-linejoin="round" stroke-miterlimit="10" d="
	M24.586,5.108v19.365H5.22c0,10.696,8.67,19.367,19.366,19.367c10.696,0,19.366-8.67,19.366-19.366S35.281,5.108,24.586,5.108z"/>
<path fill="none" stroke="#3B3735" stroke-width="2" stroke-linecap="round" stroke-linejoin="round" stroke-miterlimit="10" d="
	M3.856,9.74l9.722,9.722h5.598L6.321,6.607C5.385,7.552,4.56,8.601,3.856,9.74z"/>
<path fill="none" stroke="#3B3735" stroke-width="2" stroke-linecap="round" stroke-linejoin="round" stroke-miterlimit="10" d="
	M2.075,13.557l5.905,5.905h5.598L3.856,9.74C3.125,10.922,2.519,12.194,2.075,13.557z"/>
<path fill="none" stroke="#3B3735" stroke-width="2" stroke-linecap="round" stroke-linejoin="round" stroke-miterlimit="10" d="
	M1.148,19.462H7.98l-5.905-5.905C1.478,15.388,1.148,17.365,1.148,19.462z"/>
<path fill="none" stroke="#3B3735" stroke-width="2" stroke-linecap="round" stroke-linejoin="round" stroke-miterlimit="10" d="
	M6.321,6.607l12.855,12.855h1.257v-4.341L9.409,4.097C8.281,4.82,7.252,5.666,6.321,6.607z"/>
<path fill="none" stroke="#3B3735" stroke-width="2" stroke-linecap="round" stroke-linejoin="round" stroke-miterlimit="10" d="
	M13.162,2.252c-1.333,0.487-2.592,1.101-3.753,1.845l11.024,11.024V9.523L13.162,2.252z"/>
<path fill="none" stroke="#3B3735" stroke-width="2" stroke-linecap="round" stroke-linejoin="round" stroke-miterlimit="10" d="
	M20.433,1.019C20.433,1.016,20.451,1,20.327,1c-2.548,0-4.959,0.447-7.165,1.252l7.271,7.271V1.019z"/>
</svg>
