<?xml version="1.0" encoding="utf-8"?>
<!-- Generator: Adobe Illustrator 17.0.0, SVG Export Plug-In . SVG Version: 6.00 Build 0)  -->
<!DOCTYPE svg PUBLIC "-//W3C//DTD SVG 1.1//EN" "http://www.w3.org/Graphics/SVG/1.1/DTD/svg11.dtd">
<svg version="1.1" id="Layer_1" xmlns="http://www.w3.org/2000/svg" xmlns:xlink="http://www.w3.org/1999/xlink" x="0px" y="0px"
	 width="47.295px" height="46.631px" viewBox="0 0 47.295 46.631" enable-background="new 0 0 47.295 46.631" xml:space="preserve">
<path fill="none" stroke="#3B3735" stroke-width="2" stroke-linecap="round" stroke-linejoin="round" stroke-miterlimit="10" d="
	M38.87,37.615c-3.892,4.885-9.893,8.016-16.625,8.016c-6.631,0-12.552-3.038-16.448-7.797c-1.088-1.329-2.018-2.792-2.761-4.361
	C1.73,30.718,1,27.637,1,24.386c0-11,8.36-20.048,19.073-21.136l0.255,10.433c-5.09,0.906-8.954,5.353-8.954,10.703
	c0,1.507,0.307,2.942,0.861,4.247c0.644,1.517,1.624,2.858,2.845,3.929c1.913,1.678,4.42,2.695,7.165,2.695
	c3.002,0,5.72-1.217,7.687-3.184L38.87,37.615z"/>
<path fill="none" stroke="#3B3735" stroke-width="2" stroke-linecap="round" stroke-linejoin="round" stroke-miterlimit="10" d="
	M44.071,34.22c1.426-3.023,2.224-6.4,2.224-9.964c0-12.104-9.199-22.059-20.987-23.256l-0.394,11.46
	c5.656,0.95,9.965,5.87,9.965,11.796c0,1.652-0.335,3.225-0.94,4.656l9.788,5.308"/>
<g>
	
		<line fill="none" stroke="#3B3735" stroke-width="2" stroke-linecap="round" stroke-linejoin="round" stroke-miterlimit="10" x1="13.382" y1="30.678" x2="4.554" y2="36.147"/>
</g>
<line fill="none" stroke="#3B3735" stroke-width="2" stroke-linecap="round" stroke-linejoin="round" stroke-miterlimit="10" x1="22.647" y1="20.072" x2="19.238" y2="27.247"/>
<line fill="none" stroke="#3B3735" stroke-width="2" stroke-linecap="round" stroke-linejoin="round" stroke-miterlimit="10" x1="26.057" y1="27.247" x2="22.647" y2="20.072"/>
<line fill="none" stroke="#3B3735" stroke-width="2" stroke-linecap="round" stroke-linejoin="round" stroke-miterlimit="10" x1="20.089" y1="25.455" x2="25.206" y2="25.455"/>
</svg>
