<?xml version="1.0" encoding="utf-8"?>
<!-- Generator: Adobe Illustrator 17.0.0, SVG Export Plug-In . SVG Version: 6.00 Build 0)  -->
<!DOCTYPE svg PUBLIC "-//W3C//DTD SVG 1.1//EN" "http://www.w3.org/Graphics/SVG/1.1/DTD/svg11.dtd">
<svg version="1.1" id="Layer_1" xmlns="http://www.w3.org/2000/svg" xmlns:xlink="http://www.w3.org/1999/xlink" x="0px" y="0px"
	 width="48.152px" height="48.125px" viewBox="0 0 48.152 48.125" enable-background="new 0 0 48.152 48.125" xml:space="preserve">
<path fill="none" stroke="#3B3735" stroke-width="2" stroke-linecap="round" stroke-linejoin="round" stroke-miterlimit="10" d="
	M2,32.424h44.152c0.552,0,1,0.448,1,1v2.735c0,0.552-0.448,1-1,1H2c-0.552,0-1-0.448-1-1v-2.735C1,32.872,1.448,32.424,2,32.424z"/>
<path fill="none" stroke="#3B3735" stroke-width="2" stroke-linecap="round" stroke-linejoin="round" stroke-miterlimit="10" d="
	M43.664,5.674H4.488c-0.552,0-1,0.448-1,1v25.75h41.176V6.674C44.664,6.122,44.216,5.674,43.664,5.674z"/>
<line fill="none" stroke="#3B3735" stroke-width="2" stroke-linecap="round" stroke-linejoin="round" stroke-miterlimit="10" x1="24.576" y1="46.765" x2="24.576" y2="36.765"/>
<line fill="none" stroke="#3B3735" stroke-width="2" stroke-linecap="round" stroke-linejoin="round" stroke-miterlimit="10" x1="13.736" y1="47.125" x2="19.111" y2="37.159"/>
<line fill="none" stroke="#3B3735" stroke-width="2" stroke-linecap="round" stroke-linejoin="round" stroke-miterlimit="10" x1="35.236" y1="47.125" x2="29.861" y2="37.159"/>
<g>
	
		<polyline fill="none" stroke="#3B3735" stroke-width="2" stroke-linecap="round" stroke-linejoin="round" stroke-miterlimit="10" points="
		12.811,25.45 17.986,20.125 24.076,25.125 34.111,15.125 	"/>
	
		<polyline fill="none" stroke="#3B3735" stroke-width="2" stroke-linecap="round" stroke-linejoin="round" stroke-miterlimit="10" points="
		35.251,18.406 34.909,13.941 30.608,14.317 	"/>
</g>
</svg>
