<?xml version="1.0" encoding="utf-8"?>
<!-- Generator: Adobe Illustrator 17.0.0, SVG Export Plug-In . SVG Version: 6.00 Build 0)  -->
<!DOCTYPE svg PUBLIC "-//W3C//DTD SVG 1.1//EN" "http://www.w3.org/Graphics/SVG/1.1/DTD/svg11.dtd">
<svg version="1.1" id="Layer_1" xmlns="http://www.w3.org/2000/svg" xmlns:xlink="http://www.w3.org/1999/xlink" x="0px" y="0px"
	 width="48px" height="39.191px" viewBox="0 0 48 39.191" enable-background="new 0 0 48 39.191" xml:space="preserve">
<g>
	<path fill="none" stroke="#3B3735" stroke-width="2" stroke-linecap="round" stroke-linejoin="round" stroke-miterlimit="10" d="
		M30.05,11H2.401C1.61,11,1,12.011,1,12.801v15.18v3.43v5.65c0,1.234,1.441,1.468,2.365,0.651L9.33,32h20.72
		C30.84,32,32,32.201,32,31.411V12.801C32,12.011,30.84,11,30.05,11z"/>
	<g>
		<path fill="none" stroke="#3B3735" stroke-width="2" stroke-linecap="round" stroke-linejoin="round" stroke-miterlimit="10" d="
			M12,11V2.454C12,1.545,12.405,1,13.314,1h31.775C45.998,1,47,1.545,47,2.454v17.445v3.941v6.493c0,1.418-1.806,1.929-2.868,0.989
			L37.126,25H32"/>
	</g>
</g>
</svg>
