<?xml version="1.0" encoding="utf-8"?>
<!-- Generator: Adobe Illustrator 17.0.0, SVG Export Plug-In . SVG Version: 6.00 Build 0)  -->
<!DOCTYPE svg PUBLIC "-//W3C//DTD SVG 1.1//EN" "http://www.w3.org/Graphics/SVG/1.1/DTD/svg11.dtd">
<svg version="1.1" id="Layer_1" xmlns="http://www.w3.org/2000/svg" xmlns:xlink="http://www.w3.org/1999/xlink" x="0px" y="0px"
	 width="48px" height="39.191px" viewBox="0 0 48 39.191" enable-background="new 0 0 48 39.191" xml:space="preserve">
<g>
	<g>
		<path fill="none" stroke="#3B3735" stroke-width="2" stroke-linecap="round" stroke-linejoin="round" stroke-miterlimit="10" d="
			M30.917,11H3.268C2.477,11,1,12.011,1,12.801v15.18v3.43v5.65c0,1.234,1.874,1.468,2.798,0.651L10.197,32h20.72
			C31.707,32,32,32.201,32,31.411V12.801C32,12.011,31.707,11,30.917,11z"/>
		<g>
			<path fill="none" stroke="#3B3735" stroke-width="2" stroke-linecap="round" stroke-linejoin="round" stroke-miterlimit="10" d="
				M12,11V2.454C12,1.545,13.272,1,14.181,1h31.775C46.865,1,47,1.545,47,2.454v17.445v3.941v6.493c0,1.418-1.373,1.929-2.434,0.989
				L37.993,25H32"/>
		</g>
	</g>
	<g>
		
			<line fill="none" stroke="#3B3735" stroke-width="2" stroke-linecap="round" stroke-linejoin="round" stroke-miterlimit="10" x1="9" y1="18" x2="25" y2="18"/>
		
			<line fill="none" stroke="#3B3735" stroke-width="2" stroke-linecap="round" stroke-linejoin="round" stroke-miterlimit="10" x1="9" y1="22" x2="25" y2="22"/>
		
			<line fill="none" stroke="#3B3735" stroke-width="2" stroke-linecap="round" stroke-linejoin="round" stroke-miterlimit="10" x1="9" y1="26" x2="25" y2="26"/>
	</g>
</g>
</svg>
