<?xml version="1.0" encoding="utf-8"?>
<!-- Generator: Adobe Illustrator 17.0.0, SVG Export Plug-In . SVG Version: 6.00 Build 0)  -->
<!DOCTYPE svg PUBLIC "-//W3C//DTD SVG 1.1//EN" "http://www.w3.org/Graphics/SVG/1.1/DTD/svg11.dtd">
<svg version="1.1" id="Layer_1" xmlns="http://www.w3.org/2000/svg" xmlns:xlink="http://www.w3.org/1999/xlink" x="0px" y="0px"
	 width="30.838px" height="47.731px" viewBox="0 0 30.838 47.731" enable-background="new 0 0 30.838 47.731" xml:space="preserve">
<g>
	<path fill="none" stroke="#000000" stroke-width="2" stroke-linecap="round" stroke-linejoin="round" stroke-miterlimit="10" d="
		M7.133,30.205c0,0,5.733-12.002,7.939-16.918c0,0-2.735,5.172-5.131,5.305c-1.59,0.088-2.87,1.515-4.891,2.765
		c-2.591,1.602-6.474-4.371-2.014-6.615c6.419-3.23,5.733-9.675,9.515-9.675c5.988,0,13.867,0.138,12.291,25.138H7.133z"/>
	<path fill="none" stroke="#000000" stroke-width="2" stroke-linecap="round" stroke-linejoin="round" stroke-miterlimit="10" d="
		M11.38,5.521V1.864c0-0.494,0.409-0.889,0.902-0.863c4.225,0.225,21.489,2.305,12.561,29.563"/>
	<path fill="none" stroke="#000000" stroke-width="2" stroke-linecap="round" stroke-linejoin="round" stroke-miterlimit="10" d="
		M24.97,33.731H6.68c-0.552,0-1-0.448-1-1v-1.175c0-0.552,0.448-1,1-1H24.97c0.552,0,1,0.448,1,1v1.175
		C25.97,33.284,25.523,33.731,24.97,33.731z"/>
	<path fill="none" stroke="#000000" stroke-width="2" stroke-linecap="round" stroke-linejoin="round" stroke-miterlimit="10" d="
		M28.838,46.731H2.812c-0.552,0-1-0.448-1-1v-1.597c0-0.552,0.448-1,1-1h26.026c0.552,0,1,0.448,1,1v1.597
		C29.838,46.284,29.39,46.731,28.838,46.731z"/>
	<path fill="none" stroke="#000000" stroke-width="2" stroke-linecap="round" stroke-linejoin="round" stroke-miterlimit="10" d="
		M6.65,33.731c0,0-3.564,2.227-3.503,9.403"/>
	<path fill="none" stroke="#000000" stroke-width="2" stroke-linecap="round" stroke-linejoin="round" stroke-miterlimit="10" d="
		M25,33.731c0,0,3.564,2.227,3.503,9.403"/>
</g>
</svg>
