<?xml version="1.0" encoding="utf-8"?>
<!-- Generator: Adobe Illustrator 17.0.0, SVG Export Plug-In . SVG Version: 6.00 Build 0)  -->
<!DOCTYPE svg PUBLIC "-//W3C//DTD SVG 1.1//EN" "http://www.w3.org/Graphics/SVG/1.1/DTD/svg11.dtd">
<svg version="1.1" id="Layer_1" xmlns="http://www.w3.org/2000/svg" xmlns:xlink="http://www.w3.org/1999/xlink" x="0px" y="0px"
	 width="46.304px" height="44.169px" viewBox="0 0 46.304 44.169" enable-background="new 0 0 46.304 44.169" xml:space="preserve">
<g>
	<g>
		<path fill="none" stroke="#3B3735" stroke-width="2" stroke-linecap="round" stroke-linejoin="round" stroke-miterlimit="10" d="
			M6.655,27.91c0,0,5.287-11.058,7.321-15.59c0,0-2.522,4.774-4.732,4.896c-1.466,0.081-2.646,1.399-4.51,2.552
			c-2.389,1.477-5.969-4.03-1.857-6.098c5.919-2.978,5.287-8.93,8.774-8.93c5.522,0,12.787,0.17,11.334,23.17H6.655z"/>
		<path fill="none" stroke="#3B3735" stroke-width="2" stroke-linecap="round" stroke-linejoin="round" stroke-miterlimit="10" d="
			M10.571,5.169V1.797c0-0.455,0.377-0.82,0.831-0.796c3.896,0.207,19.815,2.125,11.583,27.26"/>
		<path fill="none" stroke="#3B3735" stroke-width="2" stroke-linecap="round" stroke-linejoin="round" stroke-miterlimit="10" d="
			M23.103,31.181H6.237c-0.509,0-0.922-0.413-0.922-0.922v-1.084c0-0.509,0.413-0.922,0.922-0.922h16.866
			c0.509,0,0.922,0.413,0.922,0.922v1.084C24.025,30.769,23.612,31.181,23.103,31.181z"/>
		<path fill="none" stroke="#3B3735" stroke-width="2" stroke-linecap="round" stroke-linejoin="round" stroke-miterlimit="10" d="
			M26.669,43.169H2.671c-0.509,0-0.922-0.413-0.922-0.922v-1.472c0-0.509,0.413-0.922,0.922-0.922h23.998
			c0.509,0,0.922,0.413,0.922,0.922v1.472C27.591,42.756,27.178,43.169,26.669,43.169z"/>
		<path fill="none" stroke="#3B3735" stroke-width="2" stroke-linecap="round" stroke-linejoin="round" stroke-miterlimit="10" d="
			M6.209,31.181c0,0-3.286,2.054-3.23,8.671"/>
		<path fill="none" stroke="#3B3735" stroke-width="2" stroke-linecap="round" stroke-linejoin="round" stroke-miterlimit="10" d="
			M23.131,31.181c0,0,3.286,2.054,3.23,8.671"/>
	</g>
	<g>
		<path fill="none" stroke="#3B3735" stroke-width="2" stroke-linecap="round" stroke-linejoin="round" stroke-miterlimit="10" d="
			M38.874,10.818v1.913c0,0.352-0.265,0.638-0.592,0.638h-1.775c-0.327,0-0.592-0.286-0.592-0.638v-1.913
			c0-0.352-0.265-0.638-0.592-0.638H33.55c-0.327,0-0.592,0.286-0.592,0.638v1.913c0,0.352-0.265,0.638-0.592,0.638h-1.775
			c-0.327,0-0.592-0.286-0.592-0.638v-1.913c0-0.352-0.265-0.638-0.592-0.638h-1.775c-0.327,0-0.592,0.286-0.592,0.638v2.87v0.33
			v5.065l1.479,3.133h12.128l1.183-3.133v-5.065v-0.33v-2.87c0-0.352-0.265-0.638-0.592-0.638h-1.775
			C39.139,10.181,38.874,10.466,38.874,10.818z"/>
		
			<line fill="none" stroke="#3B3735" stroke-width="2" stroke-linecap="round" stroke-linejoin="round" stroke-miterlimit="10" x1="28.304" y1="17.91" x2="41.304" y2="17.91"/>
		
			<polygon fill="none" stroke="#3B3735" stroke-width="2" stroke-linecap="round" stroke-linejoin="round" stroke-miterlimit="10" points="
			41.871,39.852 27.003,39.852 28.44,22.216 40.434,22.216 		"/>
		<path fill="none" stroke="#3B3735" stroke-width="2" stroke-linecap="round" stroke-linejoin="round" stroke-miterlimit="10" d="
			M44.333,39.91h-14.57h-1.28h-0.896h-0.545h-0.373c0.509,0,1.635,0.355,1.635,0.864v1.472c0,0.509-1.125,0.664-1.635,0.664h1.046
			h1.535h15.083c0.509,0,0.97-0.155,0.97-0.664v-1.472C45.304,40.265,44.843,39.91,44.333,39.91z"/>
	</g>
</g>
</svg>
