<?xml version="1.0" encoding="utf-8"?>
<!-- Generator: Adobe Illustrator 17.0.0, SVG Export Plug-In . SVG Version: 6.00 Build 0)  -->
<!DOCTYPE svg PUBLIC "-//W3C//DTD SVG 1.1//EN" "http://www.w3.org/Graphics/SVG/1.1/DTD/svg11.dtd">
<svg version="1.1" id="Layer_1" xmlns="http://www.w3.org/2000/svg" xmlns:xlink="http://www.w3.org/1999/xlink" x="0px" y="0px"
	 width="34.901px" height="47.909px" viewBox="0 0 34.901 47.909" enable-background="new 0 0 34.901 47.909" xml:space="preserve">
<g>
	<path fill="none" stroke="#000000" stroke-width="2" stroke-linecap="round" stroke-linejoin="round" stroke-miterlimit="10" d="
		M23.625,1.888V4.55c0,0.49-0.369,0.887-0.823,0.887h-2.47c-0.455,0-0.823-0.397-0.823-0.887V1.888C19.509,1.397,19.14,1,18.685,1
		h-2.47c-0.455,0-0.823,0.397-0.823,0.888V4.55c0,0.49-0.369,0.887-0.823,0.887h-2.47c-0.455,0-0.823-0.397-0.823-0.887V1.888
		c0-0.49-0.369-0.888-0.823-0.888h-2.47C7.527,1,7.159,1.397,7.159,1.888v3.994v0.46v7.049l2.058,4.36h16.878l1.647-4.36V6.341
		v-0.46V1.888c0-0.49-0.369-0.888-0.823-0.888h-2.47C23.994,1,23.625,1.397,23.625,1.888z"/>
	
		<line fill="none" stroke="#000000" stroke-width="2" stroke-linecap="round" stroke-linejoin="round" stroke-miterlimit="10" x1="8.009" y1="12.64" x2="27.009" y2="12.64"/>
	<path fill="none" stroke="#000000" stroke-width="2" stroke-linecap="round" stroke-linejoin="round" stroke-miterlimit="10" d="
		M28.361,43.312H6.54c-0.552,0-1-0.448-1-1v-1.479c0-0.552,0.448-1,1-1h21.82c0.552,0,1,0.448,1,1v1.479
		C29.361,42.865,28.913,43.312,28.361,43.312z"/>
	<path fill="none" stroke="#000000" stroke-width="2" stroke-linecap="round" stroke-linejoin="round" stroke-miterlimit="10" d="
		M32.901,46.909H2c-0.552,0-1-0.448-1-1v-1.597c0-0.552,0.448-1,1-1h30.901c0.552,0,1,0.448,1,1v1.597
		C33.901,46.461,33.453,46.909,32.901,46.909z"/>
	
		<polygon fill="none" stroke="#000000" stroke-width="2" stroke-linecap="round" stroke-linejoin="round" stroke-miterlimit="10" points="
		27.796,39.833 7.105,39.833 9.105,17.75 25.796,17.75 	"/>
</g>
</svg>
