<?xml version="1.0" encoding="utf-8"?>
<!-- Generator: Adobe Illustrator 17.0.0, SVG Export Plug-In . SVG Version: 6.00 Build 0)  -->
<!DOCTYPE svg PUBLIC "-//W3C//DTD SVG 1.1//EN" "http://www.w3.org/Graphics/SVG/1.1/DTD/svg11.dtd">
<svg version="1.1" id="Layer_1" xmlns="http://www.w3.org/2000/svg" xmlns:xlink="http://www.w3.org/1999/xlink" x="0px" y="0px"
	 width="45.144px" height="42.728px" viewBox="0 0 45.144 42.728" enable-background="new 0 0 45.144 42.728" xml:space="preserve">
<g>
	
		<polygon fill="none" stroke="#231F20" stroke-width="1.5001" stroke-linecap="round" stroke-linejoin="round" stroke-miterlimit="2.6131" points="
		22.556,22.074 22.556,41.978 20.139,41.978 20.139,22.074 4.825,9.69 21.348,9.69 37.871,9.69 	"/>
	
		<polyline fill="none" stroke="#231F20" stroke-width="1.5001" stroke-linecap="round" stroke-linejoin="round" stroke-miterlimit="2.6131" points="
		20.843,16.704 4.825,2.847 0.75,6.921 	"/>
	
		<line fill="none" stroke="#231F20" stroke-width="1.5001" stroke-linecap="round" stroke-linejoin="round" stroke-miterlimit="2.6131" x1="12.627" y1="41.977" x2="30.068" y2="41.977"/>
	
		<line fill="none" stroke="#231F20" stroke-width="1.5001" stroke-miterlimit="2.6131" x1="10.359" y1="14.191" x2="32.336" y2="14.191"/>
	<path fill="none" stroke="#231F20" stroke-width="1.5001" stroke-miterlimit="2.6131" d="M31.103,9.69
		c-0.22-0.669-0.339-1.384-0.339-2.126c0-3.763,3.052-6.814,6.814-6.814c3.763,0,6.814,3.052,6.814,6.814s-3.052,6.814-6.814,6.814
		c-1.473,0-2.837-0.468-3.952-1.263"/>
</g>
</svg>
