<?xml version="1.0" encoding="utf-8"?>
<!-- Generator: Adobe Illustrator 17.0.0, SVG Export Plug-In . SVG Version: 6.00 Build 0)  -->
<!DOCTYPE svg PUBLIC "-//W3C//DTD SVG 1.1//EN" "http://www.w3.org/Graphics/SVG/1.1/DTD/svg11.dtd">
<svg version="1.1" id="Layer_1" xmlns="http://www.w3.org/2000/svg" xmlns:xlink="http://www.w3.org/1999/xlink" x="0px" y="0px"
	 width="44.17px" height="47.479px" viewBox="0 0 44.17 47.479" enable-background="new 0 0 44.17 47.479" xml:space="preserve">
<g>
	<g>
		
			<ellipse transform="matrix(0.3997 -0.9167 0.9167 0.3997 -24.5021 34.2206)" fill="none" stroke="#3B3735" stroke-width="2" stroke-linecap="round" stroke-linejoin="round" stroke-miterlimit="10" cx="13.875" cy="35.817" rx="10.072" ry="13.338"/>
		<path fill="none" stroke="#3B3735" stroke-width="2" stroke-linecap="round" stroke-linejoin="round" stroke-miterlimit="10" d="
			M2.539,30.237c0,0,5.891,6.551,10.489,5.968c4.598-0.583,7.08,1.228,12.341,6.255"/>
	</g>
	<g>
		<path fill="none" stroke="#3B3735" stroke-width="2" stroke-linecap="round" stroke-linejoin="round" stroke-miterlimit="10" d="
			M16.679,25.845c0.065-4.946,4.844-9.182,11.426-10.391c7.245-1.33,13.933,2.026,14.937,7.497
			c1.004,5.471-4.055,10.984-11.3,12.314c-1.811,0.333-3.588,0.372-5.249,0.159"/>
		<path fill="none" stroke="#3B3735" stroke-width="2" stroke-linecap="round" stroke-linejoin="round" stroke-miterlimit="10" d="
			M42.444,23.655c0,0-8.546-2.142-12.034,0.91s-6.227,2.893-13.399,1.663"/>
	</g>
	<g>
		
			<ellipse transform="matrix(0.1806 0.9836 -0.9836 0.1806 22.838 -6.6318)" fill="none" stroke="#3B3735" stroke-width="2" stroke-linecap="round" stroke-linejoin="round" stroke-miterlimit="10" cx="15.399" cy="10.39" rx="9.275" ry="12.283"/>
		<path fill="none" stroke="#3B3735" stroke-width="2" stroke-linecap="round" stroke-linejoin="round" stroke-miterlimit="10" d="
			M26.929,8.82c0,0-7.87-1.973-11.082,0.838s-6.04,2.704-12.644,1.571"/>
	</g>
</g>
</svg>
