<?xml version="1.0" encoding="utf-8"?>
<!-- Generator: Adobe Illustrator 17.0.0, SVG Export Plug-In . SVG Version: 6.00 Build 0)  -->
<!DOCTYPE svg PUBLIC "-//W3C//DTD SVG 1.1//EN" "http://www.w3.org/Graphics/SVG/1.1/DTD/svg11.dtd">
<svg version="1.1" id="Layer_1" xmlns="http://www.w3.org/2000/svg" xmlns:xlink="http://www.w3.org/1999/xlink" x="0px" y="0px"
	 width="46.931px" height="44.91px" viewBox="0 0 46.931 44.91" enable-background="new 0 0 46.931 44.91" xml:space="preserve">
<g>
	
		<rect x="1" y="5.035" fill="none" stroke="#3B3735" stroke-width="2" stroke-linecap="round" stroke-linejoin="round" stroke-miterlimit="10" width="44.931" height="11.298"/>
	
		<rect x="4.188" y="1" fill="none" stroke="#3B3735" stroke-width="2" stroke-linecap="round" stroke-linejoin="round" stroke-miterlimit="10" width="38.554" height="3.945"/>
	
		<rect x="7.044" y="16.332" fill="none" stroke="#3B3735" stroke-width="2" stroke-linecap="round" stroke-linejoin="round" stroke-miterlimit="10" width="32.843" height="23.451"/>
	
		<rect x="4.188" y="39.784" fill="none" stroke="#3B3735" stroke-width="2" stroke-linecap="round" stroke-linejoin="round" stroke-miterlimit="10" width="38.554" height="4.126"/>
	<path fill="none" stroke="#3B3735" stroke-width="2" stroke-linecap="round" stroke-linejoin="round" stroke-miterlimit="10" d="
		M29.431,28.413c0,0,4.174-0.954,4.174,2.569c0,2.404-4.174,4.552-4.174,4.552"/>
	<path fill="none" stroke="#3B3735" stroke-width="2" stroke-linecap="round" stroke-linejoin="round" stroke-miterlimit="10" d="
		M25.819,39.784c0.576,0,1.132-0.27,1.627-0.648c1.292-0.985,1.985-2.523,1.985-4.102v-8.089H23.17h-6.261v8.089
		c0,1.579,0.693,3.117,1.985,4.102c0.495,0.378,1.051,0.648,1.627,0.648"/>
	
		<rect x="19.431" y="16.332" fill="none" stroke="#3B3735" stroke-width="2" stroke-linecap="round" stroke-linejoin="round" stroke-miterlimit="10" width="7.625" height="6.928"/>
	<path fill="none" stroke="#3B3735" stroke-width="2" stroke-linecap="round" stroke-linejoin="round" stroke-miterlimit="10" d="
		M27.247,18.929h8.812c0.82,0,1.49,0.671,1.49,1.49v0c0,0.82-0.671,1.49-1.49,1.49h-8.812"/>
	
		<circle fill="none" stroke="#3B3735" stroke-width="2" stroke-linecap="round" stroke-linejoin="round" stroke-miterlimit="10" cx="11.306" cy="10.684" r="2.75"/>
	
		<line fill="none" stroke="#3B3735" stroke-width="2" stroke-linecap="round" stroke-linejoin="round" stroke-miterlimit="10" x1="18.681" y1="10.684" x2="21.681" y2="10.684"/>
	
		<line fill="none" stroke="#3B3735" stroke-width="2" stroke-linecap="round" stroke-linejoin="round" stroke-miterlimit="10" x1="24.681" y1="10.684" x2="27.681" y2="10.684"/>
	
		<line fill="none" stroke="#3B3735" stroke-width="2" stroke-linecap="round" stroke-linejoin="round" stroke-miterlimit="10" x1="30.681" y1="10.684" x2="33.681" y2="10.684"/>
	
		<line fill="none" stroke="#3B3735" stroke-width="2" stroke-linecap="round" stroke-linejoin="round" stroke-miterlimit="10" x1="7.514" y1="10.684" x2="14.931" y2="10.684"/>
</g>
</svg>
