<?xml version="1.0" encoding="iso-8859-1"?>
<!-- Generator: Adobe Illustrator 17.0.0, SVG Export Plug-In . SVG Version: 6.00 Build 0)  -->
<!DOCTYPE svg PUBLIC "-//W3C//DTD SVG 1.1//EN" "http://www.w3.org/Graphics/SVG/1.1/DTD/svg11.dtd">
<svg version="1.1" id="Layer_1" xmlns="http://www.w3.org/2000/svg" xmlns:xlink="http://www.w3.org/1999/xlink" x="0px" y="0px"
	 width="434.723px" height="46.23px" viewBox="0 0 434.723 46.23" style="enable-background:new 0 0 434.723 46.23;"
	 xml:space="preserve">
<g>
	<g>
		<g>
			
				<rect x="391.603" y="17.205" style="fill:none;stroke:#3B3735;stroke-width:2;stroke-linecap:round;stroke-linejoin:round;stroke-miterlimit:10;" width="18.12" height="6.641"/>
			
				<line style="fill:none;stroke:#3B3735;stroke-width:2;stroke-linecap:round;stroke-linejoin:round;stroke-miterlimit:10;" x1="394.868" y1="20.455" x2="398.868" y2="20.455"/>
			
				<line style="fill:none;stroke:#3B3735;stroke-width:2;stroke-linecap:round;stroke-linejoin:round;stroke-miterlimit:10;" x1="404.868" y1="20.455" x2="405.868" y2="20.455"/>
		</g>
	</g>
	<g>
		<g>
			
				<rect x="391.603" y="27.205" style="fill:none;stroke:#3B3735;stroke-width:2;stroke-linecap:round;stroke-linejoin:round;stroke-miterlimit:10;" width="18.12" height="6.641"/>
			
				<line style="fill:none;stroke:#3B3735;stroke-width:2;stroke-linecap:round;stroke-linejoin:round;stroke-miterlimit:10;" x1="394.868" y1="30.455" x2="398.868" y2="30.455"/>
			
				<line style="fill:none;stroke:#3B3735;stroke-width:2;stroke-linecap:round;stroke-linejoin:round;stroke-miterlimit:10;" x1="404.868" y1="30.455" x2="405.868" y2="30.455"/>
		</g>
	</g>
	<g>
		<g>
			
				<rect x="391.603" y="37.205" style="fill:none;stroke:#3B3735;stroke-width:2;stroke-linecap:round;stroke-linejoin:round;stroke-miterlimit:10;" width="18.12" height="6.641"/>
			
				<line style="fill:none;stroke:#3B3735;stroke-width:2;stroke-linecap:round;stroke-linejoin:round;stroke-miterlimit:10;" x1="394.868" y1="40.455" x2="398.868" y2="40.455"/>
			
				<line style="fill:none;stroke:#3B3735;stroke-width:2;stroke-linecap:round;stroke-linejoin:round;stroke-miterlimit:10;" x1="404.868" y1="40.455" x2="405.868" y2="40.455"/>
		</g>
	</g>
	<g>
		<g>
			<g>
				
					<rect x="415.603" y="1.205" style="fill:none;stroke:#3B3735;stroke-width:2;stroke-linecap:round;stroke-linejoin:round;stroke-miterlimit:10;" width="18.12" height="6.641"/>
				
					<line style="fill:none;stroke:#3B3735;stroke-width:2;stroke-linecap:round;stroke-linejoin:round;stroke-miterlimit:10;" x1="418.868" y1="4.455" x2="422.868" y2="4.455"/>
				
					<line style="fill:none;stroke:#3B3735;stroke-width:2;stroke-linecap:round;stroke-linejoin:round;stroke-miterlimit:10;" x1="428.868" y1="4.455" x2="429.868" y2="4.455"/>
			</g>
		</g>
		<g>
			<g>
				
					<rect x="415.603" y="11.205" style="fill:none;stroke:#3B3735;stroke-width:2;stroke-linecap:round;stroke-linejoin:round;stroke-miterlimit:10;" width="18.12" height="6.641"/>
				
					<line style="fill:none;stroke:#3B3735;stroke-width:2;stroke-linecap:round;stroke-linejoin:round;stroke-miterlimit:10;" x1="418.868" y1="14.455" x2="422.868" y2="14.455"/>
				
					<line style="fill:none;stroke:#3B3735;stroke-width:2;stroke-linecap:round;stroke-linejoin:round;stroke-miterlimit:10;" x1="428.868" y1="14.455" x2="429.868" y2="14.455"/>
			</g>
		</g>
		<g>
			<g>
				
					<rect x="415.603" y="21.205" style="fill:none;stroke:#3B3735;stroke-width:2;stroke-linecap:round;stroke-linejoin:round;stroke-miterlimit:10;" width="18.12" height="6.641"/>
				
					<line style="fill:none;stroke:#3B3735;stroke-width:2;stroke-linecap:round;stroke-linejoin:round;stroke-miterlimit:10;" x1="418.868" y1="24.455" x2="422.868" y2="24.455"/>
				
					<line style="fill:none;stroke:#3B3735;stroke-width:2;stroke-linecap:round;stroke-linejoin:round;stroke-miterlimit:10;" x1="428.868" y1="24.455" x2="429.868" y2="24.455"/>
			</g>
		</g>
	</g>
	
		<polyline style="fill:none;stroke:#3B3735;stroke-width:2;stroke-linecap:round;stroke-linejoin:round;stroke-miterlimit:10;" points="
		409.868,40.455 424.868,40.455 424.868,28.455 	"/>
</g>
<g>
	<g>
		<g>
			<g>
				
					<rect x="13.473" y="1.205" style="fill:none;stroke:#3B3735;stroke-width:2;stroke-linecap:round;stroke-linejoin:round;stroke-miterlimit:10;" width="18.12" height="6.641"/>
				
					<line style="fill:none;stroke:#3B3735;stroke-width:2;stroke-linecap:round;stroke-linejoin:round;stroke-miterlimit:10;" x1="16.738" y1="4.455" x2="20.738" y2="4.455"/>
				
					<line style="fill:none;stroke:#3B3735;stroke-width:2;stroke-linecap:round;stroke-linejoin:round;stroke-miterlimit:10;" x1="26.738" y1="4.455" x2="27.738" y2="4.455"/>
			</g>
		</g>
		<g>
			<g>
				
					<rect x="13.473" y="11.205" style="fill:none;stroke:#3B3735;stroke-width:2;stroke-linecap:round;stroke-linejoin:round;stroke-miterlimit:10;" width="18.12" height="6.641"/>
				
					<line style="fill:none;stroke:#3B3735;stroke-width:2;stroke-linecap:round;stroke-linejoin:round;stroke-miterlimit:10;" x1="16.738" y1="14.455" x2="20.738" y2="14.455"/>
				
					<line style="fill:none;stroke:#3B3735;stroke-width:2;stroke-linecap:round;stroke-linejoin:round;stroke-miterlimit:10;" x1="26.738" y1="14.455" x2="27.738" y2="14.455"/>
			</g>
		</g>
	</g>
	<g>
		
			<rect x="3.564" y="30.421" style="fill:none;stroke:#3B3735;stroke-width:2;stroke-linecap:round;stroke-linejoin:round;stroke-miterlimit:10;" width="12.498" height="7.965"/>
		
			<polygon style="fill:none;stroke:#3B3735;stroke-width:2;stroke-linecap:round;stroke-linejoin:round;stroke-miterlimit:10;" points="
			16.061,40.761 3.564,40.761 1,45.23 18.625,45.23 		"/>
	</g>
	<g>
		
			<rect x="28.568" y="30.421" style="fill:none;stroke:#3B3735;stroke-width:2;stroke-linecap:round;stroke-linejoin:round;stroke-miterlimit:10;" width="12.498" height="7.965"/>
		
			<polygon style="fill:none;stroke:#3B3735;stroke-width:2;stroke-linecap:round;stroke-linejoin:round;stroke-miterlimit:10;" points="
			41.065,40.761 28.568,40.761 26.004,45.23 43.629,45.23 		"/>
	</g>
	<g>
		
			<polyline style="fill:none;stroke:#3B3735;stroke-width:2;stroke-linecap:round;stroke-linejoin:round;stroke-miterlimit:10;" points="
			9.812,27.37 9.812,23.61 22.316,23.61 22.316,20.902 		"/>
		
			<polyline style="fill:none;stroke:#3B3735;stroke-width:2;stroke-linecap:round;stroke-linejoin:round;stroke-miterlimit:10;" points="
			34.82,27.37 34.82,23.61 22.316,23.61 22.316,20.902 		"/>
	</g>
</g>
<g>
	<g>
		
			<polyline style="fill:none;stroke:#3B3735;stroke-width:2;stroke-linecap:round;stroke-linejoin:round;stroke-miterlimit:10;" points="
			108.442,25.37 108.442,21.61 120.946,21.61 120.946,18.902 		"/>
		
			<polyline style="fill:none;stroke:#3B3735;stroke-width:2;stroke-linecap:round;stroke-linejoin:round;stroke-miterlimit:10;" points="
			133.45,25.37 133.45,21.61 120.946,21.61 120.946,18.902 		"/>
	</g>
	<g>
		<path style="fill:none;stroke:#3B3735;stroke-width:2;stroke-linecap:round;stroke-linejoin:round;stroke-miterlimit:10;" d="
			M127.866,15.322h-13.84c-0.182,0-0.333-0.14-0.347-0.32l-0.733-9.241c-0.016-0.202,0.144-0.375,0.347-0.375h15.305
			c0.203,0,0.363,0.173,0.347,0.375l-0.733,9.241C128.198,15.183,128.047,15.322,127.866,15.322z"/>
		<path style="fill:none;stroke:#3B3735;stroke-width:2;stroke-linecap:round;stroke-linejoin:round;stroke-miterlimit:10;" d="
			M119.68,2.678V1.45c0-0.192-0.156-0.348-0.348-0.348h-4.82c-0.192,0-0.348,0.156-0.348,0.348v1.097v2.839h13.396V3.026
			c0-0.192-0.156-0.348-0.348-0.348H119.68z"/>
	</g>
	<g>
		<path style="fill:none;stroke:#3B3735;stroke-width:2;stroke-linecap:round;stroke-linejoin:round;stroke-miterlimit:10;" d="
			M113.614,43.156h-13.84c-0.182,0-0.333-0.14-0.347-0.32l-0.733-9.241c-0.016-0.202,0.144-0.375,0.347-0.375h15.305
			c0.203,0,0.363,0.173,0.347,0.375l-0.733,9.241C113.947,43.016,113.796,43.156,113.614,43.156z"/>
		<path style="fill:none;stroke:#3B3735;stroke-width:2;stroke-linecap:round;stroke-linejoin:round;stroke-miterlimit:10;" d="
			M105.429,30.512v-1.228c0-0.192-0.156-0.348-0.348-0.348h-4.82c-0.192,0-0.348,0.156-0.348,0.348v1.097v2.839h13.396V30.86
			c0-0.192-0.156-0.348-0.348-0.348H105.429z"/>
	</g>
	<g>
		<path style="fill:none;stroke:#3B3735;stroke-width:2;stroke-linecap:round;stroke-linejoin:round;stroke-miterlimit:10;" d="
			M140.566,43.156h-13.84c-0.182,0-0.333-0.14-0.347-0.32l-0.733-9.241c-0.016-0.202,0.144-0.375,0.347-0.375h15.305
			c0.203,0,0.363,0.173,0.347,0.375l-0.733,9.241C140.898,43.016,140.747,43.156,140.566,43.156z"/>
		<path style="fill:none;stroke:#3B3735;stroke-width:2;stroke-linecap:round;stroke-linejoin:round;stroke-miterlimit:10;" d="
			M132.38,30.512v-1.228c0-0.192-0.156-0.348-0.348-0.348h-4.82c-0.192,0-0.348,0.156-0.348,0.348v1.097v2.839h13.396V30.86
			c0-0.192-0.156-0.348-0.348-0.348H132.38z"/>
	</g>
</g>
<g>
	<g>
		
			<polyline style="fill:none;stroke:#3B3735;stroke-width:2;stroke-linecap:round;stroke-linejoin:round;stroke-miterlimit:10;" points="
			199.756,31.265 199.756,22.653 217.847,22.653 217.847,12.989 		"/>
		
			<polyline style="fill:none;stroke:#3B3735;stroke-width:2;stroke-linecap:round;stroke-linejoin:round;stroke-miterlimit:10;" points="
			235.938,31.265 235.938,22.653 217.847,22.653 217.847,12.989 		"/>
	</g>
	
		<line style="fill:none;stroke:#3B3735;stroke-width:2;stroke-linecap:round;stroke-linejoin:round;stroke-miterlimit:10;" x1="217.847" y1="22.653" x2="217.847" y2="30.913"/>
	<path style="fill:none;stroke:#3B3735;stroke-width:2;stroke-linecap:round;stroke-linejoin:round;stroke-miterlimit:10;" d="
		M203.89,42.161h-8.268c-0.552,0-1-0.448-1-1v-8.268c0-0.552,0.448-1,1-1h8.268c0.552,0,1,0.448,1,1v8.268
		C204.89,41.713,204.443,42.161,203.89,42.161z"/>
	<path style="fill:none;stroke:#3B3735;stroke-width:2;stroke-linecap:round;stroke-linejoin:round;stroke-miterlimit:10;" d="
		M221.981,42.161h-8.268c-0.552,0-1-0.448-1-1v-8.268c0-0.552,0.448-1,1-1h8.268c0.552,0,1,0.448,1,1v8.268
		C222.981,41.713,222.533,42.161,221.981,42.161z"/>
	<path style="fill:none;stroke:#3B3735;stroke-width:2;stroke-linecap:round;stroke-linejoin:round;stroke-miterlimit:10;" d="
		M221.981,12.538h-8.268c-0.552,0-1-0.448-1-1V3.271c0-0.552,0.448-1,1-1h8.268c0.552,0,1,0.448,1,1v8.268
		C222.981,12.091,222.533,12.538,221.981,12.538z"/>
	<path style="fill:none;stroke:#3B3735;stroke-width:2;stroke-linecap:round;stroke-linejoin:round;stroke-miterlimit:10;" d="
		M240.072,42.161h-8.268c-0.552,0-1-0.448-1-1v-8.268c0-0.552,0.448-1,1-1h8.268c0.552,0,1,0.448,1,1v8.268
		C241.072,41.713,240.624,42.161,240.072,42.161z"/>
</g>
<g>
	<g>
		
			<rect x="294.013" y="27.442" style="fill:none;stroke:#3B3735;stroke-width:2;stroke-linecap:round;stroke-linejoin:round;stroke-miterlimit:10;" width="12.498" height="7.965"/>
		
			<polygon style="fill:none;stroke:#3B3735;stroke-width:2;stroke-linecap:round;stroke-linejoin:round;stroke-miterlimit:10;" points="
			306.511,37.783 294.013,37.783 291.449,42.251 309.074,42.251 		"/>
	</g>
	<g>
		
			<rect x="325.233" y="27.442" style="fill:none;stroke:#3B3735;stroke-width:2;stroke-linecap:round;stroke-linejoin:round;stroke-miterlimit:10;" width="12.498" height="7.965"/>
		
			<polygon style="fill:none;stroke:#3B3735;stroke-width:2;stroke-linecap:round;stroke-linejoin:round;stroke-miterlimit:10;" points="
			337.731,37.783 325.233,37.783 322.669,42.251 340.294,42.251 		"/>
	</g>
	<g>
		
			<rect x="309.2" y="1" style="fill:none;stroke:#3B3735;stroke-width:2;stroke-linecap:round;stroke-linejoin:round;stroke-miterlimit:10;" width="12.498" height="7.965"/>
		
			<polygon style="fill:none;stroke:#3B3735;stroke-width:2;stroke-linecap:round;stroke-linejoin:round;stroke-miterlimit:10;" points="
			321.698,11.341 309.2,11.341 306.637,15.809 324.262,15.809 		"/>
	</g>
	
		<line style="fill:none;stroke:#3B3735;stroke-width:2;stroke-linecap:round;stroke-linejoin:round;stroke-miterlimit:10;" x1="301.148" y1="24.526" x2="304.815" y2="18.886"/>
	
		<line style="fill:none;stroke:#3B3735;stroke-width:2;stroke-linecap:round;stroke-linejoin:round;stroke-miterlimit:10;" x1="329.481" y1="24.526" x2="325.815" y2="18.886"/>
	
		<line style="fill:none;stroke:#3B3735;stroke-width:2;stroke-linecap:round;stroke-linejoin:round;stroke-miterlimit:10;" x1="310.544" y1="37.205" x2="320.481" y2="37.205"/>
</g>
</svg>
