<?xml version="1.0" encoding="utf-8"?>
<!-- Generator: Adobe Illustrator 17.0.0, SVG Export Plug-In . SVG Version: 6.00 Build 0)  -->
<!DOCTYPE svg PUBLIC "-//W3C//DTD SVG 1.1//EN" "http://www.w3.org/Graphics/SVG/1.1/DTD/svg11.dtd">
<svg version="1.1" id="Layer_1" xmlns="http://www.w3.org/2000/svg" xmlns:xlink="http://www.w3.org/1999/xlink" x="0px" y="0px"
	 width="33.896px" height="42px" viewBox="0 0 33.896 42" enable-background="new 0 0 33.896 42" xml:space="preserve">
<path fill="none" stroke="#3B3735" stroke-width="2" stroke-linecap="round" stroke-linejoin="round" stroke-miterlimit="10" d="
	M28.701,9.077c0.824-1.493-0.337-3.537-2.606-3.537c-3.049,0-3.252,3.049-3.252,3.049c-0.407,2.236,1.626,3.911,4.015,3.911
	c3.302,0,6.038-2.457,6.038-5.75S30.303,1,27.01,1H16.948H6.885C3.593,1,1,3.457,1,6.75s2.736,5.885,6.038,5.885
	c2.389,0,4.422-1.743,4.015-3.979c0,0-0.203-3.083-3.252-3.083c-2.269,0-3.43,2.027-2.606,3.52"/>
<line fill="none" stroke="#3B3735" stroke-width="2" stroke-linecap="round" stroke-linejoin="round" stroke-miterlimit="10" x1="11.705" y1="8" x2="22.705" y2="8"/>
<polyline fill="none" stroke="#3B3735" stroke-width="2" stroke-linecap="round" stroke-linejoin="round" stroke-miterlimit="10" points="
	26.705,13 26.705,36 6.705,36 6.705,13 "/>
<line fill="none" stroke="#3B3735" stroke-width="2" stroke-linecap="round" stroke-linejoin="round" stroke-miterlimit="10" x1="16.705" y1="14" x2="16.705" y2="32"/>
<line fill="none" stroke="#3B3735" stroke-width="2" stroke-linecap="round" stroke-linejoin="round" stroke-miterlimit="10" x1="21.705" y1="14" x2="21.705" y2="32"/>
<line fill="none" stroke="#3B3735" stroke-width="2" stroke-linecap="round" stroke-linejoin="round" stroke-miterlimit="10" x1="11.705" y1="14" x2="11.705" y2="32"/>
<rect x="4.705" y="36" fill="none" stroke="#3B3735" stroke-width="2" stroke-linecap="round" stroke-linejoin="round" stroke-miterlimit="10" width="25" height="5"/>
</svg>
