<?xml version="1.0" encoding="utf-8"?>
<!-- Generator: Adobe Illustrator 17.0.0, SVG Export Plug-In . SVG Version: 6.00 Build 0)  -->
<!DOCTYPE svg PUBLIC "-//W3C//DTD SVG 1.1//EN" "http://www.w3.org/Graphics/SVG/1.1/DTD/svg11.dtd">
<svg version="1.1" id="Layer_1" xmlns="http://www.w3.org/2000/svg" xmlns:xlink="http://www.w3.org/1999/xlink" x="0px" y="0px"
	 width="76.369px" height="90.164px" viewBox="0 0 76.369 90.164" enable-background="new 0 0 76.369 90.164" xml:space="preserve">
<g>
	<g>
		<path fill="none" stroke="#3B3735" stroke-width="2" stroke-linecap="round" stroke-linejoin="round" stroke-miterlimit="10" d="
			M57.564,89.164h-44.73c-3.344,0-6.054-2.711-6.054-6.054v0c0-3.344,2.71-6.054,6.054-6.054h44.73c3.344,0,6.054,2.71,6.054,6.054
			v0C63.618,86.454,60.908,89.164,57.564,89.164z"/>
		
			<circle fill="none" stroke="#3B3735" stroke-width="2" stroke-linecap="round" stroke-linejoin="round" stroke-miterlimit="10" cx="13.373" cy="83.11" r="2.732"/>
		
			<circle fill="none" stroke="#3B3735" stroke-width="2" stroke-linecap="round" stroke-linejoin="round" stroke-miterlimit="10" cx="57.557" cy="83.11" r="2.732"/>
	</g>
	
		<polygon fill="none" stroke="#3B3735" stroke-width="2" stroke-linecap="round" stroke-linejoin="round" stroke-miterlimit="10" points="
		54.56,77.056 15.839,77.056 18.502,70.942 51.897,70.942 	"/>
	<path fill="none" stroke="#3B3735" stroke-width="2" stroke-linecap="round" stroke-linejoin="round" stroke-miterlimit="10" d="
		M64.612,70.942H9.06c-3.922,0-7.101-3.179-7.101-7.101V53.792c0-3.922,3.179-7.101,7.101-7.101h50.414
		c1.488,0,2.799,0.982,3.217,2.41l5.138,17.547C68.457,68.794,66.848,70.942,64.612,70.942z"/>
	
		<line fill="none" stroke="#3B3735" stroke-width="2" stroke-linecap="round" stroke-linejoin="round" stroke-miterlimit="10" x1="10.642" y1="53.303" x2="10.642" y2="63.505"/>
	
		<line fill="none" stroke="#3B3735" stroke-width="2" stroke-linecap="round" stroke-linejoin="round" stroke-miterlimit="10" x1="14.755" y1="53.303" x2="14.755" y2="63.505"/>
	
		<line fill="none" stroke="#3B3735" stroke-width="2" stroke-linecap="round" stroke-linejoin="round" stroke-miterlimit="10" x1="18.868" y1="53.303" x2="18.868" y2="63.505"/>
	
		<line fill="none" stroke="#3B3735" stroke-width="2" stroke-linecap="round" stroke-linejoin="round" stroke-miterlimit="10" x1="1" y1="89.164" x2="72.106" y2="89.164"/>
	
		<line fill="none" stroke="#3B3735" stroke-width="2" stroke-linecap="round" stroke-linejoin="round" stroke-miterlimit="10" x1="34.667" y1="46.691" x2="34.667" y2="70.942"/>
	
		<polyline fill="none" stroke="#3B3735" stroke-width="2" stroke-linecap="round" stroke-linejoin="round" stroke-miterlimit="10" points="
		44.817,46.691 44.817,61.895 66.437,61.895 	"/>
	<path fill="none" stroke="#3B3735" stroke-width="2" stroke-linecap="round" stroke-linejoin="round" stroke-miterlimit="10" d="
		M67.997,37.116c1.328,4.803,6.438,2.555,6.336-0.204c-0.102-2.759-3.234-3.577-3.234-3.577v-3.181"/>
	
		<circle fill="none" stroke="#3B3735" stroke-width="2" stroke-linecap="round" stroke-linejoin="round" stroke-miterlimit="10" cx="71.165" cy="4.492" r="3.492"/>
	
		<line fill="none" stroke="#3B3735" stroke-width="2" stroke-linecap="round" stroke-linejoin="round" stroke-miterlimit="10" x1="71.165" y1="7.984" x2="71.165" y2="25.903"/>
	
		<rect x="66.882" y="25.903" fill="none" stroke="#3B3735" stroke-width="2" stroke-linecap="round" stroke-linejoin="round" stroke-miterlimit="10" width="8.487" height="4.251"/>
	<g>
		
			<line fill="none" stroke="#3B3735" stroke-width="2" stroke-linecap="round" stroke-linejoin="round" stroke-miterlimit="10" x1="52.526" y1="4.925" x2="10.76" y2="46.691"/>
		
			<polyline fill="none" stroke="#3B3735" stroke-width="2" stroke-linecap="round" stroke-linejoin="round" stroke-miterlimit="10" points="
			24.277,33.173 36.574,36.165 33.583,23.868 		"/>
		
			<polyline fill="none" stroke="#3B3735" stroke-width="2" stroke-linecap="round" stroke-linejoin="round" stroke-miterlimit="10" points="
			33.583,23.868 45.879,26.859 42.888,14.562 		"/>
		
			<polyline fill="none" stroke="#3B3735" stroke-width="2" stroke-linecap="round" stroke-linejoin="round" stroke-miterlimit="10" points="
			43.221,14.23 55.517,17.221 52.526,4.925 67.125,5.613 26.447,46.291 		"/>
		
			<polyline fill="none" stroke="#3B3735" stroke-width="2" stroke-linecap="round" stroke-linejoin="round" stroke-miterlimit="10" points="
			14.972,42.479 27.268,45.47 24.277,33.173 		"/>
	</g>
</g>
</svg>
