<?xml version="1.0" encoding="utf-8"?>
<!-- Generator: Adobe Illustrator 17.0.0, SVG Export Plug-In . SVG Version: 6.00 Build 0)  -->
<!DOCTYPE svg PUBLIC "-//W3C//DTD SVG 1.1//EN" "http://www.w3.org/Graphics/SVG/1.1/DTD/svg11.dtd">
<svg version="1.1" id="Layer_1" xmlns="http://www.w3.org/2000/svg" xmlns:xlink="http://www.w3.org/1999/xlink" x="0px" y="0px"
	 width="37.322px" height="44.072px" viewBox="0 0 37.322 44.072" enable-background="new 0 0 37.322 44.072" xml:space="preserve">
<g>
	<g>
		
			<path fill="none" stroke="#000000" stroke-width="1.5001" stroke-linecap="round" stroke-linejoin="round" stroke-miterlimit="2.6131" d="
			M35,0.75c0.868,0,1.572,0.704,1.572,1.572V41.75c0,0.868-0.704,1.572-1.572,1.572H2.322c-0.868,0-1.572-0.704-1.572-1.572V11.288
			c0-0.417,0.166-0.817,0.46-1.111l8.965-8.965c0.295-0.295,0.695-0.46,1.111-0.46L35,0.75z"/>
	</g>
	
		<path fill="none" stroke="#000000" stroke-width="1.5001" stroke-linecap="round" stroke-linejoin="round" stroke-miterlimit="2.6131" d="
		M11.112,0.75v9.067c0,0.947-0.767,1.714-1.714,1.714H0.75"/>
	
		<line fill="none" stroke="#000000" stroke-width="1.5001" stroke-linecap="round" stroke-linejoin="round" stroke-miterlimit="2.6131" x1="18.661" y1="15.914" x2="9.257" y2="15.914"/>
	
		<circle fill="none" stroke="#000000" stroke-width="1.5001" stroke-linecap="round" stroke-linejoin="round" stroke-miterlimit="2.6131" cx="25.16" cy="9.908" r="4.116"/>
	
		<path fill="none" stroke="#000000" stroke-width="1.5001" stroke-linecap="round" stroke-linejoin="round" stroke-miterlimit="2.6131" d="
		M27.501,13.294v5.767l-2.341-1.24l-2.341,1.24v-5.767c0.665,0.46,1.471,0.73,2.341,0.73C26.03,14.023,26.837,13.753,27.501,13.294z
		"/>
	
		<line fill="none" stroke="#000000" stroke-width="1.5001" stroke-linecap="round" stroke-linejoin="round" stroke-miterlimit="2.6131" x1="18.661" y1="20.319" x2="9.257" y2="20.319"/>
	
		<line fill="none" stroke="#000000" stroke-width="1.5001" stroke-linecap="round" stroke-linejoin="round" stroke-miterlimit="2.6131" x1="28.065" y1="24.724" x2="9.257" y2="24.724"/>
	
		<line fill="none" stroke="#000000" stroke-width="1.5001" stroke-linecap="round" stroke-linejoin="round" stroke-miterlimit="2.6131" x1="28.065" y1="29.129" x2="9.257" y2="29.129"/>
	
		<line fill="none" stroke="#000000" stroke-width="1.5001" stroke-linecap="round" stroke-linejoin="round" stroke-miterlimit="2.6131" x1="28.065" y1="33.533" x2="9.257" y2="33.533"/>
	
		<line fill="none" stroke="#000000" stroke-width="1.5001" stroke-linecap="round" stroke-linejoin="round" stroke-miterlimit="2.6131" x1="28.065" y1="37.938" x2="9.257" y2="37.938"/>
</g>
</svg>
