<svg xmlns="http://www.w3.org/2000/svg" width="480" height="480"><path stroke="#3B3735" stroke-linecap="round" stroke-linejoin="round" stroke-miterlimit="10" d="M162.308,152.65 c0,10.153-8.232,18.385-18.385,18.385s-18.385-8.232-18.385-18.385s18.385-35.62,18.385-35.62S162.308,142.497,162.308,152.65z" fill="none"/><path stroke="#3B3735" stroke-linecap="round" stroke-linejoin="round" stroke-miterlimit="10" d="M106.537,230.566 v13.789c0,17.133,16.244,31.023,36.285,31.023C142.822,275.378,153.573,238.609,106.537,230.566z" fill="none"/><path stroke="#3B3735" stroke-linecap="round" stroke-linejoin="round" stroke-miterlimit="10" d="M106.537,195.325 v13.789c0,17.133,16.244,31.023,36.285,31.023C142.822,240.137,153.573,203.368,106.537,195.325L106.537,195.325z" fill="none"/><path stroke="#3B3735" stroke-linecap="round" stroke-linejoin="round" stroke-miterlimit="10" d="M106.537,160.394 v13.789c0,17.133,16.244,31.023,36.285,31.023C142.822,205.206,153.573,168.44,106.537,160.394L106.537,160.394z" fill="none"/><path stroke="#3B3735" stroke-linecap="round" stroke-linejoin="round" stroke-miterlimit="10" d="M181.309,230.566 v13.789c0,17.133-16.244,31.023-36.285,31.023C145.024,275.378,134.273,238.609,181.309,230.566z" fill="none"/><path stroke="#3B3735" stroke-linecap="round" stroke-linejoin="round" stroke-miterlimit="10" d="M181.309,195.446 v13.789c0,17.133-16.244,31.023-36.285,31.023C145.024,240.258,134.273,203.489,181.309,195.446L181.309,195.446z" fill="none"/><path stroke="#3B3735" stroke-linecap="round" stroke-linejoin="round" stroke-miterlimit="10" d="M181.309,160.515 v13.789c0,17.133-16.244,31.023-36.285,31.023C145.024,205.327,134.273,168.557,181.309,160.515L181.309,160.515z" fill="none"/><path stroke="#3B3735" stroke-linecap="round" stroke-linejoin="round" stroke-miterlimit="10" fill="none" d="M143.923 172.946L143.923 300.088"/></svg>