<?xml version="1.0" encoding="utf-8"?>
<!-- Generator: Adobe Illustrator 17.0.0, SVG Export Plug-In . SVG Version: 6.00 Build 0)  -->
<!DOCTYPE svg PUBLIC "-//W3C//DTD SVG 1.1//EN" "http://www.w3.org/Graphics/SVG/1.1/DTD/svg11.dtd">
<svg version="1.1" id="Layer_1" xmlns="http://www.w3.org/2000/svg" xmlns:xlink="http://www.w3.org/1999/xlink" x="0px" y="0px"
	 width="21.744px" height="48.636px" viewBox="0 0 21.744 48.636" enable-background="new 0 0 21.744 48.636" xml:space="preserve">
<g>
	<g>
		<path fill="none" stroke="#3B3735" stroke-width="2" stroke-linecap="round" stroke-linejoin="round" stroke-miterlimit="10" d="
			M15.732,10.416c0,2.684-2.176,4.86-4.86,4.86s-4.86-2.176-4.86-4.86S10.872,1,10.872,1S15.732,7.732,15.732,10.416z"/>
		<path fill="none" stroke="#3B3735" stroke-width="2" stroke-linecap="round" stroke-linejoin="round" stroke-miterlimit="10" d="
			M1,30.156v3.645c0,4.529,4.294,8.201,9.592,8.201h0C10.592,42.002,13.434,32.282,1,30.156z"/>
		<path fill="none" stroke="#3B3735" stroke-width="2" stroke-linecap="round" stroke-linejoin="round" stroke-miterlimit="10" d="
			M20.744,30.156v3.645c0,4.529-4.294,8.201-9.592,8.201h0C11.151,42.002,8.309,32.282,20.744,30.156z"/>
		<path fill="none" stroke="#3B3735" stroke-width="2" stroke-linecap="round" stroke-linejoin="round" stroke-miterlimit="10" d="
			M1,20.74v3.645c0,4.529,4.294,8.201,9.592,8.201h0C10.592,32.586,13.434,22.866,1,20.74z"/>
		<path fill="none" stroke="#3B3735" stroke-width="2" stroke-linecap="round" stroke-linejoin="round" stroke-miterlimit="10" d="
			M20.744,20.74v3.645c0,4.529-4.294,8.201-9.592,8.201h0C11.151,32.586,8.309,22.866,20.744,20.74z"/>
		<path fill="none" stroke="#3B3735" stroke-width="2" stroke-linecap="round" stroke-linejoin="round" stroke-miterlimit="10" d="
			M1,11.387v3.645c0,4.529,4.294,8.201,9.592,8.201h0C10.592,23.233,13.434,13.513,1,11.387z"/>
		<path fill="none" stroke="#3B3735" stroke-width="2" stroke-linecap="round" stroke-linejoin="round" stroke-miterlimit="10" d="
			M20.744,11.387v3.645c0,4.529-4.294,8.201-9.592,8.201h0C11.151,23.233,8.309,13.513,20.744,11.387z"/>
	</g>
	
		<line fill="none" stroke="#3B3735" stroke-width="2" stroke-linecap="round" stroke-linejoin="round" stroke-miterlimit="10" x1="10.949" y1="41.636" x2="10.949" y2="47.636"/>
</g>
</svg>
