<?xml version="1.0" encoding="utf-8"?>
<!-- Generator: Adobe Illustrator 17.0.0, SVG Export Plug-In . SVG Version: 6.00 Build 0)  -->
<!DOCTYPE svg PUBLIC "-//W3C//DTD SVG 1.1//EN" "http://www.w3.org/Graphics/SVG/1.1/DTD/svg11.dtd">
<svg version="1.1" id="Layer_1" xmlns="http://www.w3.org/2000/svg" xmlns:xlink="http://www.w3.org/1999/xlink" x="0px" y="0px"
	 width="35.667px" height="47px" viewBox="0 0 35.667 47" enable-background="new 0 0 35.667 47" xml:space="preserve">
<g>
	<g>
		<path fill="none" stroke="#3B3735" stroke-width="2" stroke-linecap="round" stroke-linejoin="round" stroke-miterlimit="10" d="
			M28.196,5.792c0.792,0.887,1.475,1.874,2.028,2.939"/>
		<path fill="none" stroke="#3B3735" stroke-width="2" stroke-linecap="round" stroke-linejoin="round" stroke-miterlimit="10" d="
			M9.151,3.745C11.502,2.017,14.386,1,17.503,1h0c3.146,0,6.054,1.036,8.417,2.793"/>
		<path fill="none" stroke="#3B3735" stroke-width="2" stroke-linecap="round" stroke-linejoin="round" stroke-miterlimit="10" d="
			M4.845,8.781c0.677-1.302,1.54-2.487,2.554-3.518"/>
		<path fill="none" stroke="#3B3735" stroke-width="2" stroke-linecap="round" stroke-linejoin="round" stroke-miterlimit="10" d="
			M6.833,35.404c-2.266-2.497-3.656-5.865-3.656-9.569V15.686c0-0.869,0.072-1.721,0.209-2.549"/>
		<path fill="none" stroke="#3B3735" stroke-width="2" stroke-linecap="round" stroke-linejoin="round" stroke-miterlimit="10" d="
			M24.833,38.083c-1.907,1.082-4.094,1.698-6.419,1.698h-1.822c-2.368,0-4.592-0.638-6.523-1.757"/>
		<path fill="none" stroke="#3B3735" stroke-width="2" stroke-linecap="round" stroke-linejoin="round" stroke-miterlimit="10" d="
			M31.692,13.628c0.089,0.673,0.136,1.36,0.136,2.059v10.148c0,3.691-1.379,7.047-3.631,9.542"/>
		<g>
			<path fill="none" stroke="#3B3735" stroke-width="2" stroke-linecap="round" stroke-linejoin="round" stroke-miterlimit="10" d="
				M21.92,28c0.352,0,0.682-0.18,0.863-0.482c2.346-3.917,3.883-10.701,3.883-13.77c0-4.971-4.029-9.083-9-9.083s-9,4.154-9,9.125
				c0,3.069,1.538,9.814,3.883,13.728C12.731,27.82,13.061,28,13.413,28H21.92z"/>
			<g>
				
					<line fill="none" stroke="#3B3735" stroke-width="2" stroke-linecap="round" stroke-linejoin="round" stroke-miterlimit="10" x1="15.924" y1="27.64" x2="15.924" y2="25.64"/>
				
					<line fill="none" stroke="#3B3735" stroke-width="2" stroke-linecap="round" stroke-linejoin="round" stroke-miterlimit="10" x1="19.924" y1="27.64" x2="19.924" y2="25.64"/>
			</g>
			<g>
				
					<path fill="none" stroke="#3B3735" stroke-width="2" stroke-linecap="round" stroke-linejoin="round" stroke-miterlimit="10" d="
					M9.672,9.095c0,0-3.006-1.761-8.672,1.072c0,0,1.225,4.123,7.392,4.623"/>
				
					<path fill="none" stroke="#3B3735" stroke-width="2" stroke-linecap="round" stroke-linejoin="round" stroke-miterlimit="10" d="
					M25.709,9.408c0,0,3.291-2.074,8.957,0.759c0,0-1.667,4.167-7.833,4.667"/>
			</g>
			<path fill="none" stroke="#3B3735" stroke-width="2" stroke-linecap="round" stroke-linejoin="round" stroke-miterlimit="10" d="
				M12.996,6.016c0,0-4.33-2.579-5.788-3.391c0,0-0.703,3.19,2.464,6.47"/>
			<path fill="none" stroke="#3B3735" stroke-width="2" stroke-linecap="round" stroke-linejoin="round" stroke-miterlimit="10" d="
				M22.337,6.016c0,0,4.33-2.579,5.788-3.391c0,0,0.703,3.19-2.464,6.47"/>
			<g>
				<circle fill="#3B3735" cx="13.775" cy="15.332" r="1.161"/>
				<circle fill="#3B3735" cx="21.126" cy="15.332" r="1.161"/>
			</g>
		</g>
	</g>
	<path fill="none" stroke="#3B3735" stroke-width="2" stroke-linecap="round" stroke-linejoin="round" stroke-miterlimit="10" d="
		M10.069,34v10.382c0,0.894-0.724,1.618-1.618,1.618h0c-0.894,0-1.618-0.724-1.618-1.618V30"/>
	<path fill="none" stroke="#3B3735" stroke-width="2" stroke-linecap="round" stroke-linejoin="round" stroke-miterlimit="10" d="
		M28.069,30v14.382c0,0.894-0.724,1.618-1.618,1.618h0c-0.894,0-1.618-0.724-1.618-1.618V34"/>
</g>
</svg>
