<?xml version="1.0" encoding="utf-8"?>
<!-- Generator: Adobe Illustrator 17.0.0, SVG Export Plug-In . SVG Version: 6.00 Build 0)  -->
<!DOCTYPE svg PUBLIC "-//W3C//DTD SVG 1.1//EN" "http://www.w3.org/Graphics/SVG/1.1/DTD/svg11.dtd">
<svg version="1.1" id="Layer_1" xmlns="http://www.w3.org/2000/svg" xmlns:xlink="http://www.w3.org/1999/xlink" x="0px" y="0px"
	 width="47.971px" height="48.302px" viewBox="0 0 47.971 48.302" enable-background="new 0 0 47.971 48.302" xml:space="preserve">
<g>
	<g>
		<path fill="none" stroke="#3B3735" stroke-width="2" stroke-linecap="round" stroke-linejoin="round" stroke-miterlimit="10" d="
			M23.567,30.116C37.974,30.116,38.492,1,38.492,1H9.49C9.49,1,9.16,30.116,23.567,30.116z"/>
		<path fill="none" stroke="#3B3735" stroke-width="2" stroke-linecap="round" stroke-linejoin="round" stroke-miterlimit="10" d="
			M13.658,24.245C3.568,24.245,1,14.144,1,9.139s3.645-5.346,8.142-5.346"/>
		<path fill="none" stroke="#3B3735" stroke-width="2" stroke-linecap="round" stroke-linejoin="round" stroke-miterlimit="10" d="
			M33.596,24.245c10.09,0,13.374-10.101,13.374-15.106s-3.645-5.346-8.142-5.346"/>
	</g>
	
		<line fill="none" stroke="#3B3735" stroke-width="2" stroke-linecap="round" stroke-linejoin="round" stroke-miterlimit="10" x1="22.081" y1="31" x2="22.081" y2="38"/>
	
		<line fill="none" stroke="#3B3735" stroke-width="2" stroke-linecap="round" stroke-linejoin="round" stroke-miterlimit="10" x1="26.081" y1="31" x2="26.081" y2="38"/>
	<path fill="none" stroke="#3B3735" stroke-width="2" stroke-linecap="round" stroke-linejoin="round" stroke-miterlimit="10" d="
		M32.985,47.302h-18v0c0-4.525,3.668-8.192,8.192-8.192h1.615C29.317,39.11,32.985,42.778,32.985,47.302L32.985,47.302z"/>
</g>
</svg>
