<?xml version="1.0" encoding="utf-8"?>
<!-- Generator: Adobe Illustrator 17.0.0, SVG Export Plug-In . SVG Version: 6.00 Build 0)  -->
<!DOCTYPE svg PUBLIC "-//W3C//DTD SVG 1.1//EN" "http://www.w3.org/Graphics/SVG/1.1/DTD/svg11.dtd">
<svg version="1.1" id="Layer_1" xmlns="http://www.w3.org/2000/svg" xmlns:xlink="http://www.w3.org/1999/xlink" x="0px" y="0px"
	 width="17.854px" height="48.904px" viewBox="0 0 17.854 48.904" enable-background="new 0 0 17.854 48.904" xml:space="preserve">
<g>
	<path fill="none" stroke="#3B3735" stroke-width="2" stroke-linecap="round" stroke-linejoin="round" stroke-miterlimit="10" d="
		M1.022,1c0,0-0.293,9.381,8.794,12.605s9.674,16.71,0,21.986S1.021,47.904,1.021,47.904"/>
	<path fill="none" stroke="#3B3735" stroke-width="2" stroke-linecap="round" stroke-linejoin="round" stroke-miterlimit="10" d="
		M16.832,1c0,0,0.293,9.381-8.794,12.605s-9.674,16.71,0,21.986s8.796,12.312,8.796,12.312"/>
	<g>
		
			<line fill="none" stroke="#3B3735" stroke-width="2" stroke-linecap="round" stroke-linejoin="round" stroke-miterlimit="10" x1="1.609" y1="2.991" x2="6.609" y2="2.991"/>
		
			<line fill="none" stroke="#3B3735" stroke-width="2" stroke-linecap="round" stroke-linejoin="round" stroke-miterlimit="10" x1="16.609" y1="2.991" x2="11.609" y2="2.991"/>
		
			<line fill="none" stroke="#3B3735" stroke-width="2" stroke-linecap="round" stroke-linejoin="round" stroke-miterlimit="10" x1="3.609" y1="6.991" x2="6.609" y2="6.991"/>
		
			<line fill="none" stroke="#3B3735" stroke-width="2" stroke-linecap="round" stroke-linejoin="round" stroke-miterlimit="10" x1="14.609" y1="6.991" x2="11.609" y2="6.991"/>
	</g>
	<g>
		
			<line fill="none" stroke="#3B3735" stroke-width="2" stroke-linecap="round" stroke-linejoin="round" stroke-miterlimit="10" x1="1.609" y1="45.991" x2="6.609" y2="45.991"/>
		
			<line fill="none" stroke="#3B3735" stroke-width="2" stroke-linecap="round" stroke-linejoin="round" stroke-miterlimit="10" x1="16.609" y1="45.991" x2="11.609" y2="45.991"/>
		
			<line fill="none" stroke="#3B3735" stroke-width="2" stroke-linecap="round" stroke-linejoin="round" stroke-miterlimit="10" x1="3.609" y1="41.991" x2="6.609" y2="41.991"/>
		
			<line fill="none" stroke="#3B3735" stroke-width="2" stroke-linecap="round" stroke-linejoin="round" stroke-miterlimit="10" x1="14.609" y1="41.991" x2="11.609" y2="41.991"/>
	</g>
	<g>
		
			<line fill="none" stroke="#3B3735" stroke-width="2" stroke-linecap="round" stroke-linejoin="round" stroke-miterlimit="10" x1="2.609" y1="18.991" x2="6.609" y2="18.991"/>
		
			<line fill="none" stroke="#3B3735" stroke-width="2" stroke-linecap="round" stroke-linejoin="round" stroke-miterlimit="10" x1="2.609" y1="28.991" x2="6.609" y2="28.991"/>
		
			<line fill="none" stroke="#3B3735" stroke-width="2" stroke-linecap="round" stroke-linejoin="round" stroke-miterlimit="10" x1="1.609" y1="23.991" x2="6.609" y2="23.991"/>
		
			<line fill="none" stroke="#3B3735" stroke-width="2" stroke-linecap="round" stroke-linejoin="round" stroke-miterlimit="10" x1="15.609" y1="18.991" x2="11.609" y2="18.991"/>
		
			<line fill="none" stroke="#3B3735" stroke-width="2" stroke-linecap="round" stroke-linejoin="round" stroke-miterlimit="10" x1="15.609" y1="28.991" x2="11.609" y2="28.991"/>
		
			<line fill="none" stroke="#3B3735" stroke-width="2" stroke-linecap="round" stroke-linejoin="round" stroke-miterlimit="10" x1="16.609" y1="23.991" x2="11.609" y2="23.991"/>
	</g>
</g>
</svg>
