<?xml version="1.0" encoding="utf-8"?>
<!-- Generator: Adobe Illustrator 17.0.0, SVG Export Plug-In . SVG Version: 6.00 Build 0)  -->
<!DOCTYPE svg PUBLIC "-//W3C//DTD SVG 1.1//EN" "http://www.w3.org/Graphics/SVG/1.1/DTD/svg11.dtd">
<svg version="1.1" id="Layer_1" xmlns="http://www.w3.org/2000/svg" xmlns:xlink="http://www.w3.org/1999/xlink" x="0px" y="0px"
	 width="46.315px" height="24.898px" viewBox="0 0 46.315 24.898" enable-background="new 0 0 46.315 24.898" xml:space="preserve">
<g>
	<path fill="none" stroke="#231F20" stroke-width="2" stroke-linecap="round" stroke-linejoin="round" stroke-miterlimit="10" d="
		M44.315,23.898H2c-0.552,0-1-0.448-1-1V2c0-0.552,0.448-1,1-1h42.315c0.552,0,1,0.448,1,1v20.898
		C45.315,23.45,44.867,23.898,44.315,23.898z"/>
	
		<ellipse fill="none" stroke="#231F20" stroke-width="2" stroke-linecap="round" stroke-linejoin="round" stroke-miterlimit="10" cx="23.158" cy="12.79" rx="4.95" ry="4.899"/>
	<path fill="none" stroke="#231F20" stroke-width="2" stroke-linecap="round" stroke-linejoin="round" stroke-miterlimit="10" d="
		M39.35,3.663H6.982c-0.014,2-0.74,3.13-2.74,3.403v5.785v5.785c2,0.272,2.726,0.027,2.74,2.027H39.35
		c0.103-1,0.891-1.713,2.891-2.016V12.85V7.054C40.242,6.751,39.454,5.663,39.35,3.663z"/>
</g>
</svg>
