<?xml version="1.0" encoding="utf-8"?>
<!-- Generator: Adobe Illustrator 17.0.0, SVG Export Plug-In . SVG Version: 6.00 Build 0)  -->
<!DOCTYPE svg PUBLIC "-//W3C//DTD SVG 1.1//EN" "http://www.w3.org/Graphics/SVG/1.1/DTD/svg11.dtd">
<svg version="1.1" id="Layer_1" xmlns="http://www.w3.org/2000/svg" xmlns:xlink="http://www.w3.org/1999/xlink" x="0px" y="0px"
	 width="46.315px" height="45.756px" viewBox="0 0 46.315 45.756" enable-background="new 0 0 46.315 45.756" xml:space="preserve">
<g>
	<g>
		<path fill="none" stroke="#3B3735" stroke-width="2" stroke-linecap="round" stroke-linejoin="round" stroke-miterlimit="10" d="
			M44.315,34.325H2c-0.552,0-1-0.448-1-1V12.427c0-0.552,0.448-1,1-1h42.315c0.552,0,1,0.448,1,1v20.898
			C45.315,33.877,44.867,34.325,44.315,34.325z"/>
		
			<ellipse fill="none" stroke="#3B3735" stroke-width="2" stroke-linecap="round" stroke-linejoin="round" stroke-miterlimit="10" cx="23.158" cy="23.217" rx="4.95" ry="4.899"/>
		<path fill="none" stroke="#3B3735" stroke-width="2" stroke-linecap="round" stroke-linejoin="round" stroke-miterlimit="10" d="
			M39.35,14.09H6.982c-0.014,2-0.74,3.13-2.74,3.403v5.785v5.785c2,0.272,2.726,0.027,2.74,2.027H39.35
			c0.103-1,0.891-1.713,2.891-2.016v-5.797v-5.797C40.242,17.178,39.454,16.09,39.35,14.09z"/>
	</g>
	<g>
		<path fill="none" stroke="#3B3735" stroke-width="2" stroke-linecap="round" stroke-linejoin="round" stroke-miterlimit="10" d="
			M26.448,34.465l-9.989,9.989c-0.403,0.403-1.055,0.403-1.458,0L5.01,34.463"/>
		<path fill="none" stroke="#3B3735" stroke-width="2" stroke-linecap="round" stroke-linejoin="round" stroke-miterlimit="10" d="
			M19.712,11.44L29.845,1.306c0.408-0.408,1.071-0.408,1.479,0l10.135,10.135"/>
		<path fill="none" stroke="#3B3735" stroke-width="2" stroke-linecap="round" stroke-linejoin="round" stroke-miterlimit="10" d="
			M37.158,11.442l-0.668-0.668l-3.941-3.941c-1.252,0.84-2.535,1.133-3.965-0.156l-4.763,4.763"/>
		<path fill="none" stroke="#3B3735" stroke-width="2" stroke-linecap="round" stroke-linejoin="round" stroke-miterlimit="10" d="
			M9.233,34.463l1.205,1.205l3.877,3.877c1.523-1.158,2.147-1.628,3.497-0.297l4.783-4.783"/>
	</g>
</g>
</svg>
