<?xml version="1.0" encoding="utf-8"?>
<!-- Generator: Adobe Illustrator 17.0.0, SVG Export Plug-In . SVG Version: 6.00 Build 0)  -->
<!DOCTYPE svg PUBLIC "-//W3C//DTD SVG 1.1//EN" "http://www.w3.org/Graphics/SVG/1.1/DTD/svg11.dtd">
<svg version="1.1" id="Layer_1" xmlns="http://www.w3.org/2000/svg" xmlns:xlink="http://www.w3.org/1999/xlink" x="0px" y="0px"
	 width="45.25px" height="42.685px" viewBox="0 0 45.25 42.685" enable-background="new 0 0 45.25 42.685" xml:space="preserve">
<g>
	<g>
		<path fill="none" stroke="#3B3735" stroke-width="2" stroke-linecap="round" stroke-linejoin="round" stroke-miterlimit="10" d="
			M43.25,41.685H2c-0.552,0-1-0.448-1-1V20.337c0-0.552,0.448-1,1-1h41.25c0.552,0,1,0.448,1,1v20.347
			C44.25,41.237,43.802,41.685,43.25,41.685z"/>
		
			<ellipse fill="none" stroke="#3B3735" stroke-width="2" stroke-linecap="round" stroke-linejoin="round" stroke-miterlimit="10" cx="22.625" cy="30.844" rx="4.831" ry="4.782"/>
		<path fill="none" stroke="#3B3735" stroke-width="2" stroke-linecap="round" stroke-linejoin="round" stroke-miterlimit="10" d="
			M38.429,21.45H6.838c-0.013,2-0.596,3.541-2.596,3.807v5.646v5.646c2,0.266,2.583-0.099,2.596,1.901h31.591
			c0.101-1,1.813-1.594,2.813-1.89v-5.657v-5.657C40.242,24.95,38.53,23.45,38.429,21.45z"/>
	</g>
	<g>
		<path fill="none" stroke="#3B3735" stroke-width="2" stroke-linecap="round" stroke-linejoin="round" stroke-miterlimit="10" d="
			M40.043,19.338c0.516-1.444,0.798-2.999,0.798-4.62C40.841,7.141,34.699,1,27.123,1S13.406,7.141,13.406,14.717
			c0,1.622,0.282,3.178,0.798,4.623"/>
		<path fill="none" stroke="#3B3735" stroke-width="2" stroke-linecap="round" stroke-linejoin="round" stroke-miterlimit="10" d="
			M33.735,19.338c0.281-1.444,0.434-2.999,0.434-4.62C34.17,7.141,30.825,1,26.7,1s-7.47,6.141-7.47,13.717
			c0,1.621,0.153,3.177,0.434,4.62"/>
		
			<line fill="none" stroke="#3B3735" stroke-width="2" stroke-linecap="round" stroke-linejoin="round" stroke-miterlimit="10" x1="39.242" y1="10.45" x2="14.242" y2="10.45"/>
		
			<line fill="none" stroke="#3B3735" stroke-width="2" stroke-linecap="round" stroke-linejoin="round" stroke-miterlimit="10" x1="27.242" y1="1.45" x2="27.242" y2="18.45"/>
	</g>
</g>
</svg>
