<?xml version="1.0" encoding="utf-8"?>
<!-- Generator: Adobe Illustrator 17.0.0, SVG Export Plug-In . SVG Version: 6.00 Build 0)  -->
<!DOCTYPE svg PUBLIC "-//W3C//DTD SVG 1.1//EN" "http://www.w3.org/Graphics/SVG/1.1/DTD/svg11.dtd">
<svg version="1.1" id="Layer_1" xmlns="http://www.w3.org/2000/svg" xmlns:xlink="http://www.w3.org/1999/xlink" x="0px" y="0px"
	 width="30.113px" height="30.113px" viewBox="0 0 30.113 30.113" enable-background="new 0 0 30.113 30.113" xml:space="preserve">
<g>
	
		<circle fill="none" stroke="#3B3735" stroke-width="2" stroke-linecap="round" stroke-linejoin="round" stroke-miterlimit="10" cx="15.057" cy="15.057" r="14.057"/>
	<path fill="none" stroke="#3B3735" stroke-width="2" stroke-linecap="round" stroke-linejoin="round" stroke-miterlimit="10" d="
		M15.057,1c-0.271,0-0.536,0.025-0.804,0.041c0.203,2.046,0.997,3.916,2.211,5.44L16.46,6.484c0,0-1.621,2.667,1.103,5.282
		c2.724,2.615,4.359-0.109,6.211,1.743c1.852,1.852,5.339,1.547,5.339,1.547C29.113,7.293,22.82,1,15.057,1z"/>
	<path fill="none" stroke="#3B3735" stroke-width="2" stroke-linecap="round" stroke-linejoin="round" stroke-miterlimit="10" d="
		M1.551,18.951c0,0,3.372-1.424,5.006,0c1.634,1.424,12.64,0.936,11.223,9.741"/>
	<path fill="none" stroke="#3B3735" stroke-width="2" stroke-linecap="round" stroke-linejoin="round" stroke-miterlimit="10" d="
		M24.688,19.92c-0.239-1.115-1.163-1.989-2.297-2.114c-0.518-0.057-1.015,0.038-1.233,0.512c-0.545,1.185,0.872,2.492,0,3.473
		c-0.872,0.981,1.09,2.615,2.833,0.763C24.802,21.693,24.859,20.718,24.688,19.92z"/>
	<path fill="none" stroke="#3B3735" stroke-width="2" stroke-linecap="round" stroke-linejoin="round" stroke-miterlimit="10" d="
		M1.551,11.657c1.719,3.378,5.333,1.634,8.602,1.142c3.269-0.493,1.199-2.232,0.654-4.761S6.993,7.19,6.993,7.19
		s1.706-2.145,0.907-4.233"/>
</g>
</svg>
