<?xml version="1.0" encoding="utf-8"?>
<!-- Generator: Adobe Illustrator 17.0.0, SVG Export Plug-In . SVG Version: 6.00 Build 0)  -->
<!DOCTYPE svg PUBLIC "-//W3C//DTD SVG 1.1//EN" "http://www.w3.org/Graphics/SVG/1.1/DTD/svg11.dtd">
<svg version="1.1" id="Layer_1" xmlns="http://www.w3.org/2000/svg" xmlns:xlink="http://www.w3.org/1999/xlink" x="0px" y="0px"
	 width="42.587px" height="42.587px" viewBox="0 0 42.587 42.587" enable-background="new 0 0 42.587 42.587" xml:space="preserve">
<g>
	<path fill="none" stroke="#3B3735" stroke-width="2" stroke-linecap="round" stroke-linejoin="round" stroke-miterlimit="10" d="
		M12.294,18.467v8.57c0,1.207,1.286,2.387,2.493,2.387h13.321c1.207,0,2.186-1.179,2.186-2.387v-8.57H12.294z"/>
	
		<rect x="18.554" y="29.423" fill="none" stroke="#3B3735" stroke-width="2" stroke-linecap="round" stroke-linejoin="round" stroke-miterlimit="10" width="5.478" height="5.478"/>
	<path fill="none" stroke="#3B3735" stroke-width="2" stroke-linecap="round" stroke-linejoin="round" stroke-miterlimit="10" d="
		M21.685,34.902v6.685h-0.391C10.086,41.587,1,32.501,1,21.294S10.086,1,21.294,1s20.294,9.086,20.294,20.294
		c0,7.143-3.691,13.425-9.27,17.041"/>
	<path fill="none" stroke="#3B3735" stroke-width="2" stroke-linecap="round" stroke-linejoin="round" stroke-miterlimit="10" d="
		M13.859,18.467v-8.164c0-0.564,0.56-1.227,1.124-1.227h0.408c0.564,0,0.816,0.663,0.816,1.227v8.164"/>
	<path fill="none" stroke="#3B3735" stroke-width="2" stroke-linecap="round" stroke-linejoin="round" stroke-miterlimit="10" d="
		M26.381,18.467v-8.164c0-0.564,0.287-1.227,0.851-1.227h0.408c0.564,0,1.089,0.663,1.089,1.227v8.164"/>
	
		<polyline fill="none" stroke="#3B3735" stroke-width="2" stroke-linecap="round" stroke-linejoin="round" stroke-miterlimit="10" points="
		20.12,26.293 20.707,24.141 22.467,24.728 23.225,21.989 	"/>
</g>
</svg>
