<?xml version="1.0" encoding="utf-8"?>
<!-- Generator: Adobe Illustrator 17.0.0, SVG Export Plug-In . SVG Version: 6.00 Build 0)  -->
<!DOCTYPE svg PUBLIC "-//W3C//DTD SVG 1.1//EN" "http://www.w3.org/Graphics/SVG/1.1/DTD/svg11.dtd">
<svg version="1.1" id="Layer_1" xmlns="http://www.w3.org/2000/svg" xmlns:xlink="http://www.w3.org/1999/xlink" x="0px" y="0px"
	 width="50px" height="41.123px" viewBox="0 0 50 41.123" enable-background="new 0 0 50 41.123" xml:space="preserve">
<g>
	<g>
		
			<circle fill="none" stroke="#3B3735" stroke-width="2" stroke-linecap="round" stroke-linejoin="round" stroke-miterlimit="10" cx="11.727" cy="26.455" r="4.454"/>
		<path fill="none" stroke="#3B3735" stroke-width="2" stroke-linecap="round" stroke-linejoin="round" stroke-miterlimit="10" d="
			M18.227,40.123v-3.889c0-2.823-2.288-5.111-5.111-5.111H9.91c-2.586,0-4.683,2.097-4.683,4.683v4.317H18.227z"/>
	</g>
	<g>
		
			<circle fill="none" stroke="#3B3735" stroke-width="2" stroke-linecap="round" stroke-linejoin="round" stroke-miterlimit="10" cx="25" cy="26.455" r="4.454"/>
		<path fill="none" stroke="#3B3735" stroke-width="2" stroke-linecap="round" stroke-linejoin="round" stroke-miterlimit="10" d="
			M31.5,40.123v-3.889c0-2.823-2.288-5.111-5.111-5.111h-3.206c-2.586,0-4.683,2.097-4.683,4.683v4.317H31.5z"/>
	</g>
	<g>
		
			<circle fill="none" stroke="#3B3735" stroke-width="2" stroke-linecap="round" stroke-linejoin="round" stroke-miterlimit="10" cx="25" cy="10.559" r="4.454"/>
		<path fill="none" stroke="#3B3735" stroke-width="2" stroke-linecap="round" stroke-linejoin="round" stroke-miterlimit="10" d="
			M31.5,20.338c0-2.823-2.288-5.111-5.111-5.111h-3.206c-2.586,0-4.683,2.097-4.683,4.683"/>
	</g>
	<g>
		
			<circle fill="none" stroke="#3B3735" stroke-width="2" stroke-linecap="round" stroke-linejoin="round" stroke-miterlimit="10" cx="38" cy="26.455" r="4.454"/>
		<path fill="none" stroke="#3B3735" stroke-width="2" stroke-linecap="round" stroke-linejoin="round" stroke-miterlimit="10" d="
			M44.5,40.123v-3.889c0-2.823-2.288-5.111-5.111-5.111h-3.206c-2.586,0-4.683,2.097-4.683,4.683v4.317H44.5z"/>
	</g>
	
		<polyline fill="none" stroke="#3B3735" stroke-width="2" stroke-linecap="round" stroke-linejoin="round" stroke-miterlimit="10" points="
		5.384,34.623 1,34.623 1,1 49,1 49,34.623 44.5,34.623 	"/>
</g>
</svg>
