<?xml version="1.0" encoding="utf-8"?>
<!-- Generator: Adobe Illustrator 17.0.0, SVG Export Plug-In . SVG Version: 6.00 Build 0)  -->
<!DOCTYPE svg PUBLIC "-//W3C//DTD SVG 1.1//EN" "http://www.w3.org/Graphics/SVG/1.1/DTD/svg11.dtd">
<svg version="1.1" id="Layer_1" xmlns="http://www.w3.org/2000/svg" xmlns:xlink="http://www.w3.org/1999/xlink" x="0px" y="0px"
	 width="36.831px" height="39.145px" viewBox="0 0 36.831 39.145" enable-background="new 0 0 36.831 39.145" xml:space="preserve">
<g>
	<circle fill="none" stroke="#231F20" stroke-width="1.5001" stroke-miterlimit="2.6131" cx="8.896" cy="28.822" r="8.146"/>
	<circle fill="none" stroke="#231F20" stroke-width="1.5001" stroke-miterlimit="2.6131" cx="27.935" cy="10.323" r="8.146"/>
	
		<path fill="none" stroke="#231F20" stroke-width="1.5001" stroke-linecap="round" stroke-linejoin="round" stroke-miterlimit="2.6131" d="
		M1.747,15.978c0-6.599,5.351-11.95,11.95-11.95"/>
	
		<polyline fill="none" stroke="#231F20" stroke-width="1.5001" stroke-linecap="round" stroke-linejoin="round" stroke-miterlimit="2.6131" points="
		9.087,0.75 13.697,4.028 10.419,8.638 	"/>
	
		<path fill="none" stroke="#231F20" stroke-width="1.5001" stroke-linecap="round" stroke-linejoin="round" stroke-miterlimit="2.6131" d="
		M35.085,23.168c0,6.598-5.351,11.95-11.95,11.95"/>
	
		<polyline fill="none" stroke="#231F20" stroke-width="1.5001" stroke-linecap="round" stroke-linejoin="round" stroke-miterlimit="2.6131" points="
		27.745,38.395 23.135,35.117 26.413,30.507 	"/>
	
		<path fill="none" stroke="#231F20" stroke-width="1.5001" stroke-linecap="round" stroke-linejoin="round" stroke-miterlimit="2.6131" d="
		M31.56,13.326c-1.658,1.658-4.348,1.658-6.006,0c-1.658-1.658-1.658-4.348,0-6.006c1.658-1.658,4.348-1.658,6.006,0"/>
	
		<path fill="none" stroke="#231F20" stroke-width="1.5001" stroke-linecap="round" stroke-linejoin="round" stroke-miterlimit="2.6131" d="
		M11.812,26.522c0-1.972-3.123-3.09-4.978-1.626c-1.138,0.898-1.138,2.355,0,3.253c0.626,0.494,1.313,0.574,2.062,0.674
		c0.704,0.094,1.473,0.209,2.062,0.674c1.138,0.898,1.138,2.355,0,3.253c-1.854,1.463-4.978,0.346-4.978-1.626"/>
	
		<line fill="none" stroke="#231F20" stroke-width="1.5001" stroke-linecap="round" stroke-miterlimit="2.6131" x1="23.008" y1="9.056" x2="26.958" y2="9.056"/>
	
		<line fill="none" stroke="#231F20" stroke-width="1.5001" stroke-linecap="round" stroke-miterlimit="2.6131" x1="23.008" y1="11.59" x2="26.958" y2="11.59"/>
	
		<line fill="none" stroke="#231F20" stroke-width="1.5001" stroke-linecap="round" stroke-miterlimit="2.6131" x1="8.896" y1="23.119" x2="8.896" y2="34.525"/>
</g>
</svg>
