<?xml version="1.0" encoding="iso-8859-1"?>
<!-- Generator: Adobe Illustrator 17.0.0, SVG Export Plug-In . SVG Version: 6.00 Build 0)  -->
<!DOCTYPE svg PUBLIC "-//W3C//DTD SVG 1.1//EN" "http://www.w3.org/Graphics/SVG/1.1/DTD/svg11.dtd">
<svg version="1.1" id="Layer_1" xmlns="http://www.w3.org/2000/svg" xmlns:xlink="http://www.w3.org/1999/xlink" x="0px" y="0px"
	 width="39.331px" height="41.739px" viewBox="0 0 39.331 41.739" style="enable-background:new 0 0 39.331 41.739;"
	 xml:space="preserve">
<g>
	<g>
		<g>
			<path style="fill:none;stroke:#3B3735;stroke-width:2;stroke-linecap:round;stroke-linejoin:round;stroke-miterlimit:10;" d="
				M37.949,15.973C35.912,5.872,26.074-0.665,15.973,1.372C5.872,3.408-0.665,15.677,1.372,25.778"/>
		</g>
	</g>
	<g>
		<g>
			<path style="fill:none;stroke:#3B3735;stroke-width:2;stroke-linecap:round;stroke-linejoin:round;stroke-miterlimit:10;" d="
				M38.327,22.466c0.026-1.338-0.093-5.129-0.368-6.495"/>
			<path style="fill:none;stroke:#3B3735;stroke-width:2;stroke-linecap:round;stroke-linejoin:round;stroke-miterlimit:10;" d="
				M1.382,25.776c0.054,0.268,0.114,0.533,0.179,0.796"/>
		</g>
	</g>
	<path style="fill:none;stroke:#3B3735;stroke-width:2;stroke-linecap:round;stroke-linejoin:round;stroke-miterlimit:10;" d="
		M14.844,40.117c4.18-4.757,6.17-13.771,4.822-20.457"/>
	<path style="fill:none;stroke:#3B3735;stroke-width:2;stroke-linecap:round;stroke-linejoin:round;stroke-miterlimit:10;" d="
		M20.257,40.739c3.777-5.519,5.408-14.928,3.981-22.001l0.005-0.002c-0.51-2.531-2.976-4.169-5.507-3.659
		c-2.531,0.51-4.169,2.976-3.658,5.507l0.015-0.003c1.162,5.764-0.865,13.861-4.865,17.604"/>
	<path style="fill:none;stroke:#3B3735;stroke-width:2;stroke-linecap:round;stroke-linejoin:round;stroke-miterlimit:10;" d="
		M26.354,39.506c2.812-5.773,3.823-14.91,2.456-21.69l0.001-0.001c-1.019-5.054-5.942-8.325-10.996-7.306
		c-5.054,1.019-8.325,5.942-7.306,10.997l0.011-0.002c0.885,4.388-0.818,11.125-4.055,13.777"/>
	<path style="fill:none;stroke:#3B3735;stroke-width:2;stroke-linecap:round;stroke-linejoin:round;stroke-miterlimit:10;" d="
		M32.904,35.232c1.343-5.037,1.579-12.882,0.479-18.338l-0.003,0C31.853,9.316,24.472,4.412,16.894,5.94
		C9.317,7.468,4.413,17.279,5.941,24.857l0.007-0.002c0.523,2.594-0.46,5.142-2.346,6.74"/>
</g>
</svg>
