<?xml version="1.0" encoding="utf-8"?>
<!-- Generator: Adobe Illustrator 17.0.0, SVG Export Plug-In . SVG Version: 6.00 Build 0)  -->
<!DOCTYPE svg PUBLIC "-//W3C//DTD SVG 1.1//EN" "http://www.w3.org/Graphics/SVG/1.1/DTD/svg11.dtd">
<svg version="1.1" id="Layer_1" xmlns="http://www.w3.org/2000/svg" xmlns:xlink="http://www.w3.org/1999/xlink" x="0px" y="0px"
	 width="48.75px" height="49.257px" viewBox="0 0 48.75 49.257" enable-background="new 0 0 48.75 49.257" xml:space="preserve">
<g>
	<g>
		<path fill="none" stroke="#3B3735" stroke-width="2" stroke-linecap="round" stroke-linejoin="round" stroke-miterlimit="10" d="
			M14,46.269c0,0.552-0.448,1-1,1H2c-0.552,0-1-0.448-1-1v-44c0-0.552,0.448-1,1-1h11c0.552,0,1,0.448,1,1V46.269z"/>
		
			<circle fill="none" stroke="#3B3735" stroke-width="2" stroke-linecap="round" stroke-linejoin="round" stroke-miterlimit="10" cx="7.263" cy="8.942" r="2.687"/>
		<g>
			
				<rect x="1" y="29.269" fill="none" stroke="#3B3735" stroke-width="2" stroke-linecap="round" stroke-linejoin="round" stroke-miterlimit="10" width="13" height="8"/>
			
				<rect x="1" y="25.269" fill="none" stroke="#3B3735" stroke-width="2" stroke-linecap="round" stroke-linejoin="round" stroke-miterlimit="10" width="13" height="16"/>
		</g>
	</g>
	<g>
		<path fill="none" stroke="#3B3735" stroke-width="2" stroke-linecap="round" stroke-linejoin="round" stroke-miterlimit="10" d="
			M27,46.269c0,0.552-0.448,1-1,1H15c-0.552,0-1-0.448-1-1v-44c0-0.552,0.448-1,1-1h11c0.552,0,1,0.448,1,1V46.269z"/>
		
			<circle fill="none" stroke="#3B3735" stroke-width="2" stroke-linecap="round" stroke-linejoin="round" stroke-miterlimit="10" cx="20.263" cy="8.942" r="2.687"/>
		<g>
			
				<rect x="14" y="29.269" fill="none" stroke="#3B3735" stroke-width="2" stroke-linecap="round" stroke-linejoin="round" stroke-miterlimit="10" width="13" height="8"/>
			
				<rect x="14" y="25.269" fill="none" stroke="#3B3735" stroke-width="2" stroke-linecap="round" stroke-linejoin="round" stroke-miterlimit="10" width="13" height="16"/>
		</g>
	</g>
	<g>
		<path fill="none" stroke="#3B3735" stroke-width="2" stroke-linecap="round" stroke-linejoin="round" stroke-miterlimit="10" d="
			M47.734,45.114c0.099,0.543-0.262,1.064-0.805,1.163l-10.823,1.965c-0.543,0.099-1.064-0.262-1.163-0.805L27.085,4.143
			C26.986,3.6,27.347,3.079,27.89,2.981l10.823-1.965c0.543-0.099,1.064,0.262,1.163,0.805L47.734,45.114z"/>
		
			<circle fill="none" stroke="#3B3735" stroke-width="2" stroke-linecap="round" stroke-linejoin="round" stroke-miterlimit="10" cx="34.464" cy="9.22" r="2.687"/>
		<g>
			
				<rect x="32.517" y="29.484" transform="matrix(0.9839 -0.1786 0.1786 0.9839 -5.3527 7.5064)" fill="none" stroke="#3B3735" stroke-width="2" stroke-linecap="round" stroke-linejoin="round" stroke-miterlimit="10" width="13" height="8"/>
			
				<rect x="32.517" y="25.484" transform="matrix(0.9839 -0.1786 0.1786 0.9839 -5.3527 7.5064)" fill="none" stroke="#3B3735" stroke-width="2" stroke-linecap="round" stroke-linejoin="round" stroke-miterlimit="10" width="13" height="16"/>
		</g>
	</g>
</g>
</svg>
