<?xml version="1.0" encoding="utf-8"?>
<!-- Generator: Adobe Illustrator 17.0.0, SVG Export Plug-In . SVG Version: 6.00 Build 0)  -->
<!DOCTYPE svg PUBLIC "-//W3C//DTD SVG 1.1//EN" "http://www.w3.org/Graphics/SVG/1.1/DTD/svg11.dtd">
<svg version="1.1" id="Layer_1" xmlns="http://www.w3.org/2000/svg" xmlns:xlink="http://www.w3.org/1999/xlink" x="0px" y="0px"
	 width="43.046px" height="49px" viewBox="0 0 43.046 49" enable-background="new 0 0 43.046 49" xml:space="preserve">
<g>
	<path fill="none" stroke="#3B3735" stroke-width="2" stroke-linecap="round" stroke-linejoin="round" stroke-miterlimit="10" d="
		M33,44V2.36C33,1.808,32.396,1,31.917,1H5.902C5.423,1,5,1.808,5,2.36V44H33z"/>
	
		<rect x="9" y="6" fill="none" stroke="#3B3735" stroke-width="2" stroke-linecap="round" stroke-linejoin="round" stroke-miterlimit="10" width="20" height="15"/>
	
		<line fill="none" stroke="#3B3735" stroke-width="2" stroke-linecap="round" stroke-linejoin="round" stroke-miterlimit="10" x1="9" y1="26" x2="15" y2="26"/>
	
		<line fill="none" stroke="#3B3735" stroke-width="2" stroke-linecap="round" stroke-linejoin="round" stroke-miterlimit="10" x1="22" y1="26" x2="28" y2="26"/>
	
		<rect x="1" y="44" fill="none" stroke="#3B3735" stroke-width="2" stroke-linecap="round" stroke-linejoin="round" stroke-miterlimit="10" width="36" height="4"/>
	<path fill="none" stroke="#3B3735" stroke-width="2" stroke-linecap="round" stroke-linejoin="round" stroke-miterlimit="10" d="
		M33.068,14.443c0,0,2.932,0.917,2.932,3.25s0,0.667,0,0.667v10c0,0-0.042,3.667,3.292,3.667c3.333,0,2.708-2.917,2.708-2.917V10.36
		c0,0,0.137-3.833-4.443-4.167"/>
	
		<ellipse fill="none" stroke="#3B3735" stroke-width="2" stroke-linecap="round" stroke-linejoin="round" stroke-miterlimit="10" cx="39.499" cy="13.214" rx="2.16" ry="2.229"/>
</g>
</svg>
