<?xml version="1.0" encoding="utf-8"?>
<!-- Generator: Adobe Illustrator 17.0.0, SVG Export Plug-In . SVG Version: 6.00 Build 0)  -->
<!DOCTYPE svg PUBLIC "-//W3C//DTD SVG 1.1//EN" "http://www.w3.org/Graphics/SVG/1.1/DTD/svg11.dtd">
<svg version="1.1" id="Layer_1" xmlns="http://www.w3.org/2000/svg" xmlns:xlink="http://www.w3.org/1999/xlink" x="0px" y="0px"
	 width="43.046px" height="49px" viewBox="0 0 43.046 49" enable-background="new 0 0 43.046 49" xml:space="preserve">
<g>
	<path fill="none" stroke="#3B3735" stroke-width="2" stroke-linecap="round" stroke-linejoin="round" stroke-miterlimit="10" d="
		M33,44V2c0-0.552-0.513-1-0.992-1H5.992C5.513,1,5,1.448,5,2v42H33z"/>
	
		<rect x="9" y="6" fill="none" stroke="#3B3735" stroke-width="2" stroke-linecap="round" stroke-linejoin="round" stroke-miterlimit="10" width="20" height="15"/>
	
		<rect x="1" y="44" fill="none" stroke="#3B3735" stroke-width="2" stroke-linecap="round" stroke-linejoin="round" stroke-miterlimit="10" width="36" height="4"/>
	<path fill="none" stroke="#3B3735" stroke-width="2" stroke-linecap="round" stroke-linejoin="round" stroke-miterlimit="10" d="
		M33.113,14.083c0,0,2.887,0.917,2.887,3.25S36,18,36,18v10c0,0-0.042,3.667,3.292,3.667c3.333,0,2.708-2.917,2.708-2.917V10
		c0,0,0.16-3.833-4.42-4.167"/>
	
		<ellipse fill="none" stroke="#3B3735" stroke-width="2" stroke-linecap="round" stroke-linejoin="round" stroke-miterlimit="10" cx="39.59" cy="12.854" rx="2.16" ry="2.229"/>
</g>
</svg>
