<?xml version="1.0" encoding="utf-8"?>
<!-- Generator: Adobe Illustrator 17.0.0, SVG Export Plug-In . SVG Version: 6.00 Build 0)  -->
<!DOCTYPE svg PUBLIC "-//W3C//DTD SVG 1.1//EN" "http://www.w3.org/Graphics/SVG/1.1/DTD/svg11.dtd">
<svg version="1.1" id="Layer_1" xmlns="http://www.w3.org/2000/svg" xmlns:xlink="http://www.w3.org/1999/xlink" x="0px" y="0px"
	 width="45.89px" height="48px" viewBox="0 0 45.89 48" enable-background="new 0 0 45.89 48" xml:space="preserve">
<g>
	<path fill="none" stroke="#3B3735" stroke-width="2" stroke-linecap="round" stroke-linejoin="round" stroke-miterlimit="10" d="
		M41.568,30.715c0-0.915-0.094-1.807-0.264-2.672l3.512-1.732l-3.165-6.417l-3.227,1.738c-1.764-2.004-4.455-3.485-6.455-4.198V14
		h-7v3.433c-3,0.713-5.36,2.195-7.123,4.198l-3.709-1.738l-3.259,6.417l3.465,1.732c-0.17,0.865-0.287,1.757-0.287,2.672
		s0.082,1.807,0.252,2.672l-3.518,1.732l3.163,6.417l3.894-1.738c1.764,2.004,4.122,3.485,7.122,4.198V47h7v-3.003
		c2-0.713,4.691-2.195,6.455-4.198l3.375,1.738l3.092-6.417l-3.549-1.732C41.511,32.522,41.568,31.629,41.568,30.715z"/>
	
		<circle fill="none" stroke="#3B3735" stroke-width="2" stroke-linecap="round" stroke-linejoin="round" stroke-miterlimit="10" cx="27.719" cy="30.64" r="6.826"/>
	<path fill="none" stroke="#3B3735" stroke-width="2" stroke-linecap="round" stroke-linejoin="round" stroke-miterlimit="10" d="
		M16.95,9.785c0-0.474-0.049-0.936-0.137-1.385l1.82-0.898l-1.64-3.325l-1.676,0.9c-0.914-1.038-2.348-1.806-3.348-2.175V1h-4v1.903
		c-1,0.37-2.586,1.137-3.5,2.175l-1.827-0.9L1.001,7.503L2.82,8.4C2.732,8.848,2.683,9.311,2.683,9.785s0.049,0.936,0.137,1.385
		L1,12.067l1.64,3.325l1.828-0.9c0.914,1.038,2.5,1.806,3.5,2.175V18h4v-1.334c1-0.37,2.435-1.137,3.348-2.175l1.751,0.9
		l1.603-3.325l-1.838-0.898C16.92,10.721,16.95,10.259,16.95,9.785z"/>
	
		<circle fill="none" stroke="#3B3735" stroke-width="2" stroke-linecap="round" stroke-linejoin="round" stroke-miterlimit="10" cx="9.775" cy="9.746" r="3.537"/>
</g>
</svg>
