<?xml version="1.0" encoding="utf-8"?>
<!-- Generator: Adobe Illustrator 17.0.0, SVG Export Plug-In . SVG Version: 6.00 Build 0)  -->
<!DOCTYPE svg PUBLIC "-//W3C//DTD SVG 1.1//EN" "http://www.w3.org/Graphics/SVG/1.1/DTD/svg11.dtd">
<svg version="1.1" id="Layer_1" xmlns="http://www.w3.org/2000/svg" xmlns:xlink="http://www.w3.org/1999/xlink" x="0px" y="0px"
	 width="41.776px" height="31.796px" viewBox="0 0 41.776 31.796" enable-background="new 0 0 41.776 31.796" xml:space="preserve">
<g>
	
		<path fill="none" stroke="#231F20" stroke-width="1.5001" stroke-linecap="round" stroke-linejoin="round" stroke-miterlimit="2.6131" d="
		M41.015,21.19l0-17.962c0-2.236-2.893-3.687-3.978-1.098"/>
	
		<path fill="none" stroke="#231F20" stroke-width="1.5001" stroke-linecap="round" stroke-linejoin="round" stroke-miterlimit="2.6131" d="
		M0.762,21.19l0-17.962c0-2.236,2.893-3.687,3.978-1.098"/>
	<g>
		<path fill="none" stroke="#231F20" stroke-width="1.5001" stroke-miterlimit="2.6131" d="M9.663,16.943
			c4.921,0,8.913,0.268,8.913,5.19c0,4.921-3.991,8.913-8.913,8.913S0.75,27.055,0.75,22.133C0.75,17.212,4.741,16.943,9.663,16.943
			z"/>
		<path fill="none" stroke="#231F20" stroke-width="1.5001" stroke-miterlimit="2.6131" d="M32.114,16.943
			c-4.921,0-8.913,0.268-8.913,5.19c0,4.921,3.991,8.913,8.913,8.913c4.922,0,8.913-3.991,8.913-8.913
			C41.026,17.212,37.035,16.943,32.114,16.943z"/>
		<path fill="none" stroke="#231F20" stroke-width="1.5001" stroke-miterlimit="2.6131" d="M18.499,21.035
			c0.672-0.385,1.497-0.613,2.389-0.613c0.892,0,1.716,0.227,2.389,0.612"/>
		
			<path fill="none" stroke="#231F20" stroke-width="1.5001" stroke-linecap="round" stroke-linejoin="round" stroke-miterlimit="2.6131" d="
			M15.75,24.042c-0.451,1.878-1.733,3.434-3.436,4.255"/>
		
			<path fill="none" stroke="#231F20" stroke-width="1.5001" stroke-linecap="round" stroke-linejoin="round" stroke-miterlimit="2.6131" d="
			M38.16,24.042c-0.451,1.878-1.733,3.434-3.437,4.255"/>
	</g>
</g>
</svg>
