<?xml version="1.0" encoding="utf-8"?>
<!-- Generator: Adobe Illustrator 17.0.0, SVG Export Plug-In . SVG Version: 6.00 Build 0)  -->
<!DOCTYPE svg PUBLIC "-//W3C//DTD SVG 1.1//EN" "http://www.w3.org/Graphics/SVG/1.1/DTD/svg11.dtd">
<svg version="1.1" id="Layer_1" xmlns="http://www.w3.org/2000/svg" xmlns:xlink="http://www.w3.org/1999/xlink" x="0px" y="0px"
	 width="45.861px" height="45.861px" viewBox="0 0 45.861 45.861" enable-background="new 0 0 45.861 45.861" xml:space="preserve">
<g>
	<g>
		
			<circle fill="none" stroke="#3B3735" stroke-width="2" stroke-linecap="round" stroke-linejoin="round" stroke-miterlimit="10" cx="22.93" cy="22.93" r="21.93"/>
		<path fill="none" stroke="#3B3735" stroke-width="2" stroke-linecap="round" stroke-linejoin="round" stroke-miterlimit="10" d="
			M34.612,27.508c0.171-1.476,0.261-3.008,0.261-4.577C34.872,10.819,29.526,1,22.93,1c-4.677,0-8.725,4.937-10.685,12.127"/>
		<path fill="none" stroke="#3B3735" stroke-width="2" stroke-linecap="round" stroke-linejoin="round" stroke-miterlimit="10" d="
			M11.192,18.878c-0.134,1.313-0.203,2.668-0.203,4.052c0,12.112,5.347,21.93,11.942,21.93c4.542,0,8.492-4.657,10.511-11.512"/>
		
			<line fill="none" stroke="#3B3735" stroke-width="2" stroke-linecap="round" stroke-linejoin="round" stroke-miterlimit="10" x1="9.212" y1="16.066" x2="2.981" y2="16.066"/>
		
			<line fill="none" stroke="#3B3735" stroke-width="2" stroke-linecap="round" stroke-linejoin="round" stroke-miterlimit="10" x1="43.59" y1="16.066" x2="15.182" y2="16.066"/>
		
			<line fill="none" stroke="#3B3735" stroke-width="2" stroke-linecap="round" stroke-linejoin="round" stroke-miterlimit="10" x1="19.946" y1="30.923" x2="2.981" y2="30.923"/>
		
			<line fill="none" stroke="#3B3735" stroke-width="2" stroke-linecap="round" stroke-linejoin="round" stroke-miterlimit="10" x1="30.586" y1="30.923" x2="25.916" y2="30.923"/>
		
			<line fill="none" stroke="#3B3735" stroke-width="2" stroke-linecap="round" stroke-linejoin="round" stroke-miterlimit="10" x1="42.599" y1="30.923" x2="37.165" y2="30.923"/>
		
			<line fill="none" stroke="#3B3735" stroke-width="2" stroke-linecap="round" stroke-linejoin="round" stroke-miterlimit="10" x1="22.79" y1="33.907" x2="22.79" y2="44.789"/>
		
			<line fill="none" stroke="#3B3735" stroke-width="2" stroke-linecap="round" stroke-linejoin="round" stroke-miterlimit="10" x1="22.79" y1="1.209" x2="22.79" y2="27.938"/>
	</g>
	
		<circle fill="none" stroke="#3B3735" stroke-width="2" stroke-linecap="round" stroke-linejoin="round" stroke-miterlimit="10" cx="22.93" cy="30.923" r="2.987"/>
	
		<circle fill="none" stroke="#3B3735" stroke-width="2" stroke-linecap="round" stroke-linejoin="round" stroke-miterlimit="10" cx="12.197" cy="16.066" r="2.987"/>
	
		<circle fill="none" stroke="#3B3735" stroke-width="2" stroke-linecap="round" stroke-linejoin="round" stroke-miterlimit="10" cx="34.214" cy="30.465" r="2.987"/>
</g>
</svg>
