<?xml version="1.0" encoding="utf-8"?>
<!-- Generator: Adobe Illustrator 17.0.0, SVG Export Plug-In . SVG Version: 6.00 Build 0)  -->
<!DOCTYPE svg PUBLIC "-//W3C//DTD SVG 1.1//EN" "http://www.w3.org/Graphics/SVG/1.1/DTD/svg11.dtd">
<svg version="1.1" id="Layer_1" xmlns="http://www.w3.org/2000/svg" xmlns:xlink="http://www.w3.org/1999/xlink" x="0px" y="0px"
	 width="47.476px" height="41.36px" viewBox="0 0 47.476 41.36" enable-background="new 0 0 47.476 41.36" xml:space="preserve">
<g>
	<g>
		<path fill="none" stroke="#3B3735" stroke-width="2" stroke-linecap="round" stroke-linejoin="round" stroke-miterlimit="10" d="
			M15.46,40.36H1.729c-0.489,0-0.839-0.589-0.698-1.172l1.745-7.171c0.093-0.383,0.376-0.645,0.698-0.645h10.242
			c0.321,0,0.604,0.262,0.698,0.645l1.745,7.171C16.3,39.771,15.949,40.36,15.46,40.36z"/>
		<path fill="none" stroke="#3B3735" stroke-width="2" stroke-linecap="round" stroke-linejoin="round" stroke-miterlimit="10" d="
			M30.65,40.36H16.919c-0.489,0-0.839-0.589-0.698-1.172l1.745-7.171c0.093-0.383,0.376-0.645,0.698-0.645h10.242
			c0.321,0,0.604,0.262,0.698,0.645l1.745,7.171C31.489,39.771,31.139,40.36,30.65,40.36z"/>
		<path fill="none" stroke="#3B3735" stroke-width="2" stroke-linecap="round" stroke-linejoin="round" stroke-miterlimit="10" d="
			M45.746,40.36H32.015c-0.489,0-0.839-0.589-0.698-1.172l1.745-7.171c0.093-0.383,0.376-0.645,0.698-0.645h10.242
			c0.321,0,0.604,0.262,0.698,0.645l1.745,7.171C46.586,39.771,46.235,40.36,45.746,40.36z"/>
		<path fill="none" stroke="#3B3735" stroke-width="2" stroke-linecap="round" stroke-linejoin="round" stroke-miterlimit="10" d="
			M23.06,31.372H9.329c-0.489,0-0.839-0.589-0.698-1.172l1.745-7.171c0.093-0.383,0.376-0.645,0.698-0.645h10.242
			c0.321,0,0.604,0.262,0.698,0.645l1.745,7.171C23.9,30.784,23.549,31.372,23.06,31.372z"/>
		<path fill="none" stroke="#3B3735" stroke-width="2" stroke-linecap="round" stroke-linejoin="round" stroke-miterlimit="10" d="
			M30.562,22.354H16.831c-0.489,0-0.839-0.589-0.698-1.172l1.745-7.171c0.093-0.383,0.376-0.645,0.698-0.645h10.242
			c0.321,0,0.604,0.262,0.698,0.645l1.745,7.171C31.401,21.766,31.051,22.354,30.562,22.354z"/>
		<path fill="none" stroke="#3B3735" stroke-width="2" stroke-linecap="round" stroke-linejoin="round" stroke-miterlimit="10" d="
			M38.157,31.372H24.426c-0.489,0-0.839-0.589-0.698-1.172l1.745-7.171c0.093-0.383,0.376-0.645,0.698-0.645h10.242
			c0.321,0,0.604,0.262,0.698,0.645l1.745,7.171C38.996,30.784,38.646,31.372,38.157,31.372z"/>
	</g>
	<g>
		
			<line fill="none" stroke="#3B3735" stroke-width="2" stroke-linecap="round" stroke-linejoin="round" stroke-miterlimit="10" x1="23.536" y1="1" x2="23.536" y2="6"/>
		
			<line fill="none" stroke="#3B3735" stroke-width="2" stroke-linecap="round" stroke-linejoin="round" stroke-miterlimit="10" x1="39.536" y1="13" x2="34.536" y2="13"/>
		
			<line fill="none" stroke="#3B3735" stroke-width="2" stroke-linecap="round" stroke-linejoin="round" stroke-miterlimit="10" x1="34.433" y1="4.548" x2="30.605" y2="7.764"/>
		
			<line fill="none" stroke="#3B3735" stroke-width="2" stroke-linecap="round" stroke-linejoin="round" stroke-miterlimit="10" x1="7.536" y1="13" x2="12.536" y2="13"/>
		
			<line fill="none" stroke="#3B3735" stroke-width="2" stroke-linecap="round" stroke-linejoin="round" stroke-miterlimit="10" x1="12.457" y1="4.548" x2="16.286" y2="7.764"/>
	</g>
</g>
</svg>
