<?xml version="1.0" encoding="utf-8"?>
<!-- Generator: Adobe Illustrator 17.0.0, SVG Export Plug-In . SVG Version: 6.00 Build 0)  -->
<!DOCTYPE svg PUBLIC "-//W3C//DTD SVG 1.1//EN" "http://www.w3.org/Graphics/SVG/1.1/DTD/svg11.dtd">
<svg version="1.1" id="Layer_1" xmlns="http://www.w3.org/2000/svg" xmlns:xlink="http://www.w3.org/1999/xlink" x="0px" y="0px"
	 width="48.609px" height="37.438px" viewBox="0 0 48.609 37.438" enable-background="new 0 0 48.609 37.438" xml:space="preserve">
<g>
	<path fill="none" stroke="#000000" stroke-width="2" stroke-linecap="round" stroke-linejoin="round" stroke-miterlimit="10" d="
		M37.049,22.778l2.18,2.18c0.866,0.866,0.866,2.269,0,3.135l0,0c-0.866,0.866-2.269,0.866-3.135,0l-1.52-1.52"/>
	<path fill="none" stroke="#000000" stroke-width="2" stroke-linecap="round" stroke-linejoin="round" stroke-miterlimit="10" d="
		M33.915,25.913l3.5,3.5c0.866,0.866,0.866,2.269,0,3.135v0c-0.866,0.866-2.269,0.866-3.135,0l-3.5-3.5"/>
	<path fill="none" stroke="#000000" stroke-width="2" stroke-linecap="round" stroke-linejoin="round" stroke-miterlimit="10" d="
		M29.9,28.168l3.72,3.72c0.866,0.866,0.866,2.269,0,3.135l0,0c-0.866,0.866-2.269,0.866-3.135,0l-3.72-3.72"/>
	<path fill="none" stroke="#000000" stroke-width="2" stroke-linecap="round" stroke-linejoin="round" stroke-miterlimit="10" d="
		M25.885,30.423l2.09,2.09c0.866,0.866,0.829,2.306-0.082,3.217h0c-0.911,0.911-2.352,0.948-3.217,0.082l-1.567-1.567"/>
	
		<line fill="none" stroke="#000000" stroke-width="2" stroke-linecap="round" stroke-linejoin="round" stroke-miterlimit="10" x1="26.15" y1="11.879" x2="37.049" y2="22.778"/>
	<path fill="none" stroke="#000000" stroke-width="2" stroke-linecap="round" stroke-linejoin="round" stroke-miterlimit="10" d="
		M10.311,21.448L1,12.137l9.799-9.67l4.472,4.472c0,0,4.632-1.201,9.237,0.15"/>
	<path fill="none" stroke="#000000" stroke-width="2" stroke-linecap="round" stroke-linejoin="round" stroke-miterlimit="10" d="
		M23.959,30.132l0.126,0.126c0.831,0.831,0.831,2.178,0,3.008l-1.955,1.955c-0.831,0.831-2.178,0.831-3.008,0l-0.126-0.126
		c-0.831-0.831-0.831-2.178,0-3.008l1.955-1.955C21.782,29.302,23.129,29.302,23.959,30.132z"/>
	<path fill="none" stroke="#000000" stroke-width="2" stroke-linecap="round" stroke-linejoin="round" stroke-miterlimit="10" d="
		M21.165,26.142l0.126,0.126c0.831,0.831,0.831,2.178,0,3.008l-2.795,2.795c-0.831,0.831-2.178,0.831-3.008,0l-0.126-0.126
		c-0.831-0.831-0.831-2.178,0-3.008l2.795-2.795C18.987,25.311,20.334,25.311,21.165,26.142z"/>
	<path fill="none" stroke="#000000" stroke-width="2" stroke-linecap="round" stroke-linejoin="round" stroke-miterlimit="10" d="
		M14.895,19.872l0.126,0.126c0.831,0.831,0.831,2.178,0,3.008l-2.795,2.795c-0.831,0.831-2.178,0.831-3.008,0l-0.126-0.126
		c-0.831-0.831-0.831-2.178,0-3.008l2.795-2.795C12.718,19.042,14.065,19.042,14.895,19.872z"/>
	<path fill="none" stroke="#000000" stroke-width="2" stroke-linecap="round" stroke-linejoin="round" stroke-miterlimit="10" d="
		M18.606,22.431l0.126,0.126c0.831,0.831,0.831,2.178,0,3.008l-3.947,3.947c-0.831,0.831-2.178,0.831-3.008,0l-0.126-0.126
		c-0.831-0.831-0.831-2.178,0-3.008l3.947-3.947C16.428,21.601,17.775,21.601,18.606,22.431z"/>
	<path fill="none" stroke="#000000" stroke-width="2" stroke-linecap="round" stroke-linejoin="round" stroke-miterlimit="10" d="
		M36.39,21.458l11.219-11.219L38.369,1l-7.974,8.194c0,0-5.307-3.657-8.277-1.347c-1.443,1.122-2.886,2.05-3.989,2.707
		c-1.099,0.655-1.521,2.034-0.991,3.199l0,0c0.599,1.317,2.181,1.861,3.463,1.189l5.219-2.734"/>
</g>
</svg>
