<?xml version="1.0" encoding="utf-8"?>
<!-- Generator: Adobe Illustrator 17.0.0, SVG Export Plug-In . SVG Version: 6.00 Build 0)  -->
<!DOCTYPE svg PUBLIC "-//W3C//DTD SVG 1.1//EN" "http://www.w3.org/Graphics/SVG/1.1/DTD/svg11.dtd">
<svg version="1.1" id="Layer_1" xmlns="http://www.w3.org/2000/svg" xmlns:xlink="http://www.w3.org/1999/xlink" x="0px" y="0px"
	 width="480px" height="480px" viewBox="0 0 480 480" enable-background="new 0 0 480 480" xml:space="preserve">
<g>
	<g>
		<g>
			<g>
				
					<path fill="none" stroke="#3B3735" stroke-width="2" stroke-linecap="round" stroke-linejoin="round" stroke-miterlimit="10" d="
					M220.406,239.543c0,11.721,9.502,21.222,21.222,21.222c8.622,0,16.044-5.142,19.365-12.527"/>
				
					<polyline fill="none" stroke="#3B3735" stroke-width="2" stroke-linecap="round" stroke-linejoin="round" stroke-miterlimit="10" points="
					216.536,243.174 220.406,239.283 225.162,243.116 				"/>
			</g>
		</g>
		<g>
			<g>
				
					<path fill="none" stroke="#3B3735" stroke-width="2" stroke-linecap="round" stroke-linejoin="round" stroke-miterlimit="10" d="
					M261.672,240.464c0-11.721-9.502-21.222-21.222-21.222c-8.622,0-16.044,5.142-19.365,12.527"/>
				
					<polyline fill="none" stroke="#3B3735" stroke-width="2" stroke-linecap="round" stroke-linejoin="round" stroke-miterlimit="10" points="
					265.543,236.833 261.672,240.724 256.917,236.891 				"/>
			</g>
		</g>
	</g>
	<g>
		<path fill="none" stroke="#3B3735" stroke-width="2" stroke-linecap="round" stroke-linejoin="round" stroke-miterlimit="10" d="
			M240.976,230.282l-7.788,7.853c-0.077,0.078-0.12,0.183-0.12,0.292v8.02c0,0.229,0.186,0.415,0.415,0.415h7.365h7.788
			c0.229,0,0.415-0.186,0.415-0.415v-8.02c0-0.11-0.043-0.215-0.12-0.292l-7.788-7.853
			C240.98,230.118,241.138,230.118,240.976,230.282z"/>
		
			<line fill="none" stroke="#3B3735" stroke-width="2" stroke-linecap="round" stroke-linejoin="round" stroke-miterlimit="10" x1="231.243" y1="239.838" x2="240.976" y2="230.282"/>
		
			<line fill="none" stroke="#3B3735" stroke-width="2" stroke-linecap="round" stroke-linejoin="round" stroke-miterlimit="10" x1="250.758" y1="239.838" x2="241.025" y2="230.282"/>
	</g>
</g>
</svg>
