<?xml version="1.0" encoding="utf-8"?>
<!-- Generator: Adobe Illustrator 17.0.0, SVG Export Plug-In . SVG Version: 6.00 Build 0)  -->
<!DOCTYPE svg PUBLIC "-//W3C//DTD SVG 1.1//EN" "http://www.w3.org/Graphics/SVG/1.1/DTD/svg11.dtd">
<svg version="1.1" id="Layer_1" xmlns="http://www.w3.org/2000/svg" xmlns:xlink="http://www.w3.org/1999/xlink" x="0px" y="0px"
	 width="49.306px" height="40px" viewBox="0 0 49.306 40" enable-background="new 0 0 49.306 40" xml:space="preserve">
<g>
	
		<rect x="1" y="26.298" fill="none" stroke="#3B3735" stroke-width="2" stroke-linecap="round" stroke-linejoin="round" stroke-miterlimit="10" width="47.306" height="8.396"/>
	
		<line fill="none" stroke="#3B3735" stroke-width="2" stroke-linecap="round" stroke-linejoin="round" stroke-miterlimit="10" x1="4.578" y1="35" x2="4.578" y2="39"/>
	
		<line fill="none" stroke="#3B3735" stroke-width="2" stroke-linecap="round" stroke-linejoin="round" stroke-miterlimit="10" x1="44.578" y1="35" x2="44.578" y2="39"/>
	<path fill="none" stroke="#3B3735" stroke-width="2" stroke-linecap="round" stroke-linejoin="round" stroke-miterlimit="10" d="
		M20.313,17.767h-7.75c-0.552,0-1-0.448-1-1v-3.974c0-0.552,0.448-1,1-1h7.75c0.552,0,1,0.448,1,1v3.974
		C21.313,17.319,20.865,17.767,20.313,17.767z"/>
	<path fill="none" stroke="#3B3735" stroke-width="2" stroke-linecap="round" stroke-linejoin="round" stroke-miterlimit="10" d="
		M36.313,17.767h-7.75c-0.552,0-1-0.448-1-1v-3.974c0-0.552,0.448-1,1-1h7.75c0.552,0,1,0.448,1,1v3.974
		C37.313,17.319,36.865,17.767,36.313,17.767z"/>
	
		<polyline fill="none" stroke="#3B3735" stroke-width="2" stroke-linecap="round" stroke-linejoin="round" stroke-miterlimit="10" points="
		11.578,15 6.417,15 1,26 48.306,26 42.89,15 37.578,15 	"/>
	
		<line fill="none" stroke="#3B3735" stroke-width="2" stroke-linecap="round" stroke-linejoin="round" stroke-miterlimit="10" x1="27.578" y1="15" x2="21.578" y2="15"/>
	<path fill="none" stroke="#3B3735" stroke-width="2" stroke-linecap="round" stroke-linejoin="round" stroke-miterlimit="10" d="
		M37.578,15h5V3.11c0-1.105-0.584-2.11-1.689-2.11H8.417C7.312,1,6.578,2.005,6.578,3.11V15h5"/>
	
		<line fill="none" stroke="#3B3735" stroke-width="2" stroke-linecap="round" stroke-linejoin="round" stroke-miterlimit="10" x1="21.578" y1="15" x2="27.578" y2="15"/>
</g>
</svg>
