<?xml version="1.0" encoding="utf-8"?>
<!-- Generator: Adobe Illustrator 17.0.0, SVG Export Plug-In . SVG Version: 6.00 Build 0)  -->
<!DOCTYPE svg PUBLIC "-//W3C//DTD SVG 1.1//EN" "http://www.w3.org/Graphics/SVG/1.1/DTD/svg11.dtd">
<svg version="1.1" id="Layer_1" xmlns="http://www.w3.org/2000/svg" xmlns:xlink="http://www.w3.org/1999/xlink" x="0px" y="0px"
	 width="50px" height="44.154px" viewBox="0 0 50 44.154" enable-background="new 0 0 50 44.154" xml:space="preserve">
<g>
	<path fill="none" stroke="#3B3735" stroke-width="2" stroke-linecap="round" stroke-linejoin="round" stroke-miterlimit="10" d="
		M43.301,32.338H10.838c-1.657,0-3-1.343-3-3V11.401c0-1.657,1.343-3,3-3h32.463c1.657,0,3,1.343,3,3v17.936
		C46.301,30.994,44.957,32.338,43.301,32.338z"/>
	<path fill="none" stroke="#3B3735" stroke-width="2" stroke-linecap="round" stroke-linejoin="round" stroke-miterlimit="10" d="
		M33.392,8.401H21.614V5.527c0-1.105,0.895-2,2-2h7.778c1.105,0,2,0.895,2,2V8.401z"/>
	
		<line fill="none" stroke="#3B3735" stroke-width="2" stroke-linecap="round" stroke-linejoin="round" stroke-miterlimit="10" x1="14" y1="8" x2="14" y2="32"/>
	
		<line fill="none" stroke="#3B3735" stroke-width="2" stroke-linecap="round" stroke-linejoin="round" stroke-miterlimit="10" x1="40" y1="8" x2="40" y2="32"/>
	<g>
		
			<polygon fill="none" stroke="#3B3735" stroke-width="2" stroke-linecap="round" stroke-linejoin="round" stroke-miterlimit="10" points="
			24.088,23.73 18.027,23.73 18.027,17.064 21.058,14.193 24.088,17.064 		"/>
		
			<line fill="none" stroke="#3B3735" stroke-width="2" stroke-linecap="round" stroke-linejoin="round" stroke-miterlimit="10" x1="21" y1="8" x2="21" y2="14"/>
	</g>
	
		<polyline fill="none" stroke="#3B3735" stroke-width="2" stroke-linecap="round" stroke-linejoin="round" stroke-miterlimit="10" points="
		1,1 4,1 4,36 49,36 	"/>
	
		<circle fill="none" stroke="#3B3735" stroke-width="2" stroke-linecap="round" stroke-linejoin="round" stroke-miterlimit="10" cx="8.697" cy="39.757" r="3.397"/>
	
		<circle fill="none" stroke="#3B3735" stroke-width="2" stroke-linecap="round" stroke-linejoin="round" stroke-miterlimit="10" cx="43.307" cy="39.757" r="3.397"/>
</g>
</svg>
