<?xml version="1.0" encoding="utf-8"?>
<!-- Generator: Adobe Illustrator 17.0.0, SVG Export Plug-In . SVG Version: 6.00 Build 0)  -->
<!DOCTYPE svg PUBLIC "-//W3C//DTD SVG 1.1//EN" "http://www.w3.org/Graphics/SVG/1.1/DTD/svg11.dtd">
<svg version="1.1" id="Layer_1" xmlns="http://www.w3.org/2000/svg" xmlns:xlink="http://www.w3.org/1999/xlink" x="0px" y="0px"
	 width="27px" height="47.226px" viewBox="0 0 27 47.226" enable-background="new 0 0 27 47.226" xml:space="preserve">
<g>
	<g>
		<path fill="none" stroke="#3B3735" stroke-width="2" stroke-linecap="round" stroke-linejoin="round" stroke-miterlimit="10" d="
			M12.357,1.06C5.841,1.689,1.001,7.422,1,13.968l0,0.113c0,1.457,0.798,2.854,2.135,3.432c2.201,0.951,4.29-0.824,4.29-2.911
			c0-0.089-0.015-0.647-0.015-0.941c0-3.605,2.923-6.304,6.528-6.304c1.639,0,3.177,0.73,4.335,1.891
			c4.801,4.814,0.973,11.977-4.335,11.977H8.637c-4.2,0-7.637,3.437-7.637,7.637v16.363c0,0.552,0.448,1,1,1h23c0.552,0,1-0.448,1-1
			V13.44C26,6.162,19.788,0.343,12.357,1.06z"/>
		
			<polygon fill="none" stroke="#3B3735" stroke-width="2" stroke-linecap="round" stroke-linejoin="round" stroke-miterlimit="10" points="
			13.749,1 13.749,1 13.749,1 		"/>
	</g>
	
		<rect x="5.551" y="27.54" fill="none" stroke="#3B3735" stroke-width="2" stroke-linecap="round" stroke-linejoin="round" stroke-miterlimit="10" width="15.898" height="14.426"/>
</g>
</svg>
