<?xml version="1.0" encoding="utf-8"?>
<!-- Generator: Adobe Illustrator 17.0.0, SVG Export Plug-In . SVG Version: 6.00 Build 0)  -->
<!DOCTYPE svg PUBLIC "-//W3C//DTD SVG 1.1//EN" "http://www.w3.org/Graphics/SVG/1.1/DTD/svg11.dtd">
<svg version="1.1" id="Layer_1" xmlns="http://www.w3.org/2000/svg" xmlns:xlink="http://www.w3.org/1999/xlink" x="0px" y="0px"
	 width="16.169px" height="20.737px" viewBox="0 0 16.169 20.737" enable-background="new 0 0 16.169 20.737" xml:space="preserve">
<g>
	
		<line fill="none" stroke="#3B3735" stroke-linecap="round" stroke-linejoin="round" stroke-miterlimit="10" x1="0.5" y1="13.498" x2="0.5" y2="7.143"/>
	<g>
		
			<line fill="none" stroke="#3B3735" stroke-linecap="round" stroke-linejoin="round" stroke-miterlimit="10" x1="2.839" y1="13.498" x2="2.839" y2="7.143"/>
		
			<line fill="none" stroke="#3B3735" stroke-linecap="round" stroke-linejoin="round" stroke-miterlimit="10" x1="2.839" y1="7.143" x2="5.57" y2="7.143"/>
		
			<line fill="none" stroke="#3B3735" stroke-linecap="round" stroke-linejoin="round" stroke-miterlimit="10" x1="2.839" y1="10.184" x2="5.57" y2="10.184"/>
	</g>
	<g>
		
			<line fill="none" stroke="#3B3735" stroke-linecap="round" stroke-linejoin="round" stroke-miterlimit="10" x1="7.518" y1="13.498" x2="7.518" y2="7.143"/>
		
			<line fill="none" stroke="#3B3735" stroke-linecap="round" stroke-linejoin="round" stroke-miterlimit="10" x1="9.038" y1="10.184" x2="10.559" y2="13.498"/>
		<path fill="none" stroke="#3B3735" stroke-linecap="round" stroke-linejoin="round" stroke-miterlimit="10" d="M7.518,10.184
			h1.521c0.84,0,1.521-0.681,1.521-1.521S9.878,7.143,9.038,7.143H7.518"/>
	</g>
	<g>
		<path fill="none" stroke="#3B3735" stroke-linecap="round" stroke-linejoin="round" stroke-miterlimit="10" d="M12.432,11.889
			c0,0.894,0.725,1.619,1.619,1.619s1.619-0.725,1.619-1.619c0-1.432-1.619-1.619-1.619-1.619s-1.568-0.271-1.568-1.568
			c0-0.866,0.702-1.568,1.568-1.568s1.568,0.702,1.568,1.568"/>
	</g>
</g>
<line fill="none" stroke="#3B3735" stroke-linecap="round" stroke-linejoin="round" stroke-miterlimit="10" x1="0.5" y1="16.244" x2="15.669" y2="16.244"/>
<line fill="none" stroke="#3B3735" stroke-linecap="round" stroke-linejoin="round" stroke-miterlimit="10" x1="0.5" y1="18.244" x2="15.669" y2="18.244"/>
<line fill="none" stroke="#3B3735" stroke-linecap="round" stroke-linejoin="round" stroke-miterlimit="10" x1="0.5" y1="20.237" x2="15.669" y2="20.237"/>
<line fill="none" stroke="#3B3735" stroke-linecap="round" stroke-linejoin="round" stroke-miterlimit="10" x1="0.5" y1="0.5" x2="15.669" y2="0.5"/>
<line fill="none" stroke="#3B3735" stroke-linecap="round" stroke-linejoin="round" stroke-miterlimit="10" x1="0.5" y1="2.5" x2="15.669" y2="2.5"/>
<line fill="none" stroke="#3B3735" stroke-linecap="round" stroke-linejoin="round" stroke-miterlimit="10" x1="0.5" y1="4.494" x2="15.669" y2="4.494"/>
</svg>
