<?xml version="1.0" encoding="utf-8"?>
<!-- Generator: Adobe Illustrator 17.0.0, SVG Export Plug-In . SVG Version: 6.00 Build 0)  -->
<!DOCTYPE svg PUBLIC "-//W3C//DTD SVG 1.1//EN" "http://www.w3.org/Graphics/SVG/1.1/DTD/svg11.dtd">
<svg version="1.1" id="Layer_1" xmlns="http://www.w3.org/2000/svg" xmlns:xlink="http://www.w3.org/1999/xlink" x="0px" y="0px"
	 width="34.422px" height="15.624px" viewBox="0 0 34.422 15.624" enable-background="new 0 0 34.422 15.624" xml:space="preserve">
<line fill="none" stroke="#3B3735" stroke-width="2" stroke-linecap="round" stroke-linejoin="round" stroke-miterlimit="10" x1="1" y1="14.604" x2="1" y2="1.02"/>
<g>
	
		<line fill="none" stroke="#3B3735" stroke-width="2" stroke-linecap="round" stroke-linejoin="round" stroke-miterlimit="10" x1="6" y1="14.604" x2="6" y2="1.02"/>
	
		<line fill="none" stroke="#3B3735" stroke-width="2" stroke-linecap="round" stroke-linejoin="round" stroke-miterlimit="10" x1="6" y1="1.02" x2="11.836" y2="1.02"/>
	
		<line fill="none" stroke="#3B3735" stroke-width="2" stroke-linecap="round" stroke-linejoin="round" stroke-miterlimit="10" x1="6" y1="7.52" x2="11.836" y2="7.52"/>
</g>
<g>
	
		<line fill="none" stroke="#3B3735" stroke-width="2" stroke-linecap="round" stroke-linejoin="round" stroke-miterlimit="10" x1="16" y1="14.604" x2="16" y2="1.02"/>
	
		<line fill="none" stroke="#3B3735" stroke-width="2" stroke-linecap="round" stroke-linejoin="round" stroke-miterlimit="10" x1="19.25" y1="7.52" x2="22.5" y2="14.604"/>
	<path fill="none" stroke="#3B3735" stroke-width="2" stroke-linecap="round" stroke-linejoin="round" stroke-miterlimit="10" d="
		M16,7.52h3.25c1.795,0,3.25-1.455,3.25-3.25s-1.455-3.25-3.25-3.25H16"/>
</g>
<g>
	<path fill="none" stroke="#3B3735" stroke-width="2" stroke-linecap="round" stroke-linejoin="round" stroke-miterlimit="10" d="
		M26.502,11.164c0,1.911,1.549,3.46,3.46,3.46s3.46-1.549,3.46-3.46c0-3.06-3.46-3.46-3.46-3.46s-3.352-0.58-3.352-3.352
		C26.61,2.501,28.111,1,29.962,1s3.352,1.501,3.352,3.352"/>
</g>
</svg>
