<?xml version="1.0" encoding="utf-8"?>
<!-- Generator: Adobe Illustrator 17.0.0, SVG Export Plug-In . SVG Version: 6.00 Build 0)  -->
<!DOCTYPE svg PUBLIC "-//W3C//DTD SVG 1.1//EN" "http://www.w3.org/Graphics/SVG/1.1/DTD/svg11.dtd">
<svg version="1.1" id="Layer_1" xmlns="http://www.w3.org/2000/svg" xmlns:xlink="http://www.w3.org/1999/xlink" x="0px" y="0px"
	 width="44.845px" height="48.107px" viewBox="0 0 44.845 48.107" enable-background="new 0 0 44.845 48.107" xml:space="preserve">
<g>
	<path fill="none" stroke="#3B3735" stroke-width="2" stroke-linecap="round" stroke-linejoin="round" stroke-miterlimit="10" d="
		M35.123,22.988c0-6.799-5.437-12.329-12.2-12.479c-6.721-0.149-12.471,5.23-12.752,11.947c-0.095,2.267,0.42,4.414,1.39,6.283
		c0.564,1.086,1.097,2.187,1.492,3.345l2.538,7.445h6.891h7.599l1.973-6.493c0.455-1.496,0.995-2.969,1.707-4.362
		C34.63,26.969,35.123,25.032,35.123,22.988z"/>
	<path fill="none" stroke="#3B3735" stroke-width="2" stroke-linecap="round" stroke-linejoin="round" stroke-miterlimit="10" d="
		M30.257,43.176H15.849c-0.552,0-1-0.448-1-1v-1.647c0-0.552,0.448-1,1-1h14.407c0.552,0,1,0.448,1,1v1.647
		C31.257,42.729,30.809,43.176,30.257,43.176z"/>
	<path fill="none" stroke="#3B3735" stroke-width="2" stroke-linecap="round" stroke-linejoin="round" stroke-miterlimit="10" d="
		M28.763,47.107H17.343c-0.552,0-1-0.448-1-1v-2.931h13.421v2.931C29.763,46.66,29.316,47.107,28.763,47.107z"/>
	<g>
		
			<line fill="none" stroke="#3B3735" stroke-width="2" stroke-linecap="round" stroke-linejoin="round" stroke-miterlimit="10" x1="22.347" y1="1" x2="22.347" y2="6"/>
		
			<line fill="none" stroke="#3B3735" stroke-width="2" stroke-linecap="round" stroke-linejoin="round" stroke-miterlimit="10" x1="32.188" y1="3.582" x2="29.57" y2="7.842"/>
		
			<line fill="none" stroke="#3B3735" stroke-width="2" stroke-linecap="round" stroke-linejoin="round" stroke-miterlimit="10" x1="39.809" y1="9.123" x2="35.949" y2="12.301"/>
		
			<line fill="none" stroke="#3B3735" stroke-width="2" stroke-linecap="round" stroke-linejoin="round" stroke-miterlimit="10" x1="12.19" y1="3.582" x2="14.809" y2="7.842"/>
		
			<line fill="none" stroke="#3B3735" stroke-width="2" stroke-linecap="round" stroke-linejoin="round" stroke-miterlimit="10" x1="4.57" y1="9.123" x2="8.43" y2="12.301"/>
		
			<line fill="none" stroke="#3B3735" stroke-width="2" stroke-linecap="round" stroke-linejoin="round" stroke-miterlimit="10" x1="1" y1="18.751" x2="5.999" y2="18.673"/>
		
			<line fill="none" stroke="#3B3735" stroke-width="2" stroke-linecap="round" stroke-linejoin="round" stroke-miterlimit="10" x1="43.845" y1="18.751" x2="38.845" y2="18.673"/>
	</g>
	
		<line fill="none" stroke="#3B3735" stroke-width="2" stroke-linecap="round" stroke-linejoin="round" stroke-miterlimit="10" x1="21.007" y1="39.529" x2="19.257" y2="30.235"/>
	
		<line fill="none" stroke="#3B3735" stroke-width="2" stroke-linecap="round" stroke-linejoin="round" stroke-miterlimit="10" x1="25.007" y1="39.529" x2="26.757" y2="30.235"/>
	
		<line fill="none" stroke="#3B3735" stroke-width="2" stroke-linecap="round" stroke-linejoin="round" stroke-miterlimit="10" x1="20.347" y1="31" x2="26.347" y2="31"/>
</g>
</svg>
