<?xml version="1.0" encoding="utf-8"?>
<!-- Generator: Adobe Illustrator 17.0.0, SVG Export Plug-In . SVG Version: 6.00 Build 0)  -->
<!DOCTYPE svg PUBLIC "-//W3C//DTD SVG 1.1//EN" "http://www.w3.org/Graphics/SVG/1.1/DTD/svg11.dtd">
<svg version="1.1" id="Layer_1" xmlns="http://www.w3.org/2000/svg" xmlns:xlink="http://www.w3.org/1999/xlink" x="0px" y="0px"
	 width="35.862px" height="49.471px" viewBox="0 0 35.862 49.471" enable-background="new 0 0 35.862 49.471" xml:space="preserve">
<g>
	
		<polyline fill="none" stroke="#3B3735" stroke-width="2" stroke-linecap="round" stroke-linejoin="round" stroke-miterlimit="10" points="
		24.103,1 28.103,1 28.103,17.789 24.447,14 24.32,14 21.103,17.789 21.103,1 25.103,1 	"/>
	<g>
		<path fill="none" stroke="#3B3735" stroke-width="2" stroke-linecap="round" stroke-linejoin="round" stroke-miterlimit="10" d="
			M28.012,3.179h5.85c0.552,0,1,0.448,1,1v43.292c0,0.552-0.448,1-1,1H2c-0.552,0-1-0.448-1-1V4.179c0-0.552,0.448-1,1-1h19.013"/>
	</g>
	
		<line fill="none" stroke="#3B3735" stroke-width="2" stroke-linecap="round" stroke-linejoin="round" stroke-miterlimit="10" x1="8.103" y1="23" x2="28.103" y2="23"/>
	
		<line fill="none" stroke="#3B3735" stroke-width="2" stroke-linecap="round" stroke-linejoin="round" stroke-miterlimit="10" x1="8.103" y1="28" x2="28.103" y2="28"/>
	
		<line fill="none" stroke="#3B3735" stroke-width="2" stroke-linecap="round" stroke-linejoin="round" stroke-miterlimit="10" x1="8.103" y1="33" x2="28.103" y2="33"/>
	
		<line fill="none" stroke="#3B3735" stroke-width="2" stroke-linecap="round" stroke-linejoin="round" stroke-miterlimit="10" x1="8.103" y1="38" x2="28.103" y2="38"/>
</g>
</svg>
