<?xml version="1.0" encoding="utf-8"?>
<!-- Generator: Adobe Illustrator 17.0.0, SVG Export Plug-In . SVG Version: 6.00 Build 0)  -->
<!DOCTYPE svg PUBLIC "-//W3C//DTD SVG 1.1//EN" "http://www.w3.org/Graphics/SVG/1.1/DTD/svg11.dtd">
<svg version="1.1" id="Layer_1" xmlns="http://www.w3.org/2000/svg" xmlns:xlink="http://www.w3.org/1999/xlink" x="0px" y="0px"
	 width="46.467px" height="46.773px" viewBox="0 0 46.467 46.773" enable-background="new 0 0 46.467 46.773" xml:space="preserve">
<g>
	<g>
		
			<circle fill="none" stroke="#3B3735" stroke-width="2" stroke-linecap="round" stroke-linejoin="round" stroke-miterlimit="10" cx="28.406" cy="28.734" r="11.936"/>
		
			<circle fill="none" stroke="#3B3735" stroke-width="2" stroke-linecap="round" stroke-linejoin="round" stroke-miterlimit="10" cx="28.406" cy="28.734" r="8.44"/>
		<path fill="none" stroke="#3B3735" stroke-width="2" stroke-linecap="round" stroke-linejoin="round" stroke-miterlimit="10" d="
			M36.857,37.163c-0.612,0.612-1.476,1.338-2.068,1.683l6.233,6.233c0.985,0.985,2.674,0.893,3.659-0.092
			c0.985-0.985,1.077-2.674,0.092-3.659l-6.233-6.233C38.195,35.688,37.47,36.551,36.857,37.163z"/>
	</g>
	<g>
		<g>
			<path fill="none" stroke="#3B3735" stroke-width="2" stroke-linecap="round" stroke-linejoin="round" stroke-miterlimit="10" d="
				M34.525,18.378v-6.395L23.542,1H2.008C1.451,1,1,1.451,1,2.008V44.18c0,0.557,0.451,1.008,1.008,1.008h31.509
				c0.557,0,1.008-0.451,1.008-1.008v-4.927"/>
			<path fill="none" stroke="#3B3735" stroke-width="2" stroke-linecap="round" stroke-linejoin="round" stroke-miterlimit="10" d="
				M24.551,11.983h9.975L23.542,1v9.975C23.542,11.531,23.994,11.983,24.551,11.983z"/>
		</g>
		
			<line fill="none" stroke="#3B3735" stroke-width="2" stroke-linecap="round" stroke-linejoin="round" stroke-miterlimit="10" x1="7.138" y1="18.018" x2="22.138" y2="18.018"/>
		
			<line fill="none" stroke="#3B3735" stroke-width="2" stroke-linecap="round" stroke-linejoin="round" stroke-miterlimit="10" x1="7.138" y1="23.018" x2="17.138" y2="23.018"/>
		
			<line fill="none" stroke="#3B3735" stroke-width="2" stroke-linecap="round" stroke-linejoin="round" stroke-miterlimit="10" x1="7.138" y1="28.018" x2="16.138" y2="28.018"/>
		
			<line fill="none" stroke="#3B3735" stroke-width="2" stroke-linecap="round" stroke-linejoin="round" stroke-miterlimit="10" x1="7.138" y1="33.018" x2="17.138" y2="33.018"/>
	</g>
	
		<line fill="none" stroke="#3B3735" stroke-width="2" stroke-linecap="round" stroke-linejoin="round" stroke-miterlimit="10" x1="21.138" y1="26.018" x2="28.138" y2="26.018"/>
	
		<line fill="none" stroke="#3B3735" stroke-width="2" stroke-linecap="round" stroke-linejoin="round" stroke-miterlimit="10" x1="21.138" y1="30.018" x2="28.138" y2="30.018"/>
</g>
</svg>
