<?xml version="1.0" encoding="utf-8"?>
<!-- Generator: Adobe Illustrator 17.0.0, SVG Export Plug-In . SVG Version: 6.00 Build 0)  -->
<!DOCTYPE svg PUBLIC "-//W3C//DTD SVG 1.1//EN" "http://www.w3.org/Graphics/SVG/1.1/DTD/svg11.dtd">
<svg version="1.1" id="Layer_1" xmlns="http://www.w3.org/2000/svg" xmlns:xlink="http://www.w3.org/1999/xlink" x="0px" y="0px"
	 width="48.91px" height="37.348px" viewBox="0 0 48.91 37.348" enable-background="new 0 0 48.91 37.348" xml:space="preserve">
<g>
	<g>
		
			<circle fill="none" stroke="#231F20" stroke-width="2" stroke-linecap="round" stroke-linejoin="round" stroke-miterlimit="10" cx="40.171" cy="32.477" r="3.871"/>
		
			<circle fill="none" stroke="#231F20" stroke-width="2" stroke-linecap="round" stroke-linejoin="round" stroke-miterlimit="10" cx="14.961" cy="32.477" r="3.871"/>
		<path fill="none" stroke="#231F20" stroke-width="2" stroke-linecap="round" stroke-linejoin="round" stroke-miterlimit="10" d="
			M38.976,9.024l-5.862-0.063v23.603H36.3c0-2.959,1.733-3.871,3.871-3.871c2.138,0,3.871,0.912,3.871,3.871h2.867
			c0.552,0,1-0.448,1-1V19.678c0-0.45-0.154-0.886-0.436-1.236L40.492,9.76C40.122,9.301,39.566,9.03,38.976,9.024z"/>
		<path fill="none" stroke="#231F20" stroke-width="2" stroke-linecap="round" stroke-linejoin="round" stroke-miterlimit="10" d="
			M4.509,3v28.564c0,0.552,0.448,1,1,1h5.586c0.03-2.959,1.746-3.817,3.866-3.817c2.119,0,3.836,0.857,3.866,3.817h14.287V3
			c0-1.105-0.895-2-2-2H6.509C5.405,1,4.509,1.895,4.509,3z"/>
	</g>
	
		<line fill="none" stroke="#231F20" stroke-width="2" stroke-linecap="round" stroke-linejoin="round" stroke-miterlimit="10" x1="9" y1="4.64" x2="24" y2="4.64"/>
	
		<line fill="none" stroke="#231F20" stroke-width="2" stroke-linecap="round" stroke-linejoin="round" stroke-miterlimit="10" x1="2" y1="8.64" x2="16" y2="8.64"/>
	
		<line fill="none" stroke="#231F20" stroke-width="2" stroke-linecap="round" stroke-linejoin="round" stroke-miterlimit="10" x1="9" y1="12.64" x2="12" y2="12.64"/>
	
		<line fill="none" stroke="#231F20" stroke-width="2" stroke-linecap="round" stroke-linejoin="round" stroke-miterlimit="10" x1="1" y1="16.64" x2="11" y2="16.64"/>
</g>
</svg>
