<?xml version="1.0" encoding="utf-8"?>
<!-- Generator: Adobe Illustrator 17.0.0, SVG Export Plug-In . SVG Version: 6.00 Build 0)  -->
<!DOCTYPE svg PUBLIC "-//W3C//DTD SVG 1.1//EN" "http://www.w3.org/Graphics/SVG/1.1/DTD/svg11.dtd">
<svg version="1.1" id="Layer_1" xmlns="http://www.w3.org/2000/svg" xmlns:xlink="http://www.w3.org/1999/xlink" x="0px" y="0px"
	 width="47.388px" height="40.243px" viewBox="0 0 47.388 40.243" enable-background="new 0 0 47.388 40.243" xml:space="preserve">
<g>
	<g>
		<path fill="none" stroke="#3B3735" stroke-width="2" stroke-linecap="round" stroke-linejoin="round" stroke-miterlimit="10" d="
			M46.388,26.356c0,4.657-6.479,12.887-8.433,12.887c-2.291,0-8.433-8.23-8.433-12.887s3.776-8.433,8.433-8.433
			S46.388,21.699,46.388,26.356z"/>
		
			<circle fill="none" stroke="#3B3735" stroke-width="2" stroke-linecap="round" stroke-linejoin="round" stroke-miterlimit="10" cx="37.955" cy="26.935" r="2.724"/>
	</g>
	
		<polygon fill="none" stroke="#3B3735" stroke-width="2" stroke-linecap="round" stroke-linejoin="round" stroke-miterlimit="10" points="
		12,30.458 1,37.319 1,7.86 12,1 	"/>
	
		<polygon fill="none" stroke="#3B3735" stroke-width="2" stroke-linecap="round" stroke-linejoin="round" stroke-miterlimit="10" points="
		12,30.458 22,37.319 22,7.86 12,1 	"/>
	<g>
		<path fill="none" stroke="#3B3735" stroke-width="2" stroke-linecap="round" stroke-linejoin="round" stroke-miterlimit="10" d="
			M38.045,17.923c1.854,0,3.955,0.606,4.955,1.62V7.86L33,1v18.61C34,18.556,36.151,17.923,38.045,17.923z"/>
		<path fill="none" stroke="#3B3735" stroke-width="2" stroke-linecap="round" stroke-linejoin="round" stroke-miterlimit="10" d="
			M41.6,36.359l1.4,0.96v-2.781C42,35.188,42.068,35.801,41.6,36.359z"/>
	</g>
	<path fill="none" stroke="#3B3735" stroke-width="2" stroke-linecap="round" stroke-linejoin="round" stroke-miterlimit="10" d="
		M29.567,26.356c0-2.763,1.433-5.208,3.433-6.746V1L22,7.86v29.458l9.176-5.737C30.233,29.732,29.567,27.859,29.567,26.356z"/>
</g>
</svg>
