<?xml version="1.0" encoding="utf-8"?>
<!-- Generator: Adobe Illustrator 17.0.0, SVG Export Plug-In . SVG Version: 6.00 Build 0)  -->
<!DOCTYPE svg PUBLIC "-//W3C//DTD SVG 1.1//EN" "http://www.w3.org/Graphics/SVG/1.1/DTD/svg11.dtd">
<svg version="1.1" id="Layer_1" xmlns="http://www.w3.org/2000/svg" xmlns:xlink="http://www.w3.org/1999/xlink" x="0px" y="0px"
	 width="38.08px" height="48.453px" viewBox="0 0 38.08 48.453" enable-background="new 0 0 38.08 48.453" xml:space="preserve">
<g>
	<g>
		<path fill="none" stroke="#3B3735" stroke-width="2" stroke-linecap="round" stroke-linejoin="round" stroke-miterlimit="10" d="
			M36.967,9.584c0,4.741-6.595,13.118-8.584,13.118c-2.332,0-8.584-8.377-8.584-13.118S23.642,1,28.383,1S36.967,4.843,36.967,9.584
			z"/>
		
			<circle fill="none" stroke="#3B3735" stroke-width="2" stroke-linecap="round" stroke-linejoin="round" stroke-miterlimit="10" cx="28.383" cy="10.173" r="2.773"/>
	</g>
	<g>
		<path fill="none" stroke="#3B3735" stroke-width="2" stroke-linecap="round" stroke-linejoin="round" stroke-miterlimit="10" d="
			M19.04,11.372C9.077,11.372,1,19.449,1,29.412s8.077,18.04,18.04,18.04s18.04-8.077,18.04-18.04c0-4.224-1.452-8.109-3.883-11.183
			"/>
		<path fill="none" stroke="#3B3735" stroke-width="2" stroke-linecap="round" stroke-linejoin="round" stroke-miterlimit="10" d="
			M19.04,11.372c-5.425,0-9.824,8.077-9.824,18.04s4.398,18.04,9.824,18.04s9.824-8.077,9.824-18.04
			c0-2.354-0.246-4.603-0.692-6.665"/>
		
			<line fill="none" stroke="#3B3735" stroke-width="2" stroke-linecap="round" stroke-linejoin="round" stroke-miterlimit="10" x1="35.399" y1="22.799" x2="2.399" y2="22.799"/>
		
			<line fill="none" stroke="#3B3735" stroke-width="2" stroke-linecap="round" stroke-linejoin="round" stroke-miterlimit="10" x1="35.399" y1="35.799" x2="2.399" y2="35.799"/>
		
			<line fill="none" stroke="#3B3735" stroke-width="2" stroke-linecap="round" stroke-linejoin="round" stroke-miterlimit="10" x1="18.399" y1="11.799" x2="18.399" y2="46.799"/>
	</g>
</g>
</svg>
