<?xml version="1.0" encoding="utf-8"?>
<!-- Generator: Adobe Illustrator 17.0.0, SVG Export Plug-In . SVG Version: 6.00 Build 0)  -->
<!DOCTYPE svg PUBLIC "-//W3C//DTD SVG 1.1//EN" "http://www.w3.org/Graphics/SVG/1.1/DTD/svg11.dtd">
<svg version="1.1" id="Layer_1" xmlns="http://www.w3.org/2000/svg" xmlns:xlink="http://www.w3.org/1999/xlink" x="0px" y="0px"
	 width="30.429px" height="41.282px" viewBox="0 0 30.429 41.282" enable-background="new 0 0 30.429 41.282" xml:space="preserve">
<g>
	
		<polyline fill="none" stroke="#231F20" stroke-width="1.5001" stroke-linecap="round" stroke-linejoin="round" stroke-miterlimit="2.6131" points="
		18.576,12.872 18.576,40.532 3.758,40.532 	"/>
	
		<path fill="none" stroke="#231F20" stroke-width="1.5001" stroke-linecap="round" stroke-linejoin="round" stroke-miterlimit="2.6131" d="
		M29.679,14.448v23.076c0,1.661-1.347,3.008-3.008,3.008h-8.095V12.872l2.776-3.457l2.776-3.458l2.776,3.458l1.789,2.228
		C29.331,12.438,29.679,13.428,29.679,14.448z"/>
	
		<path fill="none" stroke="#231F20" stroke-width="1.5001" stroke-linecap="round" stroke-linejoin="round" stroke-miterlimit="2.6131" d="
		M6.302,5.956L3.526,9.414l-1.789,2.228c-0.639,0.796-0.987,1.785-0.987,2.806v23.076c0,1.661,1.347,3.008,3.008,3.008"/>
	
		<line fill="none" stroke="#231F20" stroke-width="1.5001" stroke-linecap="round" stroke-linejoin="round" stroke-miterlimit="2.6131" x1="6.302" y1="5.956" x2="24.128" y2="5.956"/>
	
		<path fill="none" stroke="#231F20" stroke-width="1.5001" stroke-linecap="round" stroke-linejoin="round" stroke-miterlimit="2.6131" d="
		M7.749,0.75H22.68c0.799,0,1.448,0.648,1.448,1.448v3.759H6.302V2.198C6.302,1.398,6.95,0.75,7.749,0.75z"/>
	
		<rect x="0.75" y="22.86" fill="none" stroke="#231F20" stroke-width="1.5001" stroke-linecap="round" stroke-linejoin="round" stroke-miterlimit="2.6131" width="17.826" height="7.683"/>
	
		<line fill="none" stroke="#231F20" stroke-width="1.4786" stroke-linecap="round" stroke-linejoin="round" stroke-miterlimit="2.6131" x1="1.256" y1="12.872" x2="18.576" y2="12.872"/>
</g>
</svg>
