<?xml version="1.0" encoding="utf-8"?>
<!-- Generator: Adobe Illustrator 17.0.0, SVG Export Plug-In . SVG Version: 6.00 Build 0)  -->
<!DOCTYPE svg PUBLIC "-//W3C//DTD SVG 1.1//EN" "http://www.w3.org/Graphics/SVG/1.1/DTD/svg11.dtd">
<svg version="1.1" id="Layer_1" xmlns="http://www.w3.org/2000/svg" xmlns:xlink="http://www.w3.org/1999/xlink" x="0px" y="0px"
	 width="27.071px" height="47.281px" viewBox="0 0 27.071 47.281" enable-background="new 0 0 27.071 47.281" xml:space="preserve">
<g>
	<path fill="none" stroke="#231F20" stroke-width="2" stroke-linecap="round" stroke-linejoin="round" stroke-miterlimit="10" d="
		M13.613,32.049c0,0,2.617,4.593,2.617,14.233"/>
	<path fill="none" stroke="#231F20" stroke-width="2" stroke-linecap="round" stroke-linejoin="round" stroke-miterlimit="10" d="
		M4.806,46.043L1.272,32.306c-0.485-1.861-0.318-3.831,0.473-5.584l2.458-5.441"/>
	
		<line fill="none" stroke="#231F20" stroke-width="2" stroke-linecap="round" stroke-linejoin="round" stroke-miterlimit="10" x1="19.421" y1="45.921" x2="19.421" y2="40.921"/>
	<g>
		<path fill="none" stroke="#231F20" stroke-width="2" stroke-linecap="round" stroke-linejoin="round" stroke-miterlimit="10" d="
			M15.977,41.208h9.094c0.552,0,1-0.448,1-1V2c0-0.552-0.448-1-1-1H5.216c-0.552,0-1,0.448-1,1v19.282v9.417
			c0,0.554,0.45,1.002,1.003,1l1.204-0.004c0.551-0.002,0.997-0.449,0.997-1V20.329c0-1.611,1.333-2.918,2.977-2.918h0
			c1.644,0,2.977,1.306,2.977,2.918v11.363"/>
		<path fill="none" stroke="#231F20" stroke-width="2" stroke-linecap="round" stroke-linejoin="round" stroke-miterlimit="10" d="
			M12.031,17.89c0.759-0.692,1.765-1.113,2.868-1.113c2.366,0,4.283,1.937,4.283,4.327s-1.918,4.327-4.283,4.327
			c-0.566,0-0.612,0.091-1.106-0.111"/>
		<path fill="none" stroke="#231F20" stroke-width="2" stroke-linecap="round" stroke-linejoin="round" stroke-miterlimit="10" d="
			M16.421,37.921h4.15c0.238-2,1.85-2.567,2.85-2.579V7.044c-1-0.09-2.575-1.122-2.84-3.122h-5.068h-5.068
			c-0.265,2-1.024,3.032-3.024,3.122v22.878"/>
	</g>
</g>
</svg>
