<?xml version="1.0" encoding="utf-8"?>
<!-- Generator: Adobe Illustrator 17.0.0, SVG Export Plug-In . SVG Version: 6.00 Build 0)  -->
<!DOCTYPE svg PUBLIC "-//W3C//DTD SVG 1.1//EN" "http://www.w3.org/Graphics/SVG/1.1/DTD/svg11.dtd">
<svg version="1.1" id="Layer_1" xmlns="http://www.w3.org/2000/svg" xmlns:xlink="http://www.w3.org/1999/xlink" x="0px" y="0px"
	 width="32.398px" height="46.774px" viewBox="0 0 32.398 46.774" enable-background="new 0 0 32.398 46.774" xml:space="preserve">
<g>
	
		<polygon fill="none" stroke="#3B3735" stroke-width="2" stroke-linecap="round" stroke-linejoin="round" stroke-miterlimit="10" points="
		11.563,11.686 31.398,31.173 22.594,31.929 27.611,43.83 23.001,45.774 17.984,33.873 11.496,39.563 	"/>
	<path fill="none" stroke="#3B3735" stroke-width="2" stroke-linecap="round" stroke-linejoin="round" stroke-miterlimit="10" d="
		M11.563,11.686l3.971,3.902c1.003-0.989,1.626-2.363,1.626-3.883c0-3.013-2.442-5.455-5.455-5.455S6.25,8.692,6.25,11.705
		c0,2.96,2.359,5.364,5.3,5.447L11.563,11.686z"/>
	<path fill="none" stroke="#3B3735" stroke-width="2" stroke-linecap="round" stroke-linejoin="round" stroke-miterlimit="10" d="
		M11.563,11.686l7.718,7.582c1.934-1.937,3.13-4.61,3.13-7.563C22.41,5.793,17.617,1,11.705,1S1,5.793,1,11.705
		c0,5.856,4.703,10.606,10.537,10.696L11.563,11.686z"/>
</g>
</svg>
