<?xml version="1.0" encoding="utf-8"?>
<!-- Generator: Adobe Illustrator 17.0.0, SVG Export Plug-In . SVG Version: 6.00 Build 0)  -->
<!DOCTYPE svg PUBLIC "-//W3C//DTD SVG 1.1//EN" "http://www.w3.org/Graphics/SVG/1.1/DTD/svg11.dtd">
<svg version="1.1" id="Layer_1" xmlns="http://www.w3.org/2000/svg" xmlns:xlink="http://www.w3.org/1999/xlink" x="0px" y="0px"
	 width="36.427px" height="47.844px" viewBox="0 0 36.427 47.844" enable-background="new 0 0 36.427 47.844" xml:space="preserve">
<g>
	<g>
		<g>
			
				<circle fill="none" stroke="#3B3735" stroke-width="2" stroke-linecap="round" stroke-linejoin="round" stroke-miterlimit="10" cx="18.214" cy="18.214" r="11.97"/>
			
				<circle fill="none" stroke="#3B3735" stroke-width="2" stroke-linecap="round" stroke-linejoin="round" stroke-miterlimit="10" cx="18.214" cy="18.214" r="17.214"/>
		</g>
	</g>
	
		<polyline fill="none" stroke="#3B3735" stroke-width="2" stroke-linecap="round" stroke-linejoin="round" stroke-miterlimit="10" points="
		16.278,16.711 18.714,14.106 18.714,23.3 	"/>
	<path fill="none" stroke="#3B3735" stroke-width="2" stroke-linecap="round" stroke-linejoin="round" stroke-miterlimit="10" d="
		M18.623,36.375l-2.56,9.643c-0.187,0.703-0.747,1.056-1.053,0.662l-3.082-3.965c-0.122-0.157-0.297-0.203-0.48-0.128l-4.643,1.914
		c-0.461,0.19-0.772-0.394-0.586-1.097l2.749-9.629"/>
	<path fill="none" stroke="#3B3735" stroke-width="2" stroke-linecap="round" stroke-linejoin="round" stroke-miterlimit="10" d="
		M18.623,36.375l2.56,9.643c0.187,0.703,0.747,1.056,1.053,0.662l3.082-3.965c0.122-0.157,0.297-0.203,0.48-0.128l4.643,1.914
		c0.461,0.19,0.772-0.394,0.586-1.097l-2.749-9.629"/>
</g>
</svg>
