<?xml version="1.0" encoding="utf-8"?>
<!-- Generator: Adobe Illustrator 17.0.0, SVG Export Plug-In . SVG Version: 6.00 Build 0)  -->
<!DOCTYPE svg PUBLIC "-//W3C//DTD SVG 1.1//EN" "http://www.w3.org/Graphics/SVG/1.1/DTD/svg11.dtd">
<svg version="1.1" id="Layer_1" xmlns="http://www.w3.org/2000/svg" xmlns:xlink="http://www.w3.org/1999/xlink" x="0px" y="0px"
	 width="51.007px" height="43.523px" viewBox="0 0 51.007 43.523" enable-background="new 0 0 51.007 43.523" xml:space="preserve">
<g>
	<g>
		
			<circle fill="none" stroke="#3B3735" stroke-width="2" stroke-linecap="round" stroke-linejoin="round" stroke-miterlimit="10" cx="25.504" cy="21.762" r="12.398"/>
		
			<ellipse fill="none" stroke="#3B3735" stroke-width="2" stroke-linecap="round" stroke-linejoin="round" stroke-miterlimit="10" cx="25.504" cy="21.762" rx="6.751" ry="12.398"/>
		
			<line fill="none" stroke="#3B3735" stroke-width="2" stroke-linecap="round" stroke-linejoin="round" stroke-miterlimit="10" x1="37.182" y1="17.881" x2="14.226" y2="17.881"/>
		
			<line fill="none" stroke="#3B3735" stroke-width="2" stroke-linecap="round" stroke-linejoin="round" stroke-miterlimit="10" x1="36.623" y1="26.28" x2="14.226" y2="26.28"/>
		
			<line fill="none" stroke="#3B3735" stroke-width="2" stroke-linecap="round" stroke-linejoin="round" stroke-miterlimit="10" x1="25.424" y1="9.482" x2="25.424" y2="34.119"/>
	</g>
	<g>
		<g>
			<g>
				
					<path fill="none" stroke="#3B3735" stroke-width="2" stroke-linecap="round" stroke-linejoin="round" stroke-miterlimit="10" d="
					M4.871,21.301c0,11.721,9.502,21.222,21.222,21.222c8.622,0,16.044-5.142,19.365-12.527"/>
				
					<polyline fill="none" stroke="#3B3735" stroke-width="2" stroke-linecap="round" stroke-linejoin="round" stroke-miterlimit="10" points="
					1,24.932 4.871,21.041 9.626,24.874 				"/>
			</g>
		</g>
		<g>
			<g>
				
					<path fill="none" stroke="#3B3735" stroke-width="2" stroke-linecap="round" stroke-linejoin="round" stroke-miterlimit="10" d="
					M46.136,22.222C46.136,10.502,36.635,1,24.914,1C16.292,1,8.87,6.142,5.549,13.527"/>
				
					<polyline fill="none" stroke="#3B3735" stroke-width="2" stroke-linecap="round" stroke-linejoin="round" stroke-miterlimit="10" points="
					50.007,18.591 46.136,22.482 41.381,18.649 				"/>
			</g>
		</g>
	</g>
</g>
</svg>
