<?xml version="1.0" encoding="utf-8"?>
<!-- Generator: Adobe Illustrator 17.0.0, SVG Export Plug-In . SVG Version: 6.00 Build 0)  -->
<!DOCTYPE svg PUBLIC "-//W3C//DTD SVG 1.1//EN" "http://www.w3.org/Graphics/SVG/1.1/DTD/svg11.dtd">
<svg version="1.1" id="Layer_1" xmlns="http://www.w3.org/2000/svg" xmlns:xlink="http://www.w3.org/1999/xlink" x="0px" y="0px"
	 width="46.377px" height="48.031px" viewBox="0 0 46.377 48.031" enable-background="new 0 0 46.377 48.031" xml:space="preserve">
<g>
	<path fill="none" stroke="#3B3735" stroke-width="2" stroke-linecap="round" stroke-linejoin="round" stroke-miterlimit="10" d="
		M22.691,1.128L1.534,12.784C1.205,12.965,1,13.312,1,13.688v20.655c0,0.376,0.205,0.722,0.534,0.904l21.157,11.656
		c0.31,0.171,0.686,0.171,0.996,0l21.157-11.656c0.329-0.181,0.534-0.528,0.534-0.904V13.688c0-0.376-0.205-0.722-0.534-0.904
		L23.687,1.128C23.377,0.957,23.001,0.957,22.691,1.128z"/>
	<g>
		
			<polyline fill="none" stroke="#3B3735" stroke-width="2" stroke-linecap="round" stroke-linejoin="round" stroke-miterlimit="10" points="
			44.99,12.932 23.116,25.156 1.241,12.932 		"/>
		<path fill="none" stroke="#3B3735" stroke-width="2" stroke-linecap="round" stroke-linejoin="round" stroke-miterlimit="10" d="
			M23.116,0.707"/>
		
			<polyline fill="none" stroke="#3B3735" stroke-width="2" stroke-linecap="round" stroke-linejoin="round" stroke-miterlimit="10" points="
			44.99,12.932 23.116,25.156 23.116,47.031 		"/>
	</g>
	
		<polyline fill="none" stroke="#3B3735" stroke-width="2" stroke-linecap="round" stroke-linejoin="round" stroke-miterlimit="10" points="
		11.675,26.89 11.675,19.172 34.254,6.949 	"/>
	<path fill="none" stroke="#3B3735" stroke-width="2" stroke-linecap="round" stroke-linejoin="round" stroke-miterlimit="10" d="
		M33.432,27.94l-5.858,3.098c-0.585,0.309-1.289-0.115-1.289-0.777v-1.966c0-0.326,0.18-0.625,0.468-0.777l5.858-3.098
		c0.585-0.309,1.289,0.115,1.289,0.777v1.966C33.9,27.489,33.72,27.788,33.432,27.94z"/>
</g>
</svg>
