<?xml version="1.0" encoding="utf-8"?>
<!-- Generator: Adobe Illustrator 17.0.0, SVG Export Plug-In . SVG Version: 6.00 Build 0)  -->
<!DOCTYPE svg PUBLIC "-//W3C//DTD SVG 1.1//EN" "http://www.w3.org/Graphics/SVG/1.1/DTD/svg11.dtd">
<svg version="1.1" id="Layer_1" xmlns="http://www.w3.org/2000/svg" xmlns:xlink="http://www.w3.org/1999/xlink" x="0px" y="0px"
	 width="48.175px" height="42.765px" viewBox="0 0 48.175 42.765" enable-background="new 0 0 48.175 42.765" xml:space="preserve">
<g>
	<g>
		<path fill="none" stroke="#3B3735" stroke-width="2" stroke-linecap="round" stroke-linejoin="round" stroke-miterlimit="10" d="
			M27.812,3c-2.224,0-2.224-2-4.449-2c-2.226,0-2.226,2-4.453,2c-2.228,0-2.228-2-4.456-2C12.228,1,12.228,3,10,3"/>
	</g>
	<g>
		<path fill="none" stroke="#3B3735" stroke-width="2" stroke-linecap="round" stroke-linejoin="round" stroke-miterlimit="10" d="
			M44.812,10c-2.224,0-2.224-2-4.449-2c-2.226,0-2.226,2-4.453,2c-2.228,0-2.228-2-4.456-2S29.228,10,27,10"/>
	</g>
	<g>
		
			<rect x="7.09" y="8.765" fill="none" stroke="#3B3735" stroke-width="2" stroke-linecap="round" stroke-linejoin="round" stroke-miterlimit="10" width="14" height="15"/>
		
			<rect x="7.09" y="8.765" fill="none" stroke="#3B3735" stroke-width="2" stroke-linecap="round" stroke-linejoin="round" stroke-miterlimit="10" width="14" height="6"/>
		
			<rect x="21.09" y="14.765" fill="none" stroke="#3B3735" stroke-width="2" stroke-linecap="round" stroke-linejoin="round" stroke-miterlimit="10" width="12" height="5"/>
		
			<polygon fill="none" stroke="#3B3735" stroke-width="2" stroke-linecap="round" stroke-linejoin="round" stroke-miterlimit="10" points="
			7.159,23.765 21.016,23.765 27.175,41.765 1,41.765 		"/>
		
			<rect x="33.09" y="19.765" fill="none" stroke="#3B3735" stroke-width="2" stroke-linecap="round" stroke-linejoin="round" stroke-miterlimit="10" width="10" height="4"/>
		
			<polygon fill="none" stroke="#3B3735" stroke-width="2" stroke-linecap="round" stroke-linejoin="round" stroke-miterlimit="10" points="
			21.09,24.589 21.09,14.765 33.09,14.765 33.09,26.765 22.043,26.765 		"/>
		
			<polygon fill="none" stroke="#3B3735" stroke-width="2" stroke-linecap="round" stroke-linejoin="round" stroke-miterlimit="10" points="
			33.053,26.765 38.175,41.765 27.175,41.765 22.043,26.765 		"/>
		
			<polygon fill="none" stroke="#3B3735" stroke-width="2" stroke-linecap="round" stroke-linejoin="round" stroke-miterlimit="10" points="
			33.09,27.482 33.09,19.765 43.09,19.765 43.09,29.765 34.078,29.765 		"/>
		
			<polygon fill="none" stroke="#3B3735" stroke-width="2" stroke-linecap="round" stroke-linejoin="round" stroke-miterlimit="10" points="
			43.03,29.765 47.175,41.765 38.175,41.765 34.078,29.765 		"/>
	</g>
</g>
</svg>
