<?xml version="1.0" encoding="utf-8"?>
<!-- Generator: Adobe Illustrator 17.0.0, SVG Export Plug-In . SVG Version: 6.00 Build 0)  -->
<!DOCTYPE svg PUBLIC "-//W3C//DTD SVG 1.1//EN" "http://www.w3.org/Graphics/SVG/1.1/DTD/svg11.dtd">
<svg version="1.1" id="Layer_1" xmlns="http://www.w3.org/2000/svg" xmlns:xlink="http://www.w3.org/1999/xlink" x="0px" y="0px"
	 width="49.502px" height="43.836px" viewBox="0 0 49.502 43.836" enable-background="new 0 0 49.502 43.836" xml:space="preserve">
<g>
	<path fill="none" stroke="#000000" stroke-width="2" stroke-linecap="round" stroke-linejoin="round" stroke-miterlimit="10" d="
		M24.324,1.096c0.235-0.128,0.619-0.128,0.854,0l19.616,10.39H4.708L24.324,1.096z"/>
	<path fill="none" stroke="#000000" stroke-width="2" stroke-linecap="round" stroke-linejoin="round" stroke-miterlimit="10" d="
		M4.063,11.486h41.376c0.518,0,0.937,0.365,0.937,0.814v2.227c0,0.45-0.42,0.814-0.937,0.814H4.063
		c-0.518,0-0.937-0.365-0.937-0.814V12.3C3.126,11.85,3.546,11.486,4.063,11.486z"/>
	<path fill="none" stroke="#000000" stroke-width="2" stroke-linecap="round" stroke-linejoin="round" stroke-miterlimit="10" d="
		M4.063,35.203h41.376c0.518,0,0.937,0.365,0.937,0.814v2.227c0,0.45-0.42,0.814-0.937,0.814H4.063
		c-0.518,0-0.937-0.365-0.937-0.814v-2.227C3.126,35.568,3.546,35.203,4.063,35.203z"/>
	<path fill="none" stroke="#000000" stroke-width="2" stroke-linecap="round" stroke-linejoin="round" stroke-miterlimit="10" d="
		M2.029,39.059h45.444c0.568,0,1.029,0.357,1.029,0.798v2.181c0,0.441-0.461,0.798-1.029,0.798H2.029
		C1.461,42.836,1,42.479,1,42.038v-2.181C1,39.416,1.461,39.059,2.029,39.059z"/>
	<g>
		<path fill="none" stroke="#000000" stroke-width="2" stroke-linecap="round" stroke-linejoin="round" stroke-miterlimit="10" d="
			M12.605,18.631H6.799c-0.552,0-1-0.448-1-1v-2.289h7.806v2.289C13.605,18.183,13.157,18.631,12.605,18.631z"/>
		<path fill="none" stroke="#000000" stroke-width="2" stroke-linecap="round" stroke-linejoin="round" stroke-miterlimit="10" d="
			M6.799,31.914h5.806c0.552,0,1,0.448,1,1v2.289H5.799v-2.289C5.799,32.362,6.246,31.914,6.799,31.914z"/>
		
			<rect x="6.977" y="18.631" fill="none" stroke="#000000" stroke-width="2" stroke-linecap="round" stroke-linejoin="round" stroke-miterlimit="10" width="5.597" height="13.283"/>
	</g>
	<g>
		<path fill="none" stroke="#000000" stroke-width="2" stroke-linecap="round" stroke-linejoin="round" stroke-miterlimit="10" d="
			M43.794,18.631h-5.806c-0.552,0-1-0.448-1-1v-2.289h7.806v2.289C44.794,18.183,44.347,18.631,43.794,18.631z"/>
		<path fill="none" stroke="#000000" stroke-width="2" stroke-linecap="round" stroke-linejoin="round" stroke-miterlimit="10" d="
			M37.988,31.914h5.806c0.552,0,1,0.448,1,1v2.289h-7.806v-2.289C36.988,32.362,37.436,31.914,37.988,31.914z"/>
		
			<rect x="38.166" y="18.631" fill="none" stroke="#000000" stroke-width="2" stroke-linecap="round" stroke-linejoin="round" stroke-miterlimit="10" width="5.597" height="13.283"/>
	</g>
	<g>
		<path fill="none" stroke="#000000" stroke-width="2" stroke-linecap="round" stroke-linejoin="round" stroke-miterlimit="10" d="
			M27.675,18.631h-5.806c-0.552,0-1-0.448-1-1v-2.289h7.806v2.289C28.675,18.183,28.227,18.631,27.675,18.631z"/>
		<path fill="none" stroke="#000000" stroke-width="2" stroke-linecap="round" stroke-linejoin="round" stroke-miterlimit="10" d="
			M21.869,31.914h5.806c0.552,0,1,0.448,1,1v2.289h-7.806v-2.289C20.869,32.362,21.316,31.914,21.869,31.914z"/>
		
			<rect x="22.047" y="18.631" fill="none" stroke="#000000" stroke-width="2" stroke-linecap="round" stroke-linejoin="round" stroke-miterlimit="10" width="5.597" height="13.283"/>
	</g>
</g>
</svg>
