<?xml version="1.0" encoding="utf-8"?>
<!-- Generator: Adobe Illustrator 17.0.0, SVG Export Plug-In . SVG Version: 6.00 Build 0)  -->
<!DOCTYPE svg PUBLIC "-//W3C//DTD SVG 1.1//EN" "http://www.w3.org/Graphics/SVG/1.1/DTD/svg11.dtd">
<svg version="1.1" id="Layer_1" xmlns="http://www.w3.org/2000/svg" xmlns:xlink="http://www.w3.org/1999/xlink" x="0px" y="0px"
	 width="39.725px" height="49.585px" viewBox="0 0 39.725 49.585" enable-background="new 0 0 39.725 49.585" xml:space="preserve">
<g>
	<g>
		
			<circle fill="none" stroke="#3B3735" stroke-width="2" stroke-linecap="round" stroke-linejoin="round" stroke-miterlimit="10" cx="19.863" cy="29.723" r="18.863"/>
		<path fill="none" stroke="#3B3735" stroke-width="2" stroke-linecap="round" stroke-linejoin="round" stroke-miterlimit="10" d="
			M7.557,43.692c-1.061-4.609-1.495-8.893-1.495-13.983c0-4.745,0.497-9.331,1.424-13.664"/>
		<path fill="none" stroke="#3B3735" stroke-width="2" stroke-linecap="round" stroke-linejoin="round" stroke-miterlimit="10" d="
			M15.662,48.11c-0.963-5.931-1.377-11.845-1.377-18.53c0-6.258,0.479-12.363,1.39-18.248"/>
		<path fill="none" stroke="#3B3735" stroke-width="2" stroke-linecap="round" stroke-linejoin="round" stroke-miterlimit="10" d="
			M24.092,47.929c0.942-5.87,1.348-11.732,1.348-18.349c0-6.259-0.479-12.364-1.39-18.25"/>
		<path fill="none" stroke="#3B3735" stroke-width="2" stroke-linecap="round" stroke-linejoin="round" stroke-miterlimit="10" d="
			M1.472,25.52c5.931-0.963,11.845-1.377,18.53-1.377c6.258,0,12.363,0.479,18.248,1.39"/>
		<path fill="none" stroke="#3B3735" stroke-width="2" stroke-linecap="round" stroke-linejoin="round" stroke-miterlimit="10" d="
			M1.654,33.95c5.87,0.942,11.732,1.348,18.349,1.348c6.259,0,12.364-0.479,18.25-1.39"/>
		<path fill="none" stroke="#3B3735" stroke-width="2" stroke-linecap="round" stroke-linejoin="round" stroke-miterlimit="10" d="
			M32.168,43.692c1.061-4.609,1.495-8.893,1.495-13.983c0-4.995-0.551-9.813-1.574-14.346"/>
		<path fill="none" stroke="#3B3735" stroke-width="2" stroke-linecap="round" stroke-linejoin="round" stroke-miterlimit="10" d="
			M5.891,17.415c4.609-1.061,8.893-1.495,13.983-1.495c4.745,0,9.331,0.497,13.664,1.424"/>
		<path fill="none" stroke="#3B3735" stroke-width="2" stroke-linecap="round" stroke-linejoin="round" stroke-miterlimit="10" d="
			M5.891,42.027c4.609,1.061,8.893,1.495,13.983,1.495c4.995,0,9.813-0.551,14.346-1.574"/>
	</g>
	
		<line fill="none" stroke="#3B3735" stroke-width="2" stroke-linecap="round" stroke-linejoin="round" stroke-miterlimit="10" x1="19.725" y1="10" x2="19.725" y2="1"/>
</g>
</svg>
