<?xml version="1.0" encoding="utf-8"?>
<!-- Generator: Adobe Illustrator 17.0.0, SVG Export Plug-In . SVG Version: 6.00 Build 0)  -->
<!DOCTYPE svg PUBLIC "-//W3C//DTD SVG 1.1//EN" "http://www.w3.org/Graphics/SVG/1.1/DTD/svg11.dtd">
<svg version="1.1" id="Layer_1" xmlns="http://www.w3.org/2000/svg" xmlns:xlink="http://www.w3.org/1999/xlink" x="0px" y="0px"
	 width="480px" height="480px" viewBox="0 0 480 480" enable-background="new 0 0 480 480" xml:space="preserve">
<g>
	<g>
		<path fill="none" stroke="#3B3735" stroke-width="2" stroke-linecap="round" stroke-linejoin="round" stroke-miterlimit="10" d="
			M230.595,257.863l-9.737,2.844c-0.812,0.237-1.565-0.516-1.328-1.328l2.844-9.737c0.05-0.173,0.144-0.33,0.271-0.457
			l27.889-27.889c0.418-0.418,1.096-0.418,1.514,0l6.893,6.893c0.418,0.418,0.418,1.096,0,1.514l-27.889,27.889
			C230.925,257.719,230.768,257.812,230.595,257.863z"/>
		<path fill="none" stroke="#3B3735" stroke-width="2" stroke-linecap="round" stroke-linejoin="round" stroke-miterlimit="10" d="
			M257.262,226.509l-3.534-3.534l4.747-4.747c0.391-0.391,1.024-0.391,1.414,0l2.12,2.12c0.391,0.391,0.391,1.024,0,1.414
			L257.262,226.509z"/>
		<path fill="none" stroke="#3B3735" stroke-width="2" stroke-linecap="round" stroke-linejoin="round" stroke-miterlimit="10" d="
			M248.338,247.029l10.511-10.511c0.205-0.205,0.319-0.485,0.314-0.776l-0.102-5.873"/>
		
			<line fill="none" stroke="#3B3735" stroke-width="2" stroke-linecap="round" stroke-linejoin="round" stroke-miterlimit="10" x1="234.599" y1="238.487" x2="242.377" y2="246.266"/>
	</g>
	
		<line fill="none" stroke="#3B3735" stroke-width="2" stroke-linecap="round" stroke-linejoin="round" stroke-miterlimit="10" x1="219.749" y1="260.408" x2="218.335" y2="261.822"/>
</g>
</svg>
