<?xml version="1.0" encoding="utf-8"?>
<!-- Generator: Adobe Illustrator 17.0.0, SVG Export Plug-In . SVG Version: 6.00 Build 0)  -->
<!DOCTYPE svg PUBLIC "-//W3C//DTD SVG 1.1//EN" "http://www.w3.org/Graphics/SVG/1.1/DTD/svg11.dtd">
<svg version="1.1" id="Layer_1" xmlns="http://www.w3.org/2000/svg" xmlns:xlink="http://www.w3.org/1999/xlink" x="0px" y="0px"
	 width="45.064px" height="45.064px" viewBox="0 0 45.064 45.064" enable-background="new 0 0 45.064 45.064" xml:space="preserve">
<g>
	<path fill="none" stroke="#3B3735" stroke-width="2" stroke-linecap="round" stroke-linejoin="round" stroke-miterlimit="10" d="
		M14.859,40.167L2.207,44.019c-0.735,0.224-1.386-0.428-1.163-1.163l3.852-12.652L29.369,5.732l9.963,9.963L14.859,40.167z"/>
	
		<rect x="25.799" y="10.09" transform="matrix(0.7071 0.7071 -0.7071 0.7071 18.2607 -19.6448)" fill="none" stroke="#3B3735" stroke-width="2" stroke-linecap="round" stroke-linejoin="round" stroke-miterlimit="10" width="14.089" height="4.261"/>
	<path fill="none" stroke="#3B3735" stroke-width="2" stroke-linecap="round" stroke-linejoin="round" stroke-miterlimit="10" d="
		M14.859,40.167l0.272-4.276c0.036-0.564-0.413-1.012-0.976-0.976L10.92,35.12c-0.564,0.036-1.012-0.413-0.976-0.976l0.205-3.234
		c0.036-0.564-0.413-1.012-0.976-0.976l-4.276,0.272L26.413,8.689l9.963,9.963L14.859,40.167z"/>
	
		<line fill="none" stroke="#3B3735" stroke-width="2" stroke-linecap="round" stroke-linejoin="round" stroke-miterlimit="10" x1="31.394" y1="13.67" x2="10.416" y2="34.647"/>
	
		<line fill="none" stroke="#3B3735" stroke-width="2" stroke-linecap="round" stroke-linejoin="round" stroke-miterlimit="10" x1="6.791" y1="28.311" x2="26.413" y2="8.689"/>
	
		<line fill="none" stroke="#3B3735" stroke-width="2" stroke-linecap="round" stroke-linejoin="round" stroke-miterlimit="10" x1="28.903" y1="11.179" x2="9.929" y2="30.153"/>
	
		<line fill="none" stroke="#3B3735" stroke-width="2" stroke-linecap="round" stroke-linejoin="round" stroke-miterlimit="10" x1="36.375" y1="18.651" x2="16.753" y2="38.273"/>
	
		<line fill="none" stroke="#3B3735" stroke-width="2" stroke-linecap="round" stroke-linejoin="round" stroke-miterlimit="10" x1="14.911" y1="35.135" x2="33.885" y2="16.161"/>
	
		<line fill="none" stroke="#3B3735" stroke-width="2" stroke-linecap="round" stroke-linejoin="round" stroke-miterlimit="10" x1="3.554" y1="36.977" x2="8.503" y2="41.927"/>
	<path fill="none" stroke="#3B3735" stroke-width="2" stroke-linecap="round" stroke-linejoin="round" stroke-miterlimit="10" d="
		M42.001,3.063L42.001,3.063c-2.751-2.751-7.211-2.751-9.963,0l-2.669,2.669l9.963,9.963l2.669-2.669
		C44.752,10.275,44.752,5.814,42.001,3.063z"/>
</g>
</svg>
