<?xml version="1.0" encoding="utf-8"?>
<!-- Generator: Adobe Illustrator 17.0.0, SVG Export Plug-In . SVG Version: 6.00 Build 0)  -->
<!DOCTYPE svg PUBLIC "-//W3C//DTD SVG 1.1//EN" "http://www.w3.org/Graphics/SVG/1.1/DTD/svg11.dtd">
<svg version="1.1" id="Layer_1" xmlns="http://www.w3.org/2000/svg" xmlns:xlink="http://www.w3.org/1999/xlink" x="0px" y="0px"
	 width="41.273px" height="36.018px" viewBox="0 0 41.273 36.018" enable-background="new 0 0 41.273 36.018" xml:space="preserve">
<g>
	
		<circle fill="none" stroke="#3B3735" stroke-width="2" stroke-linecap="round" stroke-linejoin="round" stroke-miterlimit="10" cx="7.5" cy="21.35" r="4.454"/>
	<path fill="none" stroke="#3B3735" stroke-width="2" stroke-linecap="round" stroke-linejoin="round" stroke-miterlimit="10" d="
		M14,35.018v-3.889c0-2.823-2.288-5.111-5.111-5.111H5.683C3.097,26.018,1,28.114,1,30.7v4.317H14z"/>
</g>
<g>
	
		<circle fill="none" stroke="#3B3735" stroke-width="2" stroke-linecap="round" stroke-linejoin="round" stroke-miterlimit="10" cx="20.773" cy="21.35" r="4.454"/>
	<path fill="none" stroke="#3B3735" stroke-width="2" stroke-linecap="round" stroke-linejoin="round" stroke-miterlimit="10" d="
		M27.273,35.018v-3.889c0-2.823-2.288-5.111-5.111-5.111h-3.206c-2.586,0-4.683,2.097-4.683,4.683v4.317H27.273z"/>
</g>
<g>
	
		<circle fill="none" stroke="#3B3735" stroke-width="2" stroke-linecap="round" stroke-linejoin="round" stroke-miterlimit="10" cx="20.773" cy="5.454" r="4.454"/>
	<path fill="none" stroke="#3B3735" stroke-width="2" stroke-linecap="round" stroke-linejoin="round" stroke-miterlimit="10" d="
		M27.273,15.234c0-2.823-2.288-5.111-5.111-5.111h-3.206c-2.586,0-4.683,2.097-4.683,4.683"/>
</g>
<g>
	
		<circle fill="none" stroke="#3B3735" stroke-width="2" stroke-linecap="round" stroke-linejoin="round" stroke-miterlimit="10" cx="33.773" cy="21.35" r="4.454"/>
	<path fill="none" stroke="#3B3735" stroke-width="2" stroke-linecap="round" stroke-linejoin="round" stroke-miterlimit="10" d="
		M40.273,35.018v-3.889c0-2.823-2.288-5.111-5.111-5.111h-3.206c-2.586,0-4.683,2.097-4.683,4.683v4.317H40.273z"/>
</g>
</svg>
