<?xml version="1.0" encoding="utf-8"?>
<!-- Generator: Adobe Illustrator 17.0.0, SVG Export Plug-In . SVG Version: 6.00 Build 0)  -->
<!DOCTYPE svg PUBLIC "-//W3C//DTD SVG 1.1//EN" "http://www.w3.org/Graphics/SVG/1.1/DTD/svg11.dtd">
<svg version="1.1" id="Layer_1" xmlns="http://www.w3.org/2000/svg" xmlns:xlink="http://www.w3.org/1999/xlink" x="0px" y="0px"
	 width="42.206px" height="42.636px" viewBox="0 0 42.206 42.636" enable-background="new 0 0 42.206 42.636" xml:space="preserve">
<g>
	<path fill="none" stroke="#000000" stroke-width="2" stroke-linecap="round" stroke-linejoin="round" stroke-miterlimit="10" d="
		M11.909,41.636H3c-1.105,0-2-0.895-2-2V3c0-1.105,0.895-2,2-2h8.909c1.105,0,2,0.895,2,2v36.636
		C13.909,40.741,13.014,41.636,11.909,41.636z"/>
	<path fill="none" stroke="#000000" stroke-width="2" stroke-linecap="round" stroke-linejoin="round" stroke-miterlimit="10" d="
		M39.206,40.082H13.909V3.14h25.297c1.105,0,2,0.895,2,2v32.942C41.206,39.186,40.311,40.082,39.206,40.082z"/>
	
		<line fill="none" stroke="#000000" stroke-width="2" stroke-linecap="round" stroke-linejoin="round" stroke-miterlimit="10" x1="14.906" y1="12.69" x2="40.906" y2="12.69"/>
	<g>
		<g>
			<rect x="20.285" y="18.436" fill="none" stroke="#000000" stroke-miterlimit="10" width="2.942" height="2.942"/>
			<rect x="20.285" y="24.989" fill="none" stroke="#000000" stroke-miterlimit="10" width="2.942" height="2.942"/>
			<rect x="20.285" y="31.541" fill="none" stroke="#000000" stroke-miterlimit="10" width="2.942" height="2.942"/>
		</g>
		<g>
			<rect x="26.185" y="18.436" fill="none" stroke="#000000" stroke-miterlimit="10" width="2.942" height="2.942"/>
			<rect x="26.185" y="24.989" fill="none" stroke="#000000" stroke-miterlimit="10" width="2.942" height="2.942"/>
			<rect x="26.185" y="31.541" fill="none" stroke="#000000" stroke-miterlimit="10" width="2.942" height="2.942"/>
		</g>
		<g>
			<rect x="32.084" y="18.436" fill="none" stroke="#000000" stroke-miterlimit="10" width="2.942" height="2.942"/>
			<rect x="32.084" y="24.989" fill="none" stroke="#000000" stroke-miterlimit="10" width="2.942" height="2.942"/>
			<rect x="32.084" y="31.541" fill="none" stroke="#000000" stroke-miterlimit="10" width="2.942" height="2.942"/>
		</g>
	</g>
</g>
</svg>
