<?xml version="1.0" encoding="utf-8"?>
<!-- Generator: Adobe Illustrator 17.0.0, SVG Export Plug-In . SVG Version: 6.00 Build 0)  -->
<!DOCTYPE svg PUBLIC "-//W3C//DTD SVG 1.1//EN" "http://www.w3.org/Graphics/SVG/1.1/DTD/svg11.dtd">
<svg version="1.1" id="Layer_1" xmlns="http://www.w3.org/2000/svg" xmlns:xlink="http://www.w3.org/1999/xlink" x="0px" y="0px"
	 width="47.626px" height="42.875px" viewBox="0 0 47.626 42.875" enable-background="new 0 0 47.626 42.875" xml:space="preserve">
<g>
	<g>
		<g>
			<path fill="none" stroke="#3B3735" stroke-width="2" stroke-linecap="round" stroke-linejoin="round" stroke-miterlimit="10" d="
				M44.626,41.875H27.473c-1.105,0-2-0.895-2-2V3c0-1.105,0.895-2,2-2h17.153c1.105,0,2,0.895,2,2v36.875
				C46.626,40.98,45.73,41.875,44.626,41.875z"/>
			
				<line fill="none" stroke="#3B3735" stroke-width="2" stroke-linecap="round" stroke-linejoin="round" stroke-miterlimit="10" x1="26.262" y1="7.265" x2="46.262" y2="7.265"/>
			
				<line fill="none" stroke="#3B3735" stroke-width="2" stroke-linecap="round" stroke-linejoin="round" stroke-miterlimit="10" x1="26.262" y1="34.265" x2="46.262" y2="34.265"/>
			
				<line fill="none" stroke="#3B3735" stroke-width="2" stroke-linecap="round" stroke-linejoin="round" stroke-miterlimit="10" x1="33.262" y1="4.265" x2="38.262" y2="4.265"/>
			
				<circle fill="none" stroke="#3B3735" stroke-width="2" stroke-linecap="round" stroke-linejoin="round" stroke-miterlimit="10" cx="36.049" cy="38.37" r="0.959"/>
		</g>
	</g>
	<g>
		<path fill="none" stroke="#3B3735" stroke-width="2" stroke-linecap="round" stroke-linejoin="round" stroke-miterlimit="10" d="
			M25.245,9.484c-2.397-1.422-5.195-2.238-8.183-2.238C8.191,7.245,1,14.437,1,23.308S8.191,39.37,17.062,39.37
			c3.047,0,5.895-0.848,8.322-2.321"/>
		<path fill="none" stroke="#3B3735" stroke-width="2" stroke-linecap="round" stroke-linejoin="round" stroke-miterlimit="10" d="
			M25.424,18.583c-1.099-6.565-4.427-11.337-8.362-11.337c-4.83,0-8.746,7.191-8.746,16.062s3.916,16.062,8.746,16.062
			c3.489,0,6.88-3.762,8.413-9.192"/>
		
			<line fill="none" stroke="#3B3735" stroke-width="2" stroke-linecap="round" stroke-linejoin="round" stroke-miterlimit="10" x1="25.262" y1="18.265" x2="2.262" y2="18.265"/>
		
			<line fill="none" stroke="#3B3735" stroke-width="2" stroke-linecap="round" stroke-linejoin="round" stroke-miterlimit="10" x1="25.262" y1="27.265" x2="2.262" y2="27.265"/>
		
			<line fill="none" stroke="#3B3735" stroke-width="2" stroke-linecap="round" stroke-linejoin="round" stroke-miterlimit="10" x1="18.262" y1="7.265" x2="18.262" y2="38.265"/>
	</g>
</g>
</svg>
