<?xml version="1.0" encoding="utf-8"?>
<!-- Generator: Adobe Illustrator 17.0.0, SVG Export Plug-In . SVG Version: 6.00 Build 0)  -->
<!DOCTYPE svg PUBLIC "-//W3C//DTD SVG 1.1//EN" "http://www.w3.org/Graphics/SVG/1.1/DTD/svg11.dtd">
<svg version="1.1" id="Layer_1" xmlns="http://www.w3.org/2000/svg" xmlns:xlink="http://www.w3.org/1999/xlink" x="0px" y="0px"
	 width="48.468px" height="46.412px" viewBox="0 0 48.468 46.412" enable-background="new 0 0 48.468 46.412" xml:space="preserve">
<g>
	<g>
		
			<line fill="none" stroke="#3B3735" stroke-width="2" stroke-linecap="round" stroke-linejoin="round" stroke-miterlimit="10" x1="22.558" y1="24.128" x2="22.558" y2="3.128"/>
		
			<line fill="none" stroke="#3B3735" stroke-width="2" stroke-linecap="round" stroke-linejoin="round" stroke-miterlimit="10" x1="22.468" y1="24.488" x2="4.073" y2="34.619"/>
		
			<line fill="none" stroke="#3B3735" stroke-width="2" stroke-linecap="round" stroke-linejoin="round" stroke-miterlimit="10" x1="22.468" y1="24.488" x2="40.863" y2="34.619"/>
	</g>
	<path fill="none" stroke="#3B3735" stroke-width="2" stroke-linecap="round" stroke-linejoin="round" stroke-miterlimit="10" d="
		M47.468,22.212C47.468,10.7,38.352,1.35,26.925,1l-0.367,0.488v21l18.253,10.077C46.526,29.501,47.468,25.974,47.468,22.212z"/>
	<g>
		<path fill="none" stroke="#3B3735" stroke-width="2" stroke-linecap="round" stroke-linejoin="round" stroke-miterlimit="10" d="
			M22.268,2.787C10.534,2.787,1,12.389,1,24.122c0,11.733,9.501,21.29,21.234,21.29c8.273,0,15.035-4.697,18.583-10.869
			c-0.14,0.244,0,0,0,0L22.558,24.488V3.128"/>
	</g>
</g>
</svg>
