<?xml version="1.0" encoding="utf-8"?>
<!-- Generator: Adobe Illustrator 17.0.0, SVG Export Plug-In . SVG Version: 6.00 Build 0)  -->
<!DOCTYPE svg PUBLIC "-//W3C//DTD SVG 1.1//EN" "http://www.w3.org/Graphics/SVG/1.1/DTD/svg11.dtd">
<svg version="1.1" id="Layer_1" xmlns="http://www.w3.org/2000/svg" xmlns:xlink="http://www.w3.org/1999/xlink" x="0px" y="0px"
	 width="48px" height="46.466px" viewBox="0 0 48 46.466" enable-background="new 0 0 48 46.466" xml:space="preserve">
<g>
	<g>
		
			<polyline fill="none" stroke="#3B3735" stroke-width="2" stroke-linecap="round" stroke-linejoin="round" stroke-miterlimit="10" points="
			29.359,35.361 36,11.826 36,41.466 		"/>
		
			<polyline fill="none" stroke="#3B3735" stroke-width="2" stroke-linecap="round" stroke-linejoin="round" stroke-miterlimit="10" points="
			44.401,41.646 36,11.826 36,41.466 		"/>
	</g>
	
		<polyline fill="none" stroke="#3B3735" stroke-width="2" stroke-linecap="round" stroke-linejoin="round" stroke-miterlimit="10" points="
		43.019,37.211 30.309,31.826 39.362,25.826 	"/>
	<g>
		<path fill="none" stroke="#3B3735" stroke-width="2" stroke-linecap="round" stroke-linejoin="round" stroke-miterlimit="10" d="
			M23.176,11c-1.764,0-1.764-2-3.529-2c-1.765,0-1.765,2-3.529,2c-1.768,0-1.768-2-3.535-2s-1.768,2-3.535,2"/>
	</g>
	<g>
		<path fill="none" stroke="#3B3735" stroke-width="2" stroke-linecap="round" stroke-linejoin="round" stroke-miterlimit="10" d="
			M35.176,3c-1.764,0-1.764-2-3.529-2c-1.765,0-1.765,2-3.529,2c-1.768,0-1.768-2-3.535-2c-1.768,0-1.768,2-3.535,2"/>
	</g>
	
		<rect x="7" y="15.466" fill="none" stroke="#3B3735" stroke-width="2" stroke-linecap="round" stroke-linejoin="round" stroke-miterlimit="10" width="11" height="12"/>
	
		<rect x="7" y="15.466" fill="none" stroke="#3B3735" stroke-width="2" stroke-linecap="round" stroke-linejoin="round" stroke-miterlimit="10" width="11" height="5"/>
	
		<rect x="18" y="20.466" fill="none" stroke="#3B3735" stroke-width="2" stroke-linecap="round" stroke-linejoin="round" stroke-miterlimit="10" width="9" height="3"/>
	
		<polygon fill="none" stroke="#3B3735" stroke-width="2" stroke-linecap="round" stroke-linejoin="round" stroke-miterlimit="10" points="
		6.795,27.466 17.786,27.466 22.671,41.466 1.91,41.466 	"/>
	
		<polygon fill="none" stroke="#3B3735" stroke-width="2" stroke-linecap="round" stroke-linejoin="round" stroke-miterlimit="10" points="
		18,27.917 18,20.466 27,20.466 27,29.466 18.6,29.466 	"/>
	
		<polygon fill="none" stroke="#3B3735" stroke-width="2" stroke-linecap="round" stroke-linejoin="round" stroke-miterlimit="10" points="
		27.333,29.466 31.395,41.466 22.671,41.466 18.6,29.466 	"/>
	
		<rect x="1" y="41.466" fill="none" stroke="#3B3735" stroke-width="2" stroke-linecap="round" stroke-linejoin="round" stroke-miterlimit="10" width="46" height="4"/>
</g>
</svg>
