<?xml version="1.0" encoding="utf-8"?>
<!-- Generator: Adobe Illustrator 17.0.0, SVG Export Plug-In . SVG Version: 6.00 Build 0)  -->
<!DOCTYPE svg PUBLIC "-//W3C//DTD SVG 1.1//EN" "http://www.w3.org/Graphics/SVG/1.1/DTD/svg11.dtd">
<svg version="1.1" id="Layer_1" xmlns="http://www.w3.org/2000/svg" xmlns:xlink="http://www.w3.org/1999/xlink" x="0px" y="0px"
	 width="42.497px" height="42.497px" viewBox="0 0 42.497 42.497" enable-background="new 0 0 42.497 42.497" xml:space="preserve">
<g>
	
		<path fill="none" stroke="#231F20" stroke-width="1.5001" stroke-linecap="round" stroke-linejoin="round" stroke-miterlimit="2.6131" d="
		M41.25,1.247C38.839-1.164,30.125,5.66,24.221,11.88L6.918,7.218l-1.435,3.218l12.187,8.882c-2.679,3.212-5.299,6.505-7.791,9.557
		L1.258,27.15L0.75,28.629l8.782,4.336l4.336,8.782l1.479-0.507l-1.725-8.622c3.052-2.492,6.345-5.112,9.556-7.791l8.882,12.186
		l3.217-1.434l-4.662-17.303C36.837,12.372,43.661,3.657,41.25,1.247z"/>
	<path fill="none" stroke="#231F20" stroke-width="1.5001" stroke-miterlimit="2.6131" d="M17.755,6.143l2.259,2.259
		c0.386,0.386,0.386,1.018,0,1.404l-0.742,0.741l-5.771-1.555l2.849-2.849C16.737,5.757,17.369,5.757,17.755,6.143z"/>
	<path fill="none" stroke="#231F20" stroke-width="1.5001" stroke-miterlimit="2.6131" d="M36.353,24.742l-2.259-2.259
		c-0.386-0.386-1.018-0.386-1.404,0l-0.741,0.741l1.555,5.771l2.849-2.849C36.74,25.759,36.74,25.128,36.353,24.742z"/>
</g>
</svg>
