<?xml version="1.0" encoding="utf-8"?>
<!-- Generator: Adobe Illustrator 17.0.0, SVG Export Plug-In . SVG Version: 6.00 Build 0)  -->
<!DOCTYPE svg PUBLIC "-//W3C//DTD SVG 1.1//EN" "http://www.w3.org/Graphics/SVG/1.1/DTD/svg11.dtd">
<svg version="1.1" id="Layer_1" xmlns="http://www.w3.org/2000/svg" xmlns:xlink="http://www.w3.org/1999/xlink" x="0px" y="0px"
	 width="48px" height="46.466px" viewBox="0 0 48 46.466" enable-background="new 0 0 48 46.466" xml:space="preserve">
<g>
	<g>
		<path fill="none" stroke="#3B3735" stroke-width="2" stroke-linecap="round" stroke-linejoin="round" stroke-miterlimit="10" d="
			M23.176,11c-1.764,0-1.764-2-3.529-2c-1.765,0-1.765,2-3.529,2c-1.768,0-1.768-2-3.535-2s-1.768,2-3.535,2"/>
	</g>
	
		<rect x="7" y="15.466" fill="none" stroke="#3B3735" stroke-width="2" stroke-linecap="round" stroke-linejoin="round" stroke-miterlimit="10" width="11" height="12"/>
	
		<rect x="7" y="15.466" fill="none" stroke="#3B3735" stroke-width="2" stroke-linecap="round" stroke-linejoin="round" stroke-miterlimit="10" width="11" height="5"/>
	
		<rect x="18" y="20.466" fill="none" stroke="#3B3735" stroke-width="2" stroke-linecap="round" stroke-linejoin="round" stroke-miterlimit="10" width="9" height="3"/>
	
		<polygon fill="none" stroke="#3B3735" stroke-width="2" stroke-linecap="round" stroke-linejoin="round" stroke-miterlimit="10" points="
		6.795,27.466 17.786,27.466 22.671,41.466 1.91,41.466 	"/>
	
		<polygon fill="none" stroke="#3B3735" stroke-width="2" stroke-linecap="round" stroke-linejoin="round" stroke-miterlimit="10" points="
		18,27.917 18,20.466 27,20.466 27,29.466 18.6,29.466 	"/>
	
		<polygon fill="none" stroke="#3B3735" stroke-width="2" stroke-linecap="round" stroke-linejoin="round" stroke-miterlimit="10" points="
		27.333,29.466 31.395,41.466 22.671,41.466 18.6,29.466 	"/>
	
		<rect x="1" y="41.466" fill="none" stroke="#3B3735" stroke-width="2" stroke-linecap="round" stroke-linejoin="round" stroke-miterlimit="10" width="46" height="4"/>
	<g>
		<path fill="none" stroke="#3B3735" stroke-width="2" stroke-linecap="round" stroke-linejoin="round" stroke-miterlimit="10" d="
			M34.176,3c-1.764,0-1.764-2-3.529-2c-1.765,0-1.765,2-3.529,2c-1.768,0-1.768-2-3.535-2c-1.768,0-1.768,2-3.535,2"/>
	</g>
	<g>
		
			<line fill="none" stroke="#3B3735" stroke-width="2" stroke-linecap="round" stroke-linejoin="round" stroke-miterlimit="10" x1="30" y1="30.466" x2="45" y2="30.466"/>
		
			<line fill="none" stroke="#3B3735" stroke-width="2" stroke-linecap="round" stroke-linejoin="round" stroke-miterlimit="10" x1="30" y1="19.466" x2="45" y2="19.466"/>
		<path fill="none" stroke="#3B3735" stroke-width="2" stroke-linecap="round" stroke-linejoin="round" stroke-miterlimit="10" d="
			M43,31.062c0,2.984-2.419,5.403-5.403,5.403h-0.194c-2.984,0-5.403-2.419-5.403-5.403V19.869c0-2.984,2.419-5.403,5.403-5.403
			h0.194c2.984,0,5.403,2.419,5.403,5.403V31.062z"/>
		
			<line fill="none" stroke="#3B3735" stroke-width="2" stroke-linecap="round" stroke-linejoin="round" stroke-miterlimit="10" x1="33.456" y1="35.204" x2="31.91" y2="41.826"/>
		
			<line fill="none" stroke="#3B3735" stroke-width="2" stroke-linecap="round" stroke-linejoin="round" stroke-miterlimit="10" x1="41.557" y1="35.204" x2="43.103" y2="41.826"/>
	</g>
</g>
</svg>
