<?xml version="1.0" encoding="utf-8"?>
<!-- Generator: Adobe Illustrator 17.0.0, SVG Export Plug-In . SVG Version: 6.00 Build 0)  -->
<!DOCTYPE svg PUBLIC "-//W3C//DTD SVG 1.1//EN" "http://www.w3.org/Graphics/SVG/1.1/DTD/svg11.dtd">
<svg version="1.1" id="Layer_1" xmlns="http://www.w3.org/2000/svg" xmlns:xlink="http://www.w3.org/1999/xlink" x="0px" y="0px"
	 width="48px" height="40.466px" viewBox="0 0 48 40.466" enable-background="new 0 0 48 40.466" xml:space="preserve">
<g>
	<g>
		
			<polyline fill="none" stroke="#3B3735" stroke-width="2" stroke-linecap="round" stroke-linejoin="round" stroke-miterlimit="10" points="
			18.687,21.825 18.687,14.49 31.688,8.053 31.688,35.826 23.67,35.826 		"/>
		
			<rect x="21.616" y="18.85" fill="none" stroke="#3B3735" stroke-width="2" stroke-linecap="round" stroke-linejoin="round" stroke-miterlimit="10" width="2.37" height="3.886"/>
		
			<rect x="26.593" y="18.85" fill="none" stroke="#3B3735" stroke-width="2" stroke-linecap="round" stroke-linejoin="round" stroke-miterlimit="10" width="2.37" height="3.886"/>
		
			<rect x="21.616" y="25.407" fill="none" stroke="#3B3735" stroke-width="2" stroke-linecap="round" stroke-linejoin="round" stroke-miterlimit="10" width="2.37" height="3.886"/>
		
			<rect x="26.593" y="25.407" fill="none" stroke="#3B3735" stroke-width="2" stroke-linecap="round" stroke-linejoin="round" stroke-miterlimit="10" width="2.37" height="3.886"/>
	</g>
	<g>
		
			<polygon fill="none" stroke="#3B3735" stroke-width="2" stroke-linecap="round" stroke-linejoin="round" stroke-miterlimit="10" points="
			44.689,35.826 31.688,35.826 31.688,14.49 44.689,8.053 		"/>
		
			<rect x="34.617" y="18.85" fill="none" stroke="#3B3735" stroke-width="2" stroke-linecap="round" stroke-linejoin="round" stroke-miterlimit="10" width="2.37" height="3.886"/>
		
			<rect x="39.594" y="18.85" fill="none" stroke="#3B3735" stroke-width="2" stroke-linecap="round" stroke-linejoin="round" stroke-miterlimit="10" width="2.37" height="3.886"/>
		
			<rect x="34.617" y="25.407" fill="none" stroke="#3B3735" stroke-width="2" stroke-linecap="round" stroke-linejoin="round" stroke-miterlimit="10" width="2.37" height="3.886"/>
		
			<rect x="39.594" y="25.407" fill="none" stroke="#3B3735" stroke-width="2" stroke-linecap="round" stroke-linejoin="round" stroke-miterlimit="10" width="2.37" height="3.886"/>
	</g>
	
		<rect x="1" y="35.466" fill="none" stroke="#3B3735" stroke-width="2" stroke-linecap="round" stroke-linejoin="round" stroke-miterlimit="10" width="46" height="4"/>
	
		<rect x="8" y="9.466" fill="none" stroke="#3B3735" stroke-width="2" stroke-linecap="round" stroke-linejoin="round" stroke-miterlimit="10" width="11" height="12"/>
	
		<rect x="8" y="9.466" fill="none" stroke="#3B3735" stroke-width="2" stroke-linecap="round" stroke-linejoin="round" stroke-miterlimit="10" width="11" height="5"/>
	<g>
		<path fill="none" stroke="#3B3735" stroke-width="2" stroke-linecap="round" stroke-linejoin="round" stroke-miterlimit="10" d="
			M24.176,3c-1.764,0-1.764-2-3.529-2c-1.765,0-1.765,2-3.529,2c-1.768,0-1.768-2-3.535-2c-1.768,0-1.768,2-3.535,2"/>
	</g>
	
		<polygon fill="none" stroke="#3B3735" stroke-width="2" stroke-linecap="round" stroke-linejoin="round" stroke-miterlimit="10" points="
		7.795,21.466 18.786,21.466 23.671,35.466 2.91,35.466 	"/>
	
		<polygon fill="none" stroke="#3B3735" stroke-width="2" stroke-linecap="round" stroke-linejoin="round" stroke-miterlimit="10" points="
		7.795,21.466 18.786,21.466 23.671,35.466 2.91,35.466 	"/>
</g>
</svg>
