<?xml version="1.0" encoding="utf-8"?>
<!-- Generator: Adobe Illustrator 17.0.0, SVG Export Plug-In . SVG Version: 6.00 Build 0)  -->
<!DOCTYPE svg PUBLIC "-//W3C//DTD SVG 1.1//EN" "http://www.w3.org/Graphics/SVG/1.1/DTD/svg11.dtd">
<svg version="1.1" id="Layer_1" xmlns="http://www.w3.org/2000/svg" xmlns:xlink="http://www.w3.org/1999/xlink" x="0px" y="0px"
	 width="48px" height="38px" viewBox="0 0 48 38" enable-background="new 0 0 48 38" xml:space="preserve">
<rect x="1" y="32" fill="none" stroke="#3B3735" stroke-width="2" stroke-linecap="round" stroke-linejoin="round" stroke-miterlimit="10" width="46" height="5"/>
<g>
	<g>
		
			<line fill="none" stroke="#3B3735" stroke-width="2" stroke-linecap="round" stroke-linejoin="round" stroke-miterlimit="10" x1="9" y1="22" x2="22" y2="22"/>
		
			<line fill="none" stroke="#3B3735" stroke-width="2" stroke-linecap="round" stroke-linejoin="round" stroke-miterlimit="10" x1="9" y1="13" x2="22" y2="13"/>
		<path fill="none" stroke="#3B3735" stroke-width="2" stroke-linecap="round" stroke-linejoin="round" stroke-miterlimit="10" d="
			M20,22.239C20,24.868,17.868,27,15.239,27h-0.478C12.132,27,10,24.868,10,22.239v-9.478C10,10.132,12.132,8,14.761,8h0.478
			C17.868,8,20,10.132,20,12.761V22.239z"/>
		
			<line fill="none" stroke="#3B3735" stroke-width="2" stroke-linecap="round" stroke-linejoin="round" stroke-miterlimit="10" x1="11.677" y1="26.526" x2="10.315" y2="32.36"/>
		
			<line fill="none" stroke="#3B3735" stroke-width="2" stroke-linecap="round" stroke-linejoin="round" stroke-miterlimit="10" x1="18.816" y1="26.526" x2="20.179" y2="32.36"/>
	</g>
	<path fill="none" stroke="#3B3735" stroke-width="2" stroke-linecap="round" stroke-linejoin="round" stroke-miterlimit="10" d="
		M15,8V4.045C15,2.585,13.537,1,12.078,1H8.553C7.093,1,6,2.585,6,4.045V32"/>
</g>
<g>
	<g>
		
			<line fill="none" stroke="#3B3735" stroke-width="2" stroke-linecap="round" stroke-linejoin="round" stroke-miterlimit="10" x1="30" y1="22" x2="43" y2="22"/>
		
			<line fill="none" stroke="#3B3735" stroke-width="2" stroke-linecap="round" stroke-linejoin="round" stroke-miterlimit="10" x1="30" y1="13" x2="43" y2="13"/>
		<path fill="none" stroke="#3B3735" stroke-width="2" stroke-linecap="round" stroke-linejoin="round" stroke-miterlimit="10" d="
			M41,22.239C41,24.868,38.868,27,36.239,27h-0.478C33.132,27,31,24.868,31,22.239v-9.478C31,10.132,33.132,8,35.761,8h0.478
			C38.868,8,41,10.132,41,12.761V22.239z"/>
		
			<line fill="none" stroke="#3B3735" stroke-width="2" stroke-linecap="round" stroke-linejoin="round" stroke-miterlimit="10" x1="32.677" y1="26.526" x2="31.315" y2="32.36"/>
		
			<line fill="none" stroke="#3B3735" stroke-width="2" stroke-linecap="round" stroke-linejoin="round" stroke-miterlimit="10" x1="39.816" y1="26.526" x2="41.179" y2="32.36"/>
	</g>
	<path fill="none" stroke="#3B3735" stroke-width="2" stroke-linecap="round" stroke-linejoin="round" stroke-miterlimit="10" d="
		M36,8V4.045C36,2.585,34.537,1,33.078,1h-3.525C28.093,1,27,2.585,27,4.045V32"/>
</g>
</svg>
