<?xml version="1.0" encoding="utf-8"?>
<!-- Generator: Adobe Illustrator 17.0.0, SVG Export Plug-In . SVG Version: 6.00 Build 0)  -->
<!DOCTYPE svg PUBLIC "-//W3C//DTD SVG 1.1//EN" "http://www.w3.org/Graphics/SVG/1.1/DTD/svg11.dtd">
<svg version="1.1" id="Layer_1" xmlns="http://www.w3.org/2000/svg" xmlns:xlink="http://www.w3.org/1999/xlink" x="0px" y="0px"
	 width="43.867px" height="47.993px" viewBox="0 0 43.867 47.993" enable-background="new 0 0 43.867 47.993" xml:space="preserve">
<g>
	<path fill="none" stroke="#3B3735" stroke-width="2" stroke-linecap="round" stroke-linejoin="round" stroke-miterlimit="10" d="
		M42.867,33.528c0,11.282-9.372,13.465-20.933,13.465S1,44.81,1,33.528s9.372-20.581,20.933-20.581S42.867,22.247,42.867,33.528z"/>
	<g>
		<path fill="none" stroke="#3B3735" stroke-width="2" stroke-linecap="round" stroke-linejoin="round" stroke-miterlimit="10" d="
			M15.514,13.445c0.382-1.67,0.434-2.605,0.434-4.232C15.948,3.206,13.04,1,9.452,1S2.955,3.206,2.955,9.213
			c0,3.908,1.357,8.725,2.574,11.154"/>
	</g>
	<g>
		<path fill="none" stroke="#3B3735" stroke-width="2" stroke-linecap="round" stroke-linejoin="round" stroke-miterlimit="10" d="
			M12.189,14.616c0.167-0.906,0.263-1.848,0.263-2.731c0-3.259-1.272-4.456-2.841-4.456s-2.841,1.197-2.841,4.456
			c0,2.12,0.54,4.584,1.348,6.052"/>
	</g>
	<g>
		<path fill="none" stroke="#3B3735" stroke-width="2" stroke-linecap="round" stroke-linejoin="round" stroke-miterlimit="10" d="
			M28.352,13.445c-0.382-1.67-0.434-2.605-0.434-4.232C27.918,3.206,30.827,1,34.415,1s6.497,2.206,6.497,8.213
			c0,3.908-1.357,8.725-2.574,11.154"/>
	</g>
	<g>
		<path fill="none" stroke="#3B3735" stroke-width="2" stroke-linecap="round" stroke-linejoin="round" stroke-miterlimit="10" d="
			M31.677,14.616c-0.167-0.906-0.263-1.848-0.263-2.731c0-3.259,1.272-4.456,2.841-4.456c1.569,0,2.841,1.197,2.841,4.456
			c0,2.12-0.54,4.584-1.348,6.052"/>
	</g>
	<g>
		<circle fill="#3B3735" cx="12.547" cy="29.729" r="1.886"/>
		<circle fill="#3B3735" cx="32.614" cy="29.729" r="1.886"/>
	</g>
	<path fill="none" stroke="#3B3735" stroke-width="2" stroke-linecap="round" stroke-linejoin="round" stroke-miterlimit="10" d="
		M28.47,35.761c0,0-2.928,2.509-6.006,0c-3.078,2.509-6.006,0-6.006,0"/>
	<path fill="none" stroke="#3B3735" stroke-width="2" stroke-linecap="round" stroke-linejoin="round" stroke-miterlimit="10" d="
		M23.525,31.728l-0.211,0.172c-0.645,0.524-1.568,0.524-2.213,0l-0.211-0.172"/>
</g>
</svg>
