<?xml version="1.0" encoding="utf-8"?>
<!-- Generator: Adobe Illustrator 17.0.0, SVG Export Plug-In . SVG Version: 6.00 Build 0)  -->
<!DOCTYPE svg PUBLIC "-//W3C//DTD SVG 1.1//EN" "http://www.w3.org/Graphics/SVG/1.1/DTD/svg11.dtd">
<svg version="1.1" id="Layer_1" xmlns="http://www.w3.org/2000/svg" xmlns:xlink="http://www.w3.org/1999/xlink" x="0px" y="0px"
	 width="44.996px" height="44.996px" viewBox="0 0 44.996 44.996" enable-background="new 0 0 44.996 44.996" xml:space="preserve">
<g>
	
		<circle fill="none" stroke="#3B3735" stroke-width="2" stroke-linecap="round" stroke-linejoin="round" stroke-miterlimit="10" cx="22.498" cy="22.498" r="21.498"/>
	
		<circle fill="none" stroke="#3B3735" stroke-width="2" stroke-linecap="round" stroke-linejoin="round" stroke-miterlimit="10" cx="22.498" cy="22.498" r="3.497"/>
	<path fill="none" stroke="#3B3735" stroke-width="2" stroke-linecap="round" stroke-linejoin="round" stroke-miterlimit="10" d="
		M31.159,8.967l-5.125,8.271c1.69,1.138,2.802,2.889,2.802,5.08c0,0.151-0.012,0.267-0.023,0.267h9.74
		c0.004,0,0.023-0.116,0.023-0.267C38.576,16.631,35.615,11.825,31.159,8.967z"/>
	<path fill="none" stroke="#3B3735" stroke-width="2" stroke-linecap="round" stroke-linejoin="round" stroke-miterlimit="10" d="
		M16.16,22.318c0-2.191,1.112-4.032,2.802-5.17l-5.125-8.226C9.381,11.78,6.42,16.608,6.42,22.296c0,0.151,0.018,0.29,0.023,0.29
		h9.74C16.172,22.586,16.16,22.469,16.16,22.318z"/>
	<path fill="none" stroke="#3B3735" stroke-width="2" stroke-linecap="round" stroke-linejoin="round" stroke-miterlimit="10" d="
		M25.518,28.072c-0.898,0.487-1.927,0.764-3.02,0.764c-0.99,0-1.924-0.234-2.759-0.639l-4.528,8.619
		c2.189,1.117,4.661,1.759,7.288,1.759c2.898,0,5.611-0.778,7.959-2.12L25.518,28.072z"/>
</g>
</svg>
