<?xml version="1.0" encoding="utf-8"?>
<!-- Generator: Adobe Illustrator 17.0.0, SVG Export Plug-In . SVG Version: 6.00 Build 0)  -->
<!DOCTYPE svg PUBLIC "-//W3C//DTD SVG 1.1//EN" "http://www.w3.org/Graphics/SVG/1.1/DTD/svg11.dtd">
<svg version="1.1" id="Layer_1" xmlns="http://www.w3.org/2000/svg" xmlns:xlink="http://www.w3.org/1999/xlink" x="0px" y="0px"
	 width="45.355px" height="48.86px" viewBox="0 0 45.355 48.86" enable-background="new 0 0 45.355 48.86" xml:space="preserve">
<g>
	<path fill="none" stroke="#3B3735" stroke-width="2" stroke-linecap="round" stroke-linejoin="round" stroke-miterlimit="10" d="
		M11.605,47.86l1.847-4.104c0.859-2.645,1.232-4.894,3.61-6.336l2.299-1.394l2.816-7.503h2.464l-1.76,9.945l8.097-9.945h4.929
		L24.178,43.641c-0.613,0.79-0.946,1.762-0.946,2.761v1.457"/>
	<path fill="none" stroke="#3B3735" stroke-width="2" stroke-linecap="round" stroke-linejoin="round" stroke-miterlimit="10" d="
		M15.784,28.523c0,0-1.012,6.074,2.156,8.08"/>
	<path fill="none" stroke="#3B3735" stroke-width="2" stroke-linecap="round" stroke-linejoin="round" stroke-miterlimit="10" d="
		M13.452,43.756c0,0-1.01-4.577-1.097-8.885c-0.07-3.471,0.125-6.349,0.125-6.349"/>
	
		<rect x="1" y="24.498" fill="none" stroke="#3B3735" stroke-width="2" stroke-linecap="round" stroke-linejoin="round" stroke-miterlimit="10" width="43.355" height="3.862"/>
	<path fill="none" stroke="#3B3735" stroke-width="2" stroke-linecap="round" stroke-linejoin="round" stroke-miterlimit="10" d="
		M22.677,4.041C11.731,4.041,2.857,13,2.857,24h39.641C42.498,13,33.624,4.041,22.677,4.041z"/>
	
		<line fill="none" stroke="#3B3735" stroke-width="2" stroke-linecap="round" stroke-linejoin="round" stroke-miterlimit="10" x1="22.445" y1="4" x2="22.445" y2="1"/>
</g>
</svg>
