<?xml version="1.0" encoding="utf-8"?>
<!-- Generator: Adobe Illustrator 17.0.0, SVG Export Plug-In . SVG Version: 6.00 Build 0)  -->
<!DOCTYPE svg PUBLIC "-//W3C//DTD SVG 1.1//EN" "http://www.w3.org/Graphics/SVG/1.1/DTD/svg11.dtd">
<svg version="1.1" id="Layer_1" xmlns="http://www.w3.org/2000/svg" xmlns:xlink="http://www.w3.org/1999/xlink" x="0px" y="0px"
	 width="35.525px" height="46.188px" viewBox="0 0 35.525 46.188" enable-background="new 0 0 35.525 46.188" xml:space="preserve">
<g>
	<g>
		<path fill="none" stroke="#3B3735" stroke-width="2" stroke-linecap="round" stroke-linejoin="round" stroke-miterlimit="10" d="
			M2.008,1h31.509c0.557,0,1.008,0.451,1.008,1.008v32.197L23.542,45.188H2.008C1.451,45.188,1,44.737,1,44.18V2.008
			C1,1.451,1.451,1,2.008,1z"/>
		<path fill="none" stroke="#3B3735" stroke-width="2" stroke-linecap="round" stroke-linejoin="round" stroke-miterlimit="10" d="
			M24.551,34.206h9.975L23.542,45.188v-9.975C23.542,34.657,23.994,34.206,24.551,34.206z"/>
	</g>
	<g>
		
			<line fill="none" stroke="#3B3735" stroke-width="2" stroke-linecap="round" stroke-linejoin="round" stroke-miterlimit="10" x1="7.634" y1="28.506" x2="29.634" y2="28.506"/>
		
			<line fill="none" stroke="#3B3735" stroke-width="2" stroke-linecap="round" stroke-linejoin="round" stroke-miterlimit="10" x1="7.634" y1="33.506" x2="17.634" y2="33.506"/>
		<path fill="none" stroke="#3B3735" stroke-width="2" stroke-linecap="round" stroke-linejoin="round" stroke-miterlimit="10" d="
			M20.976,15.509c0.745-0.918,1.095-2.165,0.778-3.501c-0.342-1.445-1.518-2.616-2.965-2.95c-2.651-0.611-5.006,1.386-5.006,3.933
			c0,0.951,0.332,1.82,0.885,2.506c0.426,0.529,0.257,1.314-0.348,1.621c-2.093,1.062-3.616,3.064-4.001,5.531
			c-0.101,0.65,0.42,1.238,1.078,1.238h12.859c0.658,0,1.18-0.588,1.078-1.238c-0.385-2.467-1.907-4.468-4-5.531
			C20.734,16.813,20.551,16.031,20.976,15.509z"/>
	</g>
</g>
</svg>
