<?xml version="1.0" encoding="utf-8"?>
<!-- Generator: Adobe Illustrator 17.0.0, SVG Export Plug-In . SVG Version: 6.00 Build 0)  -->
<!DOCTYPE svg PUBLIC "-//W3C//DTD SVG 1.1//EN" "http://www.w3.org/Graphics/SVG/1.1/DTD/svg11.dtd">
<svg version="1.1" id="Layer_1" xmlns="http://www.w3.org/2000/svg" xmlns:xlink="http://www.w3.org/1999/xlink" x="0px" y="0px"
	 width="39.657px" height="48.135px" viewBox="0 0 39.657 48.135" enable-background="new 0 0 39.657 48.135" xml:space="preserve">
<g>
	
		<circle fill="none" stroke="#3B3735" stroke-width="2" stroke-linecap="round" stroke-linejoin="round" stroke-miterlimit="10" cx="24.172" cy="32.669" r="10.134"/>
	<path fill="none" stroke="#3B3735" stroke-width="2" stroke-linecap="round" stroke-linejoin="round" stroke-miterlimit="10" d="
		M31.347,39.825c-0.52,0.52-1.253,1.136-1.756,1.429l5.292,5.292c0.836,0.836,2.27,0.758,3.107-0.078s0.914-2.27,0.078-3.107
		l-5.292-5.292C32.483,38.572,31.867,39.305,31.347,39.825z"/>
</g>
<g>
	<path fill="none" stroke="#3B3735" stroke-width="2" stroke-linecap="round" stroke-linejoin="round" stroke-miterlimit="10" d="
		M34.525,39.818V11.983L23.542,1H2.008C1.451,1,1,1.451,1,2.008V44.18c0,0.557,0.451,1.008,1.008,1.008h31.509"/>
	<path fill="none" stroke="#3B3735" stroke-width="2" stroke-linecap="round" stroke-linejoin="round" stroke-miterlimit="10" d="
		M24.551,11.983h9.975L23.542,1v9.975C23.542,11.531,23.994,11.983,24.551,11.983z"/>
</g>
<line fill="none" stroke="#3B3735" stroke-width="2" stroke-linecap="round" stroke-linejoin="round" stroke-miterlimit="10" x1="7.138" y1="26.506" x2="15.138" y2="26.506"/>
<line fill="none" stroke="#3B3735" stroke-width="2" stroke-linecap="round" stroke-linejoin="round" stroke-miterlimit="10" x1="7.138" y1="31.506" x2="13.138" y2="31.506"/>
<line fill="none" stroke="#3B3735" stroke-width="2" stroke-linecap="round" stroke-linejoin="round" stroke-miterlimit="10" x1="7.138" y1="36.506" x2="14.138" y2="36.506"/>
<line fill="none" stroke="#3B3735" stroke-width="2" stroke-linecap="round" stroke-linejoin="round" stroke-miterlimit="10" x1="15.138" y1="29.506" x2="24.138" y2="29.506"/>
<line fill="none" stroke="#3B3735" stroke-width="2" stroke-linecap="round" stroke-linejoin="round" stroke-miterlimit="10" x1="15.138" y1="34.506" x2="24.138" y2="34.506"/>
<path fill="none" stroke="#3B3735" stroke-width="2" stroke-linecap="round" stroke-linejoin="round" stroke-miterlimit="10" d="
	M15.479,14.444c0.541-0.684,0.795-1.613,0.565-2.608c-0.249-1.076-1.103-1.949-2.154-2.198c-1.926-0.455-3.637,1.032-3.637,2.93
	c0,0.709,0.241,1.356,0.643,1.867c0.31,0.394,0.187,0.979-0.253,1.208c-1.521,0.792-2.627,2.282-2.907,4.12
	c-0.074,0.485,0.305,0.922,0.783,0.922h9.341c0.478,0,0.857-0.438,0.783-0.922c-0.279-1.838-1.386-3.329-2.906-4.12
	C15.304,15.416,15.171,14.833,15.479,14.444z"/>
<rect x="7.138" y="6.686" fill="none" stroke="#3B3735" stroke-width="2" stroke-linecap="round" stroke-linejoin="round" stroke-miterlimit="10" width="12" height="14"/>
</svg>
