<?xml version="1.0" encoding="utf-8"?>
<!-- Generator: Adobe Illustrator 17.0.0, SVG Export Plug-In . SVG Version: 6.00 Build 0)  -->
<!DOCTYPE svg PUBLIC "-//W3C//DTD SVG 1.1//EN" "http://www.w3.org/Graphics/SVG/1.1/DTD/svg11.dtd">
<svg version="1.1" id="Layer_1" xmlns="http://www.w3.org/2000/svg" xmlns:xlink="http://www.w3.org/1999/xlink" x="0px" y="0px"
	 width="48.09px" height="47.875px" viewBox="0 0 48.09 47.875" enable-background="new 0 0 48.09 47.875" xml:space="preserve">
<g>
	
		<rect x="1" y="33.25" fill="none" stroke="#231F20" stroke-width="2" stroke-linecap="round" stroke-linejoin="round" stroke-miterlimit="10" width="46" height="13.625"/>
	
		<rect x="4.336" y="36.326" fill="none" stroke="#231F20" stroke-width="2" stroke-linecap="round" stroke-linejoin="round" stroke-miterlimit="10" width="39.495" height="10.549"/>
	
		<polygon fill="none" stroke="#231F20" stroke-width="2" stroke-linecap="round" stroke-linejoin="round" stroke-miterlimit="10" points="
		18.183,26.25 7.313,26.25 7.313,6.928 10.03,8.573 12.748,6.928 15.465,8.573 18.183,6.928 	"/>
	
		<polygon fill="none" stroke="#231F20" stroke-width="2" stroke-linecap="round" stroke-linejoin="round" stroke-miterlimit="10" points="
		46.09,22.25 46.09,10.89 18.09,10.89 18.09,25.89 17.625,25.89 8,25.89 7.09,25.89 7.09,10.89 3.09,10.89 3.09,22.25 1.09,26.862 
		1.09,32.89 47.09,32.89 47.09,26.862 	"/>
	
		<rect x="23.765" y="1" fill="none" stroke="#231F20" stroke-width="2" stroke-linecap="round" stroke-linejoin="round" stroke-miterlimit="10" width="21.632" height="6.099"/>
	
		<rect x="23.765" y="14.407" fill="none" stroke="#231F20" stroke-width="2" stroke-linecap="round" stroke-linejoin="round" stroke-miterlimit="10" width="17.009" height="4.605"/>
	
		<rect x="32.68" y="7.099" fill="none" stroke="#231F20" stroke-width="2" stroke-linecap="round" stroke-linejoin="round" stroke-miterlimit="10" width="3.803" height="3.838"/>
	
		<line fill="none" stroke="#231F20" stroke-width="2" stroke-linecap="round" stroke-linejoin="round" stroke-miterlimit="10" x1="5.09" y1="25.89" x2="20.09" y2="25.89"/>
	<g>
		
			<line fill="none" stroke="#231F20" stroke-width="2" stroke-linecap="round" stroke-linejoin="round" stroke-miterlimit="10" x1="25.09" y1="22.89" x2="28.09" y2="22.89"/>
		
			<line fill="none" stroke="#231F20" stroke-width="2" stroke-linecap="round" stroke-linejoin="round" stroke-miterlimit="10" x1="31.09" y1="22.89" x2="34.09" y2="22.89"/>
		
			<line fill="none" stroke="#231F20" stroke-width="2" stroke-linecap="round" stroke-linejoin="round" stroke-miterlimit="10" x1="37.09" y1="22.89" x2="40.09" y2="22.89"/>
	</g>
	<g>
		
			<line fill="none" stroke="#231F20" stroke-width="2" stroke-linecap="round" stroke-linejoin="round" stroke-miterlimit="10" x1="25.09" y1="25.89" x2="28.09" y2="25.89"/>
		
			<line fill="none" stroke="#231F20" stroke-width="2" stroke-linecap="round" stroke-linejoin="round" stroke-miterlimit="10" x1="31.09" y1="25.89" x2="34.09" y2="25.89"/>
		
			<line fill="none" stroke="#231F20" stroke-width="2" stroke-linecap="round" stroke-linejoin="round" stroke-miterlimit="10" x1="37.09" y1="25.89" x2="40.09" y2="25.89"/>
	</g>
	<g>
		
			<line fill="none" stroke="#231F20" stroke-width="2" stroke-linecap="round" stroke-linejoin="round" stroke-miterlimit="10" x1="25.09" y1="28.89" x2="28.09" y2="28.89"/>
		
			<line fill="none" stroke="#231F20" stroke-width="2" stroke-linecap="round" stroke-linejoin="round" stroke-miterlimit="10" x1="31.09" y1="28.89" x2="34.09" y2="28.89"/>
		
			<line fill="none" stroke="#231F20" stroke-width="2" stroke-linecap="round" stroke-linejoin="round" stroke-miterlimit="10" x1="37.09" y1="28.89" x2="40.09" y2="28.89"/>
	</g>
	
		<line fill="none" stroke="#231F20" stroke-width="2" stroke-linecap="round" stroke-linejoin="round" stroke-miterlimit="10" x1="22.09" y1="39.89" x2="26.09" y2="39.89"/>
</g>
</svg>
