<?xml version="1.0" encoding="utf-8"?>
<!-- Generator: Adobe Illustrator 17.0.0, SVG Export Plug-In . SVG Version: 6.00 Build 0)  -->
<!DOCTYPE svg PUBLIC "-//W3C//DTD SVG 1.1//EN" "http://www.w3.org/Graphics/SVG/1.1/DTD/svg11.dtd">
<svg version="1.1" id="Layer_1" xmlns="http://www.w3.org/2000/svg" xmlns:xlink="http://www.w3.org/1999/xlink" x="0px" y="0px"
	 width="46.166px" height="46.166px" viewBox="0 0 46.166 46.166" enable-background="new 0 0 46.166 46.166" xml:space="preserve">
<g>
	<path fill="none" stroke="#231F20" stroke-width="2" stroke-linecap="round" stroke-linejoin="round" stroke-miterlimit="10" d="
		M45.166,23.083c0,1.888-2.214,3.459-2.68,5.2c-0.482,1.801,0.636,4.267-0.277,5.844c-0.926,1.6-3.628,1.859-4.926,3.157
		c-1.298,1.298-1.557,4.001-3.157,4.926c-1.577,0.912-4.042-0.205-5.844,0.276c-1.741,0.465-3.312,2.68-5.2,2.68
		c-1.888,0-3.459-2.214-5.2-2.68c-1.801-0.482-4.267,0.636-5.844-0.277c-1.6-0.926-1.859-3.628-3.157-4.926
		c-1.298-1.298-4.001-1.557-4.926-3.157c-0.912-1.577,0.205-4.042-0.276-5.844C3.214,26.542,1,24.971,1,23.083
		c0-1.888,2.214-3.459,2.68-5.2c0.482-1.801-0.636-4.267,0.277-5.844c0.926-1.6,3.628-1.859,4.926-3.157
		c1.298-1.298,1.557-4.001,3.157-4.926c1.577-0.912,4.042,0.205,5.844-0.276C19.624,3.214,21.195,1,23.083,1
		c1.888,0,3.459,2.214,5.2,2.68c1.801,0.482,4.267-0.636,5.844,0.277c1.6,0.926,1.859,3.628,3.157,4.926
		c1.298,1.298,4.001,1.557,4.926,3.157c0.912,1.577-0.205,4.042,0.276,5.844C42.952,19.624,45.166,21.195,45.166,23.083z"/>
</g>
</svg>
