<?xml version="1.0" encoding="utf-8"?>
<!-- Generator: Adobe Illustrator 17.0.0, SVG Export Plug-In . SVG Version: 6.00 Build 0)  -->
<!DOCTYPE svg PUBLIC "-//W3C//DTD SVG 1.1//EN" "http://www.w3.org/Graphics/SVG/1.1/DTD/svg11.dtd">
<svg version="1.1" id="Layer_1" xmlns="http://www.w3.org/2000/svg" xmlns:xlink="http://www.w3.org/1999/xlink" x="0px" y="0px"
	 width="49.348px" height="44.272px" viewBox="0 0 49.348 44.272" enable-background="new 0 0 49.348 44.272" xml:space="preserve">
<g>
	
		<polygon fill="none" stroke="#3B3735" stroke-width="2" stroke-linecap="round" stroke-linejoin="round" stroke-miterlimit="10" points="
		41.333,43.272 1,43.272 3,39.477 39.333,39.477 	"/>
	
		<polygon fill="none" stroke="#3B3735" stroke-width="2" stroke-linecap="round" stroke-linejoin="round" stroke-miterlimit="10" points="
		15.167,39.477 5,39.477 6.129,29.143 14.038,29.143 	"/>
	
		<polygon fill="none" stroke="#3B3735" stroke-width="2" stroke-linecap="round" stroke-linejoin="round" stroke-miterlimit="10" points="
		10,23.783 14.09,23.783 14.09,20.783 17.09,20.783 17.09,24.477 15,28.783 10,28.783 5,28.783 3.09,24.477 3.09,20.783 
		6.09,20.783 6.09,23.783 	"/>
	
		<polygon fill="none" stroke="#3B3735" stroke-width="2" stroke-linecap="round" stroke-linejoin="round" stroke-miterlimit="10" points="
		25.875,38.783 26,26.783 41.09,26.783 41.09,36.143 37.859,38.783 	"/>
	
		<circle fill="none" stroke="#3B3735" stroke-width="2" stroke-linecap="round" stroke-linejoin="round" stroke-miterlimit="10" cx="32.652" cy="22.346" r="4.513"/>
	
		<line fill="none" stroke="#3B3735" stroke-width="2" stroke-linecap="round" stroke-linejoin="round" stroke-miterlimit="10" x1="32.939" y1="17.848" x2="38.392" y2="11.3"/>
	
		<line fill="none" stroke="#3B3735" stroke-width="2" stroke-linecap="round" stroke-linejoin="round" stroke-miterlimit="10" x1="45.032" y1="11.744" x2="37.449" y2="20.851"/>
	<path fill="none" stroke="#3B3735" stroke-width="2" stroke-linecap="round" stroke-linejoin="round" stroke-miterlimit="10" d="
		M48.347,8.735L48.347,8.735c-0.019,1.488-1.241,2.678-2.728,2.658l-24.903-0.219l0.07-5.387l24.903,0.219
		C47.176,6.026,48.367,7.247,48.347,8.735z"/>
	
		<rect x="15.095" y="7.053" transform="matrix(-0.9999 0.0131 -0.0131 -0.9999 36.1313 16.6899)" fill="none" stroke="#3B3735" stroke-width="2" stroke-linecap="round" stroke-linejoin="round" stroke-miterlimit="10" width="5.831" height="2.82"/>
	<path fill="none" stroke="#3B3735" stroke-width="2" stroke-linecap="round" stroke-linejoin="round" stroke-miterlimit="10" d="
		M7.918,12.762l6.473,0.599l0.79-8.767c0.163-1.812-1.153-3.415-2.941-3.58l0,0c-1.787-0.165-3.369,1.169-3.532,2.981L7.918,12.762z
		"/>
	
		<line fill="none" stroke="#3B3735" stroke-width="2" stroke-linecap="round" stroke-linejoin="round" stroke-miterlimit="10" x1="11.195" y1="13.066" x2="10.833" y2="17.833"/>
</g>
</svg>
