<?xml version="1.0" encoding="utf-8"?>
<!-- Generator: Adobe Illustrator 17.0.0, SVG Export Plug-In . SVG Version: 6.00 Build 0)  -->
<!DOCTYPE svg PUBLIC "-//W3C//DTD SVG 1.1//EN" "http://www.w3.org/Graphics/SVG/1.1/DTD/svg11.dtd">
<svg version="1.1" id="Layer_1" xmlns="http://www.w3.org/2000/svg" xmlns:xlink="http://www.w3.org/1999/xlink" x="0px" y="0px"
	 width="53.714px" height="47.555px" viewBox="0 0 53.714 47.555" enable-background="new 0 0 53.714 47.555" xml:space="preserve">
<g>
	
		<rect x="30.518" y="1" fill="none" stroke="#3B3735" stroke-width="2" stroke-linecap="round" stroke-linejoin="round" stroke-miterlimit="10" width="19.556" height="4.128"/>
	
		<circle fill="none" stroke="#3B3735" stroke-width="2" stroke-linecap="round" stroke-linejoin="round" stroke-miterlimit="10" cx="40.296" cy="8.448" r="3.319"/>
	
		<line fill="none" stroke="#3B3735" stroke-width="2" stroke-linecap="round" stroke-linejoin="round" stroke-miterlimit="10" x1="40.807" y1="11.724" x2="45.239" y2="16.156"/>
	
		<line fill="none" stroke="#3B3735" stroke-width="2" stroke-linecap="round" stroke-linejoin="round" stroke-miterlimit="10" x1="50.074" y1="15.387" x2="43.91" y2="9.223"/>
	<path fill="none" stroke="#3B3735" stroke-width="2" stroke-linecap="round" stroke-linejoin="round" stroke-miterlimit="10" d="
		M52.703,17.369L52.703,17.369c-0.114-1.088-1.088-1.878-2.176-1.765L38.16,16.895l0.412,3.941l12.367-1.291
		C52.027,19.431,52.817,18.457,52.703,17.369z"/>
	
		<rect x="34.686" y="18.117" transform="matrix(-0.9946 0.1039 -0.1039 -0.9946 74.7469 34.0608)" fill="none" stroke="#3B3735" stroke-width="2" stroke-linecap="round" stroke-linejoin="round" stroke-miterlimit="10" width="3.601" height="1.718"/>
	<path fill="none" stroke="#3B3735" stroke-width="2" stroke-linecap="round" stroke-linejoin="round" stroke-miterlimit="10" d="
		M30.518,22.151h4.014v-5.364c0-1.108-0.899-2.007-2.007-2.007h0c-1.108,0-2.007,0.899-2.007,2.007V22.151z"/>
	
		<polyline fill="none" stroke="#3B3735" stroke-width="2" stroke-linecap="round" stroke-linejoin="round" stroke-miterlimit="10" points="
		32.988,22.151 35.767,25.188 34.377,27.555 	"/>
	
		<polyline fill="none" stroke="#3B3735" stroke-width="2" stroke-linecap="round" stroke-linejoin="round" stroke-miterlimit="10" points="
		31.83,22.151 29.089,25.188 30.518,27.555 	"/>
</g>
<g>
	<path fill="none" stroke="#3B3735" stroke-width="2" stroke-linecap="round" stroke-linejoin="round" stroke-miterlimit="10" d="
		M41.833,46.555H8.167C4.209,46.555,1,43.346,1,39.388v0c0-3.958,3.209-7.167,7.167-7.167h33.667c3.958,0,7.167,3.209,7.167,7.167v0
		C49,43.346,45.791,46.555,41.833,46.555z"/>
	
		<circle fill="none" stroke="#3B3735" stroke-width="2" stroke-linecap="round" stroke-linejoin="round" stroke-miterlimit="10" cx="9.949" cy="39.388" r="2.25"/>
	
		<circle fill="none" stroke="#3B3735" stroke-width="2" stroke-linecap="round" stroke-linejoin="round" stroke-miterlimit="10" cx="20.115" cy="39.388" r="2.25"/>
	
		<circle fill="none" stroke="#3B3735" stroke-width="2" stroke-linecap="round" stroke-linejoin="round" stroke-miterlimit="10" cx="30.474" cy="39.388" r="2.25"/>
	
		<circle fill="none" stroke="#3B3735" stroke-width="2" stroke-linecap="round" stroke-linejoin="round" stroke-miterlimit="10" cx="39.93" cy="39.388" r="2.25"/>
	
		<rect x="8.199" y="19.055" fill="none" stroke="#3B3735" stroke-width="2" stroke-linecap="round" stroke-linejoin="round" stroke-miterlimit="10" width="17.25" height="13.167"/>
	
		<rect x="14.852" y="19.055" fill="none" stroke="#3B3735" stroke-width="2" stroke-linecap="round" stroke-linejoin="round" stroke-miterlimit="10" width="3.292" height="4.202"/>
</g>
</svg>
