<?xml version="1.0" encoding="iso-8859-1"?>
<!-- Generator: Adobe Illustrator 17.0.0, SVG Export Plug-In . SVG Version: 6.00 Build 0)  -->
<!DOCTYPE svg PUBLIC "-//W3C//DTD SVG 1.1//EN" "http://www.w3.org/Graphics/SVG/1.1/DTD/svg11.dtd">
<svg version="1.1" id="Layer_1" xmlns="http://www.w3.org/2000/svg" xmlns:xlink="http://www.w3.org/1999/xlink" x="0px" y="0px"
	 width="55px" height="43.753px" viewBox="0 0 55 43.753" style="enable-background:new 0 0 55 43.753;" xml:space="preserve">
<g>
	
		<rect x="4.317" y="32.25" style="fill:none;stroke:#3B3735;stroke-width:2;stroke-linecap:round;stroke-linejoin:round;stroke-miterlimit:10;" width="25.276" height="10.503"/>
	
		<rect x="29.593" y="32.25" style="fill:none;stroke:#3B3735;stroke-width:2;stroke-linecap:round;stroke-linejoin:round;stroke-miterlimit:10;" width="14.317" height="10.503"/>
	<path style="fill:none;stroke:#3B3735;stroke-width:2;stroke-linecap:round;stroke-linejoin:round;stroke-miterlimit:10;" d="
		M33.593,42.753h6.91v-3.455c0-1.908-1.547-3.455-3.455-3.455h0c-1.908,0-3.455,1.547-3.455,3.455V42.753z"/>
	
		<rect x="43.91" y="32.25" style="fill:none;stroke:#3B3735;stroke-width:2;stroke-linecap:round;stroke-linejoin:round;stroke-miterlimit:10;" width="6.592" height="10.503"/>
	<g>
		
			<line style="fill:none;stroke:#3B3735;stroke-width:2;stroke-linecap:round;stroke-linejoin:round;stroke-miterlimit:10;" x1="9" y1="35.557" x2="9" y2="37.557"/>
		
			<line style="fill:none;stroke:#3B3735;stroke-width:2;stroke-linecap:round;stroke-linejoin:round;stroke-miterlimit:10;" x1="12" y1="35.557" x2="12" y2="37.557"/>
		
			<line style="fill:none;stroke:#3B3735;stroke-width:2;stroke-linecap:round;stroke-linejoin:round;stroke-miterlimit:10;" x1="15" y1="35.557" x2="15" y2="37.557"/>
		
			<line style="fill:none;stroke:#3B3735;stroke-width:2;stroke-linecap:round;stroke-linejoin:round;stroke-miterlimit:10;" x1="18" y1="35.557" x2="18" y2="37.557"/>
		
			<line style="fill:none;stroke:#3B3735;stroke-width:2;stroke-linecap:round;stroke-linejoin:round;stroke-miterlimit:10;" x1="21" y1="35.557" x2="21" y2="37.557"/>
		
			<line style="fill:none;stroke:#3B3735;stroke-width:2;stroke-linecap:round;stroke-linejoin:round;stroke-miterlimit:10;" x1="24" y1="35.557" x2="24" y2="37.557"/>
	</g>
	<g>
		
			<polygon style="fill:none;stroke:#3B3735;stroke-width:2;stroke-linecap:round;stroke-linejoin:round;stroke-miterlimit:10;" points="
			14.801,32.206 5.799,32.206 6.695,28.313 13.905,28.313 		"/>
		
			<rect x="6.695" y="22.954" style="fill:none;stroke:#3B3735;stroke-width:2;stroke-linecap:round;stroke-linejoin:round;stroke-miterlimit:10;" width="7.169" height="5.359"/>
		<path style="fill:none;stroke:#3B3735;stroke-width:2;stroke-linecap:round;stroke-linejoin:round;stroke-miterlimit:10;" d="
			M13.773,22.75c0,0,1.934-0.622,1.934-2.8s-5.43-6.222-5.43-6.222s-5.43,4.044-5.43,6.222s1.934,2.8,1.934,2.8"/>
		
			<line style="fill:none;stroke:#3B3735;stroke-width:2;stroke-linecap:round;stroke-linejoin:round;stroke-miterlimit:10;" x1="10" y1="13.557" x2="10" y2="9.557"/>
		
			<line style="fill:none;stroke:#3B3735;stroke-width:2;stroke-linecap:round;stroke-linejoin:round;stroke-miterlimit:10;" x1="5.799" y1="22.089" x2="12.378" y2="15.511"/>
		
			<line style="fill:none;stroke:#3B3735;stroke-width:2;stroke-linecap:round;stroke-linejoin:round;stroke-miterlimit:10;" x1="9.415" y1="22.954" x2="14.185" y2="18.184"/>
	</g>
	<g>
		
			<polygon style="fill:none;stroke:#3B3735;stroke-width:2;stroke-linecap:round;stroke-linejoin:round;stroke-miterlimit:10;" points="
			27.243,32.206 18.241,32.206 19.137,28.313 26.347,28.313 		"/>
		
			<rect x="19.137" y="22.954" style="fill:none;stroke:#3B3735;stroke-width:2;stroke-linecap:round;stroke-linejoin:round;stroke-miterlimit:10;" width="7.169" height="5.359"/>
		<path style="fill:none;stroke:#3B3735;stroke-width:2;stroke-linecap:round;stroke-linejoin:round;stroke-miterlimit:10;" d="
			M26.215,22.75c0,0,1.934-0.622,1.934-2.8s-5.43-6.222-5.43-6.222s-5.43,4.044-5.43,6.222s1.934,2.8,1.934,2.8"/>
		
			<line style="fill:none;stroke:#3B3735;stroke-width:2;stroke-linecap:round;stroke-linejoin:round;stroke-miterlimit:10;" x1="23" y1="13.557" x2="23" y2="9.557"/>
	</g>
	<g>
		
			<polygon style="fill:none;stroke:#3B3735;stroke-width:2;stroke-linecap:round;stroke-linejoin:round;stroke-miterlimit:10;" points="
			48.243,32.206 44.992,32.206 43.91,32.206 41.004,28.313 47.347,28.313 		"/>
		
			<polyline style="fill:none;stroke:#3B3735;stroke-width:2;stroke-linecap:round;stroke-linejoin:round;stroke-miterlimit:10;" points="
			41.004,28.313 47.306,28.313 47.306,22.954 40.137,22.954 40.137,27.14 		"/>
		<path style="fill:none;stroke:#3B3735;stroke-width:2;stroke-linecap:round;stroke-linejoin:round;stroke-miterlimit:10;" d="
			M47.215,22.75c0,0,1.934-0.622,1.934-2.8s-5.43-6.222-5.43-6.222s-5.43,4.044-5.43,6.222s1.934,2.8,1.934,2.8"/>
		
			<line style="fill:none;stroke:#3B3735;stroke-width:2;stroke-linecap:round;stroke-linejoin:round;stroke-miterlimit:10;" x1="44" y1="13.557" x2="44" y2="9.557"/>
	</g>
	
		<polyline style="fill:none;stroke:#3B3735;stroke-width:2;stroke-linecap:round;stroke-linejoin:round;stroke-miterlimit:10;" points="
		30.285,32.206 37.048,22.954 43.91,32.25 	"/>
	
		<line style="fill:none;stroke:#3B3735;stroke-width:2;stroke-linecap:round;stroke-linejoin:round;stroke-miterlimit:10;" x1="37.048" y1="22.954" x2="34.493" y2="32.206"/>
	
		<line style="fill:none;stroke:#3B3735;stroke-width:2;stroke-linecap:round;stroke-linejoin:round;stroke-miterlimit:10;" x1="37.048" y1="22.954" x2="39.603" y2="32.206"/>
	
		<polyline style="fill:none;stroke:#3B3735;stroke-width:2;stroke-linecap:round;stroke-linejoin:round;stroke-miterlimit:10;" points="
		42.857,32.206 30.435,3.707 25.527,14.968 	"/>
	
		<line style="fill:none;stroke:#3B3735;stroke-width:2;stroke-linecap:round;stroke-linejoin:round;stroke-miterlimit:10;" x1="26" y1="9.557" x2="35" y2="9.557"/>
	
		<line style="fill:none;stroke:#3B3735;stroke-width:2;stroke-linecap:round;stroke-linejoin:round;stroke-miterlimit:10;" x1="38" y1="18.557" x2="28" y2="18.557"/>
	
		<line style="fill:none;stroke:#3B3735;stroke-width:2;stroke-linecap:round;stroke-linejoin:round;stroke-miterlimit:10;" x1="30.435" y1="3.707" x2="30.285" y2="1"/>
	
		<line style="fill:none;stroke:#3B3735;stroke-width:2;stroke-linecap:round;stroke-linejoin:round;stroke-miterlimit:10;" x1="1" y1="42.557" x2="54" y2="42.557"/>
</g>
</svg>
