<?xml version="1.0" encoding="utf-8"?>
<!-- Generator: Adobe Illustrator 17.0.0, SVG Export Plug-In . SVG Version: 6.00 Build 0)  -->
<!DOCTYPE svg PUBLIC "-//W3C//DTD SVG 1.1//EN" "http://www.w3.org/Graphics/SVG/1.1/DTD/svg11.dtd">
<svg version="1.1" id="Layer_1" xmlns="http://www.w3.org/2000/svg" xmlns:xlink="http://www.w3.org/1999/xlink" x="0px" y="0px"
	 width="40.719px" height="40.719px" viewBox="0 0 40.719 40.719" enable-background="new 0 0 40.719 40.719" xml:space="preserve">
<g>
	<path fill="none" stroke="#3B3735" stroke-width="2" stroke-linecap="round" stroke-linejoin="round" stroke-miterlimit="10" d="
		M38.719,39.719H2c-0.552,0-1-0.448-1-1V2c0-0.552,0.448-1,1-1h36.719c0.552,0,1,0.448,1,1v36.719
		C39.719,39.272,39.272,39.719,38.719,39.719z"/>
	<path fill="none" stroke="#3B3735" stroke-width="2" stroke-linecap="round" stroke-linejoin="round" stroke-miterlimit="10" d="
		M34.532,29.61v3.922c0,0.552-0.448,1-1,1H7.187c-0.552,0-1-0.448-1-1V7.187c0-0.552,0.448-1,1-1h26.345c0.552,0,1,0.448,1,1v3.923"
		/>
	
		<line fill="none" stroke="#3B3735" stroke-width="2" stroke-linecap="round" stroke-linejoin="round" stroke-miterlimit="10" x1="34.532" y1="16.772" x2="34.532" y2="23.975"/>
	<g>
		
			<circle fill="none" stroke="#3B3735" stroke-width="2" stroke-linecap="round" stroke-linejoin="round" stroke-miterlimit="10" cx="20.36" cy="20.36" r="8.25"/>
		
			<circle fill="none" stroke="#3B3735" stroke-width="2" stroke-linecap="round" stroke-linejoin="round" stroke-miterlimit="10" cx="20.36" cy="20.36" r="4.682"/>
		<g>
			
				<line fill="none" stroke="#3B3735" stroke-width="2" stroke-linecap="round" stroke-linejoin="round" stroke-miterlimit="10" x1="20.363" y1="12.079" x2="20.363" y2="15.079"/>
			
				<line fill="none" stroke="#3B3735" stroke-width="2" stroke-linecap="round" stroke-linejoin="round" stroke-miterlimit="10" x1="20.363" y1="28.079" x2="20.363" y2="25.079"/>
		</g>
		<g>
			
				<line fill="none" stroke="#3B3735" stroke-width="2" stroke-linecap="round" stroke-linejoin="round" stroke-miterlimit="10" x1="28.363" y1="20.079" x2="25.363" y2="20.079"/>
			
				<line fill="none" stroke="#3B3735" stroke-width="2" stroke-linecap="round" stroke-linejoin="round" stroke-miterlimit="10" x1="12.363" y1="20.079" x2="15.363" y2="20.079"/>
		</g>
		<g>
			
				<line fill="none" stroke="#3B3735" stroke-width="2" stroke-linecap="round" stroke-linejoin="round" stroke-miterlimit="10" x1="25.929" y1="14.782" x2="23.808" y2="16.903"/>
			
				<line fill="none" stroke="#3B3735" stroke-width="2" stroke-linecap="round" stroke-linejoin="round" stroke-miterlimit="10" x1="14.616" y1="26.096" x2="16.737" y2="23.974"/>
		</g>
		<g>
			
				<line fill="none" stroke="#3B3735" stroke-width="2" stroke-linecap="round" stroke-linejoin="round" stroke-miterlimit="10" x1="25.929" y1="26.096" x2="23.808" y2="23.974"/>
			
				<line fill="none" stroke="#3B3735" stroke-width="2" stroke-linecap="round" stroke-linejoin="round" stroke-miterlimit="10" x1="14.616" y1="14.782" x2="16.737" y2="16.903"/>
		</g>
	</g>
	
		<rect x="32.606" y="11.109" fill="none" stroke="#3B3735" stroke-width="2" stroke-linecap="round" stroke-linejoin="round" stroke-miterlimit="10" width="3.5" height="5.663"/>
	
		<rect x="32.606" y="23.947" fill="none" stroke="#3B3735" stroke-width="2" stroke-linecap="round" stroke-linejoin="round" stroke-miterlimit="10" width="3.5" height="5.663"/>
</g>
</svg>
