<?xml version="1.0" encoding="utf-8"?>
<!-- Generator: Adobe Illustrator 17.0.0, SVG Export Plug-In . SVG Version: 6.00 Build 0)  -->
<!DOCTYPE svg PUBLIC "-//W3C//DTD SVG 1.1//EN" "http://www.w3.org/Graphics/SVG/1.1/DTD/svg11.dtd">
<svg version="1.1" id="Layer_1" xmlns="http://www.w3.org/2000/svg" xmlns:xlink="http://www.w3.org/1999/xlink" x="0px" y="0px"
	 width="47.25px" height="46.488px" viewBox="0 0 47.25 46.488" enable-background="new 0 0 47.25 46.488" xml:space="preserve">
<g>
	<path fill="none" stroke="#000000" stroke-width="2" stroke-linecap="round" stroke-linejoin="round" stroke-miterlimit="10" d="
		M33.113,23.819l-9.294,9.294c-0.781,0.781-2.047,0.781-2.828,0l-9.294-9.294c-0.781-0.781-0.781-2.047,0-2.828l9.294-9.294
		c0.781-0.781,2.047-0.781,2.828,0l9.294,9.294C33.894,21.771,33.894,23.038,33.113,23.819z"/>
	<path fill="none" stroke="#000000" stroke-width="2" stroke-linecap="round" stroke-linejoin="round" stroke-miterlimit="10" d="
		M19.939,32.062L8.513,43.488c-0.781,0.781-2.047,0.781-2.828,0L1.586,39.39c-0.781-0.781-0.781-2.047,0-2.828l11.427-11.427
		L19.939,32.062z"/>
	<path fill="none" stroke="#000000" stroke-width="2" stroke-linecap="round" stroke-linejoin="round" stroke-miterlimit="10" d="
		M32.062,19.939L43.488,8.513c0.781-0.781,0.781-2.047,0-2.828L39.39,1.586c-0.781-0.781-2.047-0.781-2.828,0L25.135,13.012
		L32.062,19.939z"/>
	<path fill="none" stroke="#000000" stroke-width="2" stroke-linecap="round" stroke-linejoin="round" stroke-miterlimit="10" d="
		M28.388,28.379c-3.469,3.469-3.151,9.411,0.398,12.961l12.562-12.562C37.799,25.228,31.857,24.91,28.388,28.379z"/>
	<path fill="none" stroke="#000000" stroke-width="2" stroke-linecap="round" stroke-linejoin="round" stroke-miterlimit="10" d="
		M36.841,36.832c0.979-0.979,1.183-2.363,0-3.546l-3.546,3.546C34.478,38.015,35.861,37.811,36.841,36.832z"/>
	<g>
		<path fill="none" stroke="#000000" stroke-width="2" stroke-linecap="round" stroke-linejoin="round" stroke-miterlimit="10" d="
			M46.203,37.933c0.28,1.711-0.732,3.843-2.199,5.31c-1.509,1.509-3.72,2.536-5.455,2.172"/>
		<path fill="none" stroke="#000000" stroke-width="2" stroke-linecap="round" stroke-linejoin="round" stroke-miterlimit="10" d="
			M42.104,36.755c0.172,1.051-0.45,2.36-1.35,3.26c-0.926,0.926-2.284,1.557-3.349,1.334"/>
	</g>
</g>
</svg>
