<?xml version="1.0" encoding="utf-8"?>
<!-- Generator: Adobe Illustrator 17.0.0, SVG Export Plug-In . SVG Version: 6.00 Build 0)  -->
<!DOCTYPE svg PUBLIC "-//W3C//DTD SVG 1.1//EN" "http://www.w3.org/Graphics/SVG/1.1/DTD/svg11.dtd">
<svg version="1.1" id="Layer_1" xmlns="http://www.w3.org/2000/svg" xmlns:xlink="http://www.w3.org/1999/xlink" x="0px" y="0px"
	 width="480px" height="480px" viewBox="0 0 480 480" enable-background="new 0 0 480 480" xml:space="preserve">
<g>
	<path fill="none" stroke="#000000" stroke-width="2" stroke-linecap="round" stroke-linejoin="round" stroke-miterlimit="10" d="
		M249.432,241.089l-9.294,9.294c-0.781,0.781-2.047,0.781-2.828,0l-9.294-9.294c-0.781-0.781-0.781-2.047,0-2.828l9.294-9.294
		c0.781-0.781,2.047-0.781,2.828,0l9.294,9.294C250.213,239.042,250.213,240.308,249.432,241.089z"/>
	<path fill="none" stroke="#000000" stroke-width="2" stroke-linecap="round" stroke-linejoin="round" stroke-miterlimit="10" d="
		M236.259,249.332l-11.427,11.427c-0.781,0.781-2.047,0.781-2.828,0l-4.099-4.099c-0.781-0.781-0.781-2.047,0-2.828l11.427-11.427
		L236.259,249.332z"/>
	<path fill="none" stroke="#000000" stroke-width="2" stroke-linecap="round" stroke-linejoin="round" stroke-miterlimit="10" d="
		M248.381,237.21l11.427-11.427c0.781-0.781,0.781-2.047,0-2.828l-4.099-4.099c-0.781-0.781-2.047-0.781-2.828,0l-11.427,11.427
		L248.381,237.21z"/>
	<path fill="none" stroke="#000000" stroke-width="2" stroke-linecap="round" stroke-linejoin="round" stroke-miterlimit="10" d="
		M244.708,245.65c-3.469,3.469-3.151,9.411,0.398,12.961l12.562-12.562C254.119,242.499,248.177,242.181,244.708,245.65z"/>
	<path fill="none" stroke="#000000" stroke-width="2" stroke-linecap="round" stroke-linejoin="round" stroke-miterlimit="10" d="
		M253.16,254.103c0.979-0.979,1.183-2.363,0-3.546l-3.546,3.546C250.797,255.286,252.181,255.082,253.16,254.103z"/>
	<g>
		<path fill="none" stroke="#000000" stroke-width="2" stroke-linecap="round" stroke-linejoin="round" stroke-miterlimit="10" d="
			M262.523,255.204c0.28,1.711-0.732,3.843-2.199,5.31c-1.509,1.509-3.72,2.536-5.455,2.172"/>
		<path fill="none" stroke="#000000" stroke-width="2" stroke-linecap="round" stroke-linejoin="round" stroke-miterlimit="10" d="
			M258.424,254.026c0.172,1.051-0.45,2.36-1.35,3.26c-0.926,0.926-2.284,1.557-3.349,1.334"/>
	</g>
</g>
</svg>
