<?xml version="1.0" encoding="utf-8"?>
<!-- Generator: Adobe Illustrator 17.0.0, SVG Export Plug-In . SVG Version: 6.00 Build 0)  -->
<!DOCTYPE svg PUBLIC "-//W3C//DTD SVG 1.1//EN" "http://www.w3.org/Graphics/SVG/1.1/DTD/svg11.dtd">
<svg version="1.1" id="Layer_1" xmlns="http://www.w3.org/2000/svg" xmlns:xlink="http://www.w3.org/1999/xlink" x="0px" y="0px"
	 width="41.369px" height="42.062px" viewBox="0 0 41.369 42.062" enable-background="new 0 0 41.369 42.062" xml:space="preserve">
<g>
	
		<path fill="none" stroke="#231F20" stroke-width="1.5001" stroke-linecap="round" stroke-linejoin="round" stroke-miterlimit="2.6131" d="
		M29.286,35.613c0.718-0.694,1.352-1.461,1.912-2.271c3.665-5.299,4.153-12.393,4.153-12.393s-5.678-5.207-14.667-7.023
		c-8.988,1.816-14.666,7.023-14.666,7.023s0.481,6.994,4.076,12.281c0.579,0.851,1.238,1.657,1.989,2.383"/>
	
		<path fill="none" stroke="#231F20" stroke-width="1.5001" stroke-linecap="round" stroke-linejoin="round" stroke-miterlimit="2.6131" d="
		M20.684,11.747h-9.56v5.713c2.451-1.35,5.7-2.755,9.56-3.535c3.86,0.78,7.108,2.185,9.56,3.535v-5.713H20.684z"/>
	
		<polygon fill="none" stroke="#231F20" stroke-width="1.5001" stroke-linecap="round" stroke-linejoin="round" stroke-miterlimit="2.6131" points="
		20.684,11.747 8.961,11.747 8.961,6.53 20.684,6.53 32.407,6.53 32.407,11.747 	"/>
	
		<polygon fill="none" stroke="#231F20" stroke-width="1.5001" stroke-linecap="round" stroke-linejoin="round" stroke-miterlimit="2.6131" points="
		20.684,0.75 18.19,0.75 18.19,6.53 20.684,6.53 23.179,6.53 23.179,0.75 	"/>
	
		<polygon fill="none" stroke="#231F20" stroke-width="1.5001" stroke-linecap="round" stroke-linejoin="round" stroke-miterlimit="2.6131" points="
		20.684,0.75 18.19,0.75 18.19,3.239 20.684,3.239 23.179,3.239 23.179,0.75 	"/>
	
		<line fill="none" stroke="#231F20" stroke-width="1.5001" stroke-linecap="round" stroke-linejoin="round" stroke-miterlimit="2.6131" x1="21.463" y1="9.139" x2="19.906" y2="9.139"/>
	
		<line fill="none" stroke="#231F20" stroke-width="1.5001" stroke-linecap="round" stroke-linejoin="round" stroke-miterlimit="2.6131" x1="15.345" y1="9.139" x2="13.788" y2="9.139"/>
	
		<line fill="none" stroke="#231F20" stroke-width="1.5001" stroke-linecap="round" stroke-linejoin="round" stroke-miterlimit="2.6131" x1="27.58" y1="9.139" x2="26.024" y2="9.139"/>
	
		<path fill="none" stroke="#231F20" stroke-width="1.5001" stroke-linecap="round" stroke-linejoin="round" stroke-miterlimit="2.6131" d="
		M0.75,33.428l1.602,1.849c0.448,0.517,1.037,0.786,1.721,0.786c0.684,0,1.273-0.269,1.721-0.786l1.602-1.849l1.602,1.849
		c0.448,0.517,1.037,0.786,1.721,0.786c0.684,0,1.273-0.269,1.721-0.786l1.602-1.849l1.602,1.849
		c0.448,0.517,1.037,0.786,1.721,0.786c0.684,0,1.273-0.269,1.721-0.786l1.602-1.849l1.602,1.849
		c0.448,0.517,1.037,0.786,1.721,0.786s1.273-0.269,1.721-0.786l1.602-1.849l1.602,1.849c0.448,0.517,1.037,0.786,1.721,0.786
		c0.684,0,1.273-0.269,1.721-0.786l1.602-1.849l1.602,1.849c0.448,0.517,1.037,0.786,1.721,0.786c0.684,0,1.273-0.269,1.721-0.786
		l1.602-1.849"/>
	
		<path fill="none" stroke="#231F20" stroke-width="1.5001" stroke-linecap="round" stroke-linejoin="round" stroke-miterlimit="2.6131" d="
		M0.75,38.676l1.602,1.849c0.448,0.517,1.037,0.786,1.721,0.786c0.684,0,1.273-0.269,1.721-0.786l1.602-1.849l1.602,1.849
		c0.448,0.517,1.037,0.786,1.721,0.786c0.684,0,1.273-0.269,1.721-0.786l1.602-1.849l1.602,1.849
		c0.448,0.517,1.037,0.786,1.721,0.786c0.684,0,1.273-0.269,1.721-0.786l1.602-1.849l1.602,1.849
		c0.448,0.517,1.037,0.786,1.721,0.786s1.273-0.269,1.721-0.786l1.602-1.849l1.602,1.849c0.448,0.517,1.037,0.786,1.721,0.786
		c0.684,0,1.273-0.269,1.721-0.786l1.602-1.849l1.602,1.849c0.448,0.517,1.037,0.786,1.721,0.786c0.684,0,1.273-0.269,1.721-0.786
		l1.602-1.849"/>
	
		<line fill="none" stroke="#231F20" stroke-width="1.5001" stroke-linecap="round" stroke-linejoin="round" stroke-miterlimit="2.6131" x1="20.692" y1="28.513" x2="20.677" y2="13.926"/>
</g>
</svg>
