<?xml version="1.0" encoding="utf-8"?>
<!-- Generator: Adobe Illustrator 17.0.0, SVG Export Plug-In . SVG Version: 6.00 Build 0)  -->
<!DOCTYPE svg PUBLIC "-//W3C//DTD SVG 1.1//EN" "http://www.w3.org/Graphics/SVG/1.1/DTD/svg11.dtd">
<svg version="1.1" id="Layer_1" xmlns="http://www.w3.org/2000/svg" xmlns:xlink="http://www.w3.org/1999/xlink" x="0px" y="0px"
	 width="39.394px" height="37.869px" viewBox="0 0 39.394 37.869" enable-background="new 0 0 39.394 37.869" xml:space="preserve">
<path fill="none" stroke="#3B3735" stroke-width="2" stroke-linecap="round" stroke-linejoin="round" stroke-miterlimit="10" d="
	M22.488,2.735l3.366,6.82c0.453,0.919,1.33,1.556,2.344,1.703l7.527,1.094c2.553,0.371,3.573,3.509,1.725,5.31l-5.446,5.309
	c-0.734,0.715-1.068,1.746-0.895,2.755l1.286,7.496c0.436,2.543-2.233,4.482-4.517,3.282l-6.732-3.539
	c-0.907-0.477-1.99-0.477-2.897,0l-6.732,3.539c-2.284,1.201-4.953-0.739-4.517-3.282l1.286-7.496
	c0.173-1.01-0.162-2.04-0.895-2.755l-5.446-5.309c-1.848-1.801-0.828-4.939,1.725-5.31l7.527-1.094
	c1.014-0.147,1.89-0.784,2.344-1.703l3.366-6.82C18.047,0.422,21.346,0.422,22.488,2.735z"/>
</svg>
