<?xml version="1.0" encoding="utf-8"?>
<!-- Generator: Adobe Illustrator 17.0.0, SVG Export Plug-In . SVG Version: 6.00 Build 0)  -->
<!DOCTYPE svg PUBLIC "-//W3C//DTD SVG 1.1//EN" "http://www.w3.org/Graphics/SVG/1.1/DTD/svg11.dtd">
<svg version="1.1" id="Layer_1" xmlns="http://www.w3.org/2000/svg" xmlns:xlink="http://www.w3.org/1999/xlink" x="0px" y="0px"
	 width="45.964px" height="46.085px" viewBox="0 0 45.964 46.085" enable-background="new 0 0 45.964 46.085" xml:space="preserve">
<g>
	<path fill="none" stroke="#000000" stroke-width="2" stroke-linecap="round" stroke-linejoin="round" stroke-miterlimit="10" d="
		M38.937,11.961c5.879,8.178,5.141,19.642-2.212,26.995c-8.173,8.173-21.423,8.173-29.596,0s-8.173-21.423,0-29.596
		c7.151-7.151,18.19-8.045,26.313-2.682"/>
	
		<circle fill="none" stroke="#000000" stroke-width="2" stroke-linecap="round" stroke-linejoin="round" stroke-miterlimit="10" cx="21.928" cy="24.158" r="13.975"/>
	
		<circle fill="none" stroke="#000000" stroke-width="2" stroke-linecap="round" stroke-linejoin="round" stroke-miterlimit="10" cx="21.928" cy="24.158" r="6.871"/>
	
		<line fill="none" stroke="#000000" stroke-width="2" stroke-linecap="round" stroke-linejoin="round" stroke-miterlimit="10" x1="21.658" y1="24.293" x2="32.787" y2="13.164"/>
	<path fill="none" stroke="#000000" stroke-width="2" stroke-linecap="round" stroke-linejoin="round" stroke-miterlimit="10" d="
		M38.228,12.669l-4.699-0.248l-0.412-4.864l6.263-6.263c0.622-0.622,1.686-0.196,1.707,0.683l0.053,2.225l2.933,0.323
		c0.834,0.092,1.191,1.108,0.598,1.701L38.228,12.669z"/>
</g>
</svg>
