<?xml version="1.0" encoding="utf-8"?>
<!-- Generator: Adobe Illustrator 17.0.0, SVG Export Plug-In . SVG Version: 6.00 Build 0)  -->
<!DOCTYPE svg PUBLIC "-//W3C//DTD SVG 1.1//EN" "http://www.w3.org/Graphics/SVG/1.1/DTD/svg11.dtd">
<svg version="1.1" id="Layer_1" xmlns="http://www.w3.org/2000/svg" xmlns:xlink="http://www.w3.org/1999/xlink" x="0px" y="0px"
	 width="38.427px" height="42.93px" viewBox="0 0 38.427 42.93" enable-background="new 0 0 38.427 42.93" xml:space="preserve">
<g>
	
		<path fill="none" stroke="#231F20" stroke-width="1.5001" stroke-linecap="round" stroke-linejoin="round" stroke-miterlimit="2.6131" d="
		M0.75,14.153h28.647v11.084c0,7.604-6.445,13.826-14.323,13.826c-7.878,0-14.323-6.222-14.323-13.826V14.153z"/>
	
		<line fill="none" stroke="#231F20" stroke-width="1.5001" stroke-linecap="round" stroke-linejoin="round" stroke-miterlimit="2.6131" x1="0.75" y1="42.18" x2="29.397" y2="42.18"/>
	<path fill="none" stroke="#231F20" stroke-width="1.5001" stroke-miterlimit="2.6131" d="M29.397,16.603
		c4.599-1.07,8.28,0.926,8.28,4.55c0,3.703-3.844,7.705-8.583,8.937c-0.227,0.059-0.453,0.11-0.675,0.155
		c0.631-1.554,0.978-3.243,0.978-5.007V16.603z"/>
	
		<rect x="7.909" y="19.939" fill="none" stroke="#231F20" stroke-width="1.5001" stroke-linecap="round" stroke-linejoin="round" stroke-miterlimit="2.6131" width="7.161" height="8.17"/>
	
		<line fill="none" stroke="#231F20" stroke-width="1.5001" stroke-linecap="round" stroke-linejoin="round" stroke-miterlimit="2.6131" x1="11.489" y1="19.939" x2="11.489" y2="14.153"/>
	
		<path fill="none" stroke="#231F20" stroke-width="1.5001" stroke-linecap="round" stroke-linejoin="round" stroke-miterlimit="2.6131" d="
		M15.342,0.75c-3.333,2.581,2.937,6.871-0.697,10.084"/>
	
		<path fill="none" stroke="#231F20" stroke-width="1.5001" stroke-linecap="round" stroke-linejoin="round" stroke-miterlimit="2.6131" d="
		M10.352,3.642c-2.378,1.841,2.095,4.901-0.498,7.193"/>
	
		<path fill="none" stroke="#231F20" stroke-width="1.5001" stroke-linecap="round" stroke-linejoin="round" stroke-miterlimit="2.6131" d="
		M20.178,3.642c-2.378,1.841,2.095,4.901-0.498,7.193"/>
</g>
</svg>
