<?xml version="1.0" encoding="utf-8"?>
<!-- Generator: Adobe Illustrator 17.0.0, SVG Export Plug-In . SVG Version: 6.00 Build 0)  -->
<!DOCTYPE svg PUBLIC "-//W3C//DTD SVG 1.1//EN" "http://www.w3.org/Graphics/SVG/1.1/DTD/svg11.dtd">
<svg version="1.1" id="Layer_1" xmlns="http://www.w3.org/2000/svg" xmlns:xlink="http://www.w3.org/1999/xlink" x="0px" y="0px"
	 width="48.175px" height="43.125px" viewBox="0 0 48.175 43.125" enable-background="new 0 0 48.175 43.125" xml:space="preserve">
<g>
	<g>
		<path fill="none" stroke="#3B3735" stroke-width="2" stroke-linecap="round" stroke-linejoin="round" stroke-miterlimit="10" d="
			M27.812,3c-2.224,0-2.224-2-4.449-2c-2.226,0-2.226,2-4.453,2c-2.228,0-2.228-2-4.456-2C12.228,1,12.228,3,10,3"/>
	</g>
	<g>
		<path fill="none" stroke="#3B3735" stroke-width="2" stroke-linecap="round" stroke-linejoin="round" stroke-miterlimit="10" d="
			M44.812,10c-2.224,0-2.224-2-4.449-2c-2.226,0-2.226,2-4.453,2c-2.228,0-2.228-2-4.456-2S29.228,10,27,10"/>
	</g>
	<g>
		
			<rect x="6.835" y="9.125" fill="none" stroke="#3B3735" stroke-width="2" stroke-linecap="round" stroke-linejoin="round" stroke-miterlimit="10" width="14" height="15"/>
		
			<rect x="6.835" y="9.125" fill="none" stroke="#3B3735" stroke-width="2" stroke-linecap="round" stroke-linejoin="round" stroke-miterlimit="10" width="14" height="6"/>
		
			<rect x="20.835" y="15.125" fill="none" stroke="#3B3735" stroke-width="2" stroke-linecap="round" stroke-linejoin="round" stroke-miterlimit="10" width="12" height="5"/>
		
			<polygon fill="none" stroke="#3B3735" stroke-width="2" stroke-linecap="round" stroke-linejoin="round" stroke-miterlimit="10" points="
			7.159,24.125 21.016,24.125 27.175,42.125 1,42.125 		"/>
		
			<rect x="32.835" y="20.125" fill="none" stroke="#3B3735" stroke-width="2" stroke-linecap="round" stroke-linejoin="round" stroke-miterlimit="10" width="10" height="4"/>
		
			<polyline fill="none" stroke="#3B3735" stroke-width="2" stroke-linecap="round" stroke-linejoin="round" stroke-miterlimit="10" points="
			20.835,24.125 20.835,15.125 32.835,15.125 32.835,27.125 		"/>
		
			<polygon fill="none" stroke="#3B3735" stroke-width="2" stroke-linecap="round" stroke-linejoin="round" stroke-miterlimit="10" points="
			33.053,27.125 38.175,42.125 27.175,42.125 22.043,27.125 		"/>
		
			<polygon fill="none" stroke="#3B3735" stroke-width="2" stroke-linecap="round" stroke-linejoin="round" stroke-miterlimit="10" points="
			32.835,27.482 32.835,20.125 42.835,20.125 42.835,30.125 34.078,30.125 		"/>
		
			<polygon fill="none" stroke="#3B3735" stroke-width="2" stroke-linecap="round" stroke-linejoin="round" stroke-miterlimit="10" points="
			43.03,30.125 47.175,42.125 38.175,42.125 34.078,30.125 		"/>
	</g>
</g>
</svg>
