<?xml version="1.0" encoding="utf-8"?>
<!-- Generator: Adobe Illustrator 17.0.0, SVG Export Plug-In . SVG Version: 6.00 Build 0)  -->
<!DOCTYPE svg PUBLIC "-//W3C//DTD SVG 1.1//EN" "http://www.w3.org/Graphics/SVG/1.1/DTD/svg11.dtd">
<svg version="1.1" id="Layer_1" xmlns="http://www.w3.org/2000/svg" xmlns:xlink="http://www.w3.org/1999/xlink" x="0px" y="0px"
	 width="23.892px" height="48.872px" viewBox="0 0 23.892 48.872" enable-background="new 0 0 23.892 48.872" xml:space="preserve">
<g>
	<path fill="none" stroke="#000000" stroke-width="2" stroke-linecap="round" stroke-linejoin="round" stroke-miterlimit="10" d="
		M11.633,9.874L6.501,9.87c-0.193-0.146-0.314-0.354-0.34-0.58L5.344,1.957C5.287,1.446,5.732,1,6.302,1h11.287
		c0.57,0,1.016,0.446,0.958,0.957L17.73,9.291c-0.025,0.227-0.146,0.435-0.339,0.58L11.633,9.874"/>
	<path fill="none" stroke="#000000" stroke-width="2" stroke-linecap="round" stroke-linejoin="round" stroke-miterlimit="10" d="
		M15.804,10.75l7.056,27.449c0.095,0.371-0.03,0.764-0.322,1.012l-9.946,8.424c-0.373,0.316-0.92,0.316-1.293,0l-9.946-8.424
		c-0.292-0.248-0.418-0.641-0.322-1.012L8.088,10.75"/>
	
		<line fill="none" stroke="#000000" stroke-width="2" stroke-linecap="round" stroke-linejoin="round" stroke-miterlimit="10" x1="4.446" y1="26.043" x2="16.532" y2="13.582"/>
	
		<line fill="none" stroke="#000000" stroke-width="2" stroke-linecap="round" stroke-linejoin="round" stroke-miterlimit="10" x1="1.128" y1="38.986" x2="18.553" y2="21.561"/>
	
		<line fill="none" stroke="#000000" stroke-width="2" stroke-linecap="round" stroke-linejoin="round" stroke-miterlimit="10" x1="7.065" y1="44.049" x2="20.826" y2="30.288"/>
</g>
</svg>
