<?xml version="1.0" encoding="utf-8"?>
<!-- Generator: Adobe Illustrator 17.0.0, SVG Export Plug-In . SVG Version: 6.00 Build 0)  -->
<!DOCTYPE svg PUBLIC "-//W3C//DTD SVG 1.1//EN" "http://www.w3.org/Graphics/SVG/1.1/DTD/svg11.dtd">
<svg version="1.1" id="Layer_1" xmlns="http://www.w3.org/2000/svg" xmlns:xlink="http://www.w3.org/1999/xlink" x="0px" y="0px"
	 width="32.892px" height="46.829px" viewBox="0 0 32.892 46.829" enable-background="new 0 0 32.892 46.829" xml:space="preserve">
<g>
	<g>
		
			<circle fill="none" stroke="#000000" stroke-width="2" stroke-linecap="round" stroke-linejoin="round" stroke-miterlimit="10" cx="16.316" cy="15.85" r="4.142"/>
		
			<line fill="none" stroke="#000000" stroke-width="2" stroke-linecap="round" stroke-linejoin="round" stroke-miterlimit="10" x1="14.863" y1="20.403" x2="5.446" y2="45.829"/>
		
			<line fill="none" stroke="#000000" stroke-width="2" stroke-linecap="round" stroke-linejoin="round" stroke-miterlimit="10" x1="17.77" y1="20.403" x2="27.186" y2="45.829"/>
		
			<line fill="none" stroke="#000000" stroke-width="2" stroke-linecap="round" stroke-linejoin="round" stroke-miterlimit="10" x1="12.877" y1="25.443" x2="19.877" y2="25.443"/>
		
			<line fill="none" stroke="#000000" stroke-width="2" stroke-linecap="round" stroke-linejoin="round" stroke-miterlimit="10" x1="10.877" y1="32.443" x2="21.877" y2="32.443"/>
		
			<line fill="none" stroke="#000000" stroke-width="2" stroke-linecap="round" stroke-linejoin="round" stroke-miterlimit="10" x1="7.877" y1="39.443" x2="24.877" y2="39.443"/>
	</g>
	<path fill="none" stroke="#000000" stroke-width="2" stroke-linecap="round" stroke-linejoin="round" stroke-miterlimit="10" d="
		M8.511,23.133c-1.462-1.775-2.341-4.049-2.341-6.529c0-5.675,4.6-10.275,10.275-10.275s10.275,4.6,10.275,10.275
		c0,2.477-0.876,4.749-2.336,6.523"/>
	<path fill="none" stroke="#000000" stroke-width="2" stroke-linecap="round" stroke-linejoin="round" stroke-miterlimit="10" d="
		M5.756,27.595C2.825,24.784,1,20.828,1,16.446C1,7.915,7.915,1,16.446,1s15.446,6.915,15.446,15.446
		c0,4.265-1.729,8.127-4.524,10.922"/>
</g>
</svg>
