<?xml version="1.0" encoding="utf-8"?>
<!-- Generator: Adobe Illustrator 17.0.0, SVG Export Plug-In . SVG Version: 6.00 Build 0)  -->
<!DOCTYPE svg PUBLIC "-//W3C//DTD SVG 1.1//EN" "http://www.w3.org/Graphics/SVG/1.1/DTD/svg11.dtd">
<svg version="1.1" id="Layer_1" xmlns="http://www.w3.org/2000/svg" xmlns:xlink="http://www.w3.org/1999/xlink" x="0px" y="0px"
	 width="30.495px" height="44.744px" viewBox="0 0 30.495 44.744" enable-background="new 0 0 30.495 44.744" xml:space="preserve">
<g>
	<path fill="none" stroke="#231F20" stroke-width="1.5001" stroke-miterlimit="2.6131" d="M29.745,6.422v29.067
		c0,4.782-28.994,4.783-28.994,0V6.422c0-1.703,3.676-2.799,8.409-3.289v2.279c0,0.413,0.334,0.752,0.742,0.752h10.692
		c0.408,0,0.742-0.339,0.742-0.752V3.133C26.069,3.624,29.745,4.719,29.745,6.422z"/>
	<path fill="none" stroke="#231F20" stroke-width="1.5001" stroke-miterlimit="2.6131" d="M29.745,9.105v9.434
		c-6.872,7.68-22.124,7.679-28.994,0V9.105H29.745z"/>
	
		<line fill="none" stroke="#231F20" stroke-width="1.5001" stroke-linecap="round" stroke-linejoin="round" stroke-miterlimit="2.6131" x1="15.255" y1="24.298" x2="23.808" y2="19.332"/>
	<circle fill="none" stroke="#231F20" stroke-width="1.5001" stroke-miterlimit="2.6131" cx="7.389" cy="30.125" r="2.011"/>
	<circle fill="none" stroke="#231F20" stroke-width="1.5001" stroke-miterlimit="2.6131" cx="23.105" cy="30.125" r="2.011"/>
	
		<line fill="none" stroke="#231F20" stroke-width="1.5001" stroke-linecap="round" stroke-linejoin="round" stroke-miterlimit="2.6131" x1="13.816" y1="27.092" x2="16.678" y2="27.068"/>
	<path fill="none" stroke="#231F20" stroke-width="1.5001" stroke-miterlimit="2.6131" d="M9.901,0.75h10.692
		c0.408,0,0.742,0.339,0.742,0.752v3.91c0,0.413-0.334,0.752-0.742,0.752H9.901c-0.408,0-0.742-0.339-0.742-0.752v-3.91
		C9.159,1.089,9.493,0.75,9.901,0.75z"/>
	
		<line fill="none" stroke="#231F20" stroke-width="1.5001" stroke-linecap="round" stroke-linejoin="round" stroke-miterlimit="2.6131" x1="5.778" y1="43.994" x2="8.795" y2="38.739"/>
	
		<line fill="none" stroke="#231F20" stroke-width="1.5001" stroke-linecap="round" stroke-linejoin="round" stroke-miterlimit="2.6131" x1="24.716" y1="43.994" x2="21.699" y2="38.739"/>
	
		<line fill="none" stroke="#231F20" stroke-width="1.5001" stroke-linecap="round" stroke-linejoin="round" stroke-miterlimit="2.6131" x1="7.043" y1="41.812" x2="23.451" y2="41.789"/>
</g>
</svg>
