<?xml version="1.0" encoding="utf-8"?>
<!-- Generator: Adobe Illustrator 17.0.0, SVG Export Plug-In . SVG Version: 6.00 Build 0)  -->
<!DOCTYPE svg PUBLIC "-//W3C//DTD SVG 1.1//EN" "http://www.w3.org/Graphics/SVG/1.1/DTD/svg11.dtd">
<svg version="1.1" id="Layer_1" xmlns="http://www.w3.org/2000/svg" xmlns:xlink="http://www.w3.org/1999/xlink" x="0px" y="0px"
	 width="45.685px" height="47.707px" viewBox="0 0 45.685 47.707" enable-background="new 0 0 45.685 47.707" xml:space="preserve">
<g>
	
		<polyline fill="none" stroke="#3B3735" stroke-width="2" stroke-linecap="round" stroke-linejoin="round" stroke-miterlimit="10" points="
		34.295,11.632 23.149,17.181 17.531,17.181 24.866,11.143 	"/>
	<path fill="none" stroke="#3B3735" stroke-width="2" stroke-linecap="round" stroke-linejoin="round" stroke-miterlimit="10" d="
		M32.776,12.181h9.569c1.293,0,2.341-1.207,2.341-2.5c0-1.293-1.048-2.5-2.341-2.5H9.671L5.358,2.665L1,1l3.485,8.992
		c0.341,1.196,1.048,2.189,2.341,2.189h15.95"/>
	<g>
		
			<line fill="none" stroke="#3B3735" stroke-width="2" stroke-linecap="round" stroke-linejoin="round" stroke-miterlimit="10" x1="33.08" y1="43.707" x2="12.506" y2="43.707"/>
		<path fill="none" stroke="#3B3735" stroke-width="2" stroke-linecap="round" stroke-linejoin="round" stroke-miterlimit="10" d="
			M6.018,43.707H3.625c-0.887,0-1.606-0.719-1.606-1.606v-19.43c0-0.887,0.719-1.606,1.606-1.606h29.96
			c0.452,0,0.882,0.19,1.187,0.524l8.494,9.309c0.27,0.296,0.42,0.682,0.42,1.083v10.121c0,0.887-0.719,1.606-1.606,1.606H39.57"/>
		
			<circle fill="none" stroke="#3B3735" stroke-width="2" stroke-linecap="round" stroke-linejoin="round" stroke-miterlimit="10" cx="9.269" cy="43.457" r="3.25"/>
		
			<circle fill="none" stroke="#3B3735" stroke-width="2" stroke-linecap="round" stroke-linejoin="round" stroke-miterlimit="10" cx="36.331" cy="43.457" r="3.25"/>
		
			<line fill="none" stroke="#3B3735" stroke-width="2" stroke-linecap="round" stroke-linejoin="round" stroke-miterlimit="10" x1="2.776" y1="31.181" x2="43.776" y2="31.181"/>
		
			<line fill="none" stroke="#3B3735" stroke-width="2" stroke-linecap="round" stroke-linejoin="round" stroke-miterlimit="10" x1="10.776" y1="21.181" x2="10.776" y2="31.181"/>
		
			<line fill="none" stroke="#3B3735" stroke-width="2" stroke-linecap="round" stroke-linejoin="round" stroke-miterlimit="10" x1="19.776" y1="21.181" x2="19.776" y2="31.181"/>
		
			<line fill="none" stroke="#3B3735" stroke-width="2" stroke-linecap="round" stroke-linejoin="round" stroke-miterlimit="10" x1="28.776" y1="21.181" x2="28.776" y2="31.181"/>
	</g>
</g>
</svg>
