<?xml version="1.0" encoding="utf-8"?>
<!-- Generator: Adobe Illustrator 17.0.0, SVG Export Plug-In . SVG Version: 6.00 Build 0)  -->
<!DOCTYPE svg PUBLIC "-//W3C//DTD SVG 1.1//EN" "http://www.w3.org/Graphics/SVG/1.1/DTD/svg11.dtd">
<svg version="1.1" id="Layer_1" xmlns="http://www.w3.org/2000/svg" xmlns:xlink="http://www.w3.org/1999/xlink" x="0px" y="0px"
	 width="97.015px" height="49.26px" viewBox="0 0 97.015 49.26" enable-background="new 0 0 97.015 49.26" xml:space="preserve">
<g>
	
		<line fill="none" stroke="#3B3735" stroke-width="2" stroke-linecap="round" stroke-linejoin="round" stroke-miterlimit="10" x1="5.398" y1="48.26" x2="96.015" y2="48.26"/>
	<g>
		
			<circle fill="none" stroke="#3B3735" stroke-width="2" stroke-linecap="round" stroke-linejoin="round" stroke-miterlimit="10" cx="37.534" cy="41.644" r="6.242"/>
		
			<circle fill="none" stroke="#3B3735" stroke-width="2" stroke-linecap="round" stroke-linejoin="round" stroke-miterlimit="10" cx="79.444" cy="41.644" r="6.242"/>
		<path fill="none" stroke="#3B3735" stroke-width="2" stroke-linecap="round" stroke-linejoin="round" stroke-miterlimit="10" d="
			M83.548,5.05H66.425v36.623h6.78c0-0.01-0.003-0.019-0.003-0.029c0-3.447,2.794-6.242,6.242-6.242
			c3.447,0,6.242,2.794,6.242,6.242c0,0.01-0.003,0.019-0.003,0.029h6.78V19.915L83.548,5.05z"/>
		<g>
			
				<polygon fill="none" stroke="#3B3735" stroke-width="2" stroke-linecap="round" stroke-linejoin="round" stroke-miterlimit="10" points="
				71.98,11.144 71.98,21.481 86.717,21.481 80.571,11.144 			"/>
			
				<line fill="none" stroke="#3B3735" stroke-width="2" stroke-linecap="round" stroke-linejoin="round" stroke-miterlimit="10" x1="71.98" y1="25.996" x2="75.178" y2="25.996"/>
		</g>
		
			<circle fill="none" stroke="#3B3735" stroke-width="2" stroke-linecap="round" stroke-linejoin="round" stroke-miterlimit="10" cx="19.758" cy="41.644" r="6.242"/>
		<path fill="none" stroke="#3B3735" stroke-width="2" stroke-linecap="round" stroke-linejoin="round" stroke-miterlimit="10" d="
			M9.62,31.069v10.604h3.899c0-0.01-0.003-0.019-0.003-0.029c0-3.447,2.794-6.242,6.242-6.242s6.242,2.794,6.242,6.242
			c0,0.01-0.003,0.019-0.003,0.029h5.299c0-0.01-0.003-0.019-0.003-0.029c0-3.447,2.795-6.242,6.242-6.242s6.242,2.794,6.242,6.242
			c0,0.01-0.003,0.019-0.003,0.029h22.653V31.069H9.62z"/>
		<path fill="none" stroke="#3B3735" stroke-width="2" stroke-linecap="round" stroke-linejoin="round" stroke-miterlimit="10" d="
			M53.415,31.069H14.01C6.854,31.069,1,25.215,1,18.06v0C1,10.905,6.854,5.05,14.01,5.05h39.406c7.155,0,13.01,5.854,13.01,13.01v0
			C66.425,25.215,60.571,31.069,53.415,31.069z"/>
		
			<rect x="18.223" y="1" fill="none" stroke="#3B3735" stroke-width="2" stroke-linecap="round" stroke-linejoin="round" stroke-miterlimit="10" width="31.407" height="4.05"/>
	</g>
</g>
</svg>
