<?xml version="1.0" encoding="utf-8"?>
<!-- Generator: Adobe Illustrator 17.0.0, SVG Export Plug-In . SVG Version: 6.00 Build 0)  -->
<!DOCTYPE svg PUBLIC "-//W3C//DTD SVG 1.1//EN" "http://www.w3.org/Graphics/SVG/1.1/DTD/svg11.dtd">
<svg version="1.1" id="Layer_1" xmlns="http://www.w3.org/2000/svg" xmlns:xlink="http://www.w3.org/1999/xlink" x="0px" y="0px"
	 width="48.195px" height="47px" viewBox="0 0 48.195 47" enable-background="new 0 0 48.195 47" xml:space="preserve">
<g>
	
		<polyline fill="none" stroke="#3B3735" stroke-width="2" stroke-linecap="round" stroke-linejoin="round" stroke-miterlimit="10" points="
		24.177,46 11.177,46 11.177,17.892 7.627,20.986 1,13.253 9.929,4.186 17.599,1 30.573,1 38.254,4.186 47.195,13.207 
		40.636,20.963 37.177,17.892 37.177,46 24.177,46 	"/>
	<path fill="none" stroke="#3B3735" stroke-width="2" stroke-linecap="round" stroke-linejoin="round" stroke-miterlimit="10" d="
		M23.921,6.963C27.215,6.963,29.884,5,29.884,1H17.958C17.958,5,20.628,6.963,23.921,6.963z"/>
	<path fill="none" stroke="#3B3735" stroke-width="2" stroke-linecap="round" stroke-linejoin="round" stroke-miterlimit="10" d="
		M14.982,2.401c0.514,4.526,4.339,7.999,8.981,7.999c4.679,0,8.528-3.528,8.993-8.107"/>
	
		<line fill="none" stroke="#3B3735" stroke-width="2" stroke-linecap="round" stroke-linejoin="round" stroke-miterlimit="10" x1="3.256" y1="10.988" x2="9.836" y2="18.693"/>
	
		<line fill="none" stroke="#3B3735" stroke-width="2" stroke-linecap="round" stroke-linejoin="round" stroke-miterlimit="10" x1="44.916" y1="10.988" x2="38.336" y2="18.693"/>
</g>
</svg>
