<?xml version="1.0" encoding="iso-8859-1"?>
<!-- Generator: Adobe Illustrator 17.0.0, SVG Export Plug-In . SVG Version: 6.00 Build 0)  -->
<!DOCTYPE svg PUBLIC "-//W3C//DTD SVG 1.1//EN" "http://www.w3.org/Graphics/SVG/1.1/DTD/svg11.dtd">
<svg version="1.1" id="Layer_1" xmlns="http://www.w3.org/2000/svg" xmlns:xlink="http://www.w3.org/1999/xlink" x="0px" y="0px"
	 width="437px" height="396.27px" viewBox="0 0 437 396.27" style="enable-background:new 0 0 437 396.27;" xml:space="preserve">
<g>
	<path style="fill:none;stroke:#3B3735;stroke-width:2;stroke-linecap:round;stroke-linejoin:round;stroke-miterlimit:10;" d="
		M198.576,200.204c0-11.552,9.365-20.917,20.917-20.917c11.552,0,20.917,9.365,20.917,20.917"/>
	<g>
		<path style="fill:none;stroke:#3B3735;stroke-width:2;stroke-linecap:round;stroke-linejoin:round;stroke-miterlimit:10;" d="
			M239.983,200.322c-3.421,0-3.421-2-6.842-2c-3.422,0-3.422,2-6.844,2c-3.42,0-3.42-2-6.84-2c-3.423,0-3.423,2-6.846,2
			c-3.425,0-3.425-2-6.851-2s-3.425,2-6.851,2"/>
	</g>
	<path style="fill:none;stroke:#3B3735;stroke-width:2;stroke-linecap:round;stroke-linejoin:round;stroke-miterlimit:10;" d="
		M219.493,179.287c0,0-9.563,7.346-7.393,20.917"/>
	<path style="fill:none;stroke:#3B3735;stroke-width:2;stroke-linecap:round;stroke-linejoin:round;stroke-miterlimit:10;" d="
		M219.447,174.996l0.046,4.291c0,0,9.563,7.346,7.393,20.917"/>
	<path style="fill:none;stroke:#3B3735;stroke-width:2;stroke-linecap:round;stroke-linejoin:round;stroke-miterlimit:10;" d="
		M229.992,215.191c0,2.766-2.229,5.089-4.996,5.089l0,0c-2.766,0-4.996-2.162-4.996-4.929V198"/>
</g>
</svg>
