<?xml version="1.0" encoding="iso-8859-1"?>
<!-- Generator: Adobe Illustrator 17.0.0, SVG Export Plug-In . SVG Version: 6.00 Build 0)  -->
<!DOCTYPE svg PUBLIC "-//W3C//DTD SVG 1.1//EN" "http://www.w3.org/Graphics/SVG/1.1/DTD/svg11.dtd">
<svg version="1.1" id="Layer_1" xmlns="http://www.w3.org/2000/svg" xmlns:xlink="http://www.w3.org/1999/xlink" x="0px" y="0px"
	 width="39px" height="37px" viewBox="0 0 39 37" style="enable-background:new 0 0 39 37;" xml:space="preserve">
<g>
	<g>
		
			<rect x="1" y="1" style="fill:none;stroke:#3B3735;stroke-width:2;stroke-linecap:round;stroke-linejoin:round;stroke-miterlimit:10;" width="37" height="35"/>
		
			<rect x="1" y="1" style="fill:none;stroke:#3B3735;stroke-width:2;stroke-linecap:round;stroke-linejoin:round;stroke-miterlimit:10;" width="7" height="7"/>
		
			<rect x="31" y="1" style="fill:none;stroke:#3B3735;stroke-width:2;stroke-linecap:round;stroke-linejoin:round;stroke-miterlimit:10;" width="7" height="7"/>
		
			<rect x="1" y="8" style="fill:none;stroke:#3B3735;stroke-width:2;stroke-linecap:round;stroke-linejoin:round;stroke-miterlimit:10;" width="7" height="7"/>
		
			<rect x="31" y="8" style="fill:none;stroke:#3B3735;stroke-width:2;stroke-linecap:round;stroke-linejoin:round;stroke-miterlimit:10;" width="7" height="7"/>
		
			<rect x="1" y="15" style="fill:none;stroke:#3B3735;stroke-width:2;stroke-linecap:round;stroke-linejoin:round;stroke-miterlimit:10;" width="7" height="7"/>
		
			<rect x="31" y="15" style="fill:none;stroke:#3B3735;stroke-width:2;stroke-linecap:round;stroke-linejoin:round;stroke-miterlimit:10;" width="7" height="7"/>
		
			<rect x="1" y="22" style="fill:none;stroke:#3B3735;stroke-width:2;stroke-linecap:round;stroke-linejoin:round;stroke-miterlimit:10;" width="7" height="7"/>
		
			<rect x="31" y="22" style="fill:none;stroke:#3B3735;stroke-width:2;stroke-linecap:round;stroke-linejoin:round;stroke-miterlimit:10;" width="7" height="7"/>
		
			<rect x="1" y="29" style="fill:none;stroke:#3B3735;stroke-width:2;stroke-linecap:round;stroke-linejoin:round;stroke-miterlimit:10;" width="7" height="7"/>
		
			<rect x="31" y="29" style="fill:none;stroke:#3B3735;stroke-width:2;stroke-linecap:round;stroke-linejoin:round;stroke-miterlimit:10;" width="7" height="7"/>
	</g>
	<path style="fill:none;stroke:#3B3735;stroke-width:2;stroke-linecap:round;stroke-linejoin:round;stroke-miterlimit:10;" d="
		M15.351,11.957l9.72,6.615c0.188,0.128,0.188,0.448,0,0.576l-9.72,6.615c-0.187,0.127-0.421-0.032-0.421-0.288v-13.23
		C14.93,11.99,15.164,11.83,15.351,11.957z"/>
</g>
<g>
	<g>
		
			<rect x="1" y="1" style="fill:none;stroke:#3B3735;stroke-width:2;stroke-linecap:round;stroke-linejoin:round;stroke-miterlimit:10;" width="37" height="35"/>
		
			<rect x="1" y="1" style="fill:none;stroke:#3B3735;stroke-width:2;stroke-linecap:round;stroke-linejoin:round;stroke-miterlimit:10;" width="7" height="7"/>
		
			<rect x="31" y="1" style="fill:none;stroke:#3B3735;stroke-width:2;stroke-linecap:round;stroke-linejoin:round;stroke-miterlimit:10;" width="7" height="7"/>
		
			<rect x="1" y="8" style="fill:none;stroke:#3B3735;stroke-width:2;stroke-linecap:round;stroke-linejoin:round;stroke-miterlimit:10;" width="7" height="7"/>
		
			<rect x="31" y="8" style="fill:none;stroke:#3B3735;stroke-width:2;stroke-linecap:round;stroke-linejoin:round;stroke-miterlimit:10;" width="7" height="7"/>
		
			<rect x="1" y="15" style="fill:none;stroke:#3B3735;stroke-width:2;stroke-linecap:round;stroke-linejoin:round;stroke-miterlimit:10;" width="7" height="7"/>
		
			<rect x="31" y="15" style="fill:none;stroke:#3B3735;stroke-width:2;stroke-linecap:round;stroke-linejoin:round;stroke-miterlimit:10;" width="7" height="7"/>
		
			<rect x="1" y="22" style="fill:none;stroke:#3B3735;stroke-width:2;stroke-linecap:round;stroke-linejoin:round;stroke-miterlimit:10;" width="7" height="7"/>
		
			<rect x="31" y="22" style="fill:none;stroke:#3B3735;stroke-width:2;stroke-linecap:round;stroke-linejoin:round;stroke-miterlimit:10;" width="7" height="7"/>
		
			<rect x="1" y="29" style="fill:none;stroke:#3B3735;stroke-width:2;stroke-linecap:round;stroke-linejoin:round;stroke-miterlimit:10;" width="7" height="7"/>
		
			<rect x="31" y="29" style="fill:none;stroke:#3B3735;stroke-width:2;stroke-linecap:round;stroke-linejoin:round;stroke-miterlimit:10;" width="7" height="7"/>
	</g>
	<path style="fill:none;stroke:#3B3735;stroke-width:2;stroke-linecap:round;stroke-linejoin:round;stroke-miterlimit:10;" d="
		M15.351,11.957l9.72,6.615c0.188,0.128,0.188,0.448,0,0.576l-9.72,6.615c-0.187,0.127-0.421-0.032-0.421-0.288v-13.23
		C14.93,11.99,15.164,11.83,15.351,11.957z"/>
</g>
</svg>
