<?xml version="1.0" encoding="utf-8"?>
<!-- Generator: Adobe Illustrator 17.0.0, SVG Export Plug-In . SVG Version: 6.00 Build 0)  -->
<!DOCTYPE svg PUBLIC "-//W3C//DTD SVG 1.1//EN" "http://www.w3.org/Graphics/SVG/1.1/DTD/svg11.dtd">
<svg version="1.1" id="Layer_1" xmlns="http://www.w3.org/2000/svg" xmlns:xlink="http://www.w3.org/1999/xlink" x="0px" y="0px"
	 width="18.573px" height="46.011px" viewBox="0 0 18.573 46.011" enable-background="new 0 0 18.573 46.011" xml:space="preserve">
<g>
	
		<path fill="none" stroke="#231F20" stroke-width="1.5001" stroke-linecap="round" stroke-linejoin="round" stroke-miterlimit="2.6131" d="
		M9.287,45.261H3.486c-1.511,0-2.735-1.225-2.735-2.735V19.299c0-5.365,3.091-9.203,5.415-13.795h6.243
		c2.323,4.592,5.415,8.43,5.415,13.795v23.227c0,1.511-1.225,2.735-2.735,2.735H9.287z"/>
	
		<rect x="4.95" y="0.75" fill="none" stroke="#231F20" stroke-width="1.5001" stroke-linecap="round" stroke-linejoin="round" stroke-miterlimit="2.6131" width="8.672" height="4.754"/>
	
		<line fill="none" stroke="#231F20" stroke-width="1.5001" stroke-linecap="round" stroke-linejoin="round" stroke-miterlimit="2.6131" x1="3.808" y1="5.504" x2="14.765" y2="5.504"/>
	
		<path fill="none" stroke="#231F20" stroke-width="1.5001" stroke-linecap="round" stroke-linejoin="round" stroke-miterlimit="2.6131" d="
		M10.175,22.236h7.648 M0.75,22.236h5.054"/>
	
		<path fill="none" stroke="#231F20" stroke-width="1.5001" stroke-linecap="round" stroke-linejoin="round" stroke-miterlimit="2.6131" d="
		M10.175,28.588h7.648 M0.75,28.588h5.054"/>
	
		<path fill="none" stroke="#231F20" stroke-width="1.5001" stroke-linecap="round" stroke-linejoin="round" stroke-miterlimit="2.6131" d="
		M10.175,34.939h7.648 M0.75,34.939h5.054"/>
</g>
</svg>
