<?xml version="1.0" encoding="utf-8"?>
<!-- Generator: Adobe Illustrator 17.0.0, SVG Export Plug-In . SVG Version: 6.00 Build 0)  -->
<!DOCTYPE svg PUBLIC "-//W3C//DTD SVG 1.1//EN" "http://www.w3.org/Graphics/SVG/1.1/DTD/svg11.dtd">
<svg version="1.1" id="Layer_1" xmlns="http://www.w3.org/2000/svg" xmlns:xlink="http://www.w3.org/1999/xlink" x="0px" y="0px"
	 width="38.168px" height="47.924px" viewBox="0 0 38.168 47.924" enable-background="new 0 0 38.168 47.924" xml:space="preserve">
<g>
	
		<line fill="none" stroke="#3B3735" stroke-width="2" stroke-linecap="round" stroke-linejoin="round" stroke-miterlimit="10" x1="9.534" y1="36.586" x2="9.534" y2="46.079"/>
	
		<line fill="none" stroke="#3B3735" stroke-width="2" stroke-linecap="round" stroke-linejoin="round" stroke-miterlimit="10" x1="5.303" y1="46.924" x2="13.764" y2="46.924"/>
	
		<rect x="27.279" y="1" fill="none" stroke="#3B3735" stroke-width="2" stroke-linecap="round" stroke-linejoin="round" stroke-miterlimit="10" width="5.579" height="14.915"/>
	
		<rect x="27.279" y="1" fill="none" stroke="#3B3735" stroke-width="2" stroke-linecap="round" stroke-linejoin="round" stroke-miterlimit="10" width="5.579" height="4.563"/>
	<path fill="none" stroke="#3B3735" stroke-width="2" stroke-linecap="round" stroke-linejoin="round" stroke-miterlimit="10" d="
		M22.934,46.916h14.234V22.331c0-3.543-2.873-6.416-6.416-6.416H29.35c-3.543,0-6.416,2.873-6.416,6.416V46.916z"/>
	
		<rect x="30.52" y="24.598" fill="none" stroke="#3B3735" stroke-width="2" stroke-linecap="round" stroke-linejoin="round" stroke-miterlimit="10" width="6.649" height="17.279"/>
	<g>
		<path fill="none" stroke="#3B3735" stroke-width="2" stroke-linecap="round" stroke-linejoin="round" stroke-miterlimit="10" d="
			M9.099,36.27c8.709,0,8.403-16.221,8.403-16.221h-8.25h-8.25c0,0-0.306,16.063,8.403,16.063"/>
		
			<line fill="none" stroke="#3B3735" stroke-width="2" stroke-linecap="round" stroke-linejoin="round" stroke-miterlimit="10" x1="2.092" y1="28.049" x2="16.092" y2="28.049"/>
	</g>
</g>
</svg>
