<?xml version="1.0" encoding="utf-8"?>
<!-- Generator: Adobe Illustrator 17.0.0, SVG Export Plug-In . SVG Version: 6.00 Build 0)  -->
<!DOCTYPE svg PUBLIC "-//W3C//DTD SVG 1.1//EN" "http://www.w3.org/Graphics/SVG/1.1/DTD/svg11.dtd">
<svg version="1.1" id="Layer_1" xmlns="http://www.w3.org/2000/svg" xmlns:xlink="http://www.w3.org/1999/xlink" x="0px" y="0px"
	 width="524.05px" height="158.844px" viewBox="0 0 524.05 158.844" enable-background="new 0 0 524.05 158.844"
	 xml:space="preserve">
<path fill="#0F2E46" d="M101.186,32.461C94.287,19.903,92.863,5.836,78.221,1.454c-18.12-5.446-36.922,22.401-63.206,29.325
	C9.221,32.319,5.901,33.05,0,34.128c6.113,2.525,9.85,3.86,16.489,4.176c8.745,0.429,19.017-0.666,25.758-2.904
	c-2.16,1.174-4.163,1.967-6.953,2.904c-4.375,1.509-7.113,2.096-11.642,2.542c8.585,0.699,13.641,0.126,22.175-1.191
	c6.27-0.954,11.642-2.763,16.907-4.97l-2.897,2.017l-3.423,1.842l-3.948,1.587c5.002,0.175,8.952-0.397,14.063-1.746
	c1.37-0.35,2.421-0.635,3.266-0.905c1.001-0.253,2.106-1.096,1.051-0.158c-0.418,0.381-0.997,0.904-1.578,1.318
	c-0.951,0.681-1.845,1.191-2.11,1.397c1.531-0.033,3.269,0.064,4.635,0.476c0.898,0.224,2.269,1.08,2.848,2.382
	c0.736,1.54-0.423,4.334-1.688,6.288c-1.051,1.477-4.263,4.302-7.321,6.27c-9.428,6.065-16.593,7.686-26.282,14.86
	c15.38-4.824,29.075-5.54,39.451-8.017c15.222-3.636,22.335-8.414,29.708-14.145c6.953-4.826,13.905-10.018,21.756-13.113
	c4.16-1.637,6.266-2.019,9.218-1.972c1.104,0,1.212-0.03,1.212-0.03c0.422,0.049,0.525-0.319,0.158-0.429
	c-0.369-0.127-1.685-0.459-2.318-0.683c-0.422-0.141-2.318-0.999-3.163-1.301c-2.74-1.349-4.001-1.89-4.478-2.081
	c-2.367-0.937-5.794-1.445-8.899-1.634C113.723,26.397,108.669,28.587,101.186,32.461"/>
<path fill="#AE231A" d="M86.859,0.756c1.53,0.922,2.056,1.286,2.318,1.381c2.213,1.016,3.637,1.396,6.166,1.841
	c9.216,1.588,18.802-3.922,23.859-2.096c1.738,0.619,2.951,2.018,2.843,3.684c-0.05,1.667-0.58,2.826-1.999,3.636
	c0.261-0.778-0.633-2.16-1.477-2.508c-3.423-1.492-10.587,1.269-16.539,2.238C95.922,9.932,89.388,6.091,86.859,0.756"/>
<path fill="none" stroke="#AE231A" stroke-width="0.1895" stroke-miterlimit="3.8637" d="M86.859,0.756
	c1.53,0.922,2.056,1.286,2.318,1.381c2.213,1.016,3.637,1.396,6.166,1.841c9.216,1.588,18.802-3.922,23.859-2.096
	c1.738,0.619,2.951,2.018,2.843,3.684c-0.05,1.667-0.58,2.826-1.999,3.636c0.261-0.778-0.633-2.16-1.477-2.508
	c-3.423-1.492-10.587,1.269-16.539,2.238C95.922,9.932,89.388,6.091,86.859,0.756z"/>
<path fill="#0F2E46" d="M121.416,1.026c5.687-2.542,12.904,0.078,14.377,3.096c1.581,3.176-1.212,5.588-3.791,7.795
	c-8.27,7.112-15.803,10.939-26.603,16.655c7.324-5.859,19.174-15.115,20.859-20.958C127.049,4.741,124.627,2.723,121.416,1.026"/>
<path fill="#AE231A" d="M94.13,10.853c1.896,0.937,2.843,1.223,4.739,1.699c5.951,1.429,12.274-2.556,15.594-1.366
	c1.105,0.397,1.895,1.32,1.843,2.398c-0.054,1.097-0.369,1.859-1.317,2.382c0.212-0.555-0.317-1.253-0.947-1.651
	c-2.107-1.271-6.953,0.841-10.798,1.46C99.237,16.441,96.08,14.346,94.13,10.853"/>
<path fill="none" stroke="#AE231A" stroke-width="0.1895" stroke-miterlimit="3.8637" d="M94.13,10.853
	c1.896,0.937,2.843,1.223,4.739,1.699c5.951,1.429,12.274-2.556,15.594-1.366c1.105,0.397,1.895,1.32,1.843,2.398
	c-0.054,1.097-0.369,1.859-1.317,2.382c0.212-0.555-0.317-1.253-0.947-1.651c-2.107-1.271-6.953,0.841-10.798,1.46
	C99.237,16.441,96.08,14.346,94.13,10.853z"/>
<path fill="#AE231A" d="M97.081,18.49c1.051,0.509,1.684,0.73,2.843,1.017c3.58,0.857,7.321-1.525,9.324-0.826
	c0.684,0.253,1.159,0.794,1.105,1.444c0,0.651-0.421,1.351-1.634,2.032c0.265-0.413-0.157-0.873-0.157-0.952
	c-0.472-0.953-3.476,0.095-5.793,0.476C100.346,22.078,98.499,20.997,97.081,18.49"/>
<path fill="none" stroke="#AE231A" stroke-width="0.1895" stroke-miterlimit="3.8637" d="M97.081,18.49
	c1.051,0.509,1.684,0.73,2.843,1.017c3.58,0.857,7.321-1.525,9.324-0.826c0.684,0.253,1.159,0.794,1.105,1.444
	c0,0.651-0.421,1.351-1.634,2.032c0.265-0.413-0.157-0.873-0.157-0.952c-0.472-0.953-3.476,0.095-5.793,0.476
	C100.346,22.078,98.499,20.997,97.081,18.49z"/>
<g>
	<path fill="#0F2E46" d="M121.45,74.416c0-8.204,0-9.715-0.108-11.442c-0.108-1.835-0.54-2.698-2.321-3.076
		c-0.432-0.108-1.349-0.162-2.104-0.162c-0.594,0-0.918-0.108-0.918-0.486s0.378-0.486,1.188-0.486c2.86,0,6.261,0.162,7.34,0.162
		c2.645,0,4.75-0.162,6.584-0.162c9.769,0,11.496,5.235,11.496,8.096c0,4.425-2.537,7.07-5.505,9.445
		c4.426,1.511,9.823,5.343,9.823,11.657c0,5.775-4.479,11.766-14.41,11.766c-0.647,0-2.213-0.108-3.778-0.162
		c-1.619-0.108-3.238-0.162-4.048-0.162c-0.594,0-1.781,0-3.076,0.054c-1.241,0-2.645,0.108-3.724,0.108
		c-0.702,0-1.08-0.162-1.08-0.54c0-0.27,0.216-0.432,0.864-0.432c0.81,0,1.457-0.108,1.943-0.216
		c1.08-0.216,1.349-1.403,1.565-2.968c0.27-2.267,0.27-6.531,0.27-11.496L121.45,74.416L121.45,74.416z M127.927,75.334
		c0,0.432,0.162,0.54,0.378,0.594c0.485,0.108,1.295,0.162,2.537,0.162c1.781,0,2.968-0.216,3.886-1.026
		c1.403-1.133,2.213-3.076,2.213-5.721c0-3.616-2.105-8.365-6.747-8.365c-0.755,0-1.241,0-1.781,0.108
		c-0.378,0.108-0.486,0.324-0.486,0.917C127.927,62.003,127.927,75.334,127.927,75.334z M135.051,79.652
		c-1.133-0.81-2.375-1.188-4.479-1.295c-0.972-0.054-1.511-0.054-2.321-0.054c-0.216,0-0.324,0.108-0.324,0.378v12.791
		c0,3.562,0.162,4.479,1.889,5.181c1.458,0.594,2.699,0.647,3.94,0.647c2.429,0,6.531-1.295,6.531-6.908
		C140.286,87.045,139.152,82.512,135.051,79.652z"/>
	<path fill="#0F2E46" d="M165.811,85.804c-0.27,0-0.377,0.108-0.485,0.432l-2.915,7.394c-0.54,1.349-0.81,2.645-0.81,3.292
		c0,0.971,0.486,1.673,2.159,1.673h0.81c0.648,0,0.81,0.108,0.81,0.432c0,0.432-0.324,0.54-0.917,0.54
		c-1.727,0-4.048-0.162-5.721-0.162c-0.594,0-3.562,0.162-6.369,0.162c-0.702,0-1.025-0.108-1.025-0.54
		c0-0.324,0.216-0.432,0.647-0.432c0.486,0,1.242-0.054,1.673-0.108c2.482-0.324,3.508-2.159,4.587-4.857l13.546-33.461
		c0.648-1.565,0.972-2.159,1.511-2.159c0.486,0,0.81,0.485,1.35,1.727c1.295,2.968,9.93,24.556,13.384,32.76
		c2.051,4.857,3.616,5.613,4.75,5.883c0.81,0.162,1.619,0.216,2.267,0.216c0.432,0,0.702,0.054,0.702,0.432
		c0,0.432-0.486,0.54-2.482,0.54c-1.943,0-5.883,0-10.201-0.108c-0.971-0.054-1.619-0.054-1.619-0.432
		c0-0.324,0.216-0.432,0.756-0.486c0.378-0.108,0.755-0.593,0.486-1.241l-4.318-11.118c-0.108-0.27-0.27-0.378-0.54-0.378
		L165.811,85.804L165.811,85.804z M176.821,83.106c0.27,0,0.324-0.162,0.27-0.324l-4.857-13.276
		c-0.054-0.216-0.108-0.486-0.27-0.486s-0.27,0.27-0.324,0.486l-4.965,13.223c-0.054,0.216,0,0.378,0.216,0.378L176.821,83.106
		L176.821,83.106z"/>
	<path fill="#0F2E46" d="M211.792,76.791h0.27c1.835-1.997,9.714-10.038,11.28-11.873c1.511-1.781,2.698-3.13,2.698-4.048
		c0-0.594-0.216-0.972-0.755-1.08c-0.486-0.108-0.702-0.216-0.702-0.54c0-0.378,0.27-0.486,0.863-0.486
		c1.134,0,4.102,0.162,5.559,0.162c1.673,0,4.642-0.162,6.314-0.162c0.54,0,0.917,0.108,0.917,0.486c0,0.377-0.27,0.486-0.81,0.486
		c-0.755,0-2.104,0.216-3.13,0.593c-1.673,0.648-3.508,1.781-5.829,4.048c-1.673,1.619-9.823,9.715-11.658,11.658
		c1.943,2.537,12.521,13.924,14.626,15.921c2.375,2.267,4.804,4.695,7.718,5.829c1.619,0.647,2.699,0.81,3.346,0.81
		c0.378,0,0.702,0.108,0.702,0.432c0,0.378-0.27,0.54-1.295,0.54h-4.695c-1.619,0-2.59,0-3.724-0.108
		c-2.915-0.27-4.372-1.458-6.692-3.508c-2.375-2.105-13.007-14.572-14.141-16.137l-0.593-0.81h-0.27v4.912
		c0,4.965,0,9.229,0.162,11.549c0.108,1.511,0.593,2.699,1.943,2.915c0.755,0.108,1.943,0.216,2.645,0.216
		c0.432,0,0.702,0.162,0.702,0.432c0,0.378-0.432,0.54-1.025,0.54c-3.022,0-6.423-0.162-7.772-0.162c-1.241,0-4.642,0.162-6.8,0.162
		c-0.702,0-1.08-0.162-1.08-0.54c0-0.27,0.216-0.432,0.864-0.432c0.81,0,1.457-0.108,1.943-0.216
		c1.08-0.216,1.349-1.403,1.565-2.968c0.27-2.267,0.27-6.531,0.27-11.496v-9.499c0-8.204,0-9.715-0.108-11.442
		c-0.108-1.835-0.54-2.698-2.321-3.076c-0.432-0.108-1.349-0.162-2.105-0.162c-0.593,0-0.917-0.108-0.917-0.486
		s0.378-0.486,1.188-0.486c2.86,0,6.261,0.162,7.556,0.162s4.695-0.162,6.53-0.162c0.755,0,1.133,0.108,1.133,0.486
		c0,0.377-0.324,0.486-0.755,0.486c-0.54,0-0.864,0.054-1.511,0.162c-1.458,0.27-1.889,1.188-1.997,3.076
		c-0.108,1.727-0.108,3.238-0.108,11.442L211.792,76.791L211.792,76.791z"/>
	<path fill="#0F2E46" d="M250.432,74.416c0-8.204,0-9.715-0.108-11.442c-0.108-1.835-0.54-2.698-2.321-3.076
		c-0.432-0.108-1.349-0.162-2.105-0.162c-0.593,0-0.917-0.108-0.917-0.486s0.378-0.486,1.188-0.486c1.458,0,3.022,0.054,4.372,0.054
		c1.403,0.054,2.645,0.108,3.4,0.108c1.727,0,12.467,0,13.492-0.054c1.026-0.108,1.889-0.216,2.321-0.324
		c0.27-0.054,0.594-0.216,0.864-0.216c0.27,0,0.324,0.216,0.324,0.486c0,0.377-0.27,1.025-0.432,3.508
		c-0.054,0.54-0.162,2.915-0.27,3.562c-0.054,0.27-0.162,0.594-0.54,0.594c-0.378,0-0.486-0.27-0.486-0.755
		c0-0.378-0.054-1.295-0.324-1.943c-0.378-0.971-0.917-1.619-3.616-1.943c-0.917-0.108-6.584-0.216-7.664-0.216
		c-0.27,0-0.378,0.162-0.378,0.54V75.82c0,0.378,0.054,0.594,0.378,0.594c1.187,0,7.394,0,8.635-0.108
		c1.295-0.108,2.105-0.27,2.59-0.81c0.378-0.432,0.594-0.702,0.864-0.702c0.216,0,0.377,0.108,0.377,0.432s-0.216,1.188-0.432,3.94
		c-0.054,1.079-0.216,3.238-0.216,3.616c0,0.432,0,1.025-0.486,1.025c-0.377,0-0.485-0.216-0.485-0.485
		c-0.054-0.54-0.054-1.242-0.216-1.943c-0.27-1.08-1.025-1.889-3.022-2.105c-1.025-0.108-6.369-0.162-7.664-0.162
		c-0.27,0-0.324,0.216-0.324,0.54v4.264c0,1.835-0.054,6.8,0,8.365c0.108,3.724,0.972,4.534,6.477,4.534c1.403,0,3.67,0,5.073-0.648
		c1.403-0.647,2.051-1.781,2.429-3.994c0.108-0.594,0.216-0.81,0.594-0.81c0.432,0,0.432,0.432,0.432,0.971
		c0,1.242-0.432,4.912-0.702,5.991c-0.378,1.403-0.864,1.403-2.915,1.403c-4.048,0-7.016-0.108-9.337-0.162
		c-2.321-0.108-3.994-0.162-5.613-0.162c-0.594,0-1.781,0-3.076,0.054c-1.242,0-2.645,0.108-3.724,0.108
		c-0.702,0-1.08-0.162-1.08-0.54c0-0.27,0.216-0.432,0.864-0.432c0.81,0,1.457-0.108,1.943-0.216
		c1.08-0.216,1.349-1.403,1.565-2.968c0.27-2.267,0.27-6.531,0.27-11.496v-9.498H250.432z"/>
	<path fill="#0F2E46" d="M288.317,74.416c0-8.204,0-9.715-0.108-11.442c-0.108-1.835-0.54-2.698-2.321-3.076
		c-0.432-0.108-1.349-0.162-2.104-0.162c-0.594,0-0.918-0.108-0.918-0.486s0.378-0.486,1.188-0.486c2.86,0,6.261,0.162,7.394,0.162
		c1.835,0,5.937-0.162,7.61-0.162c3.4,0,7.016,0.324,9.931,2.321c1.511,1.025,3.67,3.778,3.67,7.394
		c0,3.994-1.673,7.664-7.124,12.089c4.803,6.044,8.527,10.848,11.711,14.194c3.022,3.13,5.235,3.508,6.044,3.67
		c0.594,0.108,1.08,0.162,1.511,0.162c0.432,0,0.648,0.162,0.648,0.432c0,0.432-0.378,0.54-1.025,0.54h-5.127
		c-3.022,0-4.372-0.27-5.775-1.026c-2.321-1.241-4.372-3.778-7.394-7.934c-2.159-2.968-4.641-6.638-5.343-7.448
		c-0.27-0.324-0.594-0.378-0.972-0.378l-4.695-0.108c-0.27,0-0.432,0.108-0.432,0.432v0.755c0,5.019,0,9.283,0.27,11.55
		c0.162,1.565,0.486,2.752,2.105,2.968c0.81,0.108,1.997,0.216,2.645,0.216c0.432,0,0.648,0.162,0.648,0.432
		c0,0.378-0.378,0.54-1.08,0.54c-3.13,0-7.124-0.162-7.934-0.162c-1.025,0-4.426,0.162-6.584,0.162c-0.702,0-1.08-0.162-1.08-0.54
		c0-0.27,0.216-0.432,0.864-0.432c0.81,0,1.457-0.108,1.943-0.216c1.08-0.216,1.349-1.403,1.565-2.968
		c0.27-2.267,0.27-6.531,0.27-11.496v-9.497H288.317z M294.686,78.68c0,0.594,0.108,0.81,0.486,0.972
		c1.133,0.377,2.752,0.54,4.102,0.54c2.159,0,2.86-0.216,3.832-0.917c1.619-1.188,3.184-3.67,3.184-8.096
		c0-7.664-5.073-9.876-8.257-9.876c-1.35,0-2.321,0.054-2.86,0.216c-0.378,0.108-0.486,0.324-0.486,0.756V78.68H294.686z"/>
	<path fill="#0F2E46" d="M359.986,61.787l-8.042,0.216c-3.13,0.108-4.426,0.378-5.235,1.565c-0.54,0.81-0.81,1.458-0.917,1.889
		s-0.27,0.647-0.594,0.647c-0.378,0-0.486-0.27-0.486-0.863c0-0.864,1.026-5.775,1.134-6.207c0.162-0.702,0.324-1.025,0.647-1.025
		c0.432,0,0.972,0.54,2.321,0.647c1.565,0.162,3.616,0.27,5.397,0.27h21.373c1.727,0,2.914-0.162,3.724-0.27
		c0.81-0.162,1.241-0.27,1.457-0.27c0.378,0,0.432,0.324,0.432,1.133c0,1.134-0.162,4.857-0.162,6.261
		c-0.054,0.54-0.161,0.864-0.485,0.864c-0.432,0-0.54-0.27-0.594-1.08l-0.054-0.594c-0.108-1.403-1.565-2.915-6.368-3.022
		l-6.801-0.162v22.128c0,4.965,0,9.229,0.27,11.549c0.162,1.511,0.486,2.699,2.105,2.915c0.756,0.108,1.942,0.216,2.752,0.216
		c0.594,0,0.864,0.162,0.864,0.432c0,0.378-0.433,0.54-1.025,0.54c-3.562,0-6.963-0.162-8.474-0.162c-1.241,0-4.642,0.162-6.8,0.162
		c-0.702,0-1.08-0.162-1.08-0.54c0-0.27,0.216-0.432,0.864-0.432c0.81,0,1.457-0.108,1.943-0.216
		c1.079-0.216,1.403-1.403,1.565-2.968c0.27-2.267,0.27-6.531,0.27-11.496V61.787H359.986z"/>
	<path fill="#0F2E46" d="M394.903,74.416c0-8.204,0-9.715-0.108-11.442c-0.107-1.835-0.647-2.752-1.835-3.022
		c-0.594-0.162-1.295-0.216-1.943-0.216c-0.539,0-0.863-0.108-0.863-0.54c0-0.324,0.432-0.432,1.296-0.432
		c2.051,0,5.45,0.162,7.016,0.162c1.35,0,4.533-0.162,6.584-0.162c0.702,0,1.134,0.108,1.134,0.432c0,0.432-0.324,0.54-0.863,0.54
		c-0.54,0-0.972,0.054-1.619,0.162c-1.457,0.27-1.889,1.188-1.997,3.076c-0.107,1.727-0.107,3.238-0.107,11.442v9.499
		c0,5.235,0,9.499,0.216,11.819c0.161,1.457,0.539,2.429,2.158,2.645c0.756,0.108,1.943,0.216,2.753,0.216
		c0.594,0,0.863,0.162,0.863,0.432c0,0.378-0.432,0.54-1.025,0.54c-3.562,0-6.962-0.162-8.42-0.162c-1.241,0-4.641,0.162-6.8,0.162
		c-0.701,0-1.079-0.162-1.079-0.54c0-0.27,0.216-0.432,0.863-0.432c0.81,0,1.457-0.108,1.943-0.216
		c1.079-0.216,1.402-1.133,1.564-2.699c0.271-2.267,0.271-6.53,0.271-11.765v-9.499H394.903z"/>
	<path fill="#0F2E46" d="M429.82,83.915c0,6.908,0,10.632,1.133,11.604c0.918,0.81,2.321,1.187,6.53,1.187
		c2.861,0,4.966-0.054,6.315-1.511c0.647-0.702,1.295-2.213,1.402-3.238c0.055-0.486,0.162-0.81,0.594-0.81
		c0.378,0,0.433,0.27,0.433,0.917c0,0.594-0.378,4.641-0.81,6.207c-0.324,1.188-0.594,1.457-3.4,1.457
		c-3.886,0-6.692-0.108-9.121-0.162c-2.429-0.108-4.372-0.162-6.584-0.162c-0.594,0-1.781,0-3.077,0.054
		c-1.241,0-2.645,0.108-3.724,0.108c-0.701,0-1.079-0.162-1.079-0.54c0-0.27,0.216-0.432,0.863-0.432
		c0.81,0,1.457-0.108,1.943-0.216c1.079-0.216,1.349-1.403,1.564-2.968c0.271-2.267,0.271-6.531,0.271-11.496v-9.499
		c0-8.204,0-9.715-0.108-11.442c-0.108-1.835-0.54-2.698-2.32-3.076c-0.433-0.108-1.08-0.162-1.781-0.162
		c-0.594,0-0.918-0.108-0.918-0.486s0.378-0.486,1.188-0.486c2.537,0,5.937,0.162,7.395,0.162c1.295,0,5.234-0.162,7.34-0.162
		c0.755,0,1.133,0.108,1.133,0.486c0,0.377-0.323,0.486-0.972,0.486c-0.593,0-1.457,0.054-2.104,0.162
		c-1.457,0.27-1.889,1.188-1.997,3.076c-0.107,1.727-0.107,3.238-0.107,11.442v9.5H429.82z"/>
	<path fill="#0F2E46" d="M466.249,83.915c0,6.908,0,10.632,1.133,11.604c0.918,0.81,2.321,1.187,6.53,1.187
		c2.861,0,4.966-0.054,6.315-1.511c0.647-0.702,1.295-2.213,1.402-3.238c0.055-0.486,0.162-0.81,0.594-0.81
		c0.378,0,0.433,0.27,0.433,0.917c0,0.594-0.378,4.641-0.81,6.207c-0.324,1.188-0.594,1.457-3.4,1.457
		c-3.886,0-6.692-0.108-9.121-0.162c-2.429-0.108-4.372-0.162-6.585-0.162c-0.593,0-1.78,0-3.076,0.054
		c-1.241,0-2.645,0.108-3.724,0.108c-0.701,0-1.079-0.162-1.079-0.54c0-0.27,0.216-0.432,0.863-0.432
		c0.81,0,1.457-0.108,1.943-0.216c1.079-0.216,1.349-1.403,1.564-2.968c0.271-2.267,0.271-6.531,0.271-11.496v-9.499
		c0-8.204,0-9.715-0.108-11.442c-0.107-1.835-0.54-2.698-2.32-3.076c-0.433-0.108-1.08-0.162-1.781-0.162
		c-0.594,0-0.918-0.108-0.918-0.486s0.378-0.486,1.188-0.486c2.537,0,5.937,0.162,7.395,0.162c1.295,0,5.234-0.162,7.34-0.162
		c0.755,0,1.133,0.108,1.133,0.486c0,0.377-0.323,0.486-0.972,0.486c-0.593,0-1.457,0.054-2.104,0.162
		c-1.457,0.27-1.889,1.188-1.997,3.076c-0.107,1.727-0.107,3.238-0.107,11.442v9.5H466.249z"/>
	<path fill="#0F2E46" d="M499.816,85.588c0-2.915-0.539-4.102-1.241-5.667c-0.378-0.863-7.609-12.737-9.499-15.543
		c-1.349-1.997-2.698-3.346-3.724-3.94c-0.701-0.377-1.619-0.701-2.267-0.701c-0.432,0-0.81-0.108-0.81-0.486
		c0-0.324,0.378-0.486,1.025-0.486c0.972,0,5.02,0.162,6.8,0.162c1.134,0,3.347-0.162,5.775-0.162c0.54,0,0.81,0.162,0.81,0.486
		s-0.378,0.377-1.188,0.594c-0.485,0.108-0.756,0.54-0.756,0.971s0.271,1.08,0.648,1.835c0.755,1.619,8.311,14.626,9.175,16.137
		c0.539-1.295,7.34-13.169,8.096-14.842c0.539-1.188,0.755-2.105,0.755-2.807c0-0.54-0.216-1.133-1.133-1.349
		c-0.486-0.108-0.972-0.216-0.972-0.54c0-0.378,0.27-0.486,0.917-0.486c1.781,0,3.509,0.162,5.073,0.162
		c1.188,0,4.75-0.162,5.775-0.162c0.594,0,0.972,0.108,0.972,0.432c0,0.378-0.433,0.54-1.025,0.54c-0.54,0-1.565,0.216-2.375,0.647
		c-1.134,0.54-1.728,1.188-2.915,2.645c-1.78,2.159-9.336,14.842-10.308,17.163c-0.81,1.943-0.81,3.616-0.81,5.397v4.426
		c0,0.863,0,3.13,0.162,5.397c0.107,1.565,0.594,2.752,2.212,2.968c0.756,0.108,1.943,0.216,2.699,0.216
		c0.594,0,0.863,0.162,0.863,0.432c0,0.378-0.432,0.54-1.134,0.54c-3.399,0-6.8-0.162-8.257-0.162c-1.35,0-4.75,0.162-6.746,0.162
		c-0.756,0-1.188-0.108-1.188-0.54c0-0.27,0.27-0.432,0.863-0.432c0.756,0,1.403-0.108,1.889-0.216
		c1.08-0.216,1.565-1.403,1.674-2.968c0.161-2.267,0.161-4.534,0.161-5.397v-4.426H499.816z"/>
	<path fill="#0F2E46" d="M121.45,132.938c0-8.204,0-9.715-0.108-11.442c-0.108-1.835-0.54-2.698-2.321-3.076
		c-0.432-0.108-1.349-0.162-2.104-0.162c-0.594,0-0.918-0.108-0.918-0.486s0.378-0.486,1.188-0.486c2.86,0,6.261,0.162,7.394,0.162
		c1.835,0,5.937-0.162,7.61-0.162c3.4,0,7.016,0.324,9.931,2.321c1.511,1.025,3.67,3.778,3.67,7.394
		c0,3.994-1.673,7.664-7.124,12.089c4.803,6.044,8.527,10.848,11.711,14.194c3.022,3.13,5.235,3.508,6.044,3.67
		c0.594,0.108,1.08,0.162,1.511,0.162c0.432,0,0.648,0.162,0.648,0.432c0,0.432-0.378,0.54-1.025,0.54h-5.127
		c-3.022,0-4.372-0.27-5.775-1.025c-2.321-1.242-4.372-3.778-7.394-7.934c-2.159-2.968-4.641-6.638-5.343-7.448
		c-0.27-0.324-0.594-0.378-0.972-0.378l-4.695-0.108c-0.27,0-0.432,0.108-0.432,0.432v0.755c0,5.019,0,9.283,0.27,11.55
		c0.162,1.565,0.486,2.752,2.105,2.968c0.81,0.108,1.997,0.216,2.645,0.216c0.432,0,0.648,0.162,0.648,0.432
		c0,0.378-0.378,0.54-1.08,0.54c-3.13,0-7.124-0.162-7.934-0.162c-1.025,0-4.426,0.162-6.584,0.162c-0.702,0-1.08-0.162-1.08-0.54
		c0-0.27,0.216-0.432,0.864-0.432c0.81,0,1.457-0.108,1.943-0.216c1.08-0.216,1.349-1.403,1.565-2.968
		c0.27-2.267,0.27-6.531,0.27-11.496L121.45,132.938L121.45,132.938z M127.819,137.202c0,0.594,0.108,0.81,0.486,0.972
		c1.133,0.377,2.752,0.54,4.102,0.54c2.159,0,2.86-0.216,3.832-0.917c1.619-1.188,3.184-3.67,3.184-8.096
		c0-7.664-5.073-9.876-8.257-9.876c-1.35,0-2.321,0.054-2.86,0.216c-0.378,0.108-0.486,0.324-0.486,0.755L127.819,137.202
		L127.819,137.202z"/>
	<path fill="#0F2E46" d="M160.145,132.938c0-8.204,0-9.715-0.108-11.442c-0.108-1.835-0.54-2.698-2.321-3.076
		c-0.432-0.108-1.349-0.162-2.104-0.162c-0.594,0-0.917-0.108-0.917-0.486s0.377-0.486,1.187-0.486c2.86,0,6.261,0.162,7.88,0.162
		c1.295,0,4.695-0.162,6.638-0.162c0.81,0,1.188,0.108,1.188,0.486c0,0.377-0.324,0.486-0.864,0.486
		c-0.593,0-0.917,0.054-1.565,0.162c-1.457,0.27-1.889,1.188-1.997,3.076c-0.108,1.727-0.108,3.238-0.108,11.442v7.556
		c0,7.826,1.565,11.118,4.21,13.277c2.429,1.997,4.911,2.213,6.746,2.213c2.375,0,5.289-0.756,7.448-2.915
		c2.969-2.968,3.13-7.826,3.13-13.385v-6.746c0-8.204,0-9.715-0.108-11.442c-0.108-1.835-0.54-2.698-2.321-3.076
		c-0.432-0.108-1.349-0.162-1.943-0.162s-0.917-0.108-0.917-0.486s0.378-0.486,1.133-0.486c2.752,0,6.153,0.162,6.207,0.162
		c0.648,0,4.048-0.162,6.153-0.162c0.755,0,1.133,0.108,1.133,0.486c0,0.377-0.324,0.486-0.971,0.486
		c-0.594,0-0.917,0.054-1.565,0.162c-1.457,0.27-1.889,1.188-1.997,3.076c-0.108,1.727-0.108,3.238-0.108,11.442v5.775
		c0,5.991-0.593,12.359-5.127,16.245c-3.832,3.292-7.718,3.886-11.226,3.886c-2.86,0-8.042-0.162-11.981-3.724
		c-2.753-2.482-4.804-6.476-4.804-14.302v-7.88H160.145z"/>
	<path fill="#0F2E46" d="M206.018,157.441c-0.864-0.377-1.025-0.647-1.025-1.835c0-2.968,0.216-6.207,0.27-7.07
		c0.054-0.81,0.216-1.403,0.648-1.403c0.486,0,0.54,0.486,0.54,0.917c0,0.702,0.216,1.835,0.486,2.752
		c1.188,3.994,4.372,5.451,7.718,5.451c4.857,0,7.232-3.292,7.232-6.153c0-2.645-0.81-5.127-5.289-8.635l-2.482-1.943
		c-5.937-4.642-7.988-8.419-7.988-12.791c0-5.937,4.965-10.2,12.467-10.2c3.508,0,5.775,0.54,7.178,0.917
		c0.486,0.108,0.756,0.27,0.756,0.647c0,0.702-0.216,2.267-0.216,6.477c0,1.187-0.162,1.619-0.594,1.619
		c-0.378,0-0.54-0.324-0.54-0.972c0-0.486-0.27-2.159-1.403-3.562c-0.81-1.025-2.375-2.645-5.883-2.645
		c-3.994,0-6.422,2.321-6.422,5.559c0,2.482,1.241,4.372,5.721,7.771l1.511,1.133c6.53,4.912,8.851,8.635,8.851,13.763
		c0,3.13-1.188,6.854-5.073,9.391c-2.699,1.727-5.721,2.213-8.582,2.213C210.767,158.844,208.338,158.466,206.018,157.441z"/>
	<path fill="#0F2E46" d="M237.966,157.441c-0.864-0.377-1.025-0.647-1.025-1.835c0-2.968,0.216-6.207,0.27-7.07
		c0.054-0.81,0.216-1.403,0.648-1.403c0.486,0,0.54,0.486,0.54,0.917c0,0.702,0.216,1.835,0.486,2.752
		c1.188,3.994,4.372,5.451,7.718,5.451c4.857,0,7.232-3.292,7.232-6.153c0-2.645-0.81-5.127-5.289-8.635l-2.482-1.943
		c-5.937-4.642-7.988-8.419-7.988-12.791c0-5.937,4.965-10.2,12.467-10.2c3.508,0,5.775,0.54,7.178,0.917
		c0.486,0.108,0.756,0.27,0.756,0.647c0,0.702-0.216,2.267-0.216,6.477c0,1.187-0.162,1.619-0.594,1.619
		c-0.378,0-0.54-0.324-0.54-0.972c0-0.486-0.27-2.159-1.403-3.562c-0.81-1.025-2.375-2.645-5.883-2.645
		c-3.994,0-6.422,2.321-6.422,5.559c0,2.482,1.241,4.372,5.721,7.771l1.511,1.133c6.53,4.912,8.851,8.635,8.851,13.763
		c0,3.13-1.188,6.854-5.073,9.391c-2.699,1.727-5.721,2.213-8.582,2.213C242.716,158.844,240.287,158.466,237.966,157.441z"/>
	<path fill="#0F2E46" d="M272.883,132.938c0-8.204,0-9.715-0.108-11.442c-0.108-1.835-0.647-2.752-1.835-3.022
		c-0.594-0.162-1.295-0.216-1.943-0.216c-0.54,0-0.864-0.108-0.864-0.54c0-0.324,0.432-0.432,1.295-0.432
		c2.051,0,5.451,0.162,7.016,0.162c1.349,0,4.534-0.162,6.584-0.162c0.702,0,1.133,0.108,1.133,0.432c0,0.432-0.324,0.54-0.863,0.54
		c-0.54,0-0.972,0.054-1.619,0.162c-1.458,0.27-1.889,1.188-1.997,3.076c-0.108,1.727-0.108,3.238-0.108,11.442v9.499
		c0,5.235,0,9.499,0.216,11.819c0.162,1.457,0.54,2.429,2.159,2.645c0.756,0.108,1.943,0.216,2.752,0.216
		c0.594,0,0.864,0.162,0.864,0.432c0,0.378-0.432,0.54-1.025,0.54c-3.562,0-6.962-0.162-8.419-0.162c-1.241,0-4.642,0.162-6.8,0.162
		c-0.702,0-1.08-0.162-1.08-0.54c0-0.27,0.216-0.432,0.864-0.432c0.81,0,1.457-0.108,1.943-0.216
		c1.08-0.216,1.403-1.133,1.565-2.699c0.27-2.267,0.27-6.53,0.27-11.765L272.883,132.938L272.883,132.938z"/>
	<path fill="#0F2E46" d="M299.975,144.326c-0.27,0-0.377,0.108-0.485,0.432l-2.915,7.394c-0.54,1.349-0.81,2.645-0.81,3.292
		c0,0.971,0.486,1.673,2.159,1.673h0.81c0.648,0,0.81,0.108,0.81,0.432c0,0.432-0.324,0.54-0.917,0.54
		c-1.727,0-4.048-0.162-5.721-0.162c-0.594,0-3.562,0.162-6.369,0.162c-0.702,0-1.025-0.108-1.025-0.54
		c0-0.324,0.216-0.432,0.647-0.432c0.486,0,1.242-0.054,1.673-0.108c2.482-0.324,3.508-2.159,4.587-4.857l13.546-33.461
		c0.648-1.565,0.972-2.159,1.511-2.159c0.486,0,0.81,0.485,1.35,1.727c1.295,2.968,9.93,24.556,13.384,32.76
		c2.051,4.857,3.616,5.613,4.75,5.883c0.81,0.162,1.619,0.216,2.267,0.216c0.432,0,0.702,0.054,0.702,0.432
		c0,0.432-0.486,0.54-2.482,0.54c-1.943,0-5.883,0-10.201-0.108c-0.971-0.054-1.619-0.054-1.619-0.432
		c0-0.324,0.216-0.432,0.756-0.485c0.378-0.108,0.755-0.594,0.486-1.242l-4.318-11.118c-0.108-0.27-0.27-0.378-0.54-0.378h-12.036
		V144.326z M310.985,141.628c0.27,0,0.324-0.162,0.27-0.324l-4.857-13.276c-0.054-0.216-0.108-0.486-0.27-0.486
		s-0.27,0.27-0.324,0.486l-4.965,13.223c-0.054,0.216,0,0.378,0.216,0.378h9.93V141.628z"/>
</g>
</svg>
